<?xml version="1.0" encoding="UTF-8" standalone="no"?><!DOCTYPE svg PUBLIC "-//W3C//DTD SVG 1.1//EN" "http://www.w3.org/Graphics/SVG/1.1/DTD/svg11.dtd"><svg width="100%" height="100%" viewBox="0 0 1442 981" version="1.1" xmlns="http://www.w3.org/2000/svg" xmlns:xlink="http://www.w3.org/1999/xlink" xml:space="preserve" xmlns:serif="http://www.serif.com/" style="fill-rule:evenodd;clip-rule:evenodd;stroke-linecap:round;stroke-linejoin:round;stroke-miterlimit:1.5;"><rect x="0" y="0" width="1441.86" height="980.175" style="fill:#fff;"/><g><path d="M494.74,555.843l-154.235,0c-13.477,0 -26.401,5.354 -35.931,14.883c-9.529,9.53 -14.883,22.455 -14.883,35.931l-0,300.819l205.049,0l0,-351.633Z" style="fill:#e2e2e2;stroke:#545454;stroke-width:4.17px;"/><path d="M291.612,609.414c37.167,-22.032 31.048,-38.749 35.743,-50.868" style="fill:#e2e2e2;stroke:#545454;stroke-width:4.17px;"/></g><text x="149.469px" y="497.937px" style="font-family:'Consolas', monospace;font-size:62.5px;">my_conï¬g.brink</text><rect x="1101.56" y="178.546" width="205.049" height="767.363" style="fill:#b4b4b4;"/><g><g><rect x="1101.56" y="299.519" width="205.049" height="184.922" style="fill:#d6e8fd;stroke:#0d79f2;stroke-width:6.25px;"/><text x="1187.41px" y="409.888px" style="font-family:'ArialMT', 'Arial', sans-serif;font-size:50px;fill:#0078b3;">A</text></g></g><g><rect x="1101.56" y="577.028" width="205.049" height="184.922" style="fill:#d6e8fd;stroke:#0d79f2;stroke-width:6.25px;"/><text x="1187.41px" y="687.397px" style="font-family:'ArialMT', 'Arial', sans-serif;font-size:50px;fill:#0078b3;">B</text></g><g><g><rect x="1101.56" y="760.987" width="205.049" height="184.922" style="fill:#d6e8fd;stroke:#0d79f2;stroke-width:6.25px;"/><text x="1186.03px" y="871.356px" style="font-family:'ArialMT', 'Arial', sans-serif;font-size:50px;fill:#0078b3;">C</text></g></g><g><rect x="1101.56" y="178.546" width="205.049" height="50.382" style="fill:#fef1e6;stroke:#f2780d;stroke-width:6.25px;"/><text x="1139.94px" y="215.236px" style="font-family:'Consolas', monospace;font-size:33.333px;fill:#f2780d;">Stuff 1</text></g><g><rect x="289.691" y="658.356" width="205.049" height="50.382" style="fill:#fef1e6;stroke:#f2780d;stroke-width:6.25px;"/><text x="328.072px" y="695.047px" style="font-family:'Consolas', monospace;font-size:33.333px;fill:#f2780d;">Stuff 1</text></g><g><rect x="1101.56" y="228.928" width="205.049" height="50.382" style="fill:#fef1e6;stroke:#f2780d;stroke-width:6.25px;"/><text x="1139.94px" y="266.76px" style="font-family:'Consolas', monospace;font-size:33.333px;fill:#f2780d;">Stuff 2</text></g><g><rect x="289.691" y="708.739" width="205.049" height="50.382" style="fill:#fef1e6;stroke:#f2780d;stroke-width:6.25px;"/><text x="328.072px" y="746.57px" style="font-family:'Consolas', monospace;font-size:33.333px;fill:#f2780d;">Stuff 2</text></g><g><g><rect x="1101.56" y="484.441" width="205.049" height="92.587" style="fill:#fef1e6;stroke:#f2780d;stroke-width:6.25px;"/><g transform="matrix(1,0,0,1,365.12,77.1143)"><text x="783.983px" y="445.604px" style="font-family:'Consolas', monospace;font-size:33.333px;fill:#f2780d;">Binary</text><text x="802.31px" y="484.634px" style="font-family:'Consolas', monospace;font-size:33.333px;fill:#f2780d;">Blob</text></g></g></g><g><g><rect x="289.691" y="814.89" width="205.049" height="92.587" style="fill:#fef1e6;stroke:#f2780d;stroke-width:6.25px;"/><text x="355.562px" y="872.682px" style="font-family:'Consolas', monospace;font-size:33.333px;fill:#f2780d;">Data</text></g></g><g transform="matrix(1,0,0,1,-708.161,-311.322)"><text x="736.439px" y="539.473px" style="font-family:'ComicSansMS', 'Comic Sans MS', cursive;font-size:62.5px;">You need to merge your</text><text x="736.439px" y="601.973px" style="font-family:'ComicSansMS', 'Comic Sans MS', cursive;font-size:62.5px;">own generated strings and</text><text x="736.439px" y="664.473px" style="font-family:'ComicSansMS', 'Comic Sans MS', cursive;font-size:62.5px;">data into the output.</text></g><text x="1031.26px" y="117.566px" style="font-family:'Consolas', monospace;font-size:62.5px;">output.bin</text><path d="M1067.17,169.268l34.384,9.278l-33.074,13.208l-1.31,-22.486Z" style="fill:#f2780d;"/><path d="M494.74,658.356c285.712,-1.62 330.661,-448.325 579.836,-478.238" style="fill:none;stroke:#f2780d;stroke-width:2.98px;"/><path d="M1067.36,480.15l34.199,9.937l-33.322,12.57l-0.877,-22.507Z" style="fill:#f2780d;"/><path d="M494.74,814.89c285.702,-1.62 330.658,-303.621 579.811,-323.75" style="fill:none;stroke:#f2780d;stroke-width:2.98px;"/></svg>