<?xml version="1.0" encoding="UTF-8" standalone="no"?>
<svg
   width="100%"
   height="100%"
   viewBox="0 0 1442 981"
   version="1.1"
   xml:space="preserve"
   style="fill-rule:evenodd;clip-rule:evenodd;stroke-linecap:round;stroke-linejoin:round;stroke-miterlimit:1.5;"
   id="svg22"
   xmlns="http://www.w3.org/2000/svg"
   xmlns:svg="http://www.w3.org/2000/svg"><defs
     id="defs22" /><rect
     x="0"
     y="0"
     width="1441.86"
     height="980.175"
     style="fill:#fff;"
     id="rect1" /><g
     id="g2"><path
       d="M494.74,555.843l-154.235,0c-13.477,0 -26.401,5.354 -35.931,14.883c-9.529,9.53 -14.883,22.455 -14.883,35.931l-0,300.819l205.049,0l0,-351.633Z"
       style="fill:#e2e2e2;stroke:#545454;stroke-width:4.17px;"
       id="path1" /><path
       d="M291.612,609.414c37.167,-22.032 31.048,-38.749 35.743,-50.868"
       style="fill:#e2e2e2;stroke:#545454;stroke-width:4.17px;"
       id="path2" /></g><path
     d="m 176.20239,497.93701 v -22.00317 q 0,-1.43433 -0.12207,-2.34986 -0.0916,-0.91552 -0.33569,-1.43432 -0.21362,-0.54932 -0.57984,-0.76294 -0.33569,-0.21362 -0.85449,-0.21362 -0.61035,0 -1.12915,0.36621 -0.5188,0.36621 -1.12915,1.19018 -0.57983,0.82398 -1.31225,2.19727 -0.70191,1.34277 -1.67847,3.32641 v 19.68384 h -4.8523 v -21.42334 q 0,-1.67846 -0.12207,-2.71606 -0.0915,-1.0376 -0.33569,-1.61743 -0.21362,-0.57984 -0.57983,-0.79346 -0.36621,-0.21362 -0.88501,-0.21362 -0.54932,0 -1.0376,0.30517 -0.48828,0.30518 -1.09863,1.09863 -0.57984,0.79346 -1.31226,2.16675 -0.73242,1.37329 -1.7395,3.50952 v 19.68384 h -4.88281 v -30.63965 h 4.05883 l 0.24414,5.82886 q 0.79346,-1.7395 1.52588,-2.9602 0.76294,-1.22071 1.5564,-1.95313 0.79346,-0.76294 1.67847,-1.09863 0.91552,-0.36621 2.01416,-0.36621 2.47192,0 3.75366,1.61743 1.28174,1.61743 1.28174,5.00488 0.73242,-1.58691 1.43432,-2.80762 0.70191,-1.25122 1.49536,-2.07519 0.82398,-0.85449 1.80054,-1.28174 0.97656,-0.45776 2.2583,-0.45776 5.76783,0 5.76783,8.88061 v 22.30835 z m 39.76441,-30.63965 -10.43701,27.40479 q -1.61744,4.18091 -3.35694,7.20215 -1.70898,3.02124 -3.75366,4.94384 -2.04468,1.95313 -4.48608,2.86866 -2.44141,0.91552 -5.46265,0.91552 -0.79346,0 -1.43433,-0.0305 -0.64087,-0.0305 -1.40381,-0.0916 v -4.82177 q 0.67139,0.0915 1.46485,0.15258 0.79345,0.0916 1.67846,0.0916 1.46485,0 2.71607,-0.42725 1.28174,-0.42725 2.41089,-1.40381 1.12915,-0.94604 2.16675,-2.47192 1.03759,-1.52588 2.01416,-3.69263 l -12.23755,-30.63965 h 6.04248 l 7.75146,20.26368 1.5564,4.76074 1.77002,-4.88282 7.17163,-20.1416 z m 36.59057,43.15186 h -34.36279 v -4.39453 h 34.36279 z m 28.68653,-13.64136 q -2.0752,0.79346 -4.27246,1.15967 -2.16675,0.39673 -4.48609,0.39673 -7.26318,0 -11.19995,-3.93677 -3.90625,-3.93677 -3.90625,-11.50513 0,-3.63159 1.12915,-6.59179 1.12915,-2.96021 3.17383,-5.06592 2.04468,-2.10571 4.88281,-3.23486 2.83814,-1.15967 6.2561,-1.15967 2.38038,0 4.45557,0.33569 2.0752,0.33569 3.96729,1.09863 v 5.06592 q -1.98365,-1.0376 -4.05884,-1.49536 -2.04468,-0.48828 -4.24194,-0.48828 -2.04468,0 -3.87574,0.79346 -1.80053,0.76294 -3.17383,2.22778 -1.37329,1.46484 -2.16674,3.57056 -0.79346,2.10571 -0.79346,4.76074 0,5.5542 2.68555,8.3313 2.71606,2.74658 7.50732,2.74658 2.16675,0 4.18091,-0.48828 2.04468,-0.48828 3.93677,-1.46485 z m 37.23144,-14.43481 q 0,3.57055 -1.00708,6.56128 -1.00708,2.9602 -2.89917,5.09643 -1.89209,2.10571 -4.60815,3.2959 -2.71607,1.15967 -6.16455,1.15967 -3.2959,0 -5.92041,-1.00708 -2.594,-1.0376 -4.42505,-3.02124 -1.80054,-1.98364 -2.7771,-4.91333 -0.94605,-2.92969 -0.94605,-6.74439 0,-3.57055 1.00708,-6.50024 1.00708,-2.96021 2.89917,-5.06592 1.89209,-2.13623 4.60816,-3.2959 2.71606,-1.19018 6.16455,-1.19018 3.2959,0 5.88989,1.03759 2.62451,1.00708 4.42505,2.99073 1.83105,1.95312 2.7771,4.88281 0.97656,2.92969 0.97656,6.71387 z m -5.43213,0.24414 q 0,-2.83814 -0.64087,-4.94385 -0.61035,-2.13623 -1.77002,-3.54004 -1.15966,-1.43433 -2.83813,-2.13623 -1.64795,-0.73242 -3.69263,-0.73242 -2.38037,0 -4.08935,0.94604 -1.67847,0.91553 -2.7771,2.47193 -1.06812,1.55639 -1.58692,3.63159 -0.48828,2.04468 -0.48828,4.30298 0,2.83813 0.61035,4.97436 0.64087,2.13623 1.80054,3.57056 1.15967,1.40381 2.80762,2.13623 1.64795,0.7019 3.72314,0.7019 2.38037,0 4.05884,-0.91552 1.70898,-0.94605 2.7771,-2.50244 1.09863,-1.5564 1.58691,-3.60108 0.5188,-2.07519 0.5188,-4.36401 z m 13.12256,-15.31983 h 4.73023 l 0.21362,4.94385 q 1.34277,-1.58691 2.59399,-2.62451 1.25122,-1.06812 2.44141,-1.70899 1.2207,-0.64086 2.47192,-0.885 1.25122,-0.27466 2.594,-0.27466 4.73022,0 7.14111,2.80761 2.44141,2.7771 2.44141,8.39234 v 19.98901 h -5.31006 v -19.56177 q 0,-3.60107 -1.34278,-5.31005 -1.34277,-1.73951 -3.9978,-1.73951 -0.97656,0 -1.92261,0.30518 -0.91552,0.27466 -1.9226,1.00708 -1.00708,0.7019 -2.19727,1.92261 -1.15967,1.2207 -2.62451,3.05175 v 20.32471 h -5.31006 z m 58.86841,30.63965 h -5.34058 v -23.13232 h -11.87133 v 23.13232 h -5.31006 v -23.13232 h -5.43213 v -4.42505 h 5.43213 v -3.69263 q 0,-6.13403 3.479,-9.18579 3.50952,-3.05176 10.4065,-3.05176 1.61743,0 3.6621,0.27466 2.04468,0.24414 3.96729,0.70191 v 4.57763 q -1.83106,-0.5188 -3.90625,-0.82397 -2.0752,-0.30518 -3.90625,-0.30518 -4.08936,0 -6.2561,1.86157 -2.13623,1.86158 -2.13623,5.64576 v 3.9978 h 17.21191 z m -29.38843,-30.63965 z m 61.30982,4.3335 q 0.85449,1.06811 1.31225,2.50244 0.48828,1.40381 0.48828,3.05176 0,2.38037 -0.88501,4.36401 -0.85449,1.95313 -2.4414,3.35694 -1.58692,1.4038 -3.8147,2.19726 -2.19727,0.76294 -4.85229,0.76294 -1.92261,0 -3.60108,-0.39673 -1.67847,-0.42724 -2.65503,-1.0376 -0.57983,0.8545 -0.97656,1.61744 -0.39673,0.76294 -0.39673,1.70898 0,1.15967 1.09863,1.92261 1.12915,0.76294 2.96021,0.82397 l 8.05664,0.30518 q 2.28882,0.061 4.21143,0.57983 1.95312,0.5188 3.32641,1.49536 1.40381,0.97657 2.16675,2.41089 0.79346,1.43433 0.79346,3.32642 0,2.04468 -0.88501,3.87573 -0.88501,1.83106 -2.74659,3.20435 -1.83105,1.40381 -4.66919,2.22778 -2.83813,0.82397 -6.74438,0.82397 -3.72314,0 -6.34766,-0.61035 -2.59399,-0.57983 -4.27246,-1.64795 -1.67846,-1.03759 -2.4414,-2.50244 -0.76294,-1.43432 -0.76294,-3.17383 0,-2.22778 1.03759,-3.90625 1.0376,-1.67846 3.20435,-3.23486 -0.79346,-0.36621 -1.37329,-0.91553 -0.57983,-0.54931 -0.94605,-1.19018 -0.36621,-0.67139 -0.54931,-1.40381 -0.18311,-0.73242 -0.18311,-1.43433 0,-1.98364 0.91553,-3.63159 0.94605,-1.64795 2.22778,-3.11279 -0.57983,-0.70191 -1.03759,-1.37329 -0.42725,-0.67139 -0.76294,-1.43433 -0.30518,-0.79346 -0.48829,-1.67847 -0.15258,-0.91552 -0.15258,-2.07519 0,-2.38037 0.85449,-4.3335 0.88501,-1.98364 2.44141,-3.38745 1.58691,-1.40381 3.78418,-2.16675 2.22778,-0.79345 4.91333,-0.79345 1.12915,0 2.16674,0.15258 1.0376,0.15259 1.83106,0.39673 h 11.1084 v 4.3335 z m -18.43262,30.7312 q 0,2.16675 2.2583,3.14331 2.2583,1.00708 6.28662,1.00708 2.53296,0 4.24194,-0.45776 1.73951,-0.45777 2.7771,-1.22071 1.06812,-0.73242 1.52588,-1.70898 0.45777,-0.94604 0.45777,-1.95313 0,-1.86157 -1.52588,-2.74658 -1.52588,-0.88501 -4.66919,-1.03759 l -7.99561,-0.27466 q -1.00708,0.67138 -1.67846,1.31225 -0.64087,0.64087 -1.00708,1.28174 -0.36622,0.67139 -0.5188,1.31226 -0.15259,0.67138 -0.15259,1.34277 z m 1.61743,-25.05493 q 0,1.46484 0.48828,2.68555 0.48828,1.2207 1.37329,2.07519 0.88501,0.85449 2.0752,1.34277 1.2207,0.45777 2.68555,0.45777 1.58691,0 2.80761,-0.5188 1.25122,-0.54932 2.0752,-1.46484 0.85449,-0.91553 1.28174,-2.10572 0.45776,-1.19018 0.45776,-2.47192 0,-1.46484 -0.48828,-2.68555 -0.48828,-1.2207 -1.37329,-2.07519 -0.88501,-0.8545 -2.10572,-1.31226 -1.19018,-0.48828 -2.65502,-0.48828 -1.58692,0 -2.83814,0.54932 -1.2207,0.54931 -2.07519,1.46484 -0.82398,0.88501 -1.28174,2.0752 -0.42725,1.19018 -0.42725,2.47192 z m 41.16821,11.01684 q 1.0376,0 1.95313,0.39673 0.94604,0.39673 1.61743,1.09864 0.7019,0.7019 1.09863,1.64795 0.39673,0.91552 0.39673,1.98364 0,1.0376 -0.39673,1.95312 -0.39673,0.91553 -1.09863,1.61743 -0.67139,0.67139 -1.61743,1.06812 -0.91553,0.39673 -1.95313,0.39673 -1.06811,0 -1.98364,-0.39673 -0.91553,-0.39673 -1.61743,-1.06812 -0.67139,-0.7019 -1.06812,-1.61743 -0.39672,-0.91552 -0.39672,-1.95312 0,-1.06812 0.39672,-1.98364 0.39673,-0.94605 1.06812,-1.64795 0.7019,-0.70191 1.61743,-1.09864 0.91553,-0.39673 1.98364,-0.39673 z m 48.49244,-6.2561 q 0,3.8147 -1.06812,6.83594 -1.0376,2.99072 -2.99072,5.09643 -1.92261,2.0752 -4.69971,3.20435 -2.7771,1.09863 -6.2561,1.09863 -2.71607,0 -5.5542,-0.5188 -2.83814,-0.5188 -5.61524,-1.64795 v -41.3208 h 5.31006 v 11.87134 l -0.24414,5.67627 q 2.28882,-3.08227 4.88281,-4.33349 2.62452,-1.28174 5.61524,-1.28174 2.62451,0 4.60815,1.09863 1.98365,1.09863 3.32642,3.11279 1.34277,1.98365 2.01416,4.82178 0.67139,2.80762 0.67139,6.28662 z m -5.43213,0.24414 q 0,-2.41089 -0.36621,-4.42505 -0.3357,-2.01416 -1.09864,-3.44848 -0.76294,-1.43433 -1.95312,-2.22779 -1.19019,-0.82397 -2.83814,-0.82397 -1.00708,0 -2.04467,0.33569 -1.0376,0.30518 -2.16675,1.06812 -1.09864,0.73242 -2.34986,1.98364 -1.2207,1.2207 -2.62451,3.05176 v 14.86206 q 1.5564,0.61035 3.17383,0.97656 1.61743,0.33569 3.08228,0.33569 1.83105,0 3.479,-0.57983 1.67847,-0.57983 2.92969,-1.92261 1.28174,-1.37329 2.01416,-3.60107 0.76294,-2.2583 0.76294,-5.58472 z m 14.86206,-15.01465 h 4.85229 l 0.15259,5.64576 q 2.71606,-3.26539 5.34058,-4.73023 2.65503,-1.46484 5.34057,-1.46484 4.76074,0 7.20215,3.08227 2.47192,3.08228 2.28882,9.15528 h -5.37109 q 0.0915,-4.02832 -1.19019,-5.82886 -1.25122,-1.83106 -3.69263,-1.83106 -1.06811,0 -2.16675,0.39673 -1.06811,0.36621 -2.22778,1.22071 -1.12915,0.82397 -2.41089,2.13623 -1.28174,1.31225 -2.74658,3.17382 v 19.68384 h -5.37109 z m 43.54858,4.39453 h -9.06372 v -4.39453 h 14.43481 v 26.2146 h 9.12476 v 4.42505 h -24.56665 v -4.42505 h 10.0708 z m 1.86157,-17.24243 q 0.88501,0 1.64795,0.3357 0.76294,0.30517 1.31226,0.88501 0.57983,0.57983 0.88501,1.34277 0.33569,0.73242 0.33569,1.61743 0,0.85449 -0.33569,1.61743 -0.30518,0.76294 -0.88501,1.34278 -0.54932,0.57983 -1.31226,0.91552 -0.76294,0.30518 -1.64795,0.30518 -0.88501,0 -1.64795,-0.30518 -0.76294,-0.33569 -1.34277,-0.91552 -0.54932,-0.57984 -0.88501,-1.34278 -0.30517,-0.76294 -0.30517,-1.61743 0,-0.88501 0.30517,-1.61743 0.33569,-0.76294 0.88501,-1.34277 0.57983,-0.57984 1.34277,-0.88501 0.76294,-0.3357 1.64795,-0.3357 z m 22.06421,12.8479 h 4.73023 l 0.21362,4.94385 q 1.34277,-1.58691 2.59399,-2.62451 1.25122,-1.06812 2.44141,-1.70899 1.2207,-0.64086 2.47192,-0.885 1.25122,-0.27466 2.594,-0.27466 4.73022,0 7.14111,2.80761 2.44141,2.7771 2.44141,8.39234 v 19.98901 h -5.31006 v -19.56177 q 0,-3.60107 -1.34277,-5.31005 -1.34278,-1.73951 -3.99781,-1.73951 -0.97656,0 -1.9226,0.30518 -0.91553,0.27466 -1.92261,1.00708 -1.00708,0.7019 -2.19727,1.92261 -1.15967,1.2207 -2.62451,3.05175 v 20.32471 h -5.31006 z m 61.92017,30.63965 h -7.2937 l -14.28223,-16.41846 v 16.41846 h -5.31006 v -43.12134 h 5.31006 v 26.48926 l 13.76343,-14.00757 h 7.01904 L 613.45825,481.427 Z"
     id="text2"
     style="font-size:62.5px;font-family:Consolas, monospace"
     aria-label="my_conﬁg.brink" /><rect
     x="1101.56"
     y="178.546"
     width="205.049"
     height="767.363"
     style="fill:#b4b4b4;"
     id="rect2" /><g
     id="g4"><g
       id="g3"><rect
         x="1101.56"
         y="299.519"
         width="205.049"
         height="184.922"
         style="fill:#d6e8fd;stroke:#0d79f2;stroke-width:6.25px;"
         id="rect3" /><path
         d="m 1187.3368,409.888 13.7451,-35.79102 h 5.1025 l 14.6485,35.79102 h -5.3955 l -4.1748,-10.83984 h -14.9658 l -3.9307,10.83984 z m 10.3271,-14.69727 h 12.1338 l -3.7353,-9.9121 q -1.709,-4.51661 -2.5391,-7.42188 -0.6836,3.44238 -1.9287,6.83594 z"
         id="text3"
         style="font-size:50px;font-family:ArialMT, Arial, sans-serif;fill:#0078b3"
         aria-label="A" /></g></g><g
     id="g5"><rect
       x="1101.56"
       y="577.028"
       width="205.049"
       height="184.922"
       style="fill:#d6e8fd;stroke:#0d79f2;stroke-width:6.25px;"
       id="rect4" /><path
       d="m 1191.0721,687.39697 v -35.79101 h 13.4278 q 4.1015,0 6.5674,1.09863 2.4902,1.07422 3.8818,3.34473 1.416,2.24609 1.416,4.71191 0,2.29492 -1.2451,4.32129 -1.2451,2.02637 -3.7598,3.27148 3.2471,0.95215 4.9805,3.24707 1.7578,2.29493 1.7578,5.41993 0,2.51464 -1.0742,4.6875 -1.0498,2.14843 -2.6123,3.32031 -1.5625,1.17187 -3.9307,1.78223 -2.3437,0.58593 -5.7617,0.58593 z m 4.7364,-20.75195 h 7.7392 q 3.1494,0 4.5166,-0.41504 1.8067,-0.53711 2.71,-1.78223 0.9277,-1.24511 0.9277,-3.125 0,-1.78222 -0.8545,-3.125 -0.8545,-1.36718 -2.4414,-1.85546 -1.5869,-0.5127 -5.4443,-0.5127 h -7.1533 z m 0,16.52832 h 8.9111 q 2.2949,0 3.2227,-0.1709 1.6357,-0.29297 2.7343,-0.97656 1.0987,-0.68359 1.8067,-1.97754 0.708,-1.31836 0.708,-3.02734 0,-2.00196 -1.0254,-3.4668 -1.0254,-1.48926 -2.8565,-2.0752 -1.8066,-0.61035 -5.2246,-0.61035 h -8.2763 z"
       id="text4"
       style="font-size:50px;font-family:ArialMT, Arial, sans-serif;fill:#0078b3"
       aria-label="B" /></g><g
     id="g7"><g
       id="g6"><rect
         x="1101.56"
         y="760.987"
         width="205.049"
         height="184.922"
         style="fill:#d6e8fd;stroke:#0d79f2;stroke-width:6.25px;"
         id="rect5" /><path
         d="m 1215.4246,858.80719 4.7363,1.19629 q -1.4893,5.83496 -5.3711,8.91113 -3.8574,3.05176 -9.4482,3.05176 -5.7862,0 -9.4239,-2.34375 -3.6133,-2.36816 -5.5176,-6.83594 -1.8798,-4.46777 -1.8798,-9.59472 0,-5.59082 2.124,-9.74122 2.1484,-4.1748 6.0791,-6.32324 3.9551,-2.17285 8.6914,-2.17285 5.3711,0 9.0332,2.73438 3.6621,2.73437 5.1025,7.69043 l -4.663,1.09863 q -1.2452,-3.90625 -3.6133,-5.68848 -2.3682,-1.78222 -5.9571,-1.78222 -4.1259,0 -6.9091,1.97753 -2.7588,1.97754 -3.8819,5.32227 -1.123,3.32031 -1.123,6.86035 0,4.56543 1.3183,7.9834 1.3428,3.39355 4.1504,5.07812 2.8076,1.68458 6.0791,1.68458 3.9795,0 6.7383,-2.29493 2.7588,-2.29492 3.7354,-6.81152 z"
         id="text5"
         style="font-size:50px;font-family:ArialMT, Arial, sans-serif;fill:#0078b3"
         aria-label="C" /></g></g><g
     id="g8"><rect
       x="1101.56"
       y="178.546"
       width="205.049"
       height="50.382"
       style="fill:#fef1e6;stroke:#f2780d;stroke-width:6.25px;"
       id="rect7" /><path
       d="m 1156.167,209.47433 q 0,1.51366 -0.6185,2.65297 -0.6185,1.13931 -1.7252,1.90428 -1.1068,0.74869 -2.6693,1.12303 -1.5462,0.37435 -3.4179,0.37435 -0.8464,0 -1.6927,-0.0651 -0.8301,-0.0651 -1.6113,-0.16275 -0.765,-0.0977 -1.4486,-0.22787 -0.6836,-0.1302 -1.2369,-0.27669 v -2.79945 q 1.2207,0.45573 2.7343,0.71614 1.5299,0.26042 3.4668,0.26042 1.3997,0 2.3763,-0.21159 0.9928,-0.22786 1.6113,-0.65104 0.6347,-0.43945 0.9114,-1.05793 0.293,-0.61848 0.293,-1.416 0,-0.86262 -0.4883,-1.46483 -0.472,-0.61848 -1.2532,-1.09048 -0.7813,-0.48828 -1.7904,-0.8789 -0.9928,-0.4069 -2.0345,-0.83007 -1.0416,-0.42317 -2.0507,-0.91145 -0.9929,-0.50455 -1.7741,-1.17186 -0.7812,-0.68359 -1.2695,-1.59504 -0.472,-0.91145 -0.472,-2.16469 0,-1.09048 0.4557,-2.14842 0.4557,-1.05793 1.416,-1.87172 0.9603,-0.83007 2.4577,-1.33462 1.5136,-0.50456 3.5969,-0.50456 0.5371,0 1.1556,0.0488 0.6348,0.0488 1.2695,0.14648 0.6511,0.0814 1.2696,0.19531 0.6347,0.11394 1.1718,0.24414 v 2.60414 q -1.2532,-0.35807 -2.5065,-0.5371 -1.2532,-0.19531 -2.4251,-0.19531 -2.4902,0 -3.662,0.83007 -1.1719,0.83007 -1.1719,2.22979 0,0.86262 0.472,1.48111 0.4883,0.61848 1.2695,1.10676 0.7813,0.48827 1.7741,0.89517 1.0091,0.39062 2.0507,0.8138 1.0417,0.42317 2.0345,0.92772 1.0091,0.50455 1.7904,1.20442 0.7812,0.68358 1.2532,1.61131 0.4883,0.92772 0.4883,2.19724 z m 17.8709,5.5338 q -0.9603,0.24414 -1.9856,0.34179 -1.0254,0.11393 -2.0834,0.11393 -3.0761,0 -4.5898,-1.38344 -1.5136,-1.39973 -1.5136,-4.28056 v -8.52856 h -4.5735 v -2.37628 h 4.5735 v -4.49214 l 2.832,-0.73242 v 5.22456 h 7.3404 v 2.37628 h -7.3404 v 8.3007 q 0,1.75779 0.9277,2.63669 0.944,0.86262 2.7669,0.86262 0.7813,0 1.709,-0.11393 0.9277,-0.13021 1.9368,-0.39062 z m 18.2941,0.22786 h -2.539 l -0.098,-2.63669 q -0.7324,0.84635 -1.3997,1.416 -0.6511,0.55338 -1.3021,0.89517 -0.651,0.3418 -1.3183,0.47201 -0.6511,0.14648 -1.3835,0.14648 -2.5228,0 -3.8085,-1.48111 -1.2858,-1.4811 -1.2858,-4.47586 v -10.67698 h 2.832 v 10.44911 q 0,3.75973 2.832,3.75973 0.5208,0 1.0091,-0.14648 0.5045,-0.16276 1.0416,-0.5371 0.5534,-0.39063 1.1719,-1.04166 0.6347,-0.65104 1.416,-1.64386 v -10.83974 h 2.832 z m 19.6938,-20.36112 q -2.2298,-0.472 -3.8411,-0.472 -3.8248,0 -3.8248,4.00386 v 2.86456 h 7.1614 v 2.36 h -7.1614 v 11.6047 h -2.8809 v -11.6047 h -5.2571 v -2.36 h 5.2571 v -2.7018 q 0,-6.52663 6.8034,-6.52663 1.6926,0 3.7434,0.39063 z m -17.1059,4.02014 z m 35.4325,-4.02014 q -2.2297,-0.472 -3.8411,-0.472 -3.8248,0 -3.8248,4.00386 v 2.86456 h 7.1614 v 2.36 h -7.1614 v 11.6047 h -2.8808 v -11.6047 h -5.2571 v -2.36 h 5.2571 v -2.7018 q 0,-6.52663 6.8033,-6.52663 1.6927,0 3.7434,0.39063 z m -17.1059,4.02014 z m 52.8803,16.34098 h -13.3625 v -2.63669 h 5.4687 v -15.52719 l -5.0943,2.7669 -1.0417,-2.40883 6.7708,-3.56442 h 2.5065 v 18.73354 h 4.7525 z"
       id="text7"
       style="font-size:33.333px;font-family:Consolas, monospace;fill:#f2780d"
       aria-label="Stuff 1" /></g><g
     id="g9"><rect
       x="289.691"
       y="658.356"
       width="205.049"
       height="50.382"
       style="fill:#fef1e6;stroke:#f2780d;stroke-width:6.25px;"
       id="rect8" /><path
       d="m 344.29904,689.28534 q 0,1.51365 -0.61848,2.65296 -0.61848,1.13932 -1.72524,1.90428 -1.10676,0.74869 -2.66925,1.12304 -1.54621,0.37434 -3.41793,0.37434 -0.84635,0 -1.69269,-0.0651 -0.83007,-0.0651 -1.61132,-0.16276 -0.76496,-0.0977 -1.44855,-0.22786 -0.68359,-0.13021 -1.23697,-0.27669 v -2.79945 q 1.22069,0.45572 2.73435,0.71614 1.52993,0.26041 3.46676,0.26041 1.39973,0 2.37628,-0.21159 0.99283,-0.22786 1.61131,-0.65103 0.63476,-0.43945 0.91145,-1.05793 0.29297,-0.61849 0.29297,-1.41601 0,-0.86262 -0.48828,-1.46482 -0.472,-0.61849 -1.25324,-1.09049 -0.78124,-0.48827 -1.79035,-0.8789 -0.99283,-0.40689 -2.03448,-0.83007 -1.04166,-0.42317 -2.05076,-0.91144 -0.99283,-0.50456 -1.77407,-1.17187 -0.78125,-0.68359 -1.26952,-1.59503 -0.472,-0.91145 -0.472,-2.1647 0,-1.09048 0.45572,-2.14841 0.45573,-1.05793 1.416,-1.87173 0.96028,-0.83007 2.45766,-1.33462 1.51366,-0.50455 3.59697,-0.50455 0.5371,0 1.15559,0.0488 0.63476,0.0488 1.26952,0.14648 0.65103,0.0814 1.26952,0.19531 0.63475,0.11393 1.17186,0.24414 v 2.60414 q -1.25324,-0.35807 -2.50649,-0.53711 -1.25324,-0.19531 -2.4251,-0.19531 -2.49021,0 -3.66208,0.83007 -1.17186,0.83007 -1.17186,2.2298 0,0.86262 0.472,1.4811 0.48828,0.61849 1.26952,1.10676 0.78124,0.48828 1.77407,0.89518 1.00911,0.39062 2.05076,0.81379 1.04166,0.42317 2.03449,0.92773 1.0091,0.50455 1.79034,1.20441 0.78125,0.68359 1.25325,1.61131 0.48827,0.92773 0.48827,2.19725 z m 17.87092,5.53379 q -0.96028,0.24414 -1.98566,0.3418 -1.02538,0.11393 -2.08331,0.11393 -3.07614,0 -4.5898,-1.38345 -1.51366,-1.39973 -1.51366,-4.28056 v -8.52856 h -4.57352 v -2.37628 h 4.57352 v -4.49214 l 2.83201,-0.73241 v 5.22455 h 7.34042 v 2.37628 h -7.34042 v 8.3007 q 0,1.7578 0.92772,2.63669 0.944,0.86263 2.7669,0.86263 0.78124,0 1.70897,-0.11394 0.92772,-0.1302 1.93683,-0.39062 z m 18.29408,0.22787 h -2.53903 l -0.0977,-2.6367 q -0.73241,0.84635 -1.39972,1.41601 -0.65104,0.55338 -1.30207,0.89517 -0.65104,0.34179 -1.31835,0.472 -0.65104,0.14648 -1.38345,0.14648 -2.52276,0 -3.80856,-1.4811 -1.28579,-1.48111 -1.28579,-4.47587 v -10.67698 h 2.832 v 10.44912 q 0,3.75973 2.83201,3.75973 0.52082,0 1.0091,-0.14649 0.50455,-0.16275 1.04166,-0.5371 0.55338,-0.39062 1.17186,-1.04166 0.63476,-0.65103 1.416,-1.64386 v -10.83974 h 2.832 z m 19.69382,-20.36113 q -2.2298,-0.472 -3.84111,-0.472 -3.82483,0 -3.82483,4.00387 v 2.86455 h 7.16139 v 2.36001 h -7.16139 v 11.6047 h -2.88083 v -11.6047 h -5.25711 v -2.36001 h 5.25711 v -2.70179 q 0,-6.52663 6.80332,-6.52663 1.69269,0 3.74345,0.39062 z m -17.10595,4.02014 z m 35.43259,-4.02014 q -2.2298,-0.472 -3.84111,-0.472 -3.82483,0 -3.82483,4.00387 v 2.86455 h 7.16138 v 2.36001 h -7.16138 v 11.6047 h -2.88083 v -11.6047 h -5.25711 v -2.36001 h 5.25711 v -2.70179 q 0,-6.52663 6.80331,-6.52663 1.6927,0 3.74346,0.39062 z m -17.10595,4.02014 z m 52.88033,16.34099 h -13.3625 v -2.6367 h 5.4687 v -15.52718 l -5.09435,2.7669 -1.04166,-2.40883 6.77077,-3.56442 h 2.50648 v 18.73353 h 4.75256 z"
       id="text8"
       style="font-size:33.333px;font-family:Consolas, monospace;fill:#f2780d"
       aria-label="Stuff 1" /></g><g
     id="g10"><rect
       x="1101.56"
       y="228.928"
       width="205.049"
       height="50.382"
       style="fill:#fef1e6;stroke:#f2780d;stroke-width:6.25px;"
       id="rect9" /><path
       d="m 1156.167,260.99835 q 0,1.51366 -0.6185,2.65297 -0.6185,1.13931 -1.7252,1.90427 -1.1068,0.7487 -2.6693,1.12304 -1.5462,0.37435 -3.4179,0.37435 -0.8464,0 -1.6927,-0.0651 -0.8301,-0.0651 -1.6113,-0.16276 -0.765,-0.0976 -1.4486,-0.22786 -0.6836,-0.13021 -1.2369,-0.27669 v -2.79945 q 1.2207,0.45572 2.7343,0.71614 1.5299,0.26041 3.4668,0.26041 1.3997,0 2.3763,-0.21158 0.9928,-0.22787 1.6113,-0.65104 0.6347,-0.43945 0.9114,-1.05793 0.293,-0.61848 0.293,-1.416 0,-0.86262 -0.4883,-1.46483 -0.472,-0.61849 -1.2532,-1.09049 -0.7813,-0.48827 -1.7904,-0.87889 -0.9928,-0.4069 -2.0345,-0.83007 -1.0416,-0.42318 -2.0507,-0.91145 -0.9929,-0.50455 -1.7741,-1.17187 -0.7812,-0.68358 -1.2695,-1.59503 -0.472,-0.91145 -0.472,-2.16469 0,-1.09049 0.4557,-2.14842 0.4557,-1.05793 1.416,-1.87173 0.9603,-0.83007 2.4577,-1.33462 1.5136,-0.50455 3.5969,-0.50455 0.5371,0 1.1556,0.0488 0.6348,0.0488 1.2695,0.14648 0.6511,0.0814 1.2696,0.19531 0.6347,0.11393 1.1718,0.24414 v 2.60414 q -1.2532,-0.35807 -2.5065,-0.5371 -1.2532,-0.19531 -2.4251,-0.19531 -2.4902,0 -3.662,0.83007 -1.1719,0.83007 -1.1719,2.22979 0,0.86262 0.472,1.48111 0.4883,0.61848 1.2695,1.10676 0.7813,0.48827 1.7741,0.89517 1.0091,0.39062 2.0507,0.81379 1.0417,0.42318 2.0345,0.92773 1.0091,0.50455 1.7904,1.20441 0.7812,0.68359 1.2532,1.61131 0.4883,0.92773 0.4883,2.19725 z m 17.8709,5.5338 q -0.9603,0.24414 -1.9856,0.34179 -1.0254,0.11393 -2.0834,0.11393 -3.0761,0 -4.5898,-1.38345 -1.5136,-1.39972 -1.5136,-4.28055 v -8.52856 h -4.5735 v -2.37628 h 4.5735 v -4.49215 l 2.832,-0.73241 v 5.22456 h 7.3404 v 2.37628 h -7.3404 v 8.30069 q 0,1.7578 0.9277,2.6367 0.944,0.86262 2.7669,0.86262 0.7813,0 1.709,-0.11393 0.9277,-0.13021 1.9368,-0.39062 z m 18.2941,0.22786 h -2.539 l -0.098,-2.63669 q -0.7324,0.84634 -1.3997,1.416 -0.6511,0.55338 -1.3021,0.89517 -0.651,0.3418 -1.3183,0.472 -0.6511,0.14649 -1.3835,0.14649 -2.5228,0 -3.8085,-1.48111 -1.2858,-1.4811 -1.2858,-4.47587 v -10.67697 h 2.832 v 10.44911 q 0,3.75973 2.832,3.75973 0.5208,0 1.0091,-0.14648 0.5045,-0.16276 1.0416,-0.53711 0.5534,-0.39062 1.1719,-1.04165 0.6347,-0.65104 1.416,-1.64387 v -10.83973 h 2.832 z m 19.6938,-20.36112 q -2.2298,-0.47201 -3.8411,-0.47201 -3.8248,0 -3.8248,4.00387 v 2.86456 h 7.1614 v 2.36 h -7.1614 v 11.6047 h -2.8809 v -11.6047 h -5.2571 v -2.36 h 5.2571 v -2.7018 q 0,-6.52663 6.8034,-6.52663 1.6926,0 3.7434,0.39062 z m -17.1059,4.02014 z m 35.4325,-4.02014 q -2.2297,-0.47201 -3.8411,-0.47201 -3.8248,0 -3.8248,4.00387 v 2.86456 h 7.1614 v 2.36 h -7.1614 v 11.6047 h -2.8808 v -11.6047 h -5.2571 v -2.36 h 5.2571 v -2.7018 q 0,-6.52663 6.8033,-6.52663 1.6927,0 3.7434,0.39062 z m -17.1059,4.02014 z m 53.0594,16.34098 h -14.0136 v -2.53904 l 5.5013,-5.46869 q 1.3509,-1.33462 2.1972,-2.31118 0.8464,-0.97655 1.3184,-1.77407 0.472,-0.81379 0.6347,-1.52993 0.1628,-0.71614 0.1628,-1.54621 0,-0.78124 -0.2116,-1.4811 -0.2116,-0.71614 -0.651,-1.25325 -0.4395,-0.5371 -1.1393,-0.84634 -0.6999,-0.30924 -1.6765,-0.30924 -1.3509,0 -2.4576,0.6022 -1.1068,0.60221 -2.0345,1.56249 l -1.5625,-1.87173 q 1.2044,-1.26952 2.7669,-2.03448 1.5788,-0.76497 3.6621,-0.76497 1.416,0 2.5716,0.42317 1.1718,0.42318 2.0182,1.22069 0.8463,0.79752 1.3021,1.95311 0.472,1.15559 0.472,2.60414 0,1.22069 -0.3256,2.26235 -0.3255,1.04165 -0.9928,2.08331 -0.651,1.02538 -1.6601,2.13214 -0.9929,1.10676 -2.36,2.42511 l -3.8574,3.75972 h 10.3352 z"
       id="text9"
       style="font-size:33.333px;font-family:Consolas, monospace;fill:#f2780d"
       aria-label="Stuff 2" /></g><g
     id="g11"><rect
       x="289.691"
       y="708.739"
       width="205.049"
       height="50.382"
       style="fill:#fef1e6;stroke:#f2780d;stroke-width:6.25px;"
       id="rect10" /><path
       d="m 344.29904,740.80835 q 0,1.51365 -0.61848,2.65296 -0.61848,1.13932 -1.72524,1.90428 -1.10676,0.74869 -2.66925,1.12304 -1.54621,0.37434 -3.41793,0.37434 -0.84635,0 -1.69269,-0.0651 -0.83007,-0.0651 -1.61132,-0.16276 -0.76496,-0.0977 -1.44855,-0.22786 -0.68359,-0.13021 -1.23697,-0.27669 v -2.79945 q 1.22069,0.45572 2.73435,0.71614 1.52993,0.26041 3.46676,0.26041 1.39973,0 2.37628,-0.21159 0.99283,-0.22786 1.61131,-0.65103 0.63476,-0.43945 0.91145,-1.05793 0.29297,-0.61849 0.29297,-1.41601 0,-0.86262 -0.48828,-1.46482 -0.472,-0.61849 -1.25324,-1.09049 -0.78124,-0.48827 -1.79035,-0.8789 -0.99283,-0.40689 -2.03448,-0.83007 -1.04166,-0.42317 -2.05076,-0.91144 -0.99283,-0.50456 -1.77407,-1.17187 -0.78125,-0.68358 -1.26952,-1.59503 -0.472,-0.91145 -0.472,-2.1647 0,-1.09048 0.45572,-2.14841 0.45573,-1.05793 1.416,-1.87173 0.96028,-0.83007 2.45766,-1.33462 1.51366,-0.50455 3.59697,-0.50455 0.5371,0 1.15559,0.0488 0.63476,0.0488 1.26952,0.14648 0.65103,0.0814 1.26952,0.19531 0.63475,0.11393 1.17186,0.24414 v 2.60414 q -1.25324,-0.35807 -2.50649,-0.53711 -1.25324,-0.19531 -2.4251,-0.19531 -2.49021,0 -3.66208,0.83007 -1.17186,0.83007 -1.17186,2.2298 0,0.86262 0.472,1.4811 0.48828,0.61849 1.26952,1.10676 0.78124,0.48828 1.77407,0.89518 1.00911,0.39062 2.05076,0.81379 1.04166,0.42317 2.03449,0.92773 1.0091,0.50455 1.79034,1.20441 0.78125,0.68359 1.25325,1.61131 0.48827,0.92773 0.48827,2.19725 z m 17.87092,5.5338 q -0.96028,0.24413 -1.98566,0.34179 -1.02538,0.11393 -2.08331,0.11393 -3.07614,0 -4.5898,-1.38345 -1.51366,-1.39973 -1.51366,-4.28056 v -8.52856 h -4.57352 v -2.37628 h 4.57352 v -4.49214 l 2.83201,-0.73241 v 5.22455 h 7.34042 v 2.37628 h -7.34042 v 8.3007 q 0,1.7578 0.92772,2.63669 0.944,0.86263 2.7669,0.86263 0.78124,0 1.70897,-0.11394 0.92772,-0.1302 1.93683,-0.39062 z m 18.29408,0.22786 h -2.53903 l -0.0977,-2.6367 q -0.73241,0.84635 -1.39972,1.41601 -0.65104,0.55338 -1.30207,0.89517 -0.65104,0.34179 -1.31835,0.472 -0.65104,0.14648 -1.38345,0.14648 -2.52276,0 -3.80856,-1.4811 -1.28579,-1.48111 -1.28579,-4.47587 v -10.67698 h 2.832 v 10.44912 q 0,3.75973 2.83201,3.75973 0.52082,0 1.0091,-0.14649 0.50455,-0.16275 1.04166,-0.5371 0.55338,-0.39062 1.17186,-1.04166 0.63476,-0.65103 1.416,-1.64386 v -10.83974 h 2.832 z m 19.69382,-20.36113 q -2.2298,-0.472 -3.84111,-0.472 -3.82483,0 -3.82483,4.00387 v 2.86455 h 7.16139 v 2.36001 h -7.16139 v 11.6047 h -2.88083 v -11.6047 h -5.25711 v -2.36001 h 5.25711 v -2.70179 q 0,-6.52663 6.80332,-6.52663 1.69269,0 3.74345,0.39062 z m -17.10595,4.02014 z m 35.43259,-4.02014 q -2.2298,-0.472 -3.84111,-0.472 -3.82483,0 -3.82483,4.00387 v 2.86455 h 7.16138 v 2.36001 h -7.16138 v 11.6047 h -2.88083 v -11.6047 h -5.25711 v -2.36001 h 5.25711 v -2.70179 q 0,-6.52663 6.80331,-6.52663 1.6927,0 3.74346,0.39062 z m -17.10595,4.02014 z m 53.05937,16.34099 h -14.01354 v -2.53904 l 5.50125,-5.4687 q 1.3509,-1.33462 2.19724,-2.31117 0.84635,-0.97655 1.31835,-1.77407 0.472,-0.81379 0.63476,-1.52993 0.16276,-0.71614 0.16276,-1.54621 0,-0.78124 -0.21159,-1.48111 -0.21158,-0.71614 -0.65103,-1.25324 -0.43945,-0.5371 -1.13931,-0.84635 -0.69987,-0.30924 -1.67642,-0.30924 -1.3509,0 -2.45766,0.60221 -1.10676,0.60221 -2.03448,1.56248 l -1.56249,-1.87172 q 1.20442,-1.26952 2.7669,-2.03449 1.57876,-0.76496 3.66208,-0.76496 1.416,0 2.57158,0.42317 1.17187,0.42317 2.01821,1.22069 0.84635,0.79752 1.30207,1.95311 0.472,1.15558 0.472,2.60414 0,1.22069 -0.32551,2.26234 -0.32552,1.04166 -0.99283,2.08332 -0.65104,1.02538 -1.66014,2.13214 -0.99283,1.10676 -2.36,2.4251 l -3.85739,3.75973 h 10.33519 z"
       id="text10"
       style="font-size:33.333px;font-family:Consolas, monospace;fill:#f2780d"
       aria-label="Stuff 2" /></g><g
     id="g14"><g
       id="g13"><rect
         x="1101.56"
         y="484.441"
         width="205.049"
         height="92.587"
         style="fill:#fef1e6;stroke:#f2780d;stroke-width:6.25px;"
         id="rect11" /><g
         transform="matrix(1,0,0,1,365.12,77.1143)"
         id="g12"><path
           d="m 800.51926,439.24014 q 0,1.52993 -0.6022,2.71807 -0.58593,1.17186 -1.69269,1.98565 -1.09049,0.8138 -2.65297,1.23697 -1.54621,0.42317 -3.45049,0.42317 h -5.56635 v -21.27257 h 6.08718 q 7.11256,0 7.11256,5.17573 0,1.72524 -0.83007,2.96221 -0.8138,1.23697 -2.66925,1.83917 0.86263,0.16276 1.62759,0.55338 0.78124,0.39062 1.36718,1.00911 0.58593,0.61848 0.92772,1.46483 0.34179,0.84634 0.34179,1.90428 z m -3.776,-9.34236 q 0,-0.65103 -0.19531,-1.22069 -0.19531,-0.58593 -0.68359,-0.99283 -0.48827,-0.42317 -1.31834,-0.66731 -0.83007,-0.24414 -2.09959,-0.24414 h -2.99476 v 6.65684 h 2.8971 q 0.99283,0 1.79035,-0.21159 0.81379,-0.21159 1.38345,-0.65104 0.58593,-0.43944 0.89517,-1.09048 0.32552,-0.66731 0.32552,-1.57876 z m 0.69986,9.44001 q 0,-0.81379 -0.34179,-1.46483 -0.34179,-0.65103 -0.99283,-1.09048 -0.65103,-0.45573 -1.59504,-0.69987 -0.92772,-0.24413 -2.09958,-0.24413 h -2.96221 v 7.32414 h 3.05986 q 2.49021,0 3.7109,-0.92772 1.22069,-0.92773 1.22069,-2.89711 z m 13.03698,-7.73104 h -4.83393 v -2.34373 h 7.69849 V 443.244 h 4.86648 v 2.36 h -13.10208 v -2.36 h 5.37104 z m 0.99283,-9.19587 q 0.472,0 0.8789,0.17903 0.40689,0.16276 0.69986,0.472 0.30924,0.30924 0.472,0.71614 0.17904,0.39062 0.17904,0.86262 0,0.45573 -0.17904,0.86262 -0.16276,0.4069 -0.472,0.71614 -0.29297,0.30924 -0.69986,0.48828 -0.4069,0.16276 -0.8789,0.16276 -0.472,0 -0.8789,-0.16276 -0.40689,-0.17904 -0.71614,-0.48828 -0.29296,-0.30924 -0.472,-0.71614 -0.16276,-0.40689 -0.16276,-0.86262 0,-0.472 0.16276,-0.86262 0.17904,-0.4069 0.472,-0.71614 0.30925,-0.30924 0.71614,-0.472 0.4069,-0.17903 0.8789,-0.17903 z m 11.76746,6.85214 h 2.52276 l 0.11393,2.63669 q 0.71614,-0.84634 1.38345,-1.39972 0.66731,-0.56966 1.30207,-0.91145 0.65104,-0.34179 1.31835,-0.472 0.66731,-0.14648 1.38345,-0.14648 2.52276,0 3.80855,1.49738 1.30207,1.4811 1.30207,4.47586 v 10.6607 h -2.832 v -10.43283 q 0,-1.92056 -0.71614,-2.83201 -0.71614,-0.92772 -2.13214,-0.92772 -0.52083,0 -1.02538,0.16276 -0.48827,0.14648 -1.02538,0.5371 -0.5371,0.37435 -1.17186,1.02538 -0.61848,0.65104 -1.39973,1.62759 V 445.604 h -2.832 z m 28.82458,16.34098 -0.0651,-2.19724 q -1.33462,1.31835 -2.71807,1.90428 -1.36718,0.58593 -2.88083,0.58593 -1.39973,0 -2.39256,-0.35807 -0.99283,-0.35807 -1.64386,-0.97655 -0.63476,-0.63476 -0.944,-1.48111 -0.29297,-0.84634 -0.29297,-1.83917 0,-2.45766 1.8229,-3.84111 1.83918,-1.39972 5.41987,-1.39972 h 3.38538 v -1.43228 q 0,-1.44856 -0.92772,-2.31118 -0.92773,-0.87889 -2.83201,-0.87889 -1.38345,0 -2.73434,0.30924 -1.33463,0.30924 -2.7669,0.87889 v -2.55531 q 0.5371,-0.19531 1.18814,-0.37434 0.66731,-0.19531 1.39972,-0.3418 0.73242,-0.14648 1.52993,-0.22786 0.79752,-0.0976 1.61132,-0.0976 1.4811,0 2.66924,0.32551 1.18814,0.32552 2.00193,0.99283 0.83007,0.66731 1.26952,1.67642 0.43945,1.0091 0.43945,2.37628 v 11.2629 z m -0.30924,-7.43807 h -3.59697 q -1.05793,0 -1.8229,0.21158 -0.76496,0.21159 -1.25324,0.60221 -0.48828,0.39062 -0.73241,0.944 -0.22787,0.53711 -0.22787,1.22069 0,0.472 0.14649,0.91145 0.14648,0.42318 0.472,0.76497 0.32552,0.32552 0.84634,0.52083 0.52083,0.19531 1.26952,0.19531 0.97655,0 2.2298,-0.58593 1.26952,-0.60221 2.66924,-1.88801 z m 8.80525,-8.90291 h 2.58786 l 0.0814,3.01104 q 1.44856,-1.74152 2.84828,-2.52276 1.416,-0.78124 2.84828,-0.78124 2.53904,0 3.84111,1.64386 1.31835,1.64386 1.22069,4.88276 h -2.86455 q 0.0488,-2.14841 -0.63476,-3.10869 -0.66732,-0.97655 -1.96939,-0.97655 -0.56965,0 -1.15558,0.21158 -0.56966,0.19531 -1.18814,0.65104 -0.60221,0.43945 -1.2858,1.13931 -0.68358,0.69986 -1.46483,1.69269 V 445.604 h -2.86455 z m 32.19369,0 -5.56635,14.61574 q -0.86263,2.2298 -1.79035,3.84111 -0.91145,1.61131 -2.00193,2.63669 -1.09049,1.04166 -2.39256,1.52993 -1.30207,0.48828 -2.91338,0.48828 -0.42317,0 -0.76497,-0.0163 -0.34179,-0.0163 -0.74869,-0.0488 v -2.57159 q 0.35807,0.0488 0.78124,0.0814 0.42318,0.0488 0.89518,0.0488 0.78124,0 1.44855,-0.22786 0.68359,-0.22786 1.2858,-0.74869 0.6022,-0.50455 1.15558,-1.31834 0.55338,-0.8138 1.07421,-1.96939 l -6.52663,-16.34098 h 3.22263 l 4.13407,10.80719 0.83007,2.53903 0.944,-2.60414 3.82483,-10.74208 z"
           id="text11"
           style="font-size:33.333px;font-family:Consolas, monospace;fill:#f2780d"
           aria-label="Binary" /><path
           d="m 818.84629,478.27013 q 0,1.52994 -0.60221,2.71808 -0.58593,1.17186 -1.69269,1.98565 -1.09048,0.8138 -2.65297,1.23697 -1.54621,0.42317 -3.45048,0.42317 h -5.56635 v -21.27257 h 6.08718 q 7.11255,0 7.11255,5.17573 0,1.72524 -0.83007,2.96221 -0.81379,1.23697 -2.66924,1.83917 0.86262,0.16276 1.62759,0.55338 0.78124,0.39062 1.36717,1.00911 0.58593,0.61848 0.92773,1.46483 0.34179,0.84634 0.34179,1.90427 z m -3.776,-9.34235 q 0,-0.65104 -0.19531,-1.22069 -0.19531,-0.58593 -0.68359,-0.99283 -0.48828,-0.42317 -1.31835,-0.66731 -0.83007,-0.24414 -2.09959,-0.24414 h -2.99476 v 6.65684 h 2.89711 q 0.99283,0 1.79035,-0.21159 0.81379,-0.21159 1.38345,-0.65104 0.58593,-0.43945 0.89517,-1.09048 0.32552,-0.66731 0.32552,-1.57876 z m 0.69986,9.44001 q 0,-0.81379 -0.34179,-1.46483 -0.3418,-0.65103 -0.99283,-1.09048 -0.65104,-0.45573 -1.59504,-0.69987 -0.92772,-0.24413 -2.09959,-0.24413 h -2.96221 v 7.32414 h 3.05987 q 2.49021,0 3.7109,-0.92772 1.22069,-0.92773 1.22069,-2.89711 z m 13.03698,-14.40415 h -4.83394 v -2.32745 h 7.69849 V 482.274 h 4.86649 v 2.36 h -13.10208 v -2.36 h 5.37104 z m 26.9854,12.36966 q 0,1.90428 -0.5371,3.49932 -0.5371,1.57876 -1.54621,2.71807 -1.0091,1.12304 -2.45766,1.7578 -1.44855,0.61848 -3.28772,0.61848 -1.7578,0 -3.15752,-0.53711 -1.38345,-0.55338 -2.36001,-1.61131 -0.96027,-1.05793 -1.4811,-2.62041 -0.50455,-1.56249 -0.50455,-3.59697 0,-1.90428 0.5371,-3.46677 0.5371,-1.57876 1.54621,-2.70179 1.0091,-1.13931 2.45766,-1.7578 1.44855,-0.63476 3.28772,-0.63476 1.7578,0 3.14125,0.55338 1.39972,0.53711 2.36,1.59504 0.97655,1.04166 1.48111,2.60414 0.52082,1.56249 0.52082,3.58069 z m -2.8971,0.13021 q 0,-1.51366 -0.3418,-2.63669 -0.32551,-1.13931 -0.944,-1.888 -0.61848,-0.76497 -1.51365,-1.13931 -0.8789,-0.39063 -1.96938,-0.39063 -1.26952,0 -2.18097,0.50456 -0.89518,0.48827 -1.48111,1.31834 -0.56965,0.83007 -0.84634,1.93683 -0.26042,1.09049 -0.26042,2.2949 0,1.51366 0.32552,2.65297 0.34179,1.13931 0.96028,1.90428 0.61848,0.74869 1.49738,1.13931 0.8789,0.37434 1.98566,0.37434 1.26951,0 2.16469,-0.48827 0.91145,-0.50455 1.4811,-1.33462 0.58593,-0.83007 0.84635,-1.92056 0.27669,-1.10676 0.27669,-2.32745 z m 20.96333,-0.29296 q 0,2.03448 -0.56965,3.64579 -0.55338,1.59504 -1.59504,2.71807 -1.02538,1.10676 -2.50649,1.70897 -1.4811,0.58593 -3.33655,0.58593 -1.44855,0 -2.96221,-0.27669 -1.51366,-0.27669 -2.99476,-0.87889 v -22.03754 h 2.832 v 6.33131 l -0.13021,3.02732 q 1.22069,-1.64387 2.60414,-2.31118 1.39973,-0.68359 2.99477,-0.68359 1.39972,0 2.45765,0.58594 1.05794,0.58593 1.77407,1.66014 0.71614,1.05793 1.07421,2.57158 0.35807,1.49739 0.35807,3.35284 z m -2.8971,0.1302 q 0,-1.28579 -0.19532,-2.36 -0.17903,-1.07421 -0.58593,-1.83917 -0.40689,-0.76497 -1.04165,-1.18814 -0.63476,-0.43945 -1.51366,-0.43945 -0.5371,0 -1.09048,0.17903 -0.55338,0.16276 -1.15559,0.56966 -0.58593,0.39062 -1.25324,1.05793 -0.65104,0.65104 -1.39973,1.62759 v 7.92635 q 0.83007,0.32552 1.69269,0.52083 0.86262,0.17903 1.64387,0.17903 0.97655,0 1.85545,-0.30924 0.89517,-0.30924 1.56248,-1.02538 0.68359,-0.73241 1.07421,-1.92055 0.4069,-1.20442 0.4069,-2.97849 z"
           id="text12"
           style="font-size:33.333px;font-family:Consolas, monospace;fill:#f2780d"
           aria-label="Blob" /></g></g></g><g
     id="g16"><g
       id="g15"><rect
         x="289.691"
         y="814.89"
         width="205.049"
         height="92.587"
         style="fill:#fef1e6;stroke:#f2780d;stroke-width:6.25px;"
         id="rect14" /><path
         d="m 372.70051,861.80972 q 0,1.52993 -0.24414,2.92966 -0.22786,1.39972 -0.74869,2.60414 -0.52082,1.20441 -1.35089,2.19724 -0.83007,0.97655 -2.03449,1.67642 -1.20441,0.69986 -2.79945,1.09048 -1.59504,0.37435 -3.62952,0.37435 h -4.55725 v -21.27258 h 5.48497 q 4.98042,0 7.4218,2.57159 2.45766,2.55531 2.45766,7.8287 z m -3.04359,0.21159 q 0,-2.26235 -0.42317,-3.82484 -0.42317,-1.56248 -1.28579,-2.52276 -0.86263,-0.96027 -2.1647,-1.38345 -1.30207,-0.43945 -3.05986,-0.43945 h -2.49021 v 16.32471 h 2.16469 q 7.25904,0 7.25904,-8.15421 z m 17.33381,10.6607 -0.0651,-2.19725 q -1.33462,1.31835 -2.71807,1.90428 -1.36718,0.58593 -2.88083,0.58593 -1.39973,0 -2.39256,-0.35807 -0.99283,-0.35807 -1.64386,-0.97655 -0.63476,-0.63476 -0.944,-1.4811 -0.29297,-0.84635 -0.29297,-1.83918 0,-2.45766 1.8229,-3.84111 1.83918,-1.39972 5.41987,-1.39972 h 3.38538 v -1.43228 q 0,-1.44855 -0.92772,-2.31117 -0.92773,-0.8789 -2.83201,-0.8789 -1.38345,0 -2.73434,0.30924 -1.33463,0.30924 -2.7669,0.8789 v -2.55532 q 0.5371,-0.19531 1.18814,-0.37434 0.66731,-0.19531 1.39972,-0.34179 0.73242,-0.14649 1.52993,-0.22787 0.79752,-0.0977 1.61132,-0.0977 1.4811,0 2.66924,0.32552 1.18814,0.32551 2.00193,0.99282 0.83007,0.66732 1.26952,1.67642 0.43945,1.0091 0.43945,2.37628 v 11.26291 z m -0.30924,-7.43808 h -3.59697 q -1.05793,0 -1.8229,0.21159 -0.76496,0.21158 -1.25324,0.6022 -0.48827,0.39063 -0.73241,0.94401 -0.22787,0.5371 -0.22787,1.22069 0,0.472 0.14649,0.91145 0.14648,0.42317 0.472,0.76496 0.32552,0.32552 0.84634,0.52083 0.52083,0.19531 1.26952,0.19531 0.97655,0 2.2298,-0.58593 1.26952,-0.60221 2.66924,-1.888 z m 21.30513,7.21021 q -0.96028,0.24414 -1.98566,0.3418 -1.02538,0.11393 -2.08331,0.11393 -3.07614,0 -4.5898,-1.38345 -1.51366,-1.39973 -1.51366,-4.28056 v -8.52856 h -4.57352 v -2.37628 h 4.57352 v -4.49214 l 2.83201,-0.73241 v 5.22455 h 7.34042 v 2.37628 h -7.34042 v 8.3007 q 0,1.7578 0.92772,2.63669 0.944,0.86262 2.7669,0.86262 0.78124,0 1.70897,-0.11393 0.92772,-0.1302 1.93683,-0.39062 z m 15.65739,0.22787 -0.0651,-2.19725 q -1.33462,1.31835 -2.71807,1.90428 -1.36718,0.58593 -2.88083,0.58593 -1.39973,0 -2.39256,-0.35807 -0.99282,-0.35807 -1.64386,-0.97655 -0.63476,-0.63476 -0.944,-1.4811 -0.29297,-0.84635 -0.29297,-1.83918 0,-2.45766 1.8229,-3.84111 1.83918,-1.39972 5.41987,-1.39972 h 3.38538 v -1.43228 q 0,-1.44855 -0.92772,-2.31117 -0.92773,-0.8789 -2.83201,-0.8789 -1.38345,0 -2.73434,0.30924 -1.33463,0.30924 -2.7669,0.8789 v -2.55532 q 0.5371,-0.19531 1.18814,-0.37434 0.66731,-0.19531 1.39972,-0.34179 0.73242,-0.14649 1.52993,-0.22787 0.79752,-0.0977 1.61132,-0.0977 1.4811,0 2.66924,0.32552 1.18814,0.32551 2.00193,0.99282 0.83007,0.66732 1.26952,1.67642 0.43945,1.0091 0.43945,2.37628 v 11.26291 z m -0.30924,-7.43808 h -3.59697 q -1.05793,0 -1.8229,0.21159 -0.76496,0.21158 -1.25324,0.6022 -0.48827,0.39063 -0.73241,0.94401 -0.22787,0.5371 -0.22787,1.22069 0,0.472 0.14649,0.91145 0.14648,0.42317 0.472,0.76496 0.32552,0.32552 0.84634,0.52083 0.52083,0.19531 1.26952,0.19531 0.97656,0 2.2298,-0.58593 1.26952,-0.60221 2.66924,-1.888 z"
         id="text14"
         style="font-size:33.333px;font-family:Consolas, monospace;fill:#f2780d"
         aria-label="Data" /></g></g><g
     transform="matrix(1,0,0,1,-708.161,-311.322)"
     id="g18"><path
       d="m 772.20563,500.44104 q -0.73242,1.15967 -1.95313,3.57056 l -5.24902,12.96997 q -3.05176,7.2937 -5.73731,12.75635 l -3.81469,6.80541 -1.61743,3.2959 q -1.00708,1.77002 -2.71607,1.77002 -1.19018,0 -2.16675,-0.88501 -0.97656,-0.88501 -0.97656,-2.19726 0,-1.0376 2.86865,-6.50025 l 3.75366,-6.86645 q -5.46264,-7.04956 -7.08007,-11.1084 -1.37329,-3.44849 -4.57764,-8.27026 -4.39453,-6.5918 -5.15747,-7.96509 -0.45776,-0.82398 -0.45776,-1.64795 0,-1.31226 0.94604,-2.19727 0.97656,-0.91552 2.19727,-0.91552 1.49536,0 2.50244,1.43432 l 2.4414,3.78418 q 3.23487,4.79126 4.27246,6.53076 2.28882,3.75367 3.57056,6.95801 1.00708,2.53296 4.30298,6.92749 l 6.98853,-17.02881 q 1.19018,-2.10571 3.29589,-6.50024 0.8545,-2.0752 2.83814,-2.0752 1.2207,0 2.16675,0.8545 0.97656,0.85449 0.97656,2.19726 0,1.40381 -1.61743,4.30298 z m 19.6228,40.83252 q -5.12695,0 -8.81958,-3.78418 -4.11987,-4.21143 -4.3335,-11.32202 -0.1831,-6.89697 3.47901,-12.146 4.27246,-6.19507 11.90185,-6.19507 6.10352,0 9.24683,5.58472 2.50244,4.5166 2.41089,10.86426 -0.0915,6.7749 -3.54004,11.56616 -3.90625,5.43213 -10.34546,5.43213 z m 1.83105,-27.2522 q -4.48608,-0.0305 -6.98852,4.27246 -1.98364,3.44849 -1.98364,7.87354 0,4.42505 2.41089,6.89697 2.01416,2.04468 4.73022,2.04468 3.17383,0 5.46265,-2.31934 2.59399,-2.56347 2.74658,-6.92749 0.42724,-11.8103 -6.37818,-11.84082 z m 44.49463,7.6294 q 0,2.19726 0.0305,6.59179 0.0305,4.39453 0.0305,6.5918 0,0.67139 0.0915,2.04468 0.12207,1.37329 0.12207,2.04468 0,1.31225 -0.88501,2.13623 -0.88501,0.85449 -2.16675,0.85449 -2.34985,0 -2.99072,-2.89917 -3.8147,1.98364 -8.78906,1.98364 -3.9978,0 -6.62232,-1.77002 -2.89917,-1.95312 -3.44848,-5.70679 -1.19019,-8.08715 -1.19019,-14.40429 0,-4.18091 0.91553,-9.52149 0.42725,-2.65503 2.89917,-2.65503 1.31226,0 2.19727,0.8545 0.88501,0.82397 0.88501,2.13623 0,1.40381 -0.45777,4.48608 -0.42724,3.08228 -0.42724,4.69971 0,5.09643 0.33569,8.72803 0.33569,3.63159 1.00708,5.82885 1.00708,0.54932 1.98364,0.85449 0.97656,0.27466 1.92261,0.27466 4.08935,0 8.63647,-1.31225 l -0.0305,-6.19507 -0.061,-5.92041 q 0,-6.5918 0.57983,-11.44409 0.3357,-2.80762 2.96021,-2.80762 1.31226,0 2.19727,0.85449 0.88501,0.85449 0.82397,2.13623 z m 49.68262,19.98901 q -2.62451,0 -2.9602,-2.86865 l -0.8545,-6.68335 q -0.42724,-3.57056 -0.42724,-6.68335 0,-0.85449 0.0915,-2.89917 0.12207,-2.04468 0.12207,-2.89917 0,-6.5918 -2.44141,-6.5918 -3.41796,0 -6.53076,4.05884 -2.80761,3.69263 -4.39453,9.33838 -0.061,1.19018 -0.27466,2.99072 -0.1831,1.52588 -0.1831,2.96021 0,0.91552 0.1831,2.74658 0.18311,1.83105 0.18311,2.74658 0,1.37329 -0.85449,2.22778 -0.82398,0.8545 -2.13623,0.8545 -1.34278,0 -2.16675,-0.8545 -0.82398,-0.85449 -0.82398,-2.22778 0,-0.91553 -0.21362,-2.74658 -0.18311,-1.83106 -0.18311,-2.74658 0,-3.14331 0.42725,-8.69751 0.45776,-5.58472 0.45776,-8.72803 0,-0.97656 -0.12207,-2.89917 -0.0915,-1.92261 -0.0915,-2.89917 0,-1.31226 0.85449,-2.13623 0.88501,-0.85449 2.16675,-0.85449 2.80762,0 3.08228,3.96728 l 0.0915,3.57056 q 5.12695,-6.83594 10.52856,-6.83594 4.88282,0 6.80542,4.30298 1.31226,2.86865 1.43433,8.48389 v 3.08227 l -0.0305,2.83814 q 0,2.53296 0.64087,6.56128 0.67139,3.9978 0.67139,6.50024 0,1.34277 -0.88501,2.16675 -0.85449,0.85449 -2.16675,0.85449 z m 23.55957,-0.76294 q -6.89697,0 -11.16943,-3.44849 -4.66919,-3.81469 -4.66919,-10.68115 0,-7.93457 3.84521,-13.30566 4.18091,-5.85938 11.16944,-5.85938 5.06591,0 8.27026,1.70899 3.93677,2.10571 3.93677,6.46972 0,3.05176 -3.44849,5.5542 -1.52588,1.09864 -6.46972,3.41797 l -11.65772,5.52368 q 1.70898,2.53296 4.24194,3.8147 2.56348,1.28174 5.95093,1.28174 2.10571,0 4.94385,-0.79346 3.60107,-1.00708 4.63867,-2.62451 1.0376,-1.64795 2.22778,-1.64795 1.06812,0 1.89209,0.82398 0.8545,0.79345 0.8545,1.86157 0,3.38745 -5.46265,5.82886 -4.66919,2.07519 -9.09424,2.07519 z m -0.82397,-27.80151 q -3.72315,0 -6.19507,2.89917 -2.47193,2.86865 -3.69263,8.66699 l 9.3689,-4.45557 q 5.52368,-2.68554 7.87353,-4.66919 -2.62451,-2.4414 -7.35473,-2.4414 z m 35.06469,27.80151 q -6.89697,0 -11.16943,-3.44849 -4.66919,-3.81469 -4.66919,-10.68115 0,-7.93457 3.84522,-13.30566 4.1809,-5.85938 11.16943,-5.85938 5.06592,0 8.27026,1.70899 3.93677,2.10571 3.93677,6.46972 0,3.05176 -3.44849,5.5542 -1.52587,1.09864 -6.46972,3.41797 l -11.65772,5.52368 q 1.70899,2.53296 4.24195,3.8147 2.56347,1.28174 5.95092,1.28174 2.10572,0 4.94385,-0.79346 3.60108,-1.00708 4.63867,-2.62451 1.0376,-1.64795 2.22779,-1.64795 1.06811,0 1.89209,0.82398 0.85449,0.79345 0.85449,1.86157 0,3.38745 -5.46265,5.82886 -4.66919,2.07519 -9.09424,2.07519 z m -0.82397,-27.80151 q -3.72315,0 -6.19507,2.89917 -2.47192,2.86865 -3.69263,8.66699 l 9.3689,-4.45557 q 5.52368,-2.68554 7.87354,-4.66919 -2.62452,-2.4414 -7.35474,-2.4414 z m 48.91968,-0.54932 q -0.36621,4.48608 -0.36621,8.97217 0,10.16235 0.94604,15.35034 0.061,0.42725 0.061,0.70191 0,1.2207 -0.8545,2.01416 -0.85449,0.79345 -1.98364,0.79345 -1.89209,0 -2.7771,-2.74658 -2.19726,1.61743 -4.57763,2.44141 -2.34986,0.82397 -4.91333,0.82397 -6.31714,0 -10.46753,-4.21142 -4.27247,-4.30298 -4.27247,-11.04737 0,-8.14819 4.30298,-13.06152 4.3335,-4.91333 11.23047,-4.91333 3.54004,0 5.46265,1.09863 l 2.86865,2.10571 q 0.42725,-12.8479 1.00708,-17.30346 0.39673,-2.71607 2.7771,-2.71607 2.7771,0 2.7771,2.96021 0,4.24194 -1.2207,18.73779 z m -13.54981,0.79346 q -5.12695,0 -7.69043,3.05176 -2.56347,3.02124 -2.56347,9.12475 0,3.93677 2.7771,6.7749 2.80761,2.83814 6.56128,2.83814 2.56347,0 4.33349,-0.94605 1.0376,-0.54931 3.38745,-2.53296 0.45777,-0.39672 0.88501,-0.94604 l -0.0915,-5.27954 0.0305,-3.54004 0.061,-3.60107 q -1.15967,-2.47193 -3.08227,-3.69263 -1.92261,-1.25122 -4.60816,-1.25122 z m 61.24878,0.15259 q -0.6409,0 -1.5259,-0.061 -0.8545,-0.061 -1.4953,-0.061 -0.7019,0 -4.1504,0.45776 l 0.5798,18.03589 0.031,1.34277 0.031,1.5564 q 0.1221,6.68335 -3.2043,6.68335 -1.2207,0 -2.1362,-0.79346 -0.885,-0.79346 -0.885,-1.98364 0,-1.15967 0.091,-3.47901 0.092,-2.31933 0.092,-3.479 l -0.6104,-17.82227 q -2.2278,-0.0915 -6.7749,-0.51879 -2.7161,-0.36622 -2.7161,-3.02124 0,-1.34278 0.824,-2.22779 0.824,-0.88501 2.1057,-0.88501 l 6.4087,0.5188 q 0,-1.5564 -0.1526,-4.15039 -0.122,-2.62451 -0.122,-3.78418 0,-1.28174 0.885,-2.10571 0.885,-0.85449 2.1667,-0.85449 2.7466,0 3.2044,4.48608 0.091,1.12915 0.091,2.71606 l -0.061,1.77002 -0.031,1.89209 q 3.7841,-0.48828 4.3335,-0.48828 3.1738,0 4.1504,0.30518 1.8615,0.61035 1.8615,2.86865 0,1.34277 -0.8545,2.22778 -0.8239,0.8545 -2.1362,0.8545 z m 20.4773,27.80151 q -5.127,0 -8.8196,-3.78418 -4.1199,-4.21143 -4.3335,-11.32202 -0.1831,-6.89697 3.479,-12.146 4.2725,-6.19507 11.9019,-6.19507 6.1035,0 9.2468,5.58472 2.5024,4.5166 2.4109,10.86426 -0.092,6.7749 -3.54,11.56616 -3.9063,5.43213 -10.3455,5.43213 z m 1.8311,-27.2522 q -4.4861,-0.0305 -6.9886,4.27246 -1.9836,3.44849 -1.9836,7.87354 0,4.42505 2.4109,6.89697 2.0141,2.04468 4.7302,2.04468 3.1738,0 5.4626,-2.31934 2.594,-2.56347 2.7466,-6.92749 0.4273,-11.8103 -6.3781,-11.84082 z m 77.0263,27.98462 q -2.5024,0 -2.9297,-2.65503 -0.5493,-3.35693 -1.0986,-9.46045 l -1.0376,-9.46045 q -0.3052,-2.10571 -1.0376,-4.11987 -1.0376,-2.74658 -2.2583,-2.74658 -1.1291,0 -4.2114,1.92261 -2.9297,1.77002 -3.8452,2.83813 -0.031,2.86865 0.1525,5.73731 l 0.9156,8.14819 q 0.5798,4.82178 0.5798,7.96509 0,1.34277 -0.8545,2.19726 -0.824,0.88501 -2.1362,0.88501 -1.3123,0 -2.1668,-0.88501 -0.8239,-0.85449 -0.8239,-2.19726 0,-3.69263 -0.763,-10.89478 -0.7324,-7.23266 -0.7324,-10.92529 0,-3.23486 -0.9155,-5.0354 -2.1363,0.97656 -4.3335,3.17383 l -3.6011,4.02832 q -0.4883,0.73242 -1.5564,1.9226 0,1.83106 -0.3357,5.40162 -0.3357,3.57055 -0.3357,5.27954 0,0.91552 0.2747,2.56347 0.3052,1.64795 0.3052,2.38037 0,1.25122 -0.9461,2.10572 -0.9155,0.85449 -2.1667,0.85449 -3.4485,0 -3.4485,-7.84302 0,-1.83105 0.3357,-5.46265 0.3357,-3.63159 0.3357,-5.46264 0,-1.61743 -0.3052,-4.8523 -0.2747,-3.23486 -0.2747,-4.88281 0,-6.92749 3.1128,-6.92749 1.1902,0 2.1668,1.0376 1.0071,1.0376 1.0071,2.2583 0,0.57983 -0.1526,1.80054 -0.1526,1.2207 -0.1526,1.86157 l 0.061,3.20434 q 1.5869,-3.26538 4.6692,-5.88989 3.0823,-2.65503 5.249,-2.65503 4.7913,0 6.5918,4.76074 1.6785,-2.22778 3.9978,-3.32641 2.3194,-1.12915 5.3101,-1.12915 5.0964,0 6.958,5.49316 0.3662,1.09864 1.2512,8.57544 0.8545,5.24903 2.1973,17.48657 0.091,1.22071 -0.824,2.0752 -0.9155,0.85449 -2.2278,0.85449 z m 24.0479,-1.12915 q -6.897,0 -11.1695,-3.44849 -4.6692,-3.81469 -4.6692,-10.68115 0,-7.93457 3.8453,-13.30566 4.1809,-5.85938 11.1694,-5.85938 5.0659,0 8.2703,1.70899 3.9367,2.10571 3.9367,6.46972 0,3.05176 -3.4485,5.5542 -1.5258,1.09864 -6.4697,3.41797 l -11.6577,5.52368 q 1.709,2.53296 4.2419,3.8147 2.5635,1.28174 5.951,1.28174 2.1057,0 4.9438,-0.79346 3.6011,-1.00708 4.6387,-2.62451 1.0376,-1.64795 2.2278,-1.64795 1.0681,0 1.8921,0.82398 0.8545,0.79345 0.8545,1.86157 0,3.38745 -5.4627,5.82886 -4.6692,2.07519 -9.0942,2.07519 z m -0.824,-27.80151 q -3.7231,0 -6.1951,2.89917 -2.4719,2.86865 -3.6926,8.66699 l 9.3689,-4.45557 q 5.5237,-2.68554 7.8735,-4.66919 -2.6245,-2.4414 -7.3547,-2.4414 z m 44.5557,3.84521 q -0.2137,3.8147 -3.0518,3.8147 -2.6245,0 -2.6245,-3.02124 0,-0.57983 -0.092,-2.13623 l -0.091,-2.56348 q -4.8218,0.57984 -7.721,2.71607 -2.716,1.98364 -4.5166,5.98144 l 0.061,16.72363 q 0,3.08228 -3.0213,3.08228 -2.6855,0 -2.6855,-3.08228 v -21.42334 q 0,-1.00708 0.061,-3.02124 0.092,-2.01416 0.092,-3.02124 0,-3.08227 2.6855,-3.08227 2.9907,0 3.0213,5.06592 5.8593,-5.64575 13.0004,-5.64575 2.472,0 3.6927,1.86157 1.2207,1.86157 1.2207,5.61523 0,1.58692 -0.03,2.13623 z m 31.4025,9.39942 -0.7019,10.2539 q -0.1831,6.10352 -1.2512,9.97925 -1.3733,4.94385 -4.3945,7.2937 -3.6621,2.83814 -10.5896,2.83814 -4.0588,0 -6.8054,-0.54932 -3.8452,-0.76294 -3.8452,-3.17383 0,-2.71606 2.655,-2.71606 1.0986,0 3.6621,0.5188 2.5635,0.54931 5.6763,0.48828 5.8593,-0.0916 8.0871,-5.67627 1.4649,-3.72315 1.5564,-11.44409 -1.6479,3.05175 -3.9367,4.57763 -2.2583,1.52588 -5.188,1.52588 -5.5237,0 -9.0027,-3.75366 -3.4485,-3.78418 -3.4485,-9.79614 0,-8.23975 4.7302,-13.27515 4.8828,-5.18799 13.3057,-5.18799 2.8381,0 4.7607,0.73242 1.9226,0.73243 2.9297,2.19727 3.2654,0.0915 3.2654,3.63159 0,2.16675 -0.6409,5.79834 -0.7019,4.21143 -0.824,5.73731 z m -9.7961,-13.21412 q -5.7983,0 -8.9722,3.99781 -2.8381,3.60107 -2.8381,9.15527 0,4.42505 1.6785,6.65283 1.6784,2.22779 5.0354,2.22779 3.0822,0 5.9814,-3.47901 2.6245,-3.20434 2.9907,-6.34765 0.6409,-3.2959 1.3733,-10.34546 -1.2207,-0.94605 -2.5329,-1.40381 -1.3123,-0.45777 -2.7161,-0.45777 z m 32.1045,27.771 q -6.897,0 -11.1694,-3.44849 -4.6692,-3.81469 -4.6692,-10.68115 0,-7.93457 3.8452,-13.30566 4.1809,-5.85938 11.1694,-5.85938 5.0659,0 8.2703,1.70899 3.9368,2.10571 3.9368,6.46972 0,3.05176 -3.4485,5.5542 -1.5259,1.09864 -6.4698,3.41797 l -11.6577,5.52368 q 1.709,2.53296 4.242,3.8147 2.5634,1.28174 5.9509,1.28174 2.1057,0 4.9438,-0.79346 3.6011,-1.00708 4.6387,-2.62451 1.0376,-1.64795 2.2278,-1.64795 1.0681,0 1.8921,0.82398 0.8545,0.79345 0.8545,1.86157 0,3.38745 -5.4627,5.82886 -4.6692,2.07519 -9.0942,2.07519 z m -0.824,-27.80151 q -3.7231,0 -6.195,2.89917 -2.472,2.86865 -3.6927,8.66699 l 9.3689,-4.45557 q 5.5237,-2.68554 7.8736,-4.66919 -2.6246,-2.4414 -7.3548,-2.4414 z m 66.1011,-0.82398 -10.5591,22.82715 q -3.9062,8.3313 -5.9814,13.94653 l -2.0142,5.92041 q -0.7934,2.19727 -2.7466,2.19727 -1.2817,0 -2.2278,-0.85449 -0.9155,-0.82398 -0.9155,-2.0752 0,-3.05176 6.5918,-17.66968 l -10.9253,-21.02661 -1.3733,-2.22778 q -0.8239,-1.40381 -0.8239,-2.34985 0,-1.25122 0.946,-2.19727 0.9766,-0.94604 2.1667,-0.94604 1.4039,0 2.1668,1.06811 5.188,7.20215 11.1389,20.50781 l 4.5166,-10.52856 q 2.4414,-5.46265 4.6997,-9.39941 0.9766,-1.70899 2.5635,-1.70899 1.2512,0 2.1973,0.88501 0.9765,0.88501 0.9765,2.10571 0,0.67139 -0.3967,1.52588 z m 17.3645,29.02222 q -5.127,0 -8.8196,-3.78418 -4.1199,-4.21143 -4.3335,-11.32202 -0.1831,-6.89697 3.479,-12.146 4.2725,-6.19507 11.9019,-6.19507 6.1035,0 9.2468,5.58472 2.5024,4.5166 2.4109,10.86426 -0.092,6.7749 -3.54,11.56616 -3.9063,5.43213 -10.3455,5.43213 z m 1.8311,-27.2522 q -4.4861,-0.0305 -6.9886,4.27246 -1.9836,3.44849 -1.9836,7.87354 0,4.42505 2.4109,6.89697 2.0141,2.04468 4.7302,2.04468 3.1738,0 5.4626,-2.31934 2.594,-2.56347 2.7466,-6.92749 0.4273,-11.8103 -6.3781,-11.84082 z m 44.4946,7.6294 q 0,2.19726 0.03,6.59179 0.031,4.39453 0.031,6.5918 0,0.67139 0.092,2.04468 0.122,1.37329 0.122,2.04468 0,1.31225 -0.885,2.13623 -0.885,0.85449 -2.1667,0.85449 -2.3499,0 -2.9907,-2.89917 -3.8147,1.98364 -8.7891,1.98364 -3.9978,0 -6.6223,-1.77002 -2.8992,-1.95312 -3.4485,-5.70679 -1.1902,-8.08715 -1.1902,-14.40429 0,-4.18091 0.9155,-9.52149 0.4273,-2.65503 2.8992,-2.65503 1.3123,0 2.1973,0.8545 0.885,0.82397 0.885,2.13623 0,1.40381 -0.4578,4.48608 -0.4272,3.08228 -0.4272,4.69971 0,5.09643 0.3357,8.72803 0.3357,3.63159 1.007,5.82885 1.0071,0.54932 1.9837,0.85449 0.9766,0.27466 1.9226,0.27466 4.0894,0 8.6365,-1.31225 l -0.03,-6.19507 -0.061,-5.92041 q 0,-6.5918 0.5799,-11.44409 0.3356,-2.80762 2.9602,-2.80762 1.3122,0 2.1972,0.85449 0.885,0.85449 0.824,2.13623 z m 31.3415,-4.73023 q -0.2136,3.8147 -3.0517,3.8147 -2.6245,0 -2.6245,-3.02124 0,-0.57983 -0.092,-2.13623 l -0.091,-2.56348 q -4.8218,0.57984 -7.721,2.71607 -2.7161,1.98364 -4.5166,5.98144 l 0.061,16.72363 q 0,3.08228 -3.0212,3.08228 -2.6855,0 -2.6855,-3.08228 v -21.42334 q 0,-1.00708 0.061,-3.02124 0.091,-2.01416 0.091,-3.02124 0,-3.08227 2.6856,-3.08227 2.9907,0 3.0212,5.06592 5.8594,-5.64575 13.0005,-5.64575 2.4719,0 3.6926,1.86157 1.2208,1.86157 1.2208,5.61523 0,1.58692 -0.031,2.13623 z"
       id="text16"
       style="font-size:62.5px;font-family:ComicSansMS, 'Comic Sans MS', cursive"
       aria-label="You need to merge your" /><path
       d="m 752.12506,603.77356 q -5.12695,0 -8.81958,-3.78418 -4.11987,-4.21143 -4.3335,-11.32202 -0.1831,-6.89697 3.47901,-12.146 4.27246,-6.19507 11.90185,-6.19507 6.10352,0 9.24683,5.58472 2.50244,4.5166 2.41089,10.86426 -0.0916,6.7749 -3.54004,11.56616 -3.90625,5.43213 -10.34546,5.43213 z m 1.83106,-27.2522 q -4.48609,-0.0305 -6.98853,4.27246 -1.98364,3.44849 -1.98364,7.87354 0,4.42505 2.41089,6.89697 2.01416,2.04468 4.73022,2.04468 3.17383,0 5.46265,-2.31934 2.59399,-2.56347 2.74658,-6.92749 0.42725,-11.8103 -6.37817,-11.84082 z m 56.12182,-1.86157 q -2.38037,9.94873 -6.22558,22.49146 -0.8545,2.77709 -2.83814,5.70678 -1.06811,1.61743 -2.89917,1.58692 -3.32641,-0.061 -5.18799,-8.27027 -0.61035,-2.62451 -1.25122,-7.14111 l -1.00708,-6.80542 -2.50244,5.82886 -4.63867,12.60376 q -0.39673,1.15966 -1.15967,1.77002 -0.91553,1.77002 -2.92969,1.83105 -2.31933,0.0915 -4.48608,-9.09424 -1.09863,-4.73022 -2.19727,-12.81738 l -0.73242,-4.57764 q -0.39673,-2.74658 -0.39673,-4.60815 0,-1.28174 0.88501,-2.10571 0.91553,-0.8545 2.19727,-0.8545 2.31933,0 2.86865,2.53296 0.39673,1.80054 0.64087,4.45557 l 0.45776,4.48608 1.80054,13.7024 q 3.38745,-9.39942 7.01904,-21.66748 1.00708,-3.38746 3.50953,-3.38746 2.41088,0 3.26538,3.78418 0.79345,3.57056 1.98364,10.98633 1.2207,7.69043 2.16675,11.99341 l 2.22778,-8.30078 3.93677,-16.63208 q 0.45776,-1.86157 2.62451,-1.86157 1.28174,0 2.22778,0.88501 0.94605,0.85449 0.94605,2.07519 0,0.15259 -0.30518,1.40381 z m 29.63257,29.47998 q -2.62451,0 -2.9602,-2.86865 l -0.8545,-6.68335 q -0.42724,-3.57056 -0.42724,-6.68335 0,-0.85449 0.0915,-2.89917 0.12207,-2.04468 0.12207,-2.89917 0,-6.5918 -2.44141,-6.5918 -3.41797,0 -6.53076,4.05884 -2.80762,3.69263 -4.39453,9.33838 -0.061,1.19018 -0.27466,2.99072 -0.1831,1.52588 -0.1831,2.96021 0,0.91552 0.1831,2.74658 0.18311,1.83105 0.18311,2.74658 0,1.37329 -0.85449,2.22778 -0.82398,0.8545 -2.13623,0.8545 -1.34278,0 -2.16675,-0.8545 -0.82398,-0.85449 -0.82398,-2.22778 0,-0.91553 -0.21362,-2.74658 -0.18311,-1.83106 -0.18311,-2.74658 0,-3.14331 0.42725,-8.69751 0.45776,-5.58472 0.45776,-8.72803 0,-0.97656 -0.12207,-2.89917 -0.0915,-1.92261 -0.0915,-2.89917 0,-1.31226 0.85449,-2.13623 0.88501,-0.85449 2.16675,-0.85449 2.80762,0 3.08228,3.96728 l 0.0915,3.57056 q 5.12695,-6.83594 10.52856,-6.83594 4.88282,0 6.80542,4.30298 1.31226,2.86865 1.43433,8.48389 v 3.08227 l -0.0305,2.83814 q 0,2.53296 0.64087,6.56128 0.67139,3.9978 0.67139,6.50024 0,1.34277 -0.88501,2.16675 -0.85449,0.85449 -2.16675,0.85449 z m 53.10059,-15.31982 -0.70191,10.2539 q -0.1831,6.10352 -1.25122,9.97925 -1.37329,4.94385 -4.39453,7.2937 -3.66211,2.83814 -10.5896,2.83814 -4.05884,0 -6.80542,-0.54932 -3.84521,-0.76294 -3.84521,-3.17383 0,-2.71606 2.65502,-2.71606 1.09864,0 3.66211,0.5188 2.56348,0.54931 5.67627,0.48828 5.85938,-0.0916 8.08716,-5.67627 1.46485,-3.72315 1.5564,-11.44409 -1.64795,3.05175 -3.93677,4.57763 -2.2583,1.52588 -5.18799,1.52588 -5.52368,0 -9.00268,-3.75366 -3.44849,-3.78418 -3.44849,-9.79614 0,-8.23975 4.73023,-13.27515 4.88281,-5.18799 13.30566,-5.18799 2.83813,0 4.76074,0.73242 1.92261,0.73243 2.92969,2.19727 3.26538,0.0916 3.26538,3.63159 0,2.16675 -0.64087,5.79834 -0.7019,4.21143 -0.82397,5.73731 z m -9.79615,-13.21412 q -5.79834,0 -8.97216,3.99781 -2.83814,3.60107 -2.83814,9.15527 0,4.42505 1.67847,6.65283 1.67846,2.22779 5.0354,2.22779 3.08227,0 5.98144,-3.47901 2.62452,-3.20434 2.99073,-6.34765 0.64087,-3.2959 1.37329,-10.34546 -1.22071,-0.94605 -2.53296,-1.40381 -1.31226,-0.45777 -2.71607,-0.45777 z m 32.1045,27.771 q -6.89698,0 -11.16944,-3.44849 -4.66919,-3.81469 -4.66919,-10.68115 0,-7.93457 3.84522,-13.30566 4.18091,-5.85938 11.16943,-5.85938 5.06592,0 8.27026,1.70899 3.93677,2.10571 3.93677,6.46972 0,3.05176 -3.44848,5.5542 -1.52588,1.09864 -6.46973,3.41797 l -11.65772,5.52368 q 1.70899,2.53296 4.24195,3.8147 2.56347,1.28174 5.95093,1.28174 2.10571,0 4.94384,-0.79346 3.60108,-1.00708 4.63868,-2.62451 1.03759,-1.64795 2.22778,-1.64795 1.06811,0 1.89209,0.82398 0.85449,0.79345 0.85449,1.86157 0,3.38745 -5.46265,5.82886 -4.66919,2.07519 -9.09423,2.07519 z m -0.82398,-27.80151 q -3.72314,0 -6.19507,2.89917 -2.47192,2.86865 -3.69262,8.66699 l 9.36889,-4.45557 q 5.52368,-2.68554 7.87354,-4.66919 -2.62451,-2.4414 -7.35474,-2.4414 z m 44.21997,28.56445 q -2.62451,0 -2.9602,-2.86865 l -0.8545,-6.68335 q -0.42724,-3.57056 -0.42724,-6.68335 0,-0.85449 0.0915,-2.89917 0.12207,-2.04468 0.12207,-2.89917 0,-6.5918 -2.4414,-6.5918 -3.41797,0 -6.53077,4.05884 -2.80761,3.69263 -4.39453,9.33838 -0.061,1.19018 -0.27466,2.99072 -0.1831,1.52588 -0.1831,2.96021 0,0.91552 0.1831,2.74658 0.18311,1.83105 0.18311,2.74658 0,1.37329 -0.85449,2.22778 -0.82398,0.8545 -2.13623,0.8545 -1.34278,0 -2.16675,-0.8545 -0.82398,-0.85449 -0.82398,-2.22778 0,-0.91553 -0.21362,-2.74658 -0.1831,-1.83106 -0.1831,-2.74658 0,-3.14331 0.42724,-8.69751 0.45777,-5.58472 0.45777,-8.72803 0,-0.97656 -0.12207,-2.89917 -0.0916,-1.92261 -0.0916,-2.89917 0,-1.31226 0.85449,-2.13623 0.88501,-0.85449 2.16675,-0.85449 2.80762,0 3.08228,3.96728 l 0.0915,3.57056 q 5.12695,-6.83594 10.52857,-6.83594 4.88281,0 6.80542,4.30298 1.31225,2.86865 1.43432,8.48389 v 3.08227 l -0.0305,2.83814 q 0,2.53296 0.64087,6.56128 0.67139,3.9978 0.67139,6.50024 0,1.34277 -0.88501,2.16675 -0.85449,0.85449 -2.16675,0.85449 z m 23.55957,-0.76294 q -6.89697,0 -11.16943,-3.44849 -4.66919,-3.81469 -4.66919,-10.68115 0,-7.93457 3.84521,-13.30566 4.18091,-5.85938 11.16944,-5.85938 5.06592,0 8.27026,1.70899 3.93677,2.10571 3.93677,6.46972 0,3.05176 -3.44849,5.5542 -1.52588,1.09864 -6.46972,3.41797 l -11.65772,5.52368 q 1.70899,2.53296 4.24194,3.8147 2.56348,1.28174 5.95093,1.28174 2.10572,0 4.94385,-0.79346 3.60107,-1.00708 4.63867,-2.62451 1.0376,-1.64795 2.22778,-1.64795 1.06812,0 1.89209,0.82398 0.8545,0.79345 0.8545,1.86157 0,3.38745 -5.46265,5.82886 -4.66919,2.07519 -9.09424,2.07519 z m -0.82397,-27.80151 q -3.72315,0 -6.19507,2.89917 -2.47192,2.86865 -3.69263,8.66699 l 9.3689,-4.45557 q 5.52368,-2.68554 7.87353,-4.66919 -2.62451,-2.4414 -7.35473,-2.4414 z m 44.55566,3.84521 q -0.2136,3.8147 -3.0518,3.8147 -2.6245,0 -2.6245,-3.02124 0,-0.57983 -0.091,-2.13623 l -0.092,-2.56348 q -4.8218,0.57984 -7.7209,2.71607 -2.7161,1.98364 -4.5166,5.98144 l 0.061,16.72363 q 0,3.08228 -3.0212,3.08228 -2.6856,0 -2.6856,-3.08228 v -21.42334 q 0,-1.00708 0.061,-3.02124 0.091,-2.01416 0.091,-3.02124 0,-3.08227 2.6856,-3.08227 2.9907,0 3.0212,5.06592 5.8594,-5.64575 13.0005,-5.64575 2.4719,0 3.6926,1.86157 1.2207,1.86157 1.2207,5.61523 0,1.58692 -0.03,2.13623 z m 30.1209,24.56665 q -0.5799,0 -2.1058,-1.34277 -1.3733,-1.25122 -2.0446,-2.22778 -2.9297,1.58691 -5.1575,2.38037 -2.2278,0.82397 -3.7232,0.82397 -7.1411,0 -10.4064,-4.02832 -3.0823,-3.78418 -3.0823,-11.59668 0,-7.38525 5.0659,-12.63428 5.0964,-5.24902 12.146,-5.24902 2.655,0 5.9509,1.37329 4.1504,1.70899 4.1504,4.11987 0,0.82398 -0.6103,1.46485 -0.3052,1.15967 -0.4883,3.8147 -0.1526,2.65503 -0.1831,6.80542 -0.031,3.78418 0.5188,5.98144 0.3051,1.34277 1.9226,5.37109 0.2136,0.54932 0.7019,1.61744 l 0.1831,0.5188 q 0,1.2207 -0.8545,2.01416 -0.8545,0.79345 -1.9836,0.79345 z m -6.3477,-21.20971 q 0,-1.31226 0.1526,-2.83814 0.1831,-1.5564 0.5188,-3.2959 -1.1292,-0.57983 -1.9531,-0.85449 -0.7935,-0.27466 -1.2818,-0.27466 -4.7302,0 -8.1787,3.87573 -3.418,3.84522 -3.418,8.88062 0,5.00488 1.7701,7.50732 1.77,2.50245 5.31,2.50245 2.9297,0 4.9744,-1.06812 1.0986,-0.57983 3.0823,-2.31934 -0.9766,-8.08715 -0.9766,-12.11547 z m 34.9121,-6.80542 q -0.6409,0 -1.5259,-0.061 -0.8545,-0.061 -1.4953,-0.061 -0.7019,0 -4.1504,0.45776 l 0.5798,18.03589 0.03,1.34277 0.031,1.5564 q 0.1221,6.68335 -3.2043,6.68335 -1.2207,0 -2.1362,-0.79346 -0.885,-0.79346 -0.885,-1.98364 0,-1.15967 0.091,-3.47901 0.092,-2.31933 0.092,-3.479 l -0.6104,-17.82227 q -2.2278,-0.0915 -6.7749,-0.51879 -2.7161,-0.36622 -2.7161,-3.02124 0,-1.34278 0.824,-2.22779 0.824,-0.88501 2.1057,-0.88501 l 6.4087,0.5188 q 0,-1.5564 -0.1526,-4.15039 -0.122,-2.62451 -0.122,-3.78418 0,-1.28174 0.885,-2.10571 0.885,-0.85449 2.1667,-0.85449 2.7466,0 3.2044,4.48608 0.091,1.12915 0.091,2.71606 l -0.061,1.77002 -0.03,1.89209 q 3.7841,-0.48828 4.3335,-0.48828 3.1738,0 4.1504,0.30518 1.8615,0.61035 1.8615,2.86865 0,1.34277 -0.8545,2.22778 -0.8239,0.8545 -2.1362,0.8545 z m 23.2849,27.40478 q -6.897,0 -11.1694,-3.44849 -4.6692,-3.81469 -4.6692,-10.68115 0,-7.93457 3.8452,-13.30566 4.1809,-5.85938 11.1694,-5.85938 5.066,0 8.2703,1.70899 3.9368,2.10571 3.9368,6.46972 0,3.05176 -3.4485,5.5542 -1.5259,1.09864 -6.4697,3.41797 l -11.6578,5.52368 q 1.709,2.53296 4.242,3.8147 2.5635,1.28174 5.9509,1.28174 2.1057,0 4.9439,-0.79346 3.601,-1.00708 4.6386,-2.62451 1.0376,-1.64795 2.2278,-1.64795 1.0681,0 1.8921,0.82398 0.8545,0.79345 0.8545,1.86157 0,3.38745 -5.4626,5.82886 -4.6692,2.07519 -9.0943,2.07519 z m -0.824,-27.80151 q -3.7231,0 -6.195,2.89917 -2.472,2.86865 -3.6927,8.66699 l 9.3689,-4.45557 q 5.5237,-2.68554 7.8736,-4.66919 -2.6245,-2.4414 -7.3548,-2.4414 z m 48.9197,-0.54932 q -0.3662,4.48608 -0.3662,8.97217 0,10.16235 0.9461,15.35034 0.061,0.42725 0.061,0.70191 0,1.2207 -0.8545,2.01416 -0.8545,0.79345 -1.9836,0.79345 -1.8921,0 -2.7771,-2.74658 -2.1973,1.61743 -4.5777,2.44141 -2.3498,0.82397 -4.9133,0.82397 -6.3172,0 -10.4675,-4.21142 -4.2725,-4.30298 -4.2725,-11.04737 0,-8.14819 4.303,-13.06152 4.3335,-4.91333 11.2304,-4.91333 3.5401,0 5.4627,1.09863 l 2.8686,2.10571 q 0.4273,-12.8479 1.0071,-17.30346 0.3968,-2.71607 2.7771,-2.71607 2.7771,0 2.7771,2.96021 0,4.24194 -1.2207,18.73779 z m -13.5498,0.79346 q -5.1269,0 -7.6904,3.05176 -2.5635,3.02124 -2.5635,9.12475 0,3.93677 2.7771,6.7749 2.8076,2.83814 6.5613,2.83814 2.5635,0 4.3335,-0.94605 1.0376,-0.54931 3.3874,-2.53296 0.4578,-0.39672 0.885,-0.94604 l -0.091,-5.27954 0.03,-3.54004 0.061,-3.60107 q -1.1596,-2.47193 -3.0822,-3.69263 -1.9226,-1.25122 -4.6082,-1.25122 z m 61.4319,2.65503 q -1.6785,0 -2.3499,-1.12915 -0.4577,-0.79346 -0.7934,-3.2959 -2.2888,0.57983 -7.0496,2.13623 -4.9133,1.95312 -4.9438,4.82178 0.9155,0.33569 1.8005,0.48828 7.0191,1.25122 10.437,3.44848 4.9744,3.20435 4.9744,9.27735 0,4.97436 -4.303,7.50732 -3.5705,2.0752 -9.0332,2.0752 -3.9978,0 -7.6294,-1.34278 -4.6997,-1.70898 -4.6997,-4.76074 0,-1.2207 0.9461,-2.13623 0.9765,-0.91553 2.1972,-0.91553 0.9461,0 2.4414,1.46485 0.7325,0.7019 3.2959,1.15967 2.0447,0.36621 3.4485,0.36621 2.5635,0 4.5166,-0.61036 2.8381,-0.885 2.8381,-2.80761 0,-4.15039 -5.7983,-5.61524 l -3.1738,-0.7019 q -4.0589,-0.88501 -5.7678,-2.0752 -2.472,-1.70898 -2.472,-5.15747 0,-6.37817 6.012,-9.09424 1.8311,-0.82397 5.8594,-1.95312 4.0283,-1.15967 5.7678,-1.95313 1.2512,-0.54931 2.7161,-0.54931 1.3122,0 2.1362,0.85449 0.8545,0.85449 0.8545,2.22778 0,0.88501 0.3662,2.594 0.3967,1.70898 0.3967,2.59399 0,1.37329 -0.8545,2.22779 -0.8239,0.85449 -2.1362,0.85449 z m 30.2429,-2.50244 q -0.6408,0 -1.5259,-0.061 -0.8545,-0.061 -1.4953,-0.061 -0.7019,0 -4.1504,0.45776 l 0.5798,18.03589 0.031,1.34277 0.031,1.5564 q 0.122,6.68335 -3.2044,6.68335 -1.2207,0 -2.1362,-0.79346 -0.885,-0.79346 -0.885,-1.98364 0,-1.15967 0.091,-3.47901 0.092,-2.31933 0.092,-3.479 l -0.6104,-17.82227 q -2.2278,-0.0915 -6.7749,-0.51879 -2.716,-0.36622 -2.716,-3.02124 0,-1.34278 0.8239,-2.22779 0.824,-0.88501 2.1057,-0.88501 l 6.4087,0.5188 q 0,-1.5564 -0.1525,-4.15039 -0.1221,-2.62451 -0.1221,-3.78418 0,-1.28174 0.885,-2.10571 0.885,-0.85449 2.1667,-0.85449 2.7466,0 3.2044,4.48608 0.091,1.12915 0.091,2.71606 l -0.061,1.77002 -0.03,1.89209 q 3.7842,-0.48828 4.3335,-0.48828 3.1738,0 4.1504,0.30518 1.8615,0.61035 1.8615,2.86865 0,1.34277 -0.8544,2.22778 -0.824,0.8545 -2.1363,0.8545 z m 32.7759,3.44848 q -0.2136,3.8147 -3.0518,3.8147 -2.6245,0 -2.6245,-3.02124 0,-0.57983 -0.091,-2.13623 l -0.092,-2.56348 q -4.8218,0.57984 -7.7209,2.71607 -2.7161,1.98364 -4.5166,5.98144 l 0.061,16.72363 q 0,3.08228 -3.0212,3.08228 -2.6856,0 -2.6856,-3.08228 v -21.42334 q 0,-1.00708 0.061,-3.02124 0.091,-2.01416 0.091,-3.02124 0,-3.08227 2.6856,-3.08227 2.9907,0 3.0212,5.06592 5.8594,-5.64575 13.0005,-5.64575 2.4719,0 3.6926,1.86157 1.2207,1.86157 1.2207,5.61523 0,1.58692 -0.031,2.13623 z m 12.1155,-16.08276 q -1.4649,0 -2.533,-1.0376 -1.0681,-1.0376 -1.0681,-2.50244 0,-1.46484 1.0681,-2.50244 1.0681,-1.0376 2.533,-1.0376 1.4648,0 2.5024,1.0376 1.0681,1.0376 1.0681,2.50244 0,1.46484 -1.0681,2.50244 -1.0376,1.0376 -2.5024,1.0376 z m 1.3733,24.78027 q 0,1.83106 0.091,5.49317 0.1221,3.63159 0.1221,5.46264 0,1.34278 -0.824,2.19727 -0.824,0.85449 -2.1667,0.85449 -1.3123,0 -2.1668,-0.85449 -0.824,-0.85449 -0.824,-2.19727 0,-1.83105 -0.122,-5.46264 -0.092,-3.66211 -0.092,-5.49317 0,-2.86865 0.3052,-7.14111 0.3052,-4.30298 0.3052,-7.17163 0,-1.37329 0.8239,-2.22779 0.8545,-0.85449 2.1668,-0.85449 1.3123,0 2.1362,0.85449 0.8545,0.8545 0.8545,2.22779 0,2.86865 -0.3052,7.17163 -0.3051,4.27246 -0.3051,7.14111 z m 33.7219,16.02173 q -2.6245,0 -2.9602,-2.86865 l -0.8545,-6.68335 q -0.4273,-3.57056 -0.4273,-6.68335 0,-0.85449 0.092,-2.89917 0.1221,-2.04468 0.1221,-2.89917 0,-6.5918 -2.4414,-6.5918 -3.418,0 -6.5308,4.05884 -2.8076,3.69263 -4.3945,9.33838 -0.061,1.19018 -0.2747,2.99072 -0.1831,1.52588 -0.1831,2.96021 0,0.91552 0.1831,2.74658 0.1831,1.83105 0.1831,2.74658 0,1.37329 -0.8545,2.22778 -0.8239,0.8545 -2.1362,0.8545 -1.3428,0 -2.1668,-0.8545 -0.8239,-0.85449 -0.8239,-2.22778 0,-0.91553 -0.2136,-2.74658 -0.1832,-1.83106 -0.1832,-2.74658 0,-3.14331 0.4273,-8.69751 0.4578,-5.58472 0.4578,-8.72803 0,-0.97656 -0.1221,-2.89917 -0.092,-1.92261 -0.092,-2.89917 0,-1.31226 0.8545,-2.13623 0.885,-0.85449 2.1668,-0.85449 2.8076,0 3.0822,3.96728 l 0.092,3.57056 q 5.127,-6.83594 10.5286,-6.83594 4.8828,0 6.8054,4.30298 1.3122,2.86865 1.4343,8.48389 v 3.08227 l -0.031,2.83814 q 0,2.53296 0.6409,6.56128 0.6713,3.9978 0.6713,6.50024 0,1.34277 -0.885,2.16675 -0.8545,0.85449 -2.1667,0.85449 z m 34.4238,-15.31982 -0.7019,10.2539 q -0.1831,6.10352 -1.2512,9.97925 -1.3733,4.94385 -4.3945,7.2937 -3.6621,2.83814 -10.5896,2.83814 -4.0589,0 -6.8055,-0.54932 -3.8452,-0.76294 -3.8452,-3.17383 0,-2.71606 2.6551,-2.71606 1.0986,0 3.6621,0.5188 2.5634,0.54931 5.6762,0.48828 5.8594,-0.0916 8.0872,-5.67627 1.4648,-3.72315 1.5564,-11.44409 -1.648,3.05175 -3.9368,4.57763 -2.2583,1.52588 -5.188,1.52588 -5.5236,0 -9.0026,-3.75366 -3.4485,-3.78418 -3.4485,-9.79614 0,-8.23975 4.7302,-13.27515 4.8828,-5.18799 13.3057,-5.18799 2.8381,0 4.7607,0.73242 1.9226,0.73243 2.9297,2.19727 3.2654,0.0916 3.2654,3.63159 0,2.16675 -0.6409,5.79834 -0.7019,4.21143 -0.824,5.73731 z m -9.7961,-13.21412 q -5.7984,0 -8.9722,3.99781 -2.8381,3.60107 -2.8381,9.15527 0,4.42505 1.6784,6.65283 1.6785,2.22779 5.0354,2.22779 3.0823,0 5.9815,-3.47901 2.6245,-3.20434 2.9907,-6.34765 0.6409,-3.2959 1.3733,-10.34546 -1.2207,-0.94605 -2.533,-1.40381 -1.3122,-0.45777 -2.716,-0.45777 z m 38.4521,2.86866 q -1.6784,0 -2.3498,-1.12915 -0.4578,-0.79346 -0.7935,-3.2959 -2.2888,0.57983 -7.0495,2.13623 -4.9134,1.95312 -4.9439,4.82178 0.9155,0.33569 1.8005,0.48828 7.0191,1.25122 10.4371,3.44848 4.9743,3.20435 4.9743,9.27735 0,4.97436 -4.303,7.50732 -3.5705,2.0752 -9.0332,2.0752 -3.9978,0 -7.6294,-1.34278 -4.6997,-1.70898 -4.6997,-4.76074 0,-1.2207 0.9461,-2.13623 0.9765,-0.91553 2.1972,-0.91553 0.9461,0 2.4415,1.46485 0.7324,0.7019 3.2959,1.15967 2.0446,0.36621 3.4484,0.36621 2.5635,0 4.5166,-0.61036 2.8382,-0.885 2.8382,-2.80761 0,-4.15039 -5.7984,-5.61524 l -3.1738,-0.7019 q -4.0588,-0.88501 -5.7678,-2.0752 -2.4719,-1.70898 -2.4719,-5.15747 0,-6.37817 6.0119,-9.09424 1.8311,-0.82397 5.8594,-1.95312 4.0283,-1.15967 5.7678,-1.95313 1.2512,-0.54931 2.7161,-0.54931 1.3122,0 2.1362,0.85449 0.8545,0.85449 0.8545,2.22778 0,0.88501 0.3662,2.594 0.3967,1.70898 0.3967,2.59399 0,1.37329 -0.8544,2.22779 -0.824,0.85449 -2.1363,0.85449 z m 52.3377,25.51269 q -0.5799,0 -2.1057,-1.34277 -1.3733,-1.25122 -2.0447,-2.22778 -2.9297,1.58691 -5.1575,2.38037 -2.2278,0.82397 -3.7231,0.82397 -7.1411,0 -10.4065,-4.02832 -3.0823,-3.78418 -3.0823,-11.59668 0,-7.38525 5.0659,-12.63428 5.0965,-5.24902 12.146,-5.24902 2.655,0 5.9509,1.37329 4.1504,1.70899 4.1504,4.11987 0,0.82398 -0.6103,1.46485 -0.3052,1.15967 -0.4883,3.8147 -0.1526,2.65503 -0.1831,6.80542 -0.03,3.78418 0.5188,5.98144 0.3052,1.34277 1.9226,5.37109 0.2136,0.54932 0.7019,1.61744 l 0.1831,0.5188 q 0,1.2207 -0.8545,2.01416 -0.8545,0.79345 -1.9836,0.79345 z m -6.3477,-21.20971 q 0,-1.31226 0.1526,-2.83814 0.1831,-1.5564 0.5188,-3.2959 -1.1291,-0.57983 -1.9531,-0.85449 -0.7935,-0.27466 -1.2818,-0.27466 -4.7302,0 -8.1787,3.87573 -3.4179,3.84522 -3.4179,8.88062 0,5.00488 1.77,7.50732 1.77,2.50245 5.31,2.50245 2.9297,0 4.9744,-1.06812 1.0986,-0.57983 3.0823,-2.31934 -0.9766,-8.08715 -0.9766,-12.11547 z m 37.9028,21.3623 q -2.6245,0 -2.9602,-2.86865 l -0.8544,-6.68335 q -0.4273,-3.57056 -0.4273,-6.68335 0,-0.85449 0.092,-2.89917 0.122,-2.04468 0.122,-2.89917 0,-6.5918 -2.4414,-6.5918 -3.4179,0 -6.5307,4.05884 -2.8077,3.69263 -4.3946,9.33838 -0.061,1.19018 -0.2746,2.99072 -0.1831,1.52588 -0.1831,2.96021 0,0.91552 0.1831,2.74658 0.1831,1.83105 0.1831,2.74658 0,1.37329 -0.8545,2.22778 -0.824,0.8545 -2.1362,0.8545 -1.3428,0 -2.1668,-0.8545 -0.824,-0.85449 -0.824,-2.22778 0,-0.91553 -0.2136,-2.74658 -0.1831,-1.83106 -0.1831,-2.74658 0,-3.14331 0.4272,-8.69751 0.4578,-5.58472 0.4578,-8.72803 0,-0.97656 -0.1221,-2.89917 -0.091,-1.92261 -0.091,-2.89917 0,-1.31226 0.8545,-2.13623 0.885,-0.85449 2.1667,-0.85449 2.8076,0 3.0823,3.96728 l 0.092,3.57056 q 5.1269,-6.83594 10.5285,-6.83594 4.8828,0 6.8054,4.30298 1.3123,2.86865 1.4344,8.48389 v 3.08227 l -0.03,2.83814 q 0,2.53296 0.6408,6.56128 0.6714,3.9978 0.6714,6.50024 0,1.34277 -0.885,2.16675 -0.8545,0.85449 -2.1668,0.85449 z m 37.4146,-29.11377 q -0.3662,4.48608 -0.3662,8.97217 0,10.16235 0.946,15.35034 0.061,0.42725 0.061,0.70191 0,1.2207 -0.8545,2.01416 -0.8545,0.79345 -1.9837,0.79345 -1.8921,0 -2.7771,-2.74658 -2.1972,1.61743 -4.5776,2.44141 -2.3499,0.82397 -4.9133,0.82397 -6.3172,0 -10.4676,-4.21142 -4.2724,-4.30298 -4.2724,-11.04737 0,-8.14819 4.303,-13.06152 4.3335,-4.91333 11.2304,-4.91333 3.5401,0 5.4627,1.09863 l 2.8686,2.10571 q 0.4273,-12.8479 1.0071,-17.30346 0.3967,-2.71607 2.7771,-2.71607 2.7771,0 2.7771,2.96021 0,4.24194 -1.2207,18.73779 z m -13.5498,0.79346 q -5.127,0 -7.6904,3.05176 -2.5635,3.02124 -2.5635,9.12475 0,3.93677 2.7771,6.7749 2.8076,2.83814 6.5613,2.83814 2.5634,0 4.3335,-0.94605 1.0376,-0.54931 3.3874,-2.53296 0.4578,-0.39672 0.885,-0.94604 l -0.091,-5.27954 0.031,-3.54004 0.061,-3.60107 q -1.1596,-2.47193 -3.0823,-3.69263 -1.9226,-1.25122 -4.6081,-1.25122 z"
       id="text17"
       style="font-size:62.5px;font-family:ComicSansMS, 'Comic Sans MS', cursive"
       aria-label="own generated strings and" /><path
       d="m 768.78766,637.526 q -0.36621,4.48608 -0.36621,8.97217 0,10.16235 0.94604,15.35034 0.061,0.42725 0.061,0.70191 0,1.2207 -0.85449,2.01416 -0.8545,0.79345 -1.98365,0.79345 -1.89209,0 -2.7771,-2.74658 -2.19726,1.61743 -4.57763,2.44141 -2.34986,0.82397 -4.91333,0.82397 -6.31714,0 -10.46753,-4.21142 -4.27246,-4.30298 -4.27246,-11.04737 0,-8.14819 4.30297,-13.06152 4.3335,-4.91333 11.23047,-4.91333 3.54004,0 5.46265,1.09863 l 2.86865,2.10571 q 0.42725,-12.8479 1.00708,-17.30346 0.39673,-2.71607 2.7771,-2.71607 2.7771,0 2.7771,2.96021 0,4.24194 -1.2207,18.73779 z m -13.54981,0.79346 q -5.12695,0 -7.69043,3.05176 -2.56347,3.02124 -2.56347,9.12475 0,3.93677 2.7771,6.7749 2.80761,2.83814 6.56128,2.83814 2.56347,0 4.33349,-0.94605 1.0376,-0.54931 3.38745,-2.53296 0.45777,-0.39672 0.88501,-0.94604 l -0.0915,-5.27954 0.0305,-3.54004 0.061,-3.60107 q -1.15966,-2.47193 -3.08227,-3.69263 -1.92261,-1.25122 -4.60816,-1.25122 z m 45.98999,28.16772 q -0.57983,0 -2.10571,-1.34277 -1.37329,-1.25122 -2.04468,-2.22778 -2.92968,1.58691 -5.15747,2.38037 -2.22778,0.82397 -3.72314,0.82397 -7.14111,0 -10.4065,-4.02832 -3.08227,-3.78418 -3.08227,-11.59668 0,-7.38525 5.06592,-12.63428 5.09643,-5.24902 12.14599,-5.24902 2.65503,0 5.95093,1.37329 4.15039,1.70899 4.15039,4.11987 0,0.82398 -0.61035,1.46485 -0.30518,1.15967 -0.48828,3.8147 -0.15259,2.65503 -0.18311,6.80542 -0.0305,3.78418 0.5188,5.98144 0.30518,1.34277 1.92261,5.37109 0.21362,0.54932 0.7019,1.61744 l 0.18311,0.5188 q 0,1.2207 -0.85449,2.01416 -0.8545,0.79345 -1.98365,0.79345 z m -6.34765,-21.20971 q 0,-1.31226 0.15259,-2.83814 0.1831,-1.5564 0.51879,-3.2959 -1.12915,-0.57983 -1.95312,-0.85449 -0.79346,-0.27466 -1.28174,-0.27466 -4.73022,0 -8.17871,3.87573 -3.41797,3.84522 -3.41797,8.88062 0,5.00488 1.77002,7.50732 1.77002,2.50245 5.31006,2.50245 2.92969,0 4.97437,-1.06812 1.09863,-0.57983 3.08227,-2.31934 -0.97656,-8.08715 -0.97656,-12.11547 z m 34.91211,-6.80542 q -0.64087,0 -1.52588,-0.061 -0.85449,-0.061 -1.49536,-0.061 -0.70191,0 -4.15039,0.45776 l 0.57983,18.03589 0.0305,1.34277 0.0305,1.5564 q 0.12207,6.68335 -3.20435,6.68335 -1.2207,0 -2.13623,-0.79346 -0.88501,-0.79346 -0.88501,-1.98364 0,-1.15967 0.0916,-3.47901 0.0916,-2.31933 0.0916,-3.479 l -0.61036,-17.82227 q -2.22778,-0.0915 -6.7749,-0.51879 -2.71606,-0.36622 -2.71606,-3.02124 0,-1.34278 0.82397,-2.22779 0.82398,-0.88501 2.10571,-0.88501 l 6.4087,0.5188 q 0,-1.5564 -0.15259,-4.15039 -0.12207,-2.62451 -0.12207,-3.78418 0,-1.28174 0.88501,-2.10571 0.88501,-0.85449 2.16675,-0.85449 2.74658,0 3.20434,4.48608 0.0915,1.12915 0.0915,2.71606 l -0.061,1.77002 -0.0305,1.89209 q 3.78418,-0.48828 4.3335,-0.48828 3.17383,0 4.15039,0.30518 1.86157,0.61035 1.86157,2.86865 0,1.34277 -0.85449,2.22778 -0.82398,0.8545 -2.13623,0.8545 z m 32.86743,28.01513 q -0.57983,0 -2.10571,-1.34277 -1.37329,-1.25122 -2.04468,-2.22778 -2.92969,1.58691 -5.15747,2.38037 -2.22779,0.82397 -3.72315,0.82397 -7.14111,0 -10.40649,-4.02832 -3.08228,-3.78418 -3.08228,-11.59668 0,-7.38525 5.06592,-12.63428 5.09644,-5.24902 12.146,-5.24902 2.65503,0 5.95093,1.37329 4.15039,1.70899 4.15039,4.11987 0,0.82398 -0.61036,1.46485 -0.30517,1.15967 -0.48828,3.8147 -0.15258,2.65503 -0.1831,6.80542 -0.0305,3.78418 0.5188,5.98144 0.30517,1.34277 1.9226,5.37109 0.21363,0.54932 0.70191,1.61744 l 0.1831,0.5188 q 0,1.2207 -0.85449,2.01416 -0.85449,0.79345 -1.98364,0.79345 z m -6.34766,-21.20971 q 0,-1.31226 0.15259,-2.83814 0.18311,-1.5564 0.5188,-3.2959 -1.12915,-0.57983 -1.95313,-0.85449 -0.79345,-0.27466 -1.28173,-0.27466 -4.73023,0 -8.17871,3.87573 -3.41797,3.84522 -3.41797,8.88062 0,5.00488 1.77002,7.50732 1.77002,2.50245 5.31005,2.50245 2.92969,0 4.97437,-1.06812 1.09863,-0.57983 3.08228,-2.31934 -0.97657,-8.08715 -0.97657,-12.11547 z m 39.00147,-19.4397 q -1.46485,0 -2.53296,-1.0376 -1.06812,-1.0376 -1.06812,-2.50244 0,-1.46484 1.06812,-2.50244 1.06811,-1.0376 2.53296,-1.0376 1.46484,0 2.50244,1.0376 1.06811,1.0376 1.06811,2.50244 0,1.46484 -1.06811,2.50244 -1.0376,1.0376 -2.50244,1.0376 z m 1.37329,24.78027 q 0,1.83106 0.0915,5.49317 0.12207,3.63159 0.12207,5.46264 0,1.34278 -0.82397,2.19727 -0.82398,0.85449 -2.16675,0.85449 -1.31226,0 -2.16675,-0.85449 -0.82397,-0.85449 -0.82397,-2.19727 0,-1.83105 -0.12207,-5.46264 -0.0916,-3.66211 -0.0916,-5.49317 0,-2.86865 0.30518,-7.14111 0.30517,-4.30298 0.30517,-7.17163 0,-1.37329 0.82398,-2.22779 0.85449,-0.85449 2.16675,-0.85449 1.31225,0 2.13623,0.85449 0.85449,0.8545 0.85449,2.22779 0,2.86865 -0.30518,7.17163 -0.30517,4.27246 -0.30517,7.14111 z m 33.72192,16.02173 q -2.62451,0 -2.9602,-2.86865 l -0.85449,-6.68335 q -0.42725,-3.57056 -0.42725,-6.68335 0,-0.85449 0.0915,-2.89917 0.12207,-2.04468 0.12207,-2.89917 0,-6.5918 -2.4414,-6.5918 -3.41797,0 -6.53077,4.05884 -2.80761,3.69263 -4.39453,9.33838 -0.061,1.19018 -0.27466,2.99072 -0.1831,1.52588 -0.1831,2.96021 0,0.91552 0.1831,2.74658 0.18311,1.83105 0.18311,2.74658 0,1.37329 -0.85449,2.22778 -0.82398,0.8545 -2.13623,0.8545 -1.34278,0 -2.16675,-0.8545 -0.82398,-0.85449 -0.82398,-2.22778 0,-0.91553 -0.21362,-2.74658 -0.1831,-1.83106 -0.1831,-2.74658 0,-3.14331 0.42724,-8.69751 0.45777,-5.58472 0.45777,-8.72803 0,-0.97656 -0.12207,-2.89917 -0.0916,-1.92261 -0.0916,-2.89917 0,-1.31226 0.8545,-2.13623 0.88501,-0.85449 2.16674,-0.85449 2.80762,0 3.08228,3.96728 l 0.0915,3.57056 q 5.12695,-6.83594 10.52857,-6.83594 4.88281,0 6.80542,4.30298 1.31225,2.86865 1.43432,8.48389 v 3.08227 l -0.0305,2.83814 q 0,2.53296 0.64087,6.56128 0.67139,3.9978 0.67139,6.50024 0,1.34277 -0.88501,2.16675 -0.85449,0.85449 -2.16675,0.85449 z m 29.72412,-28.16772 q -0.64087,0 -1.52588,-0.061 -0.85449,-0.061 -1.49536,-0.061 -0.7019,0 -4.15039,0.45776 l 0.57984,18.03589 0.0305,1.34277 0.0305,1.5564 q 0.12207,6.68335 -3.20434,6.68335 -1.22071,0 -2.13623,-0.79346 -0.88501,-0.79346 -0.88501,-1.98364 0,-1.15967 0.0915,-3.47901 0.0915,-2.31933 0.0915,-3.479 l -0.61035,-17.82227 q -2.22778,-0.0915 -6.7749,-0.51879 -2.71607,-0.36622 -2.71607,-3.02124 0,-1.34278 0.82398,-2.22779 0.82397,-0.88501 2.10571,-0.88501 l 6.40869,0.5188 q 0,-1.5564 -0.15259,-4.15039 -0.12207,-2.62451 -0.12207,-3.78418 0,-1.28174 0.88501,-2.10571 0.88501,-0.85449 2.16675,-0.85449 2.74658,0 3.20435,4.48608 0.0915,1.12915 0.0915,2.71606 l -0.061,1.77002 -0.0305,1.89209 q 3.78418,-0.48828 4.33349,-0.48828 3.17383,0 4.15039,0.30518 1.86158,0.61035 1.86158,2.86865 0,1.34277 -0.8545,2.22778 -0.82397,0.8545 -2.13623,0.8545 z m 20.4773,27.80151 q -5.12695,0 -8.81958,-3.78418 -4.11987,-4.21143 -4.3335,-11.32202 -0.1831,-6.89697 3.47901,-12.146 4.27246,-6.19507 11.90185,-6.19507 6.10352,0 9.24683,5.58472 2.50244,4.5166 2.41089,10.86426 -0.0916,6.7749 -3.54004,11.56616 -3.90625,5.43213 -10.34546,5.43213 z m 1.83105,-27.2522 q -4.48608,-0.0305 -6.98852,4.27246 -1.98364,3.44849 -1.98364,7.87354 0,4.42505 2.41088,6.89697 2.01416,2.04468 4.73023,2.04468 3.17383,0 5.46264,-2.31934 2.594,-2.56347 2.74659,-6.92749 0.42724,-11.8103 -6.37818,-11.84082 z m 58.68528,-0.54931 q -0.6408,0 -1.5259,-0.061 -0.8544,-0.061 -1.4953,-0.061 -0.7019,0 -4.1504,0.45776 l 0.5798,18.03589 0.031,1.34277 0.031,1.5564 q 0.122,6.68335 -3.2044,6.68335 -1.2207,0 -2.1362,-0.79346 -0.885,-0.79346 -0.885,-1.98364 0,-1.15967 0.091,-3.47901 0.092,-2.31933 0.092,-3.479 l -0.6104,-17.82227 q -2.2278,-0.0915 -6.7749,-0.51879 -2.716,-0.36622 -2.716,-3.02124 0,-1.34278 0.8239,-2.22779 0.824,-0.88501 2.1058,-0.88501 l 6.4086,0.5188 q 0,-1.5564 -0.1525,-4.15039 -0.1221,-2.62451 -0.1221,-3.78418 0,-1.28174 0.885,-2.10571 0.885,-0.85449 2.1667,-0.85449 2.7466,0 3.2044,4.48608 0.091,1.12915 0.091,2.71606 l -0.061,1.77002 -0.031,1.89209 q 3.7842,-0.48828 4.3335,-0.48828 3.1738,0 4.1504,0.30518 1.8615,0.61035 1.8615,2.86865 0,1.34277 -0.8544,2.22778 -0.824,0.8545 -2.1363,0.8545 z m 34.5764,27.89306 q -2.1667,0 -2.8381,-2.31933 -0.7019,-2.50245 -1.2817,-7.1106 -0.5493,-4.42505 -0.5493,-7.26318 0,-0.79346 0.061,-2.41089 0.091,-1.61743 0.091,-2.41089 0,-5.7373 -2.8686,-5.7373 -3.8757,0 -6.9275,3.50952 -1.5564,1.80053 -4.2725,6.86645 0,11.6272 -0.9765,13.76343 -0.8545,1.89209 -2.6551,1.89209 -1.2512,0 -2.1972,-0.85449 -0.9461,-0.8545 -0.9461,-2.0752 0,-0.42724 0.2747,-1.34277 0.2441,-0.76294 0.3357,-4.45557 l 0.091,-4.5166 0.092,-22.43042 q 0.2136,-3.78418 0.2136,-5.09644 0,-1.55639 -0.3052,-2.92968 -0.2746,-1.40381 -0.2746,-2.89917 0,-1.28174 0.885,-2.10572 0.885,-0.85449 2.1667,-0.85449 2.5025,0 2.9297,2.68555 0.4883,2.9602 0.4883,5.34058 0,3.20434 -0.2136,6.68334 -0.1831,3.32642 -0.1526,6.68335 l 0.031,2.68555 q 2.5025,-3.35693 5.3406,-5.00488 2.8686,-1.67847 6.073,-1.67847 5.0659,0 6.958,3.2959 1.3428,2.31934 1.5259,7.8125 l 0.2441,5.82886 0.6104,6.34765 q 0.4272,3.57056 1.0376,6.28663 0.122,0.51879 0.122,0.885 0,1.25123 -0.9155,2.0752 -0.9155,0.85449 -2.1973,0.85449 z m 24.8108,-0.48828 q -6.8969,0 -11.1694,-3.44849 -4.6692,-3.81469 -4.6692,-10.68115 0,-7.93457 3.8452,-13.30566 4.1809,-5.85938 11.1695,-5.85938 5.0659,0 8.2702,1.70899 3.9368,2.10571 3.9368,6.46972 0,3.05176 -3.4485,5.5542 -1.5259,1.09864 -6.4697,3.41797 l -11.6577,5.52368 q 1.7089,2.53296 4.2419,3.8147 2.5635,1.28174 5.9509,1.28174 2.1057,0 4.9439,-0.79346 3.6011,-1.00708 4.6387,-2.62451 1.0376,-1.64795 2.2277,-1.64795 1.0682,0 1.8921,0.82398 0.8545,0.79345 0.8545,1.86157 0,3.38745 -5.4626,5.82886 -4.6692,2.07519 -9.0943,2.07519 z m -0.8239,-27.80151 q -3.7232,0 -6.1951,2.89917 -2.4719,2.86865 -3.6926,8.66699 l 9.3689,-4.45557 q 5.5236,-2.68554 7.8735,-4.66919 -2.6245,-2.4414 -7.3547,-2.4414 z m 50.9338,28.19824 q -5.127,0 -8.8196,-3.78418 -4.1199,-4.21143 -4.3335,-11.32202 -0.1831,-6.89697 3.479,-12.146 4.2725,-6.19507 11.9019,-6.19507 6.1035,0 9.2468,5.58472 2.5024,4.5166 2.4109,10.86426 -0.092,6.7749 -3.54,11.56616 -3.9063,5.43213 -10.3455,5.43213 z m 1.8311,-27.2522 q -4.4861,-0.0305 -6.9886,4.27246 -1.9836,3.44849 -1.9836,7.87354 0,4.42505 2.4109,6.89697 2.0141,2.04468 4.7302,2.04468 3.1738,0 5.4626,-2.31934 2.594,-2.56347 2.7466,-6.92749 0.4273,-11.8103 -6.3781,-11.84082 z m 44.4946,7.6294 q 0,2.19726 0.031,6.59179 0.03,4.39453 0.03,6.5918 0,0.67139 0.092,2.04468 0.122,1.37329 0.122,2.04468 0,1.31225 -0.885,2.13623 -0.885,0.85449 -2.1667,0.85449 -2.3499,0 -2.9907,-2.89917 -3.8147,1.98364 -8.7891,1.98364 -3.9978,0 -6.6223,-1.77002 -2.8992,-1.95312 -3.4485,-5.70679 -1.1902,-8.08715 -1.1902,-14.40429 0,-4.18091 0.9155,-9.52149 0.4273,-2.65503 2.8992,-2.65503 1.3123,0 2.1973,0.8545 0.885,0.82397 0.885,2.13623 0,1.40381 -0.4578,4.48608 -0.4272,3.08228 -0.4272,4.69971 0,5.09643 0.3357,8.72803 0.3357,3.63159 1.007,5.82885 1.0071,0.54932 1.9837,0.85449 0.9766,0.27466 1.9226,0.27466 4.0894,0 8.6365,-1.31225 l -0.031,-6.19507 -0.061,-5.92041 q 0,-6.5918 0.5799,-11.44409 0.3356,-2.80762 2.9602,-2.80762 1.3122,0 2.1972,0.85449 0.885,0.85449 0.824,2.13623 z m 28.0151,-8.17871 q -0.6409,0 -1.5259,-0.061 -0.8545,-0.061 -1.4953,-0.061 -0.7019,0 -4.1504,0.45776 l 0.5798,18.03589 0.031,1.34277 0.031,1.5564 q 0.122,6.68335 -3.2044,6.68335 -1.2207,0 -2.1362,-0.79346 -0.885,-0.79346 -0.885,-1.98364 0,-1.15967 0.091,-3.47901 0.092,-2.31933 0.092,-3.479 l -0.6104,-17.82227 q -2.2278,-0.0915 -6.7749,-0.51879 -2.716,-0.36622 -2.716,-3.02124 0,-1.34278 0.8239,-2.22779 0.824,-0.88501 2.1057,-0.88501 l 6.4087,0.5188 q 0,-1.5564 -0.1526,-4.15039 -0.122,-2.62451 -0.122,-3.78418 0,-1.28174 0.885,-2.10571 0.885,-0.85449 2.1667,-0.85449 2.7466,0 3.2044,4.48608 0.091,1.12915 0.091,2.71606 l -0.061,1.77002 -0.031,1.89209 q 3.7842,-0.48828 4.3335,-0.48828 3.1738,0 4.1504,0.30518 1.8615,0.61035 1.8615,2.86865 0,1.34277 -0.8545,2.22778 -0.8239,0.8545 -2.1362,0.8545 z m 22.0032,27.06909 q -3.0518,0 -6.7139,-0.97656 l -0.061,14.5874 q 0,1.34277 -0.8545,2.19726 -0.824,0.8545 -2.1362,0.8545 -1.3123,0 -2.1668,-0.8545 -0.824,-0.85449 -0.824,-2.19726 l 0.092,-12.20703 v -12.17652 q -0.092,-6.68335 -0.4578,-12.17651 l -0.4577,-6.19507 q 0,-2.16675 0.7934,-3.66211 0.9156,-1.80054 2.6551,-1.80054 1.1901,0 1.9836,0.8545 0.824,0.82397 0.824,2.04467 0,0.27466 -0.092,1.00708 -0.1526,0.94605 -0.2136,1.73951 2.6245,-1.80054 5.0659,-2.68555 2.4414,-0.91553 4.6692,-0.91553 6.2561,0 9.1553,5.5542 2.2888,4.39453 2.2888,11.6272 0,6.5918 -3.54,10.86426 -3.7537,4.5166 -10.0098,4.5166 z m 2.1057,-26.45874 q -2.8076,0 -5.0659,1.25122 -1.6174,0.88501 -4.0894,3.23486 0.3968,6.92749 0.3968,14.55689 3.3264,1.28173 6.6528,1.28173 3.8147,0 5.8288,-2.83813 1.7395,-2.47192 1.7395,-6.40869 0,-5.5542 -1.3732,-8.30078 -1.3428,-2.7771 -4.0894,-2.7771 z m 43.2434,7.56836 q 0,2.19726 0.03,6.59179 0.031,4.39453 0.031,6.5918 0,0.67139 0.092,2.04468 0.1221,1.37329 0.1221,2.04468 0,1.31225 -0.885,2.13623 -0.885,0.85449 -2.1668,0.85449 -2.3498,0 -2.9907,-2.89917 -3.8147,1.98364 -8.7891,1.98364 -3.9978,0 -6.6223,-1.77002 -2.8992,-1.95312 -3.4485,-5.70679 -1.1902,-8.08715 -1.1902,-14.40429 0,-4.18091 0.9156,-9.52149 0.4272,-2.65503 2.8991,-2.65503 1.3123,0 2.1973,0.8545 0.885,0.82397 0.885,2.13623 0,1.40381 -0.4578,4.48608 -0.4272,3.08228 -0.4272,4.69971 0,5.09643 0.3357,8.72803 0.3357,3.63159 1.0071,5.82885 1.0071,0.54932 1.9836,0.85449 0.9766,0.27466 1.9226,0.27466 4.0894,0 8.6365,-1.31225 l -0.031,-6.19507 -0.061,-5.92041 q 0,-6.5918 0.5799,-11.44409 0.3357,-2.80762 2.9602,-2.80762 1.3122,0 2.1973,0.85449 0.885,0.85449 0.8239,2.13623 z m 28.0151,-8.17871 q -0.6408,0 -1.5258,-0.061 -0.8545,-0.061 -1.4954,-0.061 -0.7019,0 -4.1504,0.45776 l 0.5799,18.03589 0.031,1.34277 0.03,1.5564 q 0.1221,6.68335 -3.2044,6.68335 -1.2207,0 -2.1362,-0.79346 -0.885,-0.79346 -0.885,-1.98364 0,-1.15967 0.092,-3.47901 0.091,-2.31933 0.091,-3.479 l -0.6103,-17.82227 q -2.2278,-0.0915 -6.7749,-0.51879 -2.7161,-0.36622 -2.7161,-3.02124 0,-1.34278 0.824,-2.22779 0.8239,-0.88501 2.1057,-0.88501 l 6.4087,0.5188 q 0,-1.5564 -0.1526,-4.15039 -0.1221,-2.62451 -0.1221,-3.78418 0,-1.28174 0.885,-2.10571 0.885,-0.85449 2.1668,-0.85449 2.7465,0 3.2043,4.48608 0.092,1.12915 0.092,2.71606 l -0.061,1.77002 -0.03,1.89209 q 3.7842,-0.48828 4.3335,-0.48828 3.1738,0 4.1504,0.30518 1.8616,0.61035 1.8616,2.86865 0,1.34277 -0.8545,2.22778 -0.824,0.8545 -2.1363,0.8545 z m 12.9395,28.83911 q -1.5869,0 -2.6855,-1.09864 -1.0987,-1.09863 -1.0987,-2.68554 0,-1.5564 1.0987,-2.65503 1.0986,-1.12915 2.6855,-1.12915 1.5564,0 2.655,1.12915 1.1292,1.09863 1.1292,2.65503 0,1.58691 -1.1292,2.68554 -1.0986,1.09864 -2.655,1.09864 z"
       id="text18"
       style="font-size:62.5px;font-family:ComicSansMS, 'Comic Sans MS', cursive"
       aria-label="data into the output." /></g><path
     d="m 1062.8152,102.00204 q 0,3.57055 -1.0071,6.56128 -1.0071,2.9602 -2.8992,5.09643 -1.8921,2.10571 -4.6081,3.2959 -2.7161,1.15967 -6.1646,1.15967 -3.2959,0 -5.9204,-1.00708 -2.594,-1.0376 -4.425,-3.02124 -1.8006,-1.98364 -2.7771,-4.91333 -0.9461,-2.92969 -0.9461,-6.74439 0,-3.570553 1.0071,-6.500241 1.0071,-2.960205 2.8992,-5.065918 1.8921,-2.13623 4.6081,-3.295898 2.7161,-1.190186 6.1646,-1.190186 3.2959,0 5.8899,1.037598 2.6245,1.00708 4.425,2.990722 1.8311,1.953125 2.7771,4.882813 0.9766,2.929687 0.9766,6.71387 z m -5.4321,0.24414 q 0,-2.838137 -0.6409,-4.94385 -0.6104,-2.13623 -1.77,-3.540039 -1.1597,-1.434326 -2.8382,-2.136231 -1.6479,-0.732421 -3.6926,-0.732421 -2.3804,0 -4.0893,0.946045 -1.6785,0.915527 -2.7771,2.471923 -1.0682,1.556397 -1.587,3.631592 -0.4882,2.044678 -0.4882,4.302981 0,2.83813 0.6103,4.97436 0.6409,2.13623 1.8005,3.57056 1.1597,1.40381 2.8077,2.13623 1.6479,0.7019 3.7231,0.7019 2.3804,0 4.0588,-0.91552 1.709,-0.94605 2.7771,-2.50244 1.0987,-1.5564 1.587,-3.60108 0.5188,-2.07519 0.5188,-4.36401 z m 37.7502,15.31982 h -4.7607 l -0.1831,-4.94385 q -1.3733,1.58692 -2.6246,2.65503 -1.2207,1.0376 -2.4414,1.67847 -1.2207,0.64087 -2.4719,0.88501 -1.2207,0.27466 -2.594,0.27466 -4.7302,0 -7.1411,-2.7771 -2.4109,-2.7771 -2.4109,-8.39234 V 86.926353 h 5.3101 v 19.592287 q 0,7.04956 5.31,7.04956 0.9766,0 1.8921,-0.27466 0.9461,-0.30517 1.9531,-1.00708 1.0376,-0.73242 2.1973,-1.95312 1.1902,-1.22071 2.655,-3.08228 V 86.926353 h 5.3101 z m 34.4238,-0.42724 q -1.8005,0.45776 -3.7231,0.64086 -1.9226,0.21363 -3.9063,0.21363 -5.7678,0 -8.6059,-2.594 -2.8382,-2.62451 -2.8382,-8.02612 V 91.38192 h -8.5754 v -4.455567 h 8.5754 v -8.422851 l 5.3101,-1.373291 v 9.796142 h 13.7634 v 4.455567 h -13.7634 v 15.56396 q 0,3.2959 1.7395,4.94385 1.77,1.61743 5.188,1.61743 1.4648,0 3.2043,-0.21362 1.7395,-0.24414 3.6316,-0.73242 z m 35.8582,-15.4419 q 0,4.08936 -1.1597,7.14111 -1.1291,3.05176 -3.1433,5.06592 -2.0142,2.01416 -4.7607,3.02124 -2.7466,1.00708 -5.951,1.00708 -1.4648,0 -2.9297,-0.15259 -1.4343,-0.15258 -2.9296,-0.51879 v 12.81738 h -5.3101 V 86.926353 h 4.7302 l 0.3357,5.126954 q 2.2888,-3.143311 4.8828,-4.394532 2.594,-1.281738 5.6153,-1.281738 2.6245,0 4.6081,1.098633 1.9837,1.098633 3.3264,3.112793 1.3428,1.983642 2.0142,4.821777 0.6714,2.807617 0.6714,6.28662 z m -5.4321,0.24414 q 0,-2.410887 -0.3663,-4.425047 -0.3356,-2.01416 -1.0986,-3.448486 -0.7629,-1.434326 -1.9531,-2.227783 -1.1902,-0.823975 -2.8381,-0.823975 -1.0071,0 -2.0447,0.335693 -1.0376,0.305176 -2.1668,1.068116 -1.0986,0.732421 -2.3498,1.983642 -1.2207,1.220703 -2.6245,3.051758 v 14.862062 q 1.4648,0.61035 3.0822,0.97656 1.6175,0.33569 3.1739,0.33569 4.3029,0 6.7443,-2.89917 2.4415,-2.92968 2.4415,-8.78906 z m 38.2385,15.625 h -4.7608 l -0.1831,-4.94385 q -1.3733,1.58692 -2.6245,2.65503 -1.2207,1.0376 -2.4414,1.67847 -1.2207,0.64087 -2.4719,0.88501 -1.2207,0.27466 -2.594,0.27466 -4.7302,0 -7.1411,-2.7771 -2.4109,-2.7771 -2.4109,-8.39234 V 86.926353 h 5.3101 v 19.592287 q 0,7.04956 5.31,7.04956 0.9766,0 1.8921,-0.27466 0.946,-0.30517 1.9531,-1.00708 1.0376,-0.73242 2.1973,-1.95312 1.1902,-1.22071 2.655,-3.08228 V 86.926353 h 5.3101 z m 34.4238,-0.42724 q -1.8005,0.45776 -3.7231,0.64086 -1.9226,0.21363 -3.9063,0.21363 -5.7678,0 -8.6059,-2.594 -2.8382,-2.62451 -2.8382,-8.02612 V 91.38192 h -8.5754 v -4.455567 h 8.5754 v -8.422851 l 5.3101,-1.373291 v 9.796142 h 13.7634 v 4.455567 h -13.7634 v 15.56396 q 0,3.2959 1.7395,4.94385 1.77,1.61743 5.188,1.61743 1.4648,0 3.2043,-0.21362 1.7395,-0.24414 3.6316,-0.73242 z m 21.7285,-9.1858 q 1.0376,0 1.9531,0.39673 0.9461,0.39673 1.6175,1.09864 0.7019,0.7019 1.0986,1.64795 0.3967,0.91552 0.3967,1.98364 0,1.0376 -0.3967,1.95312 -0.3967,0.91553 -1.0986,1.61743 -0.6714,0.67139 -1.6175,1.06812 -0.9155,0.39673 -1.9531,0.39673 -1.0681,0 -1.9836,-0.39673 -0.9155,-0.39673 -1.6175,-1.06812 -0.6713,-0.7019 -1.0681,-1.61743 -0.3967,-0.91552 -0.3967,-1.95312 0,-1.06812 0.3967,-1.98364 0.3968,-0.94605 1.0681,-1.64795 0.702,-0.70191 1.6175,-1.09864 0.9155,-0.39673 1.9836,-0.39673 z m 48.4925,-6.2561 q 0,3.8147 -1.0682,6.83594 -1.0376,2.99072 -2.9907,5.09643 -1.9226,2.0752 -4.6997,3.20435 -2.7771,1.09863 -6.2561,1.09863 -2.7161,0 -5.5542,-0.5188 -2.8381,-0.51879 -5.6152,-1.64795 V 74.444664 h 5.31 v 11.871338 l -0.2441,5.676269 q 2.2888,-3.082275 4.8828,-4.333496 2.6245,-1.281738 5.6152,-1.281738 2.6245,0 4.6082,1.098633 1.9836,1.098633 3.3264,3.112793 1.3428,1.983642 2.0142,4.821777 0.6714,2.807617 0.6714,6.28662 z m -5.4322,0.24414 q 0,-2.410887 -0.3662,-4.425047 -0.3357,-2.01416 -1.0986,-3.448486 -0.763,-1.434326 -1.9531,-2.227783 -1.1902,-0.823975 -2.8382,-0.823975 -1.0071,0 -2.0447,0.335693 -1.0376,0.305176 -2.1667,1.068116 -1.0986,0.732421 -2.3499,1.983642 -1.2207,1.220703 -2.6245,3.051758 v 14.862062 q 1.5564,0.61035 3.1739,0.97656 1.6174,0.33569 3.0822,0.33569 1.8311,0 3.479,-0.57983 1.6785,-0.57983 2.9297,-1.92261 1.2818,-1.37329 2.0142,-3.60107 0.7629,-2.2583 0.7629,-5.58472 z m 24.0479,-10.620115 h -9.0637 v -4.394532 h 14.4348 v 26.214597 h 9.1247 v 4.42505 h -24.5666 v -4.42505 h 10.0708 z m 1.8616,-17.242432 q 0.885,0 1.6479,0.335693 0.7629,0.305176 1.3123,0.88501 0.5798,0.579834 0.885,1.342774 0.3357,0.732422 0.3357,1.617431 0,0.854492 -0.3357,1.617432 -0.3052,0.762939 -0.885,1.342773 -0.5494,0.579834 -1.3123,0.915528 -0.7629,0.305175 -1.6479,0.305175 -0.8851,0 -1.648,-0.305175 -0.7629,-0.335694 -1.3428,-0.915528 -0.5493,-0.579834 -0.885,-1.342773 -0.3052,-0.76294 -0.3052,-1.617432 0,-0.885009 0.3052,-1.617431 0.3357,-0.76294 0.885,-1.342774 0.5799,-0.579834 1.3428,-0.88501 0.7629,-0.335693 1.648,-0.335693 z m 22.0642,12.8479 h 4.7302 l 0.2136,4.943848 q 1.3428,-1.586914 2.594,-2.624512 1.2512,-1.068115 2.4414,-1.708984 1.2207,-0.640869 2.4719,-0.88501 1.2513,-0.274658 2.594,-0.274658 4.7302,0 7.1411,2.807617 2.4414,2.7771 2.4414,8.392334 V 117.566 h -5.31 V 98.004234 q 0,-3.601074 -1.3428,-5.310058 -1.3428,-1.739502 -3.9978,-1.739502 -0.9766,0 -1.9226,0.305176 -0.9155,0.274658 -1.9226,1.00708 -1.0071,0.701904 -2.1973,1.922607 -1.1596,1.220703 -2.6245,3.051758 V 117.566 h -5.31 z"
     id="text19"
     style="font-size:62.5px;font-family:Consolas, monospace"
     aria-label="output.bin" /><path
     d="M1067.17,169.268l34.384,9.278l-33.074,13.208l-1.31,-22.486Z"
     style="fill:#f2780d;"
     id="path19" /><path
     d="M494.74,658.356c285.712,-1.62 330.661,-448.325 579.836,-478.238"
     style="fill:none;stroke:#f2780d;stroke-width:2.98px;"
     id="path20" /><path
     d="M1067.36,480.15l34.199,9.937l-33.322,12.57l-0.877,-22.507Z"
     style="fill:#f2780d;"
     id="path21" /><path
     d="M494.74,814.89c285.702,-1.62 330.658,-303.621 579.811,-323.75"
     style="fill:none;stroke:#f2780d;stroke-width:2.98px;"
     id="path22" /></svg>
