<?xml version="1.0" encoding="UTF-8" standalone="no"?><!DOCTYPE svg PUBLIC "-//W3C//DTD SVG 1.1//EN" "http://www.w3.org/Graphics/SVG/1.1/DTD/svg11.dtd"><svg width="100%" height="100%" viewBox="0 0 1442 860" version="1.1" xmlns="http://www.w3.org/2000/svg" xmlns:xlink="http://www.w3.org/1999/xlink" xml:space="preserve" xmlns:serif="http://www.serif.com/" style="fill-rule:evenodd;clip-rule:evenodd;stroke-linecap:round;stroke-linejoin:round;stroke-miterlimit:1.5;"><rect x="0" y="0" width="1441.86" height="859.471" style="fill:#fff;"/><rect x="889.764" y="399.26" width="205.049" height="425.946" style="fill:#b4b4b4;"/><rect x="889.764" y="332.173" width="205.049" height="67.087" style="fill:#d8d8d8;"/><g><path d="M912.018,397.26l33.927,-61.913" style="fill:none;stroke:#626262;stroke-width:1px;"/><path d="M895.547,397.26l33.927,-61.913" style="fill:none;stroke:#626262;stroke-width:1px;"/><path d="M895.547,366.304l16.964,-30.957" style="fill:none;stroke:#626262;stroke-width:1px;"/><path d="M928.982,397.26l33.927,-61.913" style="fill:none;stroke:#626262;stroke-width:1px;"/><path d="M945.945,397.26l33.927,-61.913" style="fill:none;stroke:#626262;stroke-width:1px;"/><path d="M962.909,397.26l33.927,-61.913" style="fill:none;stroke:#626262;stroke-width:1px;"/><path d="M979.872,397.26l33.927,-61.913" style="fill:none;stroke:#626262;stroke-width:1px;"/><path d="M996.836,397.26l33.927,-61.913" style="fill:none;stroke:#626262;stroke-width:1px;"/><path d="M1013.8,397.26l33.927,-61.913" style="fill:none;stroke:#626262;stroke-width:1px;"/><path d="M1030.76,397.26l33.927,-61.913" style="fill:none;stroke:#626262;stroke-width:1px;"/><path d="M1047.73,397.26l33.927,-61.913" style="fill:none;stroke:#626262;stroke-width:1px;"/><path d="M1064.69,397.26l24.34,-44.418" style="fill:none;stroke:#626262;stroke-width:1px;"/><path d="M1081.65,397.26l7.377,-13.462" style="fill:none;stroke:#626262;stroke-width:1px;"/></g><g><g><rect x="889.764" y="640.284" width="205.049" height="184.922" style="fill:#d6e8fd;stroke:#0d79f2;stroke-width:6.25px;"/><text x="974.234px" y="750.652px" style="font-family:'ArialMT', 'Arial', sans-serif;font-size:50px;fill:#0078b3;">C</text></g></g><g transform="matrix(1,0,0,1,-708.517,-162.769)"><text x="736.439px" y="539.473px" style="font-family:'ComicSansMS', 'Comic Sans MS', cursive;font-size:62.5px;">You need to align parts of</text><text x="736.439px" y="601.973px" style="font-family:'ComicSansMS', 'Comic Sans MS', cursive;font-size:62.5px;">the output to always start</text><text x="736.439px" y="664.473px" style="font-family:'ComicSansMS', 'Comic Sans MS', cursive;font-size:62.5px;">on a certain boundary.</text></g><text x="1130.15px" y="496.015px" style="font-family:'ComicSansMS', 'Comic Sans MS', cursive;font-size:41.667px;">Aligned Start</text><text x="1130.15px" y="382.675px" style="font-family:'ComicSansMS', 'Comic Sans MS', cursive;font-size:41.667px;">Pad Bytes</text><g transform="matrix(1,0,0,1,393.717,-226.551)"><text x="736.439px" y="452.008px" style="font-family:'ComicSansMS', 'Comic Sans MS', cursive;font-size:41.667px;">End of</text><text x="736.439px" y="493.675px" style="font-family:'ComicSansMS', 'Comic Sans MS', cursive;font-size:41.667px;">Previous</text></g><text x="818.28px" y="61.744px" style="font-family:'Consolas', monospace;font-size:62.5px;">output.bin</text><path d="M1094.81,332.173l288.705,-0" style="fill:none;stroke:#808080;stroke-width:6.25px;stroke-dasharray:6.25,18.75,6.25,18.75;"/><path d="M1094.81,400.443l288.705,-0" style="fill:none;stroke:#808080;stroke-width:6.25px;stroke-dasharray:6.25,18.75,6.25,18.75;"/><path d="M889.764,514.337l205.049,0" style="fill:none;stroke:#0d79f2;stroke-width:2.11px;"/><path d="M889.764,514.337l205.049,0" style="fill:none;stroke:#0d79f2;stroke-width:2.11px;"/><g><g><rect x="889.764" y="147.251" width="205.049" height="184.922" style="fill:#d6e8fd;stroke:#0d79f2;stroke-width:6.25px;"/><text x="975.614px" y="257.62px" style="font-family:'ArialMT', 'Arial', sans-serif;font-size:50px;fill:#0078b3;">A</text></g></g><g><rect x="889.764" y="399.26" width="205.049" height="183.348" style="fill:#d6e8fd;stroke:#0d79f2;stroke-width:6.25px;"/><text x="975.614px" y="458.597px" style="font-family:'ArialMT', 'Arial', sans-serif;font-size:50px;fill:#0078b3;">B</text></g><path d="M1199.13,279.07l-96.539,53.103" style="fill:none;stroke:#626262;stroke-width:1.04px;"/><path d="M1199.13,456.287l-96.539,-53.103" style="fill:none;stroke:#626262;stroke-width:1.04px;"/></svg>