<?xml version="1.0" encoding="UTF-8" standalone="no"?><!DOCTYPE svg PUBLIC "-//W3C//DTD SVG 1.1//EN" "http://www.w3.org/Graphics/SVG/1.1/DTD/svg11.dtd"><svg width="100%" height="100%" viewBox="0 0 1448 607" version="1.1" xmlns="http://www.w3.org/2000/svg" xmlns:xlink="http://www.w3.org/1999/xlink" xml:space="preserve" xmlns:serif="http://www.serif.com/" style="fill-rule:evenodd;clip-rule:evenodd;stroke-linecap:round;stroke-linejoin:round;stroke-miterlimit:1.5;"><rect x="0" y="429.229" width="262.359" height="100.577" style="fill:#fff2bb;"/><text x="12.081px" y="490.3px" style="font-family:'ArialMT', 'Arial', sans-serif;font-size:41.667px;">Logical Start</text><g><rect x="903.575" y="506.371" width="262.359" height="100.577" style="fill:#fff2bb;"/><g transform="matrix(1,0,0,1,564.418,-132.169)"><text x="397.573px" y="683.501px" style="font-family:'ArialMT', 'Arial', sans-serif;font-size:41.667px;">Current</text><text x="388.275px" y="726.531px" style="font-family:'ArialMT', 'Arial', sans-serif;font-size:41.667px;">Location</text></g></g><rect x="340.478" y="1.06" width="1105.7" height="243.192" style="fill:#ebebeb;stroke:#000446;stroke-width:2.12px;"/><text x="712.627px" y="60.709px" style="font-family:'ArialMT', 'Arial', sans-serif;font-size:50px;">Output File</text><rect x="445.073" y="111.406" width="234.624" height="132.847" style="fill:#bbd8ff;stroke:#000446;stroke-width:1.89px;"/><rect x="1103.28" y="111.406" width="234.624" height="132.847" style="fill:#bbd8ff;stroke:#000446;stroke-width:1.89px;"/><g transform="matrix(1,0,0,1,94.5408,-512.529)"><text x="385.987px" y="683.501px" style="font-family:'ArialMT', 'Arial', sans-serif;font-size:41.667px;">Previous</text><text x="397.553px" y="726.531px" style="font-family:'ArialMT', 'Arial', sans-serif;font-size:41.667px;">Section</text></g><rect x="679.698" y="111.406" width="423.577" height="132.847" style="fill:#bbd8ff;stroke:#000446;stroke-width:1.89px;"/><g transform="matrix(1,0,0,1,443.659,-512.529)"><text x="397.573px" y="683.501px" style="font-family:'ArialMT', 'Arial', sans-serif;font-size:41.667px;">Current</text><text x="397.553px" y="726.531px" style="font-family:'ArialMT', 'Arial', sans-serif;font-size:41.667px;">Section</text></g><text x="353.864px" y="182.58px" style="font-family:'ArialMT', 'Arial', sans-serif;font-size:100px;">...</text><text x="1346.8px" y="182.58px" style="font-family:'ArialMT', 'Arial', sans-serif;font-size:100px;">...</text><g transform="matrix(1,0,0,1,754.044,-512.529)"><text x="424.205px" y="683.501px" style="font-family:'ArialMT', 'Arial', sans-serif;font-size:41.667px;">Next</text><text x="397.553px" y="726.531px" style="font-family:'ArialMT', 'Arial', sans-serif;font-size:41.667px;">Section</text></g><path d="M1025.06,275.214l10.32,-30.962l10.321,30.962l-20.641,-0Z" style="fill:#000446;"/><path d="M1035.38,502.887l0,-233.866" style="fill:none;stroke:#000446;stroke-width:2.12px;"/><path d="M340.478,479.517l-0,-235.265" style="fill:none;stroke:#000446;stroke-width:2.12px;"/><path d="M679.139,352.575l0,-108.323" style="fill:none;stroke:#000446;stroke-width:2.12px;"/><path d="M1016.3,414.569l19.078,6.36l-19.078,6.359l0,-12.719Z" style="fill:#000446;"/><path d="M340.478,420.929l679.637,-0" style="fill:none;stroke:#000446;stroke-width:2.12px;"/><path d="M1016.3,346.216l19.078,6.359l-19.078,6.36l0,-12.719Z" style="fill:#000446;"/><path d="M679.139,352.575l340.976,0" style="fill:none;stroke:#000446;stroke-width:2.12px;"/><path d="M1016.3,473.158l19.078,6.359l-19.078,6.36l0,-12.719Z" style="fill:#000446;"/><path d="M340.478,479.517l679.637,0" style="fill:none;stroke:#000446;stroke-width:2.12px;"/><rect x="392.543" y="399.934" width="233.379" height="41.989" style="fill:#fff;"/><rect x="743.098" y="331.581" width="233.379" height="41.989" style="fill:#fff;"/><rect x="392.543" y="458.523" width="233.379" height="41.989" style="fill:#fff;"/><text x="410.65px" y="433.154px" style="font-family:'ArialMT', 'Arial', sans-serif;font-size:41.667px;">&apos;img&apos; oﬀset</text><text x="762.355px" y="364.801px" style="font-family:'ArialMT', 'Arial', sans-serif;font-size:41.667px;">&apos;sec&apos; oﬀset</text><text x="410.629px" y="491.743px" style="font-family:'ArialMT', 'Arial', sans-serif;font-size:41.667px;">&apos;abs&apos; oﬀset</text><text x="303.639px" y="434.672px" style="font-family:'ArialMT', 'Arial', sans-serif;font-size:41.667px;">0</text><text x="640.525px" y="366.318px" style="font-family:'ArialMT', 'Arial', sans-serif;font-size:41.667px;">0</text><path d="M340.478,479.517l-78.119,0" style="fill:none;stroke:#000446;stroke-width:2.12px;stroke-dasharray:2.12,8.48,0,0;"/></svg>