<?xml version="1.0" encoding="UTF-8" standalone="no"?><!DOCTYPE svg PUBLIC "-//W3C//DTD SVG 1.1//EN" "http://www.w3.org/Graphics/SVG/1.1/DTD/svg11.dtd"><svg width="100%" height="100%" viewBox="0 0 1494 633" version="1.1" xmlns="http://www.w3.org/2000/svg" xmlns:xlink="http://www.w3.org/1999/xlink" xml:space="preserve" xmlns:serif="http://www.serif.com/" style="fill-rule:evenodd;clip-rule:evenodd;stroke-linecap:round;stroke-linejoin:round;stroke-miterlimit:1.5;"><rect x="0" y="0" width="1493.79" height="632.978" style="fill:#fff;"/><rect x="14.503" y="455.259" width="262.359" height="100.577" style="fill:#fff2bb;"/><text x="26.584px" y="516.33px" style="font-family:'ArialMT', 'Arial', sans-serif;font-size:41.667px;">Logical Start</text><g><rect x="918.077" y="532.4" width="262.359" height="100.577" style="fill:#fff2bb;"/><g transform="matrix(1,0,0,1,578.921,-106.14)"><text x="397.573px" y="683.501px" style="font-family:'ArialMT', 'Arial', sans-serif;font-size:41.667px;">Current</text><text x="388.275px" y="726.531px" style="font-family:'ArialMT', 'Arial', sans-serif;font-size:41.667px;">Location</text></g></g><rect x="354.98" y="27.09" width="1105.7" height="243.192" style="fill:#ebebeb;stroke:#000446;stroke-width:2.12px;"/><text x="727.13px" y="86.739px" style="font-family:'ArialMT', 'Arial', sans-serif;font-size:50px;">Output File</text><rect x="459.576" y="137.435" width="234.624" height="132.847" style="fill:#bbd8ff;stroke:#000446;stroke-width:1.89px;"/><rect x="1117.78" y="137.435" width="234.624" height="132.847" style="fill:#bbd8ff;stroke:#000446;stroke-width:1.89px;"/><g transform="matrix(1,0,0,1,109.044,-486.499)"><text x="385.987px" y="683.501px" style="font-family:'ArialMT', 'Arial', sans-serif;font-size:41.667px;">Previous</text><text x="397.553px" y="726.531px" style="font-family:'ArialMT', 'Arial', sans-serif;font-size:41.667px;">Section</text></g><rect x="694.201" y="137.435" width="423.577" height="132.847" style="fill:#bbd8ff;stroke:#000446;stroke-width:1.89px;"/><g transform="matrix(1,0,0,1,458.162,-486.499)"><text x="397.573px" y="683.501px" style="font-family:'ArialMT', 'Arial', sans-serif;font-size:41.667px;">Current</text><text x="397.553px" y="726.531px" style="font-family:'ArialMT', 'Arial', sans-serif;font-size:41.667px;">Section</text></g><text x="368.367px" y="208.609px" style="font-family:'ArialMT', 'Arial', sans-serif;font-size:100px;">...</text><text x="1361.3px" y="208.609px" style="font-family:'ArialMT', 'Arial', sans-serif;font-size:100px;">...</text><g transform="matrix(1,0,0,1,768.547,-486.499)"><text x="424.205px" y="683.501px" style="font-family:'ArialMT', 'Arial', sans-serif;font-size:41.667px;">Next</text><text x="397.553px" y="726.531px" style="font-family:'ArialMT', 'Arial', sans-serif;font-size:41.667px;">Section</text></g><path d="M1039.56,301.243l10.32,-30.961l10.321,30.961l-20.641,0Z" style="fill:#000446;"/><path d="M1049.88,528.916l0,-233.865" style="fill:none;stroke:#000446;stroke-width:2.12px;"/><path d="M354.98,505.547l0,-235.265" style="fill:none;stroke:#000446;stroke-width:2.12px;"/><path d="M693.642,378.605l-0,-108.323" style="fill:none;stroke:#000446;stroke-width:2.12px;"/><path d="M1030.8,440.599l19.078,6.36l-19.078,6.359l0,-12.719Z" style="fill:#000446;"/><path d="M354.98,446.959l679.638,-0" style="fill:none;stroke:#000446;stroke-width:2.12px;"/><path d="M1030.8,372.246l19.078,6.359l-19.078,6.359l0,-12.718Z" style="fill:#000446;"/><path d="M693.642,378.605l340.976,-0" style="fill:none;stroke:#000446;stroke-width:2.12px;"/><path d="M1030.8,499.188l19.078,6.359l-19.078,6.36l0,-12.719Z" style="fill:#000446;"/><path d="M354.98,505.547l679.638,0" style="fill:none;stroke:#000446;stroke-width:2.12px;"/><rect x="407.045" y="425.964" width="233.379" height="41.989" style="fill:#fff;"/><rect x="757.601" y="357.611" width="233.379" height="41.989" style="fill:#fff;"/><rect x="407.045" y="484.553" width="233.379" height="41.989" style="fill:#fff;"/><text x="425.153px" y="459.184px" style="font-family:'ArialMT', 'Arial', sans-serif;font-size:41.667px;">&apos;img&apos; oﬀset</text><text x="776.858px" y="390.831px" style="font-family:'ArialMT', 'Arial', sans-serif;font-size:41.667px;">&apos;sec&apos; oﬀset</text><text x="425.132px" y="517.773px" style="font-family:'ArialMT', 'Arial', sans-serif;font-size:41.667px;">&apos;abs&apos; oﬀset</text><text x="318.142px" y="460.702px" style="font-family:'ArialMT', 'Arial', sans-serif;font-size:41.667px;">0</text><text x="655.027px" y="392.348px" style="font-family:'ArialMT', 'Arial', sans-serif;font-size:41.667px;">0</text><path d="M354.98,505.547l-78.118,0" style="fill:none;stroke:#000446;stroke-width:2.12px;stroke-dasharray:2.12,8.48,0,0;"/></svg>