<?xml version="1.0" encoding="UTF-8" standalone="no"?>
<svg
   width="100%"
   height="100%"
   viewBox="0 0 1442 981"
   version="1.1"
   xml:space="preserve"
   style="fill-rule:evenodd;clip-rule:evenodd;stroke-linecap:round;stroke-linejoin:round;stroke-miterlimit:1.5;"
   id="svg29"
   xmlns="http://www.w3.org/2000/svg"
   xmlns:svg="http://www.w3.org/2000/svg"><defs
     id="defs29" /><rect
     x="0"
     y="-0"
     width="1441.86"
     height="980.175"
     style="fill:#fff;"
     id="rect1" /><rect
     x="889.764"
     y="118.761"
     width="205.049"
     height="827.148"
     style="fill:#b4b4b4;"
     id="rect2" /><g
     id="g4"><g
       id="g3"><rect
         x="889.764"
         y="299.519"
         width="205.049"
         height="184.922"
         style="fill:#d6e8fd;stroke:#0d79f2;stroke-width:6.25px;"
         id="rect3" /><path
         d="m 975.54077,409.888 13.74512,-35.79102 h 5.10254 l 14.64847,35.79102 h -5.3955 l -4.17485,-10.83984 h -14.96582 l -3.93066,10.83984 z m 10.32715,-14.69727 h 12.13379 l -3.73535,-9.9121 q -1.70899,-4.51661 -2.53907,-7.42188 -0.68359,3.44238 -1.92871,6.83594 z"
         id="text3"
         style="font-size:50px;font-family:ArialMT, Arial, sans-serif;fill:#0078b3"
         aria-label="A" /></g></g><g
     id="g5"><rect
       x="889.764"
       y="577.028"
       width="205.049"
       height="184.922"
       style="fill:#d6e8fd;stroke:#0d79f2;stroke-width:6.25px;"
       id="rect4" /><path
       d="m 979.27612,687.39697 v -35.79101 h 13.42774 q 4.10156,0 6.56738,1.09863 2.49026,1.07422 3.88186,3.34473 1.416,2.24609 1.416,4.71191 0,2.29492 -1.2451,4.32129 -1.2451,2.02637 -3.75979,3.27148 3.24709,0.95215 4.98049,3.24707 1.7578,2.29493 1.7578,5.41993 0,2.51464 -1.0742,4.6875 -1.0498,2.14843 -2.6123,3.32031 -1.5625,1.17187 -3.9307,1.78223 -2.34375,0.58593 -5.76172,0.58593 z m 4.73633,-20.75195 h 7.73926 q 3.14941,0 4.5166,-0.41504 1.80664,-0.53711 2.70996,-1.78223 0.92774,-1.24511 0.92774,-3.125 0,-1.78222 -0.8545,-3.125 -0.85449,-1.36718 -2.4414,-1.85546 -1.58692,-0.5127 -5.44434,-0.5127 h -7.15332 z m 0,16.52832 h 8.91113 q 2.29493,0 3.22266,-0.1709 1.63574,-0.29297 2.73438,-0.97656 1.09863,-0.68359 1.80668,-1.97754 0.708,-1.31836 0.708,-3.02734 0,-2.00196 -1.0254,-3.4668 -1.02542,-1.48926 -2.85647,-2.0752 -1.80664,-0.61035 -5.22461,-0.61035 h -8.27637 z"
       id="text4"
       style="font-size:50px;font-family:ArialMT, Arial, sans-serif;fill:#0078b3"
       aria-label="B" /></g><g
     id="g7"><g
       id="g6"><rect
         x="889.764"
         y="760.987"
         width="205.049"
         height="184.922"
         style="fill:#d6e8fd;stroke:#0d79f2;stroke-width:6.25px;"
         id="rect5" /><path
         d="m 1003.6285,858.80719 4.7364,1.19629 q -1.4893,5.83496 -5.3711,8.91113 -3.85745,3.05176 -9.44827,3.05176 -5.78613,0 -9.42383,-2.34375 -3.61328,-2.36816 -5.51757,-6.83594 -1.87989,-4.46777 -1.87989,-9.59472 0,-5.59082 2.12403,-9.74122 2.14843,-4.1748 6.0791,-6.32324 3.95508,-2.17285 8.6914,-2.17285 5.3711,0 9.03323,2.73438 3.6621,2.73437 5.1025,7.69043 l -4.6631,1.09863 q -1.2451,-3.90625 -3.61325,-5.68848 -2.36816,-1.78222 -5.95703,-1.78222 -4.12598,0 -6.90918,1.97753 -2.75879,1.97754 -3.88184,5.32227 -1.12304,3.32031 -1.12304,6.86035 0,4.56543 1.31836,7.9834 1.34277,3.39355 4.15039,5.07812 2.80761,1.68458 6.0791,1.68458 3.97949,0 6.73828,-2.29493 2.75881,-2.29492 3.73531,-6.81152 z"
         id="text5"
         style="font-size:50px;font-family:ArialMT, Arial, sans-serif;fill:#0078b3"
         aria-label="C" /></g></g><rect
     x="889.764"
     y="118.761"
     width="205.049"
     height="50.382"
     style="fill:#fef1e6;stroke:#f2780d;stroke-width:6.25px;"
     id="rect7" /><rect
     x="889.764"
     y="169.143"
     width="205.049"
     height="50.382"
     style="fill:#fef1e6;stroke:#f2780d;stroke-width:6.25px;"
     id="rect8" /><g
     id="g9"><rect
       x="889.764"
       y="484.441"
       width="205.049"
       height="50.382"
       style="fill:#fef1e6;stroke:#f2780d;stroke-width:6.25px;"
       id="rect9" /><path
       d="m 926.35429,506.36876 q 0,1.30207 -0.48828,2.58786 -0.48828,1.26952 -1.51366,2.27863 -1.02538,1.0091 -2.62041,1.64386 -1.59504,0.61848 -3.80856,0.61848 h -2.63669 v 7.63339 h -2.89711 v -21.27257 h 5.98953 q 1.57876,0 3.02731,0.35807 1.44855,0.34179 2.53904,1.12303 1.10676,0.78124 1.75779,2.01821 0.65104,1.23697 0.65104,3.01104 z m -3.01104,0.13021 q 0,-2.05076 -1.3509,-3.14125 -1.33462,-1.09048 -3.74345,-1.09048 h -2.96221 v 8.75642 h 2.70179 q 2.57159,0 3.95504,-1.12304 1.39973,-1.12303 1.39973,-3.40165 z m 21.63064,6.33131 q 0,1.90428 -0.5371,3.49932 -0.53711,1.57876 -1.54621,2.71807 -1.00911,1.12303 -2.45766,1.75779 -1.44855,0.61849 -3.28773,0.61849 -1.75779,0 -3.15752,-0.53711 -1.38345,-0.55338 -2.36,-1.61131 -0.96028,-1.05793 -1.4811,-2.62042 -0.50456,-1.56248 -0.50456,-3.59696 0,-1.90428 0.53711,-3.46677 0.5371,-1.57876 1.54621,-2.70179 1.0091,-1.13931 2.45765,-1.7578 1.44856,-0.63476 3.28773,-0.63476 1.7578,0 3.14125,0.55338 1.39972,0.53711 2.36,1.59504 0.97655,1.04166 1.4811,2.60414 0.52083,1.56248 0.52083,3.58069 z m -2.89711,0.13021 q 0,-1.51366 -0.34179,-2.63669 -0.32552,-1.13931 -0.944,-1.888 -0.61848,-0.76497 -1.51366,-1.13932 -0.87889,-0.39062 -1.96938,-0.39062 -1.26952,0 -2.18097,0.50456 -0.89517,0.48827 -1.4811,1.31834 -0.56966,0.83007 -0.84635,1.93683 -0.26041,1.09049 -0.26041,2.2949 0,1.51366 0.32552,2.65297 0.34179,1.13931 0.96027,1.90428 0.61849,0.74869 1.49738,1.13931 0.8789,0.37434 1.98566,0.37434 1.26952,0 2.16469,-0.48827 0.91145,-0.50456 1.48111,-1.33463 0.58593,-0.83007 0.84634,-1.92055 0.27669,-1.10676 0.27669,-2.32745 z m 12.56498,-5.82676 h -4.83393 V 504.79 h 7.69849 v 13.98098 h 4.86649 v 2.36 h -13.10209 v -2.36 h 5.37104 z m 0.99283,-9.19588 q 0.472,0 0.8789,0.17904 0.4069,0.16276 0.69986,0.472 0.30924,0.30924 0.472,0.71614 0.17904,0.39062 0.17904,0.86262 0,0.45572 -0.17904,0.86262 -0.16276,0.4069 -0.472,0.71614 -0.29296,0.30924 -0.69986,0.48828 -0.4069,0.16275 -0.8789,0.16275 -0.472,0 -0.8789,-0.16275 -0.40689,-0.17904 -0.71613,-0.48828 -0.29297,-0.30924 -0.47201,-0.71614 -0.16275,-0.4069 -0.16275,-0.86262 0,-0.472 0.16275,-0.86262 0.17904,-0.4069 0.47201,-0.71614 0.30924,-0.30924 0.71613,-0.472 0.4069,-0.17904 0.8789,-0.17904 z m 11.76746,6.85215 h 2.52276 l 0.11394,2.63669 q 0.71613,-0.84634 1.38345,-1.39972 0.66731,-0.56966 1.30207,-0.91145 0.65103,-0.3418 1.31834,-0.472 0.66731,-0.14649 1.38345,-0.14649 2.52276,0 3.80856,1.49738 1.30207,1.48111 1.30207,4.47587 v 10.6607 h -2.83201 v -10.43284 q 0,-1.92055 -0.71613,-2.832 -0.71614,-0.92773 -2.13214,-0.92773 -0.52083,0 -1.02538,0.16276 -0.48828,0.14649 -1.02538,0.53711 -0.53711,0.37434 -1.17187,1.02538 -0.61848,0.65103 -1.39972,1.62759 v 10.83973 h -2.83201 z m 31.49383,16.11312 q -0.96028,0.24414 -1.98566,0.34179 -1.02538,0.11393 -2.08331,0.11393 -3.07614,0 -4.5898,-1.38345 -1.51366,-1.39972 -1.51366,-4.28055 v -8.52856 h -4.57352 V 504.79 h 4.57352 v -4.49214 l 2.83201,-0.73242 V 504.79 h 7.34042 v 2.37628 h -7.34042 v 8.3007 q 0,1.75779 0.92772,2.63669 0.944,0.86262 2.7669,0.86262 0.78124,0 1.70897,-0.11393 0.92772,-0.13021 1.93683,-0.39062 z m 18.96142,-8.80525 q 0,0.60221 -0.016,1.0091 -0.016,0.4069 -0.049,0.76497 h -11.4745 q 0,2.50648 1.3997,3.85738 1.3997,1.33462 4.0364,1.33462 0.7162,0 1.4323,-0.0488 0.7161,-0.0651 1.3834,-0.16276 0.6674,-0.0977 1.2696,-0.21159 0.6184,-0.13021 1.1393,-0.27669 v 2.32745 q -1.1556,0.32552 -2.6204,0.52083 -1.4486,0.21159 -3.0111,0.21159 -2.0996,0 -3.6132,-0.56966 -1.5137,-0.56965 -2.4902,-1.64386 -0.9603,-1.09049 -1.4323,-2.65297 -0.4557,-1.57876 -0.4557,-3.56442 0,-1.72524 0.4882,-3.25517 0.5046,-1.54621 1.4486,-2.7018 0.9603,-1.17186 2.3437,-1.85545 1.3835,-0.68359 3.1413,-0.68359 1.7089,0 3.0273,0.53711 1.3183,0.5371 2.2135,1.52993 0.9114,0.97655 1.3672,2.39255 0.472,1.39973 0.472,3.14125 z m -2.946,-0.4069 q 0.049,-1.09048 -0.2115,-1.98566 -0.2605,-0.91144 -0.8138,-1.56248 -0.5371,-0.65104 -1.3509,-1.0091 -0.8138,-0.37435 -1.888,-0.37435 -0.9278,0 -1.6927,0.35807 -0.765,0.35807 -1.3184,1.0091 -0.5534,0.65104 -0.8952,1.56249 -0.3417,0.91145 -0.4231,2.00193 z m 8.138,-6.90097 h 2.5878 l 0.081,3.01104 q 1.4486,-1.74152 2.8483,-2.52276 1.416,-0.78125 2.8483,-0.78125 2.539,0 3.8411,1.64387 1.3183,1.64386 1.2207,4.88276 h -2.8646 q 0.049,-2.14842 -0.6347,-3.10869 -0.6673,-0.97656 -1.9694,-0.97656 -0.5697,0 -1.1556,0.21159 -0.5697,0.19531 -1.1881,0.65104 -0.6022,0.43945 -1.2858,1.13931 -0.6836,0.69986 -1.4649,1.69269 v 10.49794 h -2.8645 z m 49.5763,15.54346 q -2.5553,1.05794 -5.3548,1.05794 -4.5084,0 -6.9335,-2.68552 -2.4088,-2.7018 -2.4088,-7.97519 0,-2.55531 0.6673,-4.62234 0.6673,-2.06704 1.9043,-3.49932 1.2369,-1.44855 2.9947,-2.22979 1.7578,-0.78125 3.9388,-0.78125 1.4811,0 2.7506,0.26042 1.2695,0.24414 2.4414,0.76496 v 2.84828 q -1.1556,-0.63476 -2.3925,-0.96027 -1.237,-0.3418 -2.7018,-0.3418 -1.4974,0 -2.7181,0.56966 -1.2044,0.55338 -2.0508,1.62759 -0.8463,1.05793 -1.302,2.60414 -0.4558,1.52993 -0.4558,3.49931 0,4.13407 1.6764,6.23366 1.6765,2.09959 4.9154,2.09959 1.3671,0 2.6204,-0.30924 1.2532,-0.32552 2.4088,-0.89517 z"
       id="text9"
       style="font-size:33.333px;font-family:Consolas, monospace;fill:#f2780d"
       aria-label="Pointer C" /></g><path
     d="M1181.53,260.998l-12.841,38.521l-12.84,-38.521l25.681,0Z"
     style="fill:#f2780d;"
     id="path9" /><path
     d="M1168.68,118.761l0,149.941"
     style="fill:none;stroke:#f2780d;stroke-width:6.25px;"
     id="path10" /><path
     d="M1236.61,538.507l-12.841,38.521l-12.84,-38.521l25.681,-0Z"
     style="fill:#f2780d;"
     id="path11" /><path
     d="M1223.77,118.761l0,427.45"
     style="fill:none;stroke:#f2780d;stroke-width:6.25px;"
     id="path12" /><path
     d="M1291.7,722.929l-12.84,38.521l-12.84,-38.521l25.68,-0Z"
     style="fill:#f2780d;"
     id="path13" /><path
     d="M1278.86,118.761l-0,611.872"
     style="fill:none;stroke:#f2780d;stroke-width:6.25px;"
     id="path14" /><path
     d="M1164,146.238l4.687,1.562l-4.687,1.563l-0,-3.125Z"
     style="fill:#f2780d;"
     id="path15" /><path
     d="M1094.81,147.8l70.121,0"
     style="fill:none;stroke:#f2780d;stroke-width:1.04px;stroke-dasharray:0,0.05,0,0;"
     id="path16" /><path
     d="M1219.09,194.036l4.687,1.562l-4.687,1.563l-0,-3.125Z"
     style="fill:#f2780d;"
     id="path17" /><path
     d="M1094.81,195.598l125.21,0"
     style="fill:none;stroke:#f2780d;stroke-width:1.04px;stroke-dasharray:0,0.05,0,0;"
     id="path18" /><path
     d="M1274.17,508.369l4.688,1.563l-4.688,1.562l0,-3.125Z"
     style="fill:#f2780d;"
     id="path19" /><path
     d="M1094.81,509.932l180.299,-0"
     style="fill:none;stroke:#f2780d;stroke-width:1.04px;stroke-dasharray:0,0.05,0,0;"
     id="path20" /><g
     transform="matrix(1,0,0,1,-679.417,-127.459)"
     id="g23"><path
       d="m 772.20563,469.19101 q -0.73242,1.15967 -1.95313,3.57056 l -5.24902,12.96997 q -3.05176,7.2937 -5.73731,12.75634 l -3.81469,6.80542 -1.61743,3.2959 q -1.00708,1.77002 -2.71607,1.77002 -1.19018,0 -2.16675,-0.88501 -0.97656,-0.88501 -0.97656,-2.19726 0,-1.0376 2.86865,-6.50025 l 3.75366,-6.86645 q -5.46264,-7.04956 -7.08007,-11.1084 -1.37329,-3.44849 -4.57764,-8.27026 -4.39453,-6.5918 -5.15747,-7.96509 -0.45776,-0.82398 -0.45776,-1.64795 0,-1.31226 0.94604,-2.19727 0.97656,-0.91552 2.19727,-0.91552 1.49536,0 2.50244,1.43432 l 2.4414,3.78418 q 3.23487,4.79126 4.27246,6.53076 2.28882,3.75367 3.57056,6.95801 1.00708,2.53296 4.30298,6.92749 l 6.98853,-17.02881 q 1.19018,-2.10571 3.29589,-6.50024 0.8545,-2.0752 2.83814,-2.0752 1.2207,0 2.16675,0.8545 0.97656,0.85449 0.97656,2.19726 0,1.40381 -1.61743,4.30298 z m 19.6228,40.83252 q -5.12695,0 -8.81958,-3.78418 -4.11987,-4.21143 -4.3335,-11.32202 -0.1831,-6.89697 3.47901,-12.146 4.27246,-6.19507 11.90185,-6.19507 6.10352,0 9.24683,5.58472 2.50244,4.5166 2.41089,10.86426 -0.0915,6.7749 -3.54004,11.56616 -3.90625,5.43213 -10.34546,5.43213 z m 1.83105,-27.2522 q -4.48608,-0.0305 -6.98852,4.27246 -1.98364,3.44849 -1.98364,7.87354 0,4.42505 2.41089,6.89697 2.01416,2.04468 4.73022,2.04468 3.17383,0 5.46265,-2.31934 2.59399,-2.56347 2.74658,-6.92749 0.42724,-11.8103 -6.37818,-11.84082 z m 44.49463,7.6294 q 0,2.19726 0.0305,6.59179 0.0305,4.39453 0.0305,6.5918 0,0.67139 0.0915,2.04468 0.12207,1.37329 0.12207,2.04468 0,1.31225 -0.88501,2.13623 -0.88501,0.85449 -2.16675,0.85449 -2.34985,0 -2.99072,-2.89917 -3.8147,1.98364 -8.78906,1.98364 -3.9978,0 -6.62232,-1.77002 -2.89917,-1.95312 -3.44848,-5.70679 -1.19019,-8.08715 -1.19019,-14.40429 0,-4.18091 0.91553,-9.52149 0.42725,-2.65503 2.89917,-2.65503 1.31226,0 2.19727,0.8545 0.88501,0.82397 0.88501,2.13623 0,1.4038 -0.45777,4.48608 -0.42724,3.08228 -0.42724,4.69971 0,5.09643 0.33569,8.72802 0.33569,3.6316 1.00708,5.82886 1.00708,0.54932 1.98364,0.85449 0.97656,0.27466 1.92261,0.27466 4.08935,0 8.63647,-1.31225 l -0.0305,-6.19507 -0.061,-5.92041 q 0,-6.5918 0.57983,-11.44409 0.3357,-2.80762 2.96021,-2.80762 1.31226,0 2.19727,0.85449 0.88501,0.85449 0.82397,2.13623 z m 49.68262,19.98901 q -2.62451,0 -2.9602,-2.86865 l -0.8545,-6.68335 q -0.42724,-3.57056 -0.42724,-6.68335 0,-0.85449 0.0915,-2.89917 0.12207,-2.04468 0.12207,-2.89917 0,-6.5918 -2.44141,-6.5918 -3.41796,0 -6.53076,4.05884 -2.80761,3.69263 -4.39453,9.33838 -0.061,1.19018 -0.27466,2.99072 -0.1831,1.52588 -0.1831,2.96021 0,0.91552 0.1831,2.74658 0.18311,1.83105 0.18311,2.74658 0,1.37329 -0.85449,2.22778 -0.82398,0.8545 -2.13623,0.8545 -1.34278,0 -2.16675,-0.8545 -0.82398,-0.85449 -0.82398,-2.22778 0,-0.91553 -0.21362,-2.74658 -0.18311,-1.83106 -0.18311,-2.74658 0,-3.14331 0.42725,-8.69751 0.45776,-5.58472 0.45776,-8.72803 0,-0.97656 -0.12207,-2.89917 -0.0915,-1.92261 -0.0915,-2.89917 0,-1.31226 0.85449,-2.13623 0.88501,-0.85449 2.16675,-0.85449 2.80762,0 3.08228,3.96728 l 0.0915,3.57056 q 5.12695,-6.83594 10.52856,-6.83594 4.88282,0 6.80542,4.30298 1.31226,2.86865 1.43433,8.48389 v 3.08227 l -0.0305,2.83814 q 0,2.53296 0.64087,6.56128 0.67139,3.9978 0.67139,6.50024 0,1.34277 -0.88501,2.16675 -0.85449,0.85449 -2.16675,0.85449 z m 23.55957,-0.76294 q -6.89697,0 -11.16943,-3.44849 -4.66919,-3.81469 -4.66919,-10.68115 0,-7.93457 3.84521,-13.30566 4.18091,-5.85938 11.16944,-5.85938 5.06591,0 8.27026,1.70899 3.93677,2.10571 3.93677,6.46972 0,3.05176 -3.44849,5.5542 -1.52588,1.09864 -6.46972,3.41797 l -11.65772,5.52368 q 1.70898,2.53296 4.24194,3.8147 2.56348,1.28174 5.95093,1.28174 2.10571,0 4.94385,-0.79346 3.60107,-1.00708 4.63867,-2.62451 1.0376,-1.64795 2.22778,-1.64795 1.06812,0 1.89209,0.82398 0.8545,0.79345 0.8545,1.86157 0,3.38745 -5.46265,5.82886 -4.66919,2.07519 -9.09424,2.07519 z m -0.82397,-27.80151 q -3.72315,0 -6.19507,2.89917 -2.47193,2.86865 -3.69263,8.66699 l 9.3689,-4.45557 q 5.52368,-2.68554 7.87353,-4.66919 -2.62451,-2.4414 -7.35473,-2.4414 z m 35.06469,27.80151 q -6.89697,0 -11.16943,-3.44849 -4.66919,-3.81469 -4.66919,-10.68115 0,-7.93457 3.84522,-13.30566 4.1809,-5.85938 11.16943,-5.85938 5.06592,0 8.27026,1.70899 3.93677,2.10571 3.93677,6.46972 0,3.05176 -3.44849,5.5542 -1.52587,1.09864 -6.46972,3.41797 l -11.65772,5.52368 q 1.70899,2.53296 4.24195,3.8147 2.56347,1.28174 5.95092,1.28174 2.10572,0 4.94385,-0.79346 3.60108,-1.00708 4.63867,-2.62451 1.0376,-1.64795 2.22779,-1.64795 1.06811,0 1.89209,0.82398 0.85449,0.79345 0.85449,1.86157 0,3.38745 -5.46265,5.82886 -4.66919,2.07519 -9.09424,2.07519 z m -0.82397,-27.80151 q -3.72315,0 -6.19507,2.89917 -2.47192,2.86865 -3.69263,8.66699 l 9.3689,-4.45557 q 5.52368,-2.68554 7.87354,-4.66919 -2.62452,-2.4414 -7.35474,-2.4414 z m 48.91968,-0.54932 q -0.36621,4.48608 -0.36621,8.97217 0,10.16235 0.94604,15.35034 0.061,0.42725 0.061,0.7019 0,1.22071 -0.8545,2.01416 -0.85449,0.79346 -1.98364,0.79346 -1.89209,0 -2.7771,-2.74658 -2.19726,1.61743 -4.57763,2.44141 -2.34986,0.82397 -4.91333,0.82397 -6.31714,0 -10.46753,-4.21143 -4.27247,-4.30297 -4.27247,-11.04736 0,-8.14819 4.30298,-13.06152 4.3335,-4.91333 11.23047,-4.91333 3.54004,0 5.46265,1.09863 l 2.86865,2.10571 q 0.42725,-12.8479 1.00708,-17.30346 0.39673,-2.71607 2.7771,-2.71607 2.7771,0 2.7771,2.96021 0,4.24194 -1.2207,18.73779 z m -13.54981,0.79346 q -5.12695,0 -7.69043,3.05176 -2.56347,3.02124 -2.56347,9.12475 0,3.93677 2.7771,6.7749 2.80761,2.83814 6.56128,2.83814 2.56347,0 4.33349,-0.94605 1.0376,-0.54931 3.38745,-2.53296 0.45777,-0.39672 0.88501,-0.94604 l -0.0915,-5.27954 0.0305,-3.54004 0.061,-3.60107 q -1.15967,-2.47193 -3.08227,-3.69263 -1.92261,-1.25122 -4.60816,-1.25122 z m 61.24878,0.15259 q -0.6409,0 -1.5259,-0.061 -0.8545,-0.061 -1.4953,-0.061 -0.7019,0 -4.1504,0.45776 l 0.5798,18.03589 0.031,1.34277 0.031,1.5564 q 0.1221,6.68335 -3.2043,6.68335 -1.2207,0 -2.1362,-0.79346 -0.885,-0.79346 -0.885,-1.98364 0,-1.15967 0.091,-3.47901 0.092,-2.31933 0.092,-3.479 l -0.6104,-17.82227 q -2.2278,-0.0915 -6.7749,-0.51879 -2.7161,-0.36622 -2.7161,-3.02125 0,-1.34277 0.824,-2.22778 0.824,-0.88501 2.1057,-0.88501 l 6.4087,0.5188 q 0,-1.5564 -0.1526,-4.15039 -0.122,-2.62451 -0.122,-3.78418 0,-1.28174 0.885,-2.10571 0.885,-0.85449 2.1667,-0.85449 2.7466,0 3.2044,4.48608 0.091,1.12915 0.091,2.71606 l -0.061,1.77002 -0.031,1.89209 q 3.7841,-0.48828 4.3335,-0.48828 3.1738,0 4.1504,0.30518 1.8615,0.61035 1.8615,2.86865 0,1.34277 -0.8545,2.22778 -0.8239,0.8545 -2.1362,0.8545 z m 20.4773,27.80151 q -5.127,0 -8.8196,-3.78418 -4.1199,-4.21143 -4.3335,-11.32202 -0.1831,-6.89697 3.479,-12.146 4.2725,-6.19507 11.9019,-6.19507 6.1035,0 9.2468,5.58472 2.5024,4.5166 2.4109,10.86426 -0.092,6.7749 -3.54,11.56616 -3.9063,5.43213 -10.3455,5.43213 z m 1.8311,-27.2522 q -4.4861,-0.0305 -6.9886,4.27246 -1.9836,3.44849 -1.9836,7.87354 0,4.42505 2.4109,6.89697 2.0141,2.04468 4.7302,2.04468 3.1738,0 5.4626,-2.31934 2.594,-2.56347 2.7466,-6.92749 0.4273,-11.8103 -6.3781,-11.84082 z m 51.239,26.51978 q -3.0518,0 -6.7139,-0.97657 l -0.061,14.58741 q 0,1.34277 -0.8545,2.19726 -0.824,0.85449 -2.1363,0.85449 -1.3122,0 -2.1667,-0.85449 -0.824,-0.85449 -0.824,-2.19726 l 0.092,-12.20703 V 498.5184 q -0.092,-6.68335 -0.4578,-12.17651 l -0.4578,-6.19507 q 0,-2.16675 0.7935,-3.66211 0.9155,-1.80054 2.655,-1.80054 1.1902,0 1.9837,0.8545 0.8239,0.82397 0.8239,2.04467 0,0.27466 -0.091,1.00708 -0.1526,0.94605 -0.2136,1.73951 2.6245,-1.80054 5.0659,-2.68555 2.4414,-0.91553 4.6692,-0.91553 6.2561,0 9.1553,5.5542 2.2888,4.39453 2.2888,11.6272 0,6.59179 -3.5401,10.86426 -3.7536,4.5166 -10.0097,4.5166 z m 2.1057,-26.45874 q -2.8076,0 -5.0659,1.25122 -1.6175,0.88501 -4.0894,3.23486 0.3967,6.92749 0.3967,14.55689 3.3264,1.28173 6.6529,1.28173 3.8147,0 5.8288,-2.83813 1.7395,-2.47192 1.7395,-6.40869 0,-5.5542 -1.3733,-8.30078 -1.3427,-2.7771 -4.0893,-2.7771 z m 42.0837,2.83813 q -0.2136,3.8147 -3.0517,3.8147 -2.6246,0 -2.6246,-3.02124 0,-0.57984 -0.091,-2.13623 l -0.092,-2.56348 q -4.8217,0.57984 -7.7209,2.71607 -2.7161,1.98364 -4.5166,5.98144 l 0.061,16.72363 q 0,3.08228 -3.0212,3.08228 -2.6856,0 -2.6856,-3.08228 v -21.42334 q 0,-1.00708 0.061,-3.02124 0.091,-2.01416 0.091,-3.02124 0,-3.08227 2.6856,-3.08227 2.9907,0 3.0212,5.06592 5.8594,-5.64576 13.0005,-5.64576 2.4719,0 3.6926,1.86158 1.2207,1.86157 1.2207,5.61523 0,1.58692 -0.031,2.13623 z m 17.7307,24.35303 q -5.1269,0 -8.8195,-3.78418 -4.1199,-4.21143 -4.3335,-11.32202 -0.1832,-6.89697 3.479,-12.146 4.2724,-6.19507 11.9018,-6.19507 6.1035,0 9.2468,5.58472 2.5025,4.5166 2.4109,10.86426 -0.091,6.7749 -3.54,11.56616 -3.9063,5.43213 -10.3455,5.43213 z m 1.8311,-27.2522 q -4.4861,-0.0305 -6.9885,4.27246 -1.9837,3.44849 -1.9837,7.87354 0,4.42505 2.4109,6.89697 2.0142,2.04468 4.7302,2.04468 3.1739,0 5.4627,-2.31934 2.594,-2.56347 2.7466,-6.92749 0.4272,-11.8103 -6.3782,-11.84082 z m 33.6609,23.86475 q -0.092,2.80762 -2.7771,2.80762 -2.2278,0 -3.2349,-2.62452 l -4.6692,-12.39013 -5.4321,-14.00757 q -0.3052,-0.79346 -0.3052,-1.40381 0,-1.25122 0.9461,-2.13623 0.946,-0.88501 2.1972,-0.88501 1.8311,0 2.6245,1.86157 l 7.7515,21.33179 q 2.2888,-4.88281 5.7678,-14.16016 0.824,-2.4414 2.594,-6.89697 0.9461,-1.95313 2.6856,-1.95313 1.2512,0 2.1972,0.88501 0.9461,0.88501 0.9461,2.10572 0,1.15967 -5.0354,13.06152 z m 22.1557,-37.04834 q -1.4648,0 -2.5329,-1.0376 -1.0681,-1.0376 -1.0681,-2.50244 0,-1.46484 1.0681,-2.50244 1.0681,-1.0376 2.5329,-1.0376 1.4649,0 2.5025,1.0376 1.0681,1.0376 1.0681,2.50244 0,1.46484 -1.0681,2.50244 -1.0376,1.0376 -2.5025,1.0376 z m 1.3733,24.78027 q 0,1.83106 0.092,5.49317 0.1221,3.63159 0.1221,5.46264 0,1.34278 -0.824,2.19727 -0.824,0.85449 -2.1668,0.85449 -1.3122,0 -2.1667,-0.85449 -0.824,-0.85449 -0.824,-2.19727 0,-1.83105 -0.1221,-5.46264 -0.091,-3.66211 -0.091,-5.49317 0,-2.86865 0.3052,-7.14111 0.3051,-4.30298 0.3051,-7.17163 0,-1.37329 0.824,-2.22779 0.8545,-0.85449 2.1668,-0.85449 1.3122,0 2.1362,0.85449 0.8545,0.8545 0.8545,2.22779 0,2.86865 -0.3052,7.17163 -0.3052,4.27246 -0.3052,7.14111 z m 38.4217,-13.09204 q -0.3663,4.48608 -0.3663,8.97217 0,10.16235 0.9461,15.35034 0.061,0.42725 0.061,0.7019 0,1.22071 -0.8545,2.01416 -0.8545,0.79346 -1.9836,0.79346 -1.8921,0 -2.7771,-2.74658 -2.1973,1.61743 -4.5776,2.44141 -2.3499,0.82397 -4.9134,0.82397 -6.3171,0 -10.4675,-4.21143 -4.2725,-4.30297 -4.2725,-11.04736 0,-8.14819 4.303,-13.06152 4.3335,-4.91333 11.2305,-4.91333 3.54,0 5.4626,1.09863 l 2.8687,2.10571 q 0.4272,-12.8479 1.0071,-17.30346 0.3967,-2.71607 2.7771,-2.71607 2.7771,0 2.7771,2.96021 0,4.24194 -1.2207,18.73779 z m -13.5498,0.79346 q -5.127,0 -7.6905,3.05176 -2.5635,3.02124 -2.5635,9.12475 0,3.93677 2.7771,6.7749 2.8077,2.83814 6.5613,2.83814 2.5635,0 4.3335,-0.94605 1.0376,-0.54931 3.3875,-2.53296 0.4577,-0.39672 0.885,-0.94604 l -0.092,-5.27954 0.03,-3.54004 0.061,-3.60107 q -1.1597,-2.47193 -3.0823,-3.69263 -1.9226,-1.25122 -4.6081,-1.25122 z m 36.4074,27.55737 q -6.8969,0 -11.1694,-3.44849 -4.6692,-3.81469 -4.6692,-10.68115 0,-7.93457 3.8452,-13.30566 4.1809,-5.85938 11.1694,-5.85938 5.066,0 8.2703,1.70899 3.9368,2.10571 3.9368,6.46972 0,3.05176 -3.4485,5.5542 -1.5259,1.09864 -6.4697,3.41797 l -11.6577,5.52368 q 1.7089,2.53296 4.2419,3.8147 2.5635,1.28174 5.9509,1.28174 2.1057,0 4.9439,-0.79346 3.601,-1.00708 4.6386,-2.62451 1.0376,-1.64795 2.2278,-1.64795 1.0681,0 1.8921,0.82398 0.8545,0.79345 0.8545,1.86157 0,3.38745 -5.4626,5.82886 -4.6692,2.07519 -9.0943,2.07519 z m -0.824,-27.80151 q -3.7231,0 -6.195,2.89917 -2.4719,2.86865 -3.6926,8.66699 l 9.3689,-4.45557 q 5.5236,-2.68554 7.8735,-4.66919 -2.6245,-2.4414 -7.3548,-2.4414 z"
       id="text20"
       style="font-size:62.5px;font-family:ComicSansMS, 'Comic Sans MS', cursive"
       aria-label="You need to provide" /><path
       d="m 764.42365,548.17053 q -0.21363,3.8147 -3.05176,3.8147 -2.62451,0 -2.62451,-3.02124 0,-0.57983 -0.0916,-2.13623 l -0.0915,-2.56348 q -4.82178,0.57984 -7.72095,2.71607 -2.71606,1.98364 -4.5166,5.98144 l 0.061,16.72363 q 0,3.08228 -3.02124,3.08228 -2.68555,0 -2.68555,-3.08228 v -21.42334 q 0,-1.00708 0.061,-3.02124 0.0916,-2.01416 0.0916,-3.02124 0,-3.08227 2.68554,-3.08227 2.99073,0 3.02124,5.06592 5.85938,-5.64575 13.00049,-5.64575 2.47193,0 3.69263,1.86157 1.2207,1.86157 1.2207,5.61523 0,1.58692 -0.0305,2.13623 z m 20.53833,23.9563 q -6.89698,0 -11.16944,-3.44849 -4.66919,-3.81469 -4.66919,-10.68115 0,-7.93457 3.84522,-13.30566 4.18091,-5.85938 11.16943,-5.85938 5.06592,0 8.27026,1.70899 3.93677,2.10571 3.93677,6.46972 0,3.05176 -3.44848,5.5542 -1.52588,1.09864 -6.46973,3.41797 l -11.65772,5.52368 q 1.70899,2.53296 4.24195,3.8147 2.56347,1.28174 5.95093,1.28174 2.10571,0 4.94384,-0.79346 3.60108,-1.00708 4.63867,-2.62451 1.0376,-1.64795 2.22779,-1.64795 1.06811,0 1.89209,0.82398 0.85449,0.79345 0.85449,1.86157 0,3.38745 -5.46265,5.82886 -4.66919,2.07519 -9.09423,2.07519 z M 784.138,544.32532 q -3.72314,0 -6.19507,2.89917 -2.47192,2.86865 -3.69262,8.66699 l 9.36889,-4.45557 q 5.52368,-2.68554 7.87354,-4.66919 -2.62451,-2.4414 -7.35474,-2.4414 z m 28.56445,2.41089 -0.45776,15.16723 q 0,2.41089 -0.24414,7.08008 -0.30518,3.05176 -2.99072,3.05176 -2.99073,0 -2.99073,-3.11279 0,-3.69263 0.3357,-11.07789 0.33569,-7.41577 0.33569,-11.10839 0,-4.82178 0.15259,-11.01685 0.15259,-6.22559 0.15259,-11.04736 0,-3.05176 2.99072,-3.05176 3.02124,0 3.02124,3.05176 0,4.82177 -0.15259,11.04736 -0.15259,6.19507 -0.15259,11.01685 z m 33.20313,26.00097 q -0.57984,0 -2.10571,-1.34277 -1.3733,-1.25122 -2.04468,-2.22778 -2.92969,1.58691 -5.15747,2.38037 -2.22779,0.82397 -3.72315,0.82397 -7.14111,0 -10.40649,-4.02832 -3.08228,-3.78418 -3.08228,-11.59668 0,-7.38525 5.06592,-12.63428 5.09644,-5.24902 12.146,-5.24902 2.65503,0 5.95093,1.37329 4.15039,1.70899 4.15039,4.11987 0,0.82398 -0.61036,1.46485 -0.30517,1.15967 -0.48828,3.8147 -0.15259,2.65503 -0.1831,6.80542 -0.0305,3.78418 0.5188,5.98144 0.30517,1.34277 1.9226,5.37109 0.21363,0.54932 0.70191,1.61744 l 0.1831,0.5188 q 0,1.2207 -0.85449,2.01416 -0.85449,0.79345 -1.98364,0.79345 z m -6.34766,-21.20971 q 0,-1.31226 0.15259,-2.83814 0.18311,-1.5564 0.5188,-3.2959 -1.12915,-0.57983 -1.95313,-0.85449 -0.79345,-0.27466 -1.28173,-0.27466 -4.73023,0 -8.17872,3.87573 -3.41796,3.84522 -3.41796,8.88062 0,5.00488 1.77002,7.50732 1.77002,2.50245 5.31005,2.50245 2.92969,0 4.97437,-1.06812 1.09863,-0.57983 3.08227,-2.31934 -0.97656,-8.08715 -0.97656,-12.11547 z m 34.91211,-6.80542 q -0.64087,0 -1.52588,-0.061 -0.85449,-0.061 -1.49536,-0.061 -0.7019,0 -4.15039,0.45776 l 0.57983,18.03589 0.0305,1.34277 0.0305,1.5564 q 0.12207,6.68335 -3.20435,6.68335 -1.2207,0 -2.13623,-0.79346 -0.88501,-0.79346 -0.88501,-1.98364 0,-1.15967 0.0916,-3.47901 0.0915,-2.31933 0.0915,-3.479 l -0.61035,-17.82227 q -2.22779,-0.0915 -6.7749,-0.51879 -2.71607,-0.36622 -2.71607,-3.02124 0,-1.34278 0.82398,-2.22779 0.82397,-0.88501 2.10571,-0.88501 l 6.40869,0.5188 q 0,-1.5564 -0.15259,-4.15039 -0.12207,-2.62451 -0.12207,-3.78418 0,-1.28174 0.88501,-2.10571 0.88501,-0.85449 2.16675,-0.85449 2.74658,0 3.20435,4.48608 0.0915,1.12915 0.0915,2.71606 l -0.061,1.77002 -0.0305,1.89209 q 3.78418,-0.48828 4.33349,-0.48828 3.17383,0 4.15039,0.30518 1.86157,0.61035 1.86157,2.86865 0,1.34277 -0.85449,2.22778 -0.82397,0.8545 -2.13623,0.8545 z m 14.86206,-12.63428 q -1.46484,0 -2.53296,-1.0376 -1.06811,-1.0376 -1.06811,-2.50244 0,-1.46484 1.06811,-2.50244 1.06812,-1.0376 2.53296,-1.0376 1.46485,0 2.50244,1.0376 1.06812,1.0376 1.06812,2.50244 0,1.46484 -1.06812,2.50244 -1.03759,1.0376 -2.50244,1.0376 z m 1.37329,24.78027 q 0,1.83106 0.0916,5.49317 0.12207,3.63159 0.12207,5.46264 0,1.34278 -0.82398,2.19727 -0.82397,0.85449 -2.16675,0.85449 -1.31225,0 -2.16674,-0.85449 -0.82398,-0.85449 -0.82398,-2.19727 0,-1.83105 -0.12207,-5.46264 -0.0915,-3.66211 -0.0915,-5.49317 0,-2.86865 0.30517,-7.14111 0.30518,-4.30298 0.30518,-7.17163 0,-1.37329 0.82397,-2.22779 0.8545,-0.85449 2.16675,-0.85449 1.31226,0 2.13623,0.85449 0.85449,0.8545 0.85449,2.22779 0,2.86865 -0.30517,7.17163 -0.30518,4.27246 -0.30518,7.14111 z m 24.38355,12.26807 q -0.0915,2.80762 -2.7771,2.80762 -2.22778,0 -3.23486,-2.62452 l -4.66919,-12.39013 -5.43213,-14.00757 q -0.30518,-0.79346 -0.30518,-1.40381 0,-1.25122 0.94605,-2.13623 0.94604,-0.88501 2.19726,-0.88501 1.83106,0 2.62451,1.86157 l 7.75147,21.33179 q 2.28882,-4.88281 5.76782,-14.16016 0.82398,-2.4414 2.59399,-6.89697 0.94605,-1.95312 2.68555,-1.95312 1.25122,0 2.19727,0.88501 0.94604,0.885 0.94604,2.10571 0,1.15967 -5.0354,13.06152 z m 30.57861,2.99072 q -6.89697,0 -11.16943,-3.44849 -4.66919,-3.81469 -4.66919,-10.68115 0,-7.93457 3.84521,-13.30566 4.18091,-5.85938 11.16944,-5.85938 5.06591,0 8.27026,1.70899 3.93677,2.10571 3.93677,6.46972 0,3.05176 -3.44849,5.5542 -1.52588,1.09864 -6.46972,3.41797 l -11.65772,5.52368 q 1.70898,2.53296 4.24194,3.8147 2.56348,1.28174 5.95093,1.28174 2.10571,0 4.94385,-0.79346 3.60107,-1.00708 4.63867,-2.62451 1.0376,-1.64795 2.22778,-1.64795 1.06812,0 1.89209,0.82398 0.8545,0.79345 0.8545,1.86157 0,3.38745 -5.46265,5.82886 -4.66919,2.07519 -9.09424,2.07519 z m -0.82397,-27.80151 q -3.72315,0 -6.19507,2.89917 -2.47193,2.86865 -3.69263,8.66699 l 9.3689,-4.45557 q 5.52368,-2.68554 7.87353,-4.66919 -2.62451,-2.4414 -7.35473,-2.4414 z m 50.93383,28.19824 q -5.12695,0 -8.81958,-3.78418 -4.11987,-4.21143 -4.33349,-11.32202 -0.18311,-6.89697 3.479,-12.146 4.27246,-6.19507 11.90186,-6.19507 6.10351,0 9.24681,5.58472 2.5025,4.5166 2.4109,10.86426 -0.091,6.7749 -3.54,11.56616 -3.9063,5.43213 -10.3455,5.43213 z m 1.83106,-27.2522 q -4.48608,-0.0305 -6.98853,4.27246 -1.98364,3.44849 -1.98364,7.87354 0,4.42505 2.41089,6.89697 2.01416,2.04468 4.73022,2.04468 3.17383,0 5.4627,-2.31934 2.5939,-2.56347 2.7465,-6.92749 0.4273,-11.8103 -6.37814,-11.84082 z m 43.33494,2.89917 q -0.2136,3.8147 -3.0517,3.8147 -2.6245,0 -2.6245,-3.02124 0,-0.57983 -0.092,-2.13623 l -0.092,-2.56348 q -4.8217,0.57984 -7.7209,2.71607 -2.7161,1.98364 -4.5166,5.98144 l 0.061,16.72363 q 0,3.08228 -3.0212,3.08228 -2.6856,0 -2.6856,-3.08228 v -21.42334 q 0,-1.00708 0.061,-3.02124 0.091,-2.01416 0.091,-3.02124 0,-3.08227 2.6856,-3.08227 2.9907,0 3.0212,5.06592 5.8594,-5.64575 13.0005,-5.64575 2.4719,0 3.6926,1.86157 1.2207,1.86157 1.2207,5.61523 0,1.58692 -0.03,2.13623 z m 48.7976,24.56665 q -0.5798,0 -2.1057,-1.34277 -1.3733,-1.25122 -2.0447,-2.22778 -2.9297,1.58691 -5.1574,2.38037 -2.2278,0.82397 -3.7232,0.82397 -7.1411,0 -10.4065,-4.02832 -3.0822,-3.78418 -3.0822,-11.59668 0,-7.38525 5.0659,-12.63428 5.0964,-5.24902 12.146,-5.24902 2.655,0 5.9509,1.37329 4.1504,1.70899 4.1504,4.11987 0,0.82398 -0.6104,1.46485 -0.3051,1.15967 -0.4882,3.8147 -0.1526,2.65503 -0.1832,6.80542 -0.031,3.78418 0.5188,5.98144 0.3052,1.34277 1.9227,5.37109 0.2136,0.54932 0.7019,1.61744 l 0.1831,0.5188 q 0,1.2207 -0.8545,2.01416 -0.8545,0.79345 -1.9837,0.79345 z m -6.3476,-21.20971 q 0,-1.31226 0.1526,-2.83814 0.1831,-1.5564 0.5188,-3.2959 -1.1292,-0.57983 -1.9532,-0.85449 -0.7934,-0.27466 -1.2817,-0.27466 -4.7302,0 -8.1787,3.87573 -3.418,3.84522 -3.418,8.88062 0,5.00488 1.77,7.50732 1.7701,2.50245 5.3101,2.50245 2.9297,0 4.9744,-1.06812 1.0986,-0.57983 3.0822,-2.31934 -0.9765,-8.08715 -0.9765,-12.11547 z m 28.7475,20.47729 q -4.6692,0 -8.4839,-1.83105 -0.9765,1.46484 -2.3803,1.46484 -1.1597,0 -1.9837,-0.82397 -0.7934,-0.79346 -0.7934,-2.01416 0,-0.79346 0.061,-2.34986 0.092,-1.55639 0.092,-2.34985 0,-3.23487 -0.1831,-9.67407 -0.1526,-6.46973 -0.1526,-9.70459 0,-2.22779 0.031,-8.42286 0.031,-6.22558 0.031,-8.48388 0,-1.83106 0.7629,-3.2959 1.0071,-1.86157 2.7771,-1.86157 2.2889,0 2.2889,2.65503 0,0.42724 -0.1526,1.25122 -0.1526,0.82397 -0.1526,1.25122 l -0.092,6.68335 -0.061,7.78198 q 2.655,-1.80054 5.0354,-2.68555 2.4109,-0.91552 4.5166,-0.91552 6.5613,0 10.6506,5.0354 3.8452,4.73022 3.8452,11.62719 0,6.95801 -4.486,11.81031 -4.4861,4.85229 -11.1695,4.85229 z m 1.1597,-27.55737 q -2.5024,0 -5.127,1.40381 -1.2817,0.7019 -4.3945,3.02124 l -0.061,5.27954 0.03,4.76074 0.031,5.00488 q 1.4649,0.67139 4.1199,1.70899 1.8921,0.57983 4.2419,0.57983 4.4251,0 7.2632,-3.11279 2.8381,-3.1128 2.8381,-7.75147 0,-4.54712 -2.2888,-7.59887 -2.4719,-3.2959 -6.6528,-3.2959 z m 42.2668,2.7771 q -1.6784,0 -2.3498,-1.12915 -0.4578,-0.79346 -0.7935,-3.2959 -2.2888,0.57983 -7.0495,2.13623 -4.9134,1.95312 -4.9439,4.82178 0.9156,0.33569 1.8006,0.48828 7.019,1.25122 10.437,3.44848 4.9743,3.20435 4.9743,9.27735 0,4.97436 -4.3029,7.50732 -3.5706,2.0752 -9.0332,2.0752 -3.9978,0 -7.6294,-1.34278 -4.6997,-1.70898 -4.6997,-4.76074 0,-1.2207 0.946,-2.13623 0.9766,-0.91553 2.1973,-0.91553 0.946,0 2.4414,1.46485 0.7324,0.7019 3.2959,1.15967 2.0446,0.36621 3.4485,0.36621 2.5634,0 4.5166,-0.61036 2.8381,-0.885 2.8381,-2.80761 0,-4.15039 -5.7983,-5.61524 l -3.1739,-0.7019 q -4.0588,-0.88501 -5.7678,-2.0752 -2.4719,-1.70898 -2.4719,-5.15747 0,-6.37817 6.0119,-9.09424 1.8311,-0.82397 5.8594,-1.95312 4.0283,-1.15967 5.7678,-1.95313 1.2513,-0.54931 2.7161,-0.54931 1.3123,0 2.1362,0.85449 0.8545,0.85449 0.8545,2.22778 0,0.88501 0.3662,2.594 0.3968,1.70898 0.3968,2.59399 0,1.37329 -0.8545,2.22779 -0.824,0.85449 -2.1363,0.85449 z m 21.2708,25.29907 q -5.127,0 -8.8196,-3.78418 -4.1199,-4.21143 -4.3335,-11.32202 -0.1831,-6.89697 3.479,-12.146 4.2725,-6.19507 11.9019,-6.19507 6.1035,0 9.2468,5.58472 2.5024,4.5166 2.4109,10.86426 -0.092,6.7749 -3.54,11.56616 -3.9063,5.43213 -10.3455,5.43213 z m 1.8311,-27.2522 q -4.4861,-0.0305 -6.9886,4.27246 -1.9836,3.44849 -1.9836,7.87354 0,4.42505 2.4109,6.89697 2.0141,2.04468 4.7302,2.04468 3.1738,0 5.4626,-2.31934 2.594,-2.56347 2.7466,-6.92749 0.4273,-11.8103 -6.3781,-11.84082 z m 27.3437,1.46485 -0.4578,15.16723 q 0,2.41089 -0.2441,7.08008 -0.3052,3.05176 -2.9907,3.05176 -2.9907,0 -2.9907,-3.11279 0,-3.69263 0.3356,-11.07789 0.3357,-7.41577 0.3357,-11.10839 0,-4.82178 0.1526,-11.01685 0.1526,-6.22559 0.1526,-11.04736 0,-3.05176 2.9907,-3.05176 3.0213,0 3.0213,3.05176 0,4.82177 -0.1526,11.04736 -0.1526,6.19507 -0.1526,11.01685 z m 34.2712,6.16455 q 0,2.19726 0.031,6.59179 0.03,4.39453 0.03,6.5918 0,0.67139 0.091,2.04468 0.1221,1.37329 0.1221,2.04468 0,1.31225 -0.885,2.13623 -0.885,0.85449 -2.1668,0.85449 -2.3498,0 -2.9907,-2.89917 -3.8147,1.98364 -8.789,1.98364 -3.9978,0 -6.6224,-1.77002 -2.8991,-1.95312 -3.4484,-5.70679 -1.1902,-8.08715 -1.1902,-14.40429 0,-4.18091 0.9155,-9.52149 0.4272,-2.65503 2.8992,-2.65503 1.3122,0 2.1972,0.8545 0.885,0.82397 0.885,2.13623 0,1.40381 -0.4577,4.48608 -0.4273,3.08228 -0.4273,4.69971 0,5.09643 0.3357,8.72803 0.3357,3.63159 1.0071,5.82885 1.0071,0.54932 1.9836,0.85449 0.9766,0.27466 1.9227,0.27466 4.0893,0 8.6364,-1.31225 l -0.031,-6.19507 -0.061,-5.92041 q 0,-6.5918 0.5798,-11.44409 0.3357,-2.80762 2.9602,-2.80762 1.3123,0 2.1973,0.85449 0.885,0.85449 0.824,2.13623 z m 28.0152,-8.17871 q -0.6409,0 -1.5259,-0.061 -0.8545,-0.061 -1.4954,-0.061 -0.7019,0 -4.1504,0.45776 l 0.5799,18.03589 0.031,1.34277 0.031,1.5564 q 0.1221,6.68335 -3.2043,6.68335 -1.2207,0 -2.1363,-0.79346 -0.885,-0.79346 -0.885,-1.98364 0,-1.15967 0.092,-3.47901 0.091,-2.31933 0.091,-3.479 l -0.6103,-17.82227 q -2.2278,-0.0915 -6.7749,-0.51879 -2.7161,-0.36622 -2.7161,-3.02124 0,-1.34278 0.824,-2.22779 0.824,-0.88501 2.1057,-0.88501 l 6.4087,0.5188 q 0,-1.5564 -0.1526,-4.15039 -0.1221,-2.62451 -0.1221,-3.78418 0,-1.28174 0.885,-2.10571 0.8851,-0.85449 2.1668,-0.85449 2.7466,0 3.2043,4.48608 0.092,1.12915 0.092,2.71606 l -0.061,1.77002 -0.031,1.89209 q 3.7842,-0.48828 4.3335,-0.48828 3.1739,0 4.1504,0.30518 1.8616,0.61035 1.8616,2.86865 0,1.34277 -0.8545,2.22778 -0.824,0.8545 -2.1362,0.8545 z m 23.2849,27.40478 q -6.897,0 -11.1694,-3.44849 -4.6692,-3.81469 -4.6692,-10.68115 0,-7.93457 3.8452,-13.30566 4.1809,-5.85938 11.1694,-5.85938 5.0659,0 8.2703,1.70899 3.9367,2.10571 3.9367,6.46972 0,3.05176 -3.4484,5.5542 -1.5259,1.09864 -6.4698,3.41797 l -11.6577,5.52368 q 1.709,2.53296 4.242,3.8147 2.5634,1.28174 5.9509,1.28174 2.1057,0 4.9438,-0.79346 3.6011,-1.00708 4.6387,-2.62451 1.0376,-1.64795 2.2278,-1.64795 1.0681,0 1.8921,0.82398 0.8545,0.79345 0.8545,1.86157 0,3.38745 -5.4627,5.82886 -4.6692,2.07519 -9.0942,2.07519 z m -0.824,-27.80151 q -3.7231,0 -6.1951,2.89917 -2.4719,2.86865 -3.6926,8.66699 l 9.3689,-4.45557 q 5.5237,-2.68554 7.8736,-4.66919 -2.6246,-2.4414 -7.3548,-2.4414 z"
       id="text21"
       style="font-size:62.5px;font-family:ComicSansMS, 'Comic Sans MS', cursive"
       aria-label="relative or absolute" /><path
       d="m 752.12506,635.02356 q -5.12695,0 -8.81958,-3.78418 -4.11987,-4.21143 -4.3335,-11.32202 -0.1831,-6.89697 3.47901,-12.146 4.27246,-6.19507 11.90185,-6.19507 6.10352,0 9.24683,5.58472 2.50244,4.5166 2.41089,10.86426 -0.0916,6.7749 -3.54004,11.56616 -3.90625,5.43213 -10.34546,5.43213 z m 1.83106,-27.2522 q -4.48609,-0.0305 -6.98853,4.27246 -1.98364,3.44849 -1.98364,7.87354 0,4.42505 2.41089,6.89697 2.01416,2.04468 4.73022,2.04468 3.17383,0 5.46265,-2.31934 2.59399,-2.56347 2.74658,-6.92749 0.42725,-11.8103 -6.37817,-11.84082 z m 40.10009,-17.45605 q -7.38525,0 -8.27026,10.2539 l -0.0915,1.89209 q 5.18799,-0.36621 6.71386,-0.36621 4.8523,0 4.8523,3.05176 0,2.22778 -2.38037,2.65503 -1.0376,0.18311 -2.44141,0.15259 -1.37329,-0.061 -7.01904,0.39673 l -0.24414,6.958 q 0,1.89209 0.12207,5.67627 0.12207,3.78418 0.12207,5.64576 0,5.79834 -0.67139,9.0332 -0.5188,2.4414 -2.83813,2.4414 -1.25122,0 -2.13623,-0.82397 -0.88501,-0.79346 -0.88501,-2.01416 0,-0.24414 0.061,-0.61035 0.64087,-3.96729 0.64087,-8.63648 l -0.0915,-8.33129 v -8.8501 q -3.8147,0.30517 -4.82178,0.30517 -3.08227,0 -3.08227,-2.9602 0,-3.02124 5.34057,-3.17383 l 2.92969,-0.0915 q 0.0915,-1.70899 0.45776,-4.63867 0.79346,-6.77491 3.41797,-9.97925 3.17383,-3.87573 9.91821,-3.87573 4.36402,0 4.36402,2.9602 0,2.92969 -3.96729,2.92969 z m 31.7688,0 q -7.38525,0 -8.27026,10.2539 l -0.0915,1.89209 q 5.18798,-0.36621 6.71386,-0.36621 4.8523,0 4.8523,3.05176 0,2.22778 -2.38037,2.65503 -1.0376,0.18311 -2.44141,0.15259 -1.37329,-0.061 -7.01904,0.39673 l -0.24414,6.958 q 0,1.89209 0.12207,5.67627 0.12207,3.78418 0.12207,5.64576 0,5.79834 -0.67139,9.0332 -0.5188,2.4414 -2.83813,2.4414 -1.25122,0 -2.13623,-0.82397 -0.88501,-0.79346 -0.88501,-2.01416 0,-0.24414 0.061,-0.61035 0.64087,-3.96729 0.64087,-8.63648 l -0.0915,-8.33129 v -8.8501 q -3.8147,0.30517 -4.82178,0.30517 -3.08228,0 -3.08228,-2.9602 0,-3.02124 5.34058,-3.17383 l 2.92969,-0.0915 q 0.0916,-1.70899 0.45776,-4.63867 0.79346,-6.77491 3.41797,-9.97925 3.17383,-3.87573 9.91821,-3.87573 4.36402,0 4.36402,2.9602 0,2.92969 -3.96729,2.92969 z m 31.86035,19.40918 q -1.67846,0 -2.34985,-1.12915 -0.45776,-0.79346 -0.79346,-3.2959 -2.28882,0.57983 -7.04956,2.13623 -4.91333,1.95312 -4.94384,4.82178 0.91552,0.33569 1.80053,0.48828 7.01905,1.25122 10.43701,3.44848 4.97437,3.20435 4.97437,9.27735 0,4.97436 -4.30298,7.50732 -3.57056,2.0752 -9.0332,2.0752 -3.99781,0 -7.6294,-1.34278 -4.6997,-1.70898 -4.6997,-4.76074 0,-1.2207 0.94604,-2.13623 0.97656,-0.91553 2.19727,-0.91553 0.94604,0 2.4414,1.46485 0.73242,0.7019 3.2959,1.15967 2.04468,0.36621 3.44849,0.36621 2.56347,0 4.5166,-0.61036 2.83813,-0.885 2.83813,-2.80761 0,-4.15039 -5.79834,-5.61524 l -3.17382,-0.7019 q -4.05884,-0.88501 -5.76783,-2.0752 -2.47192,-1.70898 -2.47192,-5.15747 0,-6.37817 6.01196,-9.09424 1.83106,-0.82397 5.85938,-1.95312 4.02832,-1.15967 5.76782,-1.95313 1.25122,-0.54931 2.71606,-0.54931 1.31226,0 2.13623,0.85449 0.8545,0.85449 0.8545,2.22778 0,0.88501 0.36621,2.594 0.39673,1.70898 0.39673,2.59399 0,1.37329 -0.8545,2.22779 -0.82397,0.85449 -2.13623,0.85449 z m 24.07837,24.90234 q -6.89697,0 -11.16943,-3.44849 -4.66919,-3.81469 -4.66919,-10.68115 0,-7.93457 3.84521,-13.30566 4.18091,-5.85938 11.16944,-5.85938 5.06592,0 8.27026,1.70899 3.93677,2.10571 3.93677,6.46972 0,3.05176 -3.44849,5.5542 -1.52588,1.09864 -6.46972,3.41797 l -11.65772,5.52368 q 1.70899,2.53296 4.24195,3.8147 2.56347,1.28174 5.95092,1.28174 2.10572,0 4.94385,-0.79346 3.60107,-1.00708 4.63867,-2.62451 1.0376,-1.64795 2.22779,-1.64795 1.06811,0 1.89209,0.82398 0.85449,0.79345 0.85449,1.86157 0,3.38745 -5.46265,5.82886 -4.66919,2.07519 -9.09424,2.07519 z m -0.82397,-27.80151 q -3.72315,0 -6.19507,2.89917 -2.47192,2.86865 -3.69263,8.66699 l 9.3689,-4.45557 q 5.52368,-2.68554 7.87353,-4.66919 -2.62451,-2.4414 -7.35473,-2.4414 z m 41.22925,0.39673 q -0.64087,0 -1.52588,-0.061 -0.85449,-0.061 -1.49536,-0.061 -0.70191,0 -4.15039,0.45776 l 0.57983,18.03589 0.0305,1.34277 0.0305,1.5564 q 0.12207,6.68335 -3.20434,6.68335 -1.2207,0 -2.13623,-0.79346 -0.88501,-0.79346 -0.88501,-1.98364 0,-1.15967 0.0915,-3.47901 0.0916,-2.31933 0.0916,-3.479 l -0.61035,-17.82227 q -2.22778,-0.0915 -6.7749,-0.51879 -2.71606,-0.36622 -2.71606,-3.02124 0,-1.34278 0.82397,-2.22779 0.82398,-0.88501 2.10571,-0.88501 l 6.40869,0.5188 q 0,-1.5564 -0.15258,-4.15039 -0.12207,-2.62451 -0.12207,-3.78418 0,-1.28174 0.88501,-2.10571 0.88501,-0.85449 2.16674,-0.85449 2.74659,0 3.20435,4.48608 0.0915,1.12915 0.0915,2.71606 l -0.061,1.77002 -0.0305,1.89209 q 3.78418,-0.48828 4.3335,-0.48828 3.17382,0 4.15039,0.30518 1.86157,0.61035 1.86157,2.86865 0,1.34277 -0.85449,2.22778 -0.82398,0.8545 -2.13623,0.8545 z m 29.63256,2.50244 q -1.67846,0 -2.34985,-1.12915 -0.45776,-0.79346 -0.79346,-3.2959 -2.28881,0.57983 -7.04956,2.13623 -4.91333,1.95312 -4.94384,4.82178 0.91552,0.33569 1.80053,0.48828 7.01905,1.25122 10.43701,3.44848 4.97437,3.20435 4.97437,9.27735 0,4.97436 -4.30298,7.50732 -3.57056,2.0752 -9.0332,2.0752 -3.9978,0 -7.6294,-1.34278 -4.6997,-1.70898 -4.6997,-4.76074 0,-1.2207 0.94604,-2.13623 0.97656,-0.91553 2.19727,-0.91553 0.94604,0 2.4414,1.46485 0.73243,0.7019 3.2959,1.15967 2.04468,0.36621 3.44849,0.36621 2.56347,0 4.5166,-0.61036 2.83813,-0.885 2.83813,-2.80761 0,-4.15039 -5.79834,-5.61524 l -3.17382,-0.7019 q -4.05884,-0.88501 -5.76783,-2.0752 -2.47192,-1.70898 -2.47192,-5.15747 0,-6.37817 6.01196,-9.09424 1.83106,-0.82397 5.85938,-1.95312 4.02832,-1.15967 5.76782,-1.95313 1.25122,-0.54931 2.71607,-0.54931 1.31225,0 2.13623,0.85449 0.85449,0.85449 0.85449,2.22778 0,0.88501 0.36621,2.594 0.39673,1.70898 0.39673,2.59399 0,1.37329 -0.85449,2.22779 -0.82398,0.85449 -2.13624,0.85449 z m 49.01123,-19.40918 q -7.38525,0 -8.27026,10.2539 l -0.0915,1.89209 q 5.18799,-0.36621 6.71387,-0.36621 4.85234,0 4.85234,3.05176 0,2.22778 -2.3804,2.65503 -1.0376,0.18311 -2.44143,0.15259 -1.37329,-0.061 -7.01904,0.39673 l -0.24414,6.958 q 0,1.89209 0.12207,5.67627 0.12207,3.78418 0.12207,5.64576 0,5.79834 -0.67139,9.0332 -0.51879,2.4414 -2.83813,2.4414 -1.25122,0 -2.13623,-0.82397 -0.88501,-0.79346 -0.88501,-2.01416 0,-0.24414 0.061,-0.61035 0.64087,-3.96729 0.64087,-8.63648 l -0.0916,-8.33129 v -8.8501 q -3.8147,0.30517 -4.82178,0.30517 -3.08227,0 -3.08227,-2.9602 0,-3.02124 5.34057,-3.17383 l 2.92969,-0.0915 q 0.0915,-1.70899 0.45777,-4.63867 0.79345,-6.77491 3.41796,-9.97925 3.17383,-3.87573 9.91824,-3.87573 4.364,0 4.364,2.9602 0,2.92969 -3.9673,2.92969 z m 35.0037,20.35522 q -0.2137,3.8147 -3.0518,3.8147 -2.6245,0 -2.6245,-3.02124 0,-0.57983 -0.092,-2.13623 l -0.091,-2.56348 q -4.8218,0.57984 -7.721,2.71607 -2.716,1.98364 -4.5166,5.98144 l 0.061,16.72363 q 0,3.08228 -3.0213,3.08228 -2.6855,0 -2.6855,-3.08228 v -21.42334 q 0,-1.00708 0.061,-3.02124 0.092,-2.01416 0.092,-3.02124 0,-3.08227 2.6855,-3.08227 2.9907,0 3.0213,5.06592 5.8593,-5.64575 13.0005,-5.64575 2.4719,0 3.6926,1.86157 1.2207,1.86157 1.2207,5.61523 0,1.58692 -0.031,2.13623 z m 17.7307,24.35303 q -5.127,0 -8.8196,-3.78418 -4.1199,-4.21143 -4.3335,-11.32202 -0.1831,-6.89697 3.479,-12.146 4.2725,-6.19507 11.9019,-6.19507 6.1035,0 9.2468,5.58472 2.5024,4.5166 2.4109,10.86426 -0.092,6.7749 -3.5401,11.56616 -3.9062,5.43213 -10.3454,5.43213 z m 1.831,-27.2522 q -4.486,-0.0305 -6.9885,4.27246 -1.9836,3.44849 -1.9836,7.87354 0,4.42505 2.4109,6.89697 2.0141,2.04468 4.7302,2.04468 3.1738,0 5.4626,-2.31934 2.594,-2.56347 2.7466,-6.92749 0.4273,-11.8103 -6.3782,-11.84082 z m 58.3496,27.98462 q -2.5024,0 -2.9296,-2.65503 -0.5494,-3.35693 -1.0987,-9.46045 l -1.0376,-9.46045 q -0.3051,-2.10571 -1.0376,-4.11987 -1.0376,-2.74658 -2.2583,-2.74658 -1.1291,0 -4.2114,1.92261 -2.9297,1.77002 -3.8452,2.83813 -0.031,2.86865 0.1526,5.73731 l 0.9155,8.14819 q 0.5798,4.82178 0.5798,7.96509 0,1.34277 -0.8545,2.19726 -0.8239,0.88501 -2.1362,0.88501 -1.3122,0 -2.1667,-0.88501 -0.824,-0.85449 -0.824,-2.19726 0,-3.69263 -0.7629,-10.89478 -0.7325,-7.23266 -0.7325,-10.92529 0,-3.23486 -0.9155,-5.0354 -2.1362,0.97656 -4.3335,3.17383 l -3.6011,4.02832 q -0.4882,0.73242 -1.5564,1.9226 0,1.83106 -0.3357,5.40162 -0.3357,3.57055 -0.3357,5.27954 0,0.91552 0.2747,2.56347 0.3052,1.64795 0.3052,2.38037 0,1.25122 -0.9461,2.10572 -0.9155,0.85449 -2.1667,0.85449 -3.4485,0 -3.4485,-7.84302 0,-1.83105 0.3357,-5.46265 0.3357,-3.63159 0.3357,-5.46264 0,-1.61743 -0.3052,-4.8523 -0.2746,-3.23486 -0.2746,-4.88281 0,-6.92749 3.1127,-6.92749 1.1902,0 2.1668,1.0376 1.0071,1.0376 1.0071,2.2583 0,0.57983 -0.1526,1.80054 -0.1526,1.2207 -0.1526,1.86157 l 0.061,3.20434 q 1.587,-3.26538 4.6692,-5.88989 3.0823,-2.65503 5.249,-2.65503 4.7913,0 6.5918,4.76074 1.6785,-2.22778 3.9978,-3.32641 2.3194,-1.12915 5.3101,-1.12915 5.0964,0 6.958,5.49316 0.3662,1.09864 1.2512,8.57544 0.8545,5.24903 2.1973,17.48657 0.092,1.22071 -0.824,2.0752 -0.9155,0.85449 -2.2278,0.85449 z m 39.917,-0.73242 q -5.1269,0 -8.8195,-3.78418 -4.1199,-4.21143 -4.3335,-11.32202 -0.1831,-6.89697 3.479,-12.146 4.2724,-6.19507 11.9018,-6.19507 6.1035,0 9.2468,5.58472 2.5025,4.5166 2.4109,10.86426 -0.091,6.7749 -3.54,11.56616 -3.9063,5.43213 -10.3455,5.43213 z m 1.8311,-27.2522 q -4.4861,-0.0305 -6.9885,4.27246 -1.9837,3.44849 -1.9837,7.87354 0,4.42505 2.4109,6.89697 2.0142,2.04468 4.7302,2.04468 3.1739,0 5.4627,-2.31934 2.594,-2.56347 2.7466,-6.92749 0.4272,-11.8103 -6.3782,-11.84082 z m 42.9993,27.61841 q -2.6246,0 -2.9602,-2.86865 l -0.8545,-6.68335 q -0.4273,-3.57056 -0.4273,-6.68335 0,-0.85449 0.092,-2.89917 0.122,-2.04468 0.122,-2.89917 0,-6.5918 -2.4414,-6.5918 -3.4179,0 -6.5307,4.05884 -2.8076,3.69263 -4.3946,9.33838 -0.061,1.19018 -0.2746,2.99072 -0.1831,1.52588 -0.1831,2.96021 0,0.91552 0.1831,2.74658 0.1831,1.83105 0.1831,2.74658 0,1.37329 -0.8545,2.22778 -0.824,0.8545 -2.1362,0.8545 -1.3428,0 -2.1668,-0.8545 -0.824,-0.85449 -0.824,-2.22778 0,-0.91553 -0.2136,-2.74658 -0.1831,-1.83106 -0.1831,-2.74658 0,-3.14331 0.4273,-8.69751 0.4577,-5.58472 0.4577,-8.72803 0,-0.97656 -0.122,-2.89917 -0.092,-1.92261 -0.092,-2.89917 0,-1.31226 0.8545,-2.13623 0.885,-0.85449 2.1667,-0.85449 2.8077,0 3.0823,3.96728 l 0.092,3.57056 q 5.1269,-6.83594 10.5285,-6.83594 4.8828,0 6.8055,4.30298 1.3122,2.86865 1.4343,8.48389 v 3.08227 l -0.031,2.83814 q 0,2.53296 0.6408,6.56128 0.6714,3.9978 0.6714,6.50024 0,1.34277 -0.885,2.16675 -0.8545,0.85449 -2.1667,0.85449 z m 23.5595,-0.76294 q -6.8969,0 -11.1694,-3.44849 -4.6692,-3.81469 -4.6692,-10.68115 0,-7.93457 3.8452,-13.30566 4.1809,-5.85938 11.1695,-5.85938 5.0659,0 8.2702,1.70899 3.9368,2.10571 3.9368,6.46972 0,3.05176 -3.4485,5.5542 -1.5259,1.09864 -6.4697,3.41797 l -11.6577,5.52368 q 1.7089,2.53296 4.2419,3.8147 2.5635,1.28174 5.9509,1.28174 2.1057,0 4.9439,-0.79346 3.6011,-1.00708 4.6386,-2.62451 1.0376,-1.64795 2.2278,-1.64795 1.0681,0 1.8921,0.82398 0.8545,0.79345 0.8545,1.86157 0,3.38745 -5.4626,5.82886 -4.6692,2.07519 -9.0943,2.07519 z m -0.8239,-27.80151 q -3.7232,0 -6.1951,2.89917 -2.4719,2.86865 -3.6926,8.66699 l 9.3689,-4.45557 q 5.5236,-2.68554 7.8735,-4.66919 -2.6245,-2.4414 -7.3547,-2.4414 z m 52.4597,27.46582 q -3.0518,0 -6.7139,-0.97656 l -0.061,14.5874 q 0,1.34277 -0.8545,2.19726 -0.824,0.8545 -2.1363,0.8545 -1.3122,0 -2.1667,-0.8545 -0.824,-0.85449 -0.824,-2.19726 l 0.092,-12.20703 v -12.17652 q -0.092,-6.68335 -0.4578,-12.17651 l -0.4578,-6.19507 q 0,-2.16675 0.7935,-3.66211 0.9155,-1.80054 2.655,-1.80054 1.1902,0 1.9837,0.8545 0.824,0.82397 0.824,2.04467 0,0.27466 -0.092,1.00708 -0.1526,0.94605 -0.2136,1.73951 2.6245,-1.80054 5.0659,-2.68555 2.4414,-0.91553 4.6692,-0.91553 6.2561,0 9.1553,5.5542 2.2888,4.39453 2.2888,11.6272 0,6.5918 -3.5401,10.86426 -3.7536,4.5166 -10.0097,4.5166 z m 2.1057,-26.45874 q -2.8076,0 -5.0659,1.25122 -1.6175,0.88501 -4.0894,3.23486 0.3967,6.92749 0.3967,14.55689 3.3265,1.28173 6.6529,1.28173 3.8147,0 5.8288,-2.83813 1.7395,-2.47192 1.7395,-6.40869 0,-5.5542 -1.3733,-8.30078 -1.3427,-2.7771 -4.0893,-2.7771 z m 42.1753,27.40478 q -0.5799,0 -2.1057,-1.34277 -1.3733,-1.25122 -2.0447,-2.22778 -2.9297,1.58691 -5.1575,2.38037 -2.2278,0.82397 -3.7231,0.82397 -7.1411,0 -10.4065,-4.02832 -3.0823,-3.78418 -3.0823,-11.59668 0,-7.38525 5.0659,-12.63428 5.0965,-5.24902 12.146,-5.24902 2.655,0 5.9509,1.37329 4.1504,1.70899 4.1504,4.11987 0,0.82398 -0.6103,1.46485 -0.3052,1.15967 -0.4883,3.8147 -0.1526,2.65503 -0.1831,6.80542 -0.03,3.78418 0.5188,5.98144 0.3052,1.34277 1.9226,5.37109 0.2136,0.54932 0.7019,1.61744 l 0.1831,0.5188 q 0,1.2207 -0.8545,2.01416 -0.8545,0.79345 -1.9836,0.79345 z m -6.3477,-21.20971 q 0,-1.31226 0.1526,-2.83814 0.1831,-1.5564 0.5188,-3.2959 -1.1291,-0.57983 -1.9531,-0.85449 -0.7935,-0.27466 -1.2818,-0.27466 -4.7302,0 -8.1787,3.87573 -3.4179,3.84522 -3.4179,8.88062 0,5.00488 1.77,7.50732 1.77,2.50245 5.31,2.50245 2.9297,0 4.9744,-1.06812 1.0986,-0.57983 3.0823,-2.31934 -0.9766,-8.08715 -0.9766,-12.11547 z m 38.2385,-3.35694 q -0.2136,3.8147 -3.0517,3.8147 -2.6245,0 -2.6245,-3.02124 0,-0.57983 -0.092,-2.13623 l -0.091,-2.56348 q -4.8218,0.57984 -7.721,2.71607 -2.716,1.98364 -4.5166,5.98144 l 0.061,16.72363 q 0,3.08228 -3.0213,3.08228 -2.6855,0 -2.6855,-3.08228 v -21.42334 q 0,-1.00708 0.061,-3.02124 0.092,-2.01416 0.092,-3.02124 0,-3.08227 2.6855,-3.08227 2.9907,0 3.0212,5.06592 5.8594,-5.64575 13.0005,-5.64575 2.472,0 3.6927,1.86157 1.2207,1.86157 1.2207,5.61523 0,1.58692 -0.031,2.13623 z m 26.7029,-3.44848 q -0.6408,0 -1.5259,-0.061 -0.8544,-0.061 -1.4953,-0.061 -0.7019,0 -4.1504,0.45776 l 0.5798,18.03589 0.03,1.34277 0.031,1.5564 q 0.122,6.68335 -3.2044,6.68335 -1.2207,0 -2.1362,-0.79346 -0.885,-0.79346 -0.885,-1.98364 0,-1.15967 0.091,-3.47901 0.092,-2.31933 0.092,-3.479 l -0.6104,-17.82227 q -2.2277,-0.0915 -6.7749,-0.51879 -2.716,-0.36622 -2.716,-3.02124 0,-1.34278 0.8239,-2.22779 0.824,-0.88501 2.1058,-0.88501 l 6.4086,0.5188 q 0,-1.5564 -0.1525,-4.15039 -0.1221,-2.62451 -0.1221,-3.78418 0,-1.28174 0.885,-2.10571 0.885,-0.85449 2.1667,-0.85449 2.7466,0 3.2044,4.48608 0.091,1.12915 0.091,2.71606 l -0.061,1.77002 -0.031,1.89209 q 3.7842,-0.48828 4.3335,-0.48828 3.1738,0 4.1504,0.30518 1.8615,0.61035 1.8615,2.86865 0,1.34277 -0.8544,2.22778 -0.824,0.8545 -2.1363,0.8545 z m 39.1541,27.80151 q -5.127,0 -8.8196,-3.78418 -4.1199,-4.21143 -4.3335,-11.32202 -0.1831,-6.89697 3.479,-12.146 4.2725,-6.19507 11.9019,-6.19507 6.1035,0 9.2468,5.58472 2.5024,4.5166 2.4109,10.86426 -0.092,6.7749 -3.5401,11.56616 -3.9062,5.43213 -10.3454,5.43213 z m 1.831,-27.2522 q -4.486,-0.0305 -6.9885,4.27246 -1.9836,3.44849 -1.9836,7.87354 0,4.42505 2.4109,6.89697 2.0141,2.04468 4.7302,2.04468 3.1738,0 5.4626,-2.31934 2.594,-2.56347 2.7466,-6.92749 0.4273,-11.8103 -6.3782,-11.84082 z m 40.1001,-17.45605 q -7.3852,0 -8.2702,10.2539 l -0.092,1.89209 q 5.188,-0.36621 6.7139,-0.36621 4.8523,0 4.8523,3.05176 0,2.22778 -2.3804,2.65503 -1.0376,0.18311 -2.4414,0.15259 -1.3733,-0.061 -7.019,0.39673 l -0.2442,6.958 q 0,1.89209 0.1221,5.67627 0.1221,3.78418 0.1221,5.64576 0,5.79834 -0.6714,9.0332 -0.5188,2.4414 -2.8382,2.4414 -1.2512,0 -2.1362,-0.82397 -0.885,-0.79346 -0.885,-2.01416 0,-0.24414 0.061,-0.61035 0.6409,-3.96729 0.6409,-8.63648 l -0.092,-8.33129 v -8.8501 q -3.8146,0.30517 -4.8217,0.30517 -3.0823,0 -3.0823,-2.9602 0,-3.02124 5.3406,-3.17383 l 2.9297,-0.0915 q 0.091,-1.70899 0.4577,-4.63867 0.7935,-6.77491 3.418,-9.97925 3.1738,-3.87573 9.9182,-3.87573 4.364,0 4.364,2.9602 0,2.92969 -3.9673,2.92969 z"
       id="text22"
       style="font-size:62.5px;font-family:ComicSansMS, 'Comic Sans MS', cursive"
       aria-label="offsets from one part of" /><path
       d="m 761.09723,669.72205 q -0.64087,0 -1.52588,-0.061 -0.85449,-0.061 -1.49536,-0.061 -0.70191,0 -4.15039,0.45776 l 0.57983,18.03589 0.0305,1.34277 0.0305,1.5564 q 0.12207,6.68335 -3.20435,6.68335 -1.2207,0 -2.13623,-0.79346 -0.88501,-0.79346 -0.88501,-1.98364 0,-1.15967 0.0915,-3.47901 0.0916,-2.31933 0.0916,-3.479 l -0.61035,-17.82227 q -2.22779,-0.0915 -6.77491,-0.51879 -2.71606,-0.36622 -2.71606,-3.02124 0,-1.34278 0.82397,-2.22779 0.82398,-0.88501 2.10572,-0.88501 l 6.40869,0.5188 q 0,-1.5564 -0.15259,-4.15039 -0.12207,-2.62451 -0.12207,-3.78418 0,-1.28174 0.88501,-2.10571 0.88501,-0.85449 2.16675,-0.85449 2.74658,0 3.20434,4.48608 0.0916,1.12915 0.0916,2.71606 l -0.061,1.77002 -0.0305,1.89209 q 3.78418,-0.48828 4.3335,-0.48828 3.17383,0 4.15039,0.30518 1.86157,0.61035 1.86157,2.86865 0,1.34277 -0.85449,2.22778 -0.82398,0.8545 -2.13623,0.8545 z m 34.57642,27.89306 q -2.16675,0 -2.83814,-2.31933 -0.7019,-2.50245 -1.28174,-7.1106 -0.54931,-4.42505 -0.54931,-7.26318 0,-0.79346 0.061,-2.41089 0.0916,-1.61743 0.0916,-2.41089 0,-5.7373 -2.86865,-5.7373 -3.87573,0 -6.92749,3.50952 -1.5564,1.80053 -4.27246,6.86645 0,11.6272 -0.97656,13.76343 -0.85449,1.89209 -2.65503,1.89209 -1.25122,0 -2.19727,-0.85449 -0.94604,-0.8545 -0.94604,-2.0752 0,-0.42724 0.27466,-1.34277 0.24414,-0.76294 0.33569,-4.45557 l 0.0915,-4.5166 0.0915,-22.43042 q 0.21363,-3.78418 0.21363,-5.09644 0,-1.55639 -0.30518,-2.92968 -0.27466,-1.40381 -0.27466,-2.89917 0,-1.28174 0.88501,-2.10572 0.88501,-0.85449 2.16675,-0.85449 2.50244,0 2.92969,2.68555 0.48828,2.9602 0.48828,5.34058 0,3.20434 -0.21362,6.68334 -0.18311,3.32642 -0.15259,6.68335 l 0.0305,2.68555 q 2.50244,-3.35693 5.34057,-5.00488 2.86866,-1.67847 6.073,-1.67847 5.06592,0 6.95801,3.2959 1.34277,2.31934 1.52588,7.8125 l 0.24414,5.82886 0.61035,6.34765 q 0.42725,3.57056 1.0376,6.28663 0.12207,0.51879 0.12207,0.885 0,1.25123 -0.91553,2.0752 -0.91553,0.85449 -2.19726,0.85449 z m 24.81079,-0.48828 q -6.89698,0 -11.16944,-3.44849 -4.66919,-3.81469 -4.66919,-10.68115 0,-7.93457 3.84522,-13.30566 4.18091,-5.85938 11.16943,-5.85938 5.06592,0 8.27027,1.70899 3.93676,2.10571 3.93676,6.46972 0,3.05176 -3.44848,5.5542 -1.52588,1.09864 -6.46973,3.41797 l -11.65772,5.52368 q 1.70899,2.53296 4.24195,3.8147 2.56347,1.28174 5.95093,1.28174 2.10571,0 4.94384,-0.79346 3.60108,-1.00708 4.63868,-2.62451 1.03759,-1.64795 2.22778,-1.64795 1.06811,0 1.89209,0.82398 0.85449,0.79345 0.85449,1.86157 0,3.38745 -5.46265,5.82886 -4.66919,2.07519 -9.09423,2.07519 z m -0.82398,-27.80151 q -3.72314,0 -6.19507,2.89917 -2.47192,2.86865 -3.69262,8.66699 l 9.36889,-4.45557 q 5.52368,-2.68554 7.87354,-4.66919 -2.62451,-2.4414 -7.35474,-2.4414 z m 50.93384,28.19824 q -5.12695,0 -8.81958,-3.78418 -4.11987,-4.21143 -4.3335,-11.32202 -0.1831,-6.89697 3.47901,-12.146 4.27246,-6.19507 11.90185,-6.19507 6.10352,0 9.24683,5.58472 2.50244,4.5166 2.41089,10.86426 -0.0916,6.7749 -3.54004,11.56616 -3.90625,5.43213 -10.34546,5.43213 z m 1.83105,-27.2522 q -4.48608,-0.0305 -6.98852,4.27246 -1.98364,3.44849 -1.98364,7.87354 0,4.42505 2.41088,6.89697 2.01416,2.04468 4.73023,2.04468 3.17383,0 5.46265,-2.31934 2.59399,-2.56347 2.74658,-6.92749 0.42724,-11.8103 -6.37818,-11.84082 z m 44.49463,7.6294 q 0,2.19726 0.0305,6.59179 0.0305,4.39453 0.0305,6.5918 0,0.67139 0.0916,2.04468 0.12207,1.37329 0.12207,2.04468 0,1.31225 -0.88501,2.13623 -0.88501,0.85449 -2.16675,0.85449 -2.34985,0 -2.99072,-2.89917 -3.8147,1.98364 -8.78906,1.98364 -3.9978,0 -6.62232,-1.77002 -2.89917,-1.95312 -3.44848,-5.70679 -1.19019,-8.08715 -1.19019,-14.40429 0,-4.18091 0.91553,-9.52149 0.42725,-2.65503 2.89917,-2.65503 1.31225,0 2.19726,0.8545 0.88501,0.82397 0.88501,2.13623 0,1.40381 -0.45776,4.48608 -0.42725,3.08228 -0.42725,4.69971 0,5.09643 0.3357,8.72803 0.33569,3.63159 1.00708,5.82885 1.00708,0.54932 1.98364,0.85449 0.97656,0.27466 1.92261,0.27466 4.08935,0 8.63647,-1.31225 l -0.0305,-6.19507 -0.061,-5.92041 q 0,-6.5918 0.57983,-11.44409 0.3357,-2.80762 2.96021,-2.80762 1.31225,0 2.19726,0.85449 0.88501,0.85449 0.82398,2.13623 z m 28.01514,-8.17871 q -0.64087,0 -1.52588,-0.061 -0.85449,-0.061 -1.49536,-0.061 -0.7019,0 -4.15039,0.45776 l 0.57983,18.03589 0.0305,1.34277 0.0305,1.5564 q 0.12207,6.68335 -3.20435,6.68335 -1.2207,0 -2.13623,-0.79346 -0.88501,-0.79346 -0.88501,-1.98364 0,-1.15967 0.0915,-3.47901 0.0916,-2.31933 0.0916,-3.479 l -0.61035,-17.82227 q -2.22779,-0.0915 -6.77491,-0.51879 -2.71606,-0.36622 -2.71606,-3.02124 0,-1.34278 0.82397,-2.22779 0.82398,-0.88501 2.10572,-0.88501 l 6.40869,0.5188 q 0,-1.5564 -0.15259,-4.15039 -0.12207,-2.62451 -0.12207,-3.78418 0,-1.28174 0.88501,-2.10571 0.88501,-0.85449 2.16675,-0.85449 2.74658,0 3.20434,4.48608 0.0916,1.12915 0.0916,2.71606 l -0.061,1.77002 -0.0305,1.89209 q 3.78418,-0.48828 4.3335,-0.48828 3.17383,0 4.15039,0.30518 1.86157,0.61035 1.86157,2.86865 0,1.34277 -0.85449,2.22778 -0.82397,0.8545 -2.13623,0.8545 z m 22.00317,27.06909 q -3.05175,0 -6.71386,-0.97656 l -0.061,14.5874 q 0,1.34277 -0.85449,2.19726 -0.82398,0.8545 -2.13623,0.8545 -1.31226,0 -2.16675,-0.8545 -0.82397,-0.85449 -0.82397,-2.19726 l 0.0915,-12.20703 v -12.17652 q -0.0915,-6.68335 -0.45777,-12.17651 l -0.45776,-6.19507 q 0,-2.16675 0.79346,-3.66211 0.91553,-1.80054 2.65503,-1.80054 1.19018,0 1.98364,0.8545 0.82397,0.82397 0.82397,2.04467 0,0.27466 -0.0915,1.00708 -0.15259,0.94605 -0.21362,1.73951 2.62451,-1.80054 5.06592,-2.68555 2.4414,-0.91553 4.66919,-0.91553 6.2561,0 9.15527,5.5542 2.28882,4.39453 2.28882,11.6272 0,6.5918 -3.54004,10.86426 -3.75366,4.5166 -10.00977,4.5166 z m 2.10572,-26.45874 q -2.80762,0 -5.06592,1.25122 -1.61743,0.88501 -4.08936,3.23486 0.39673,6.92749 0.39673,14.55689 3.32642,1.28173 6.65283,1.28173 3.8147,0 5.82886,-2.83813 1.7395,-2.47192 1.7395,-6.40869 0,-5.5542 -1.37329,-8.30078 -1.34277,-2.7771 -4.08935,-2.7771 z m 43.24339,7.56836 q 0,2.19726 0.03,6.59179 0.03,4.39453 0.03,6.5918 0,0.67139 0.092,2.04468 0.1221,1.37329 0.1221,2.04468 0,1.31225 -0.885,2.13623 -0.885,0.85449 -2.1668,0.85449 -2.3498,0 -2.9907,-2.89917 -3.8147,1.98364 -8.78907,1.98364 -3.9978,0 -6.62231,-1.77002 -2.89917,-1.95312 -3.44849,-5.70679 -1.19019,-8.08715 -1.19019,-14.40429 0,-4.18091 0.91553,-9.52149 0.42725,-2.65503 2.89917,-2.65503 1.31226,0 2.19727,0.8545 0.88501,0.82397 0.88501,2.13623 0,1.40381 -0.45777,4.48608 -0.42724,3.08228 -0.42724,4.69971 0,5.09643 0.33569,8.72803 0.33569,3.63159 1.00708,5.82885 1.00708,0.54932 1.98364,0.85449 0.97656,0.27466 1.92261,0.27466 4.08937,0 8.63647,-1.31225 l -0.03,-6.19507 -0.061,-5.92041 q 0,-6.5918 0.5798,-11.44409 0.3357,-2.80762 2.9602,-2.80762 1.3122,0 2.1973,0.85449 0.885,0.85449 0.8239,2.13623 z m 28.0152,-8.17871 q -0.6409,0 -1.5259,-0.061 -0.8545,-0.061 -1.4954,-0.061 -0.7019,0 -4.1504,0.45776 l 0.5799,18.03589 0.03,1.34277 0.031,1.5564 q 0.1221,6.68335 -3.2044,6.68335 -1.2207,0 -2.1362,-0.79346 -0.885,-0.79346 -0.885,-1.98364 0,-1.15967 0.092,-3.47901 0.091,-2.31933 0.091,-3.479 l -0.6103,-17.82227 q -2.2278,-0.0915 -6.7749,-0.51879 -2.7161,-0.36622 -2.7161,-3.02124 0,-1.34278 0.824,-2.22779 0.8239,-0.88501 2.1057,-0.88501 l 6.4087,0.5188 q 0,-1.5564 -0.1526,-4.15039 -0.1221,-2.62451 -0.1221,-3.78418 0,-1.28174 0.885,-2.10571 0.885,-0.85449 2.1668,-0.85449 2.7466,0 3.2043,4.48608 0.092,1.12915 0.092,2.71606 l -0.061,1.77002 -0.031,1.89209 q 3.7842,-0.48828 4.3335,-0.48828 3.1738,0 4.1504,0.30518 1.8616,0.61035 1.8616,2.86865 0,1.34277 -0.8545,2.22778 -0.824,0.8545 -2.1362,0.8545 z m 48.1262,0 q -0.6409,0 -1.5259,-0.061 -0.8545,-0.061 -1.4954,-0.061 -0.7019,0 -4.1504,0.45776 l 0.5799,18.03589 0.031,1.34277 0.03,1.5564 q 0.1221,6.68335 -3.2043,6.68335 -1.2207,0 -2.1363,-0.79346 -0.885,-0.79346 -0.885,-1.98364 0,-1.15967 0.092,-3.47901 0.091,-2.31933 0.091,-3.479 l -0.6103,-17.82227 q -2.2278,-0.0915 -6.7749,-0.51879 -2.7161,-0.36622 -2.7161,-3.02124 0,-1.34278 0.824,-2.22779 0.824,-0.88501 2.1057,-0.88501 l 6.4087,0.5188 q 0,-1.5564 -0.1526,-4.15039 -0.1221,-2.62451 -0.1221,-3.78418 0,-1.28174 0.885,-2.10571 0.8851,-0.85449 2.1668,-0.85449 2.7466,0 3.2043,4.48608 0.092,1.12915 0.092,2.71606 l -0.061,1.77002 -0.031,1.89209 q 3.7842,-0.48828 4.3335,-0.48828 3.1739,0 4.1504,0.30518 1.8616,0.61035 1.8616,2.86865 0,1.34277 -0.8545,2.22778 -0.824,0.8545 -2.1362,0.8545 z m 20.4773,27.80151 q -5.127,0 -8.8196,-3.78418 -4.1199,-4.21143 -4.3335,-11.32202 -0.1831,-6.89697 3.479,-12.146 4.2725,-6.19507 11.9019,-6.19507 6.1035,0 9.2468,5.58472 2.5024,4.5166 2.4109,10.86426 -0.092,6.7749 -3.5401,11.56616 -3.9062,5.43213 -10.3454,5.43213 z m 1.831,-27.2522 q -4.4861,-0.0305 -6.9885,4.27246 -1.9836,3.44849 -1.9836,7.87354 0,4.42505 2.4108,6.89697 2.0142,2.04468 4.7303,2.04468 3.1738,0 5.4626,-2.31934 2.594,-2.56347 2.7466,-6.92749 0.4272,-11.8103 -6.3782,-11.84082 z m 80.7801,27.46582 q -0.5799,0 -2.1058,-1.34277 -1.3733,-1.25122 -2.0446,-2.22778 -2.9297,1.58691 -5.1575,2.38037 -2.2278,0.82397 -3.7232,0.82397 -7.1411,0 -10.4064,-4.02832 -3.0823,-3.78418 -3.0823,-11.59668 0,-7.38525 5.0659,-12.63428 5.0964,-5.24902 12.146,-5.24902 2.655,0 5.9509,1.37329 4.1504,1.70899 4.1504,4.11987 0,0.82398 -0.6103,1.46485 -0.3052,1.15967 -0.4883,3.8147 -0.1526,2.65503 -0.1831,6.80542 -0.031,3.78418 0.5188,5.98144 0.3051,1.34277 1.9226,5.37109 0.2136,0.54932 0.7019,1.61744 l 0.1831,0.5188 q 0,1.2207 -0.8545,2.01416 -0.8545,0.79345 -1.9836,0.79345 z m -6.3477,-21.20971 q 0,-1.31226 0.1526,-2.83814 0.1831,-1.5564 0.5188,-3.2959 -1.1292,-0.57983 -1.9531,-0.85449 -0.7935,-0.27466 -1.2818,-0.27466 -4.7302,0 -8.1787,3.87573 -3.418,3.84522 -3.418,8.88062 0,5.00488 1.7701,7.50732 1.77,2.50245 5.31,2.50245 2.9297,0 4.9744,-1.06812 1.0986,-0.57983 3.0823,-2.31934 -0.9766,-8.08715 -0.9766,-12.11547 z m 37.9028,21.3623 q -2.6245,0 -2.9602,-2.86865 l -0.8545,-6.68335 q -0.4272,-3.57056 -0.4272,-6.68335 0,-0.85449 0.091,-2.89917 0.1221,-2.04468 0.1221,-2.89917 0,-6.5918 -2.4414,-6.5918 -3.418,0 -6.5308,4.05884 -2.8076,3.69263 -4.3945,9.33838 -0.061,1.19018 -0.2747,2.99072 -0.1831,1.52588 -0.1831,2.96021 0,0.91552 0.1831,2.74658 0.1832,1.83105 0.1832,2.74658 0,1.37329 -0.8545,2.22778 -0.824,0.8545 -2.1363,0.8545 -1.3427,0 -2.1667,-0.8545 -0.824,-0.85449 -0.824,-2.22778 0,-0.91553 -0.2136,-2.74658 -0.1831,-1.83106 -0.1831,-2.74658 0,-3.14331 0.4272,-8.69751 0.4578,-5.58472 0.4578,-8.72803 0,-0.97656 -0.1221,-2.89917 -0.091,-1.92261 -0.091,-2.89917 0,-1.31226 0.8545,-2.13623 0.885,-0.85449 2.1667,-0.85449 2.8076,0 3.0823,3.96728 l 0.091,3.57056 q 5.127,-6.83594 10.5286,-6.83594 4.8828,0 6.8054,4.30298 1.3123,2.86865 1.4343,8.48389 v 3.08227 l -0.031,2.83814 q 0,2.53296 0.6409,6.56128 0.6714,3.9978 0.6714,6.50024 0,1.34277 -0.885,2.16675 -0.8545,0.85449 -2.1668,0.85449 z m 20.752,-0.36621 q -5.127,0 -8.8196,-3.78418 -4.1199,-4.21143 -4.3335,-11.32202 -0.1831,-6.89697 3.479,-12.146 4.2725,-6.19507 11.9019,-6.19507 6.1035,0 9.2468,5.58472 2.5024,4.5166 2.4109,10.86426 -0.092,6.7749 -3.5401,11.56616 -3.9062,5.43213 -10.3454,5.43213 z m 1.831,-27.2522 q -4.486,-0.0305 -6.9885,4.27246 -1.9836,3.44849 -1.9836,7.87354 0,4.42505 2.4109,6.89697 2.0141,2.04468 4.7302,2.04468 3.1738,0 5.4626,-2.31934 2.594,-2.56347 2.7466,-6.92749 0.4273,-11.8103 -6.3782,-11.84082 z m 40.0086,-0.54931 q -0.6409,0 -1.5259,-0.061 -0.8545,-0.061 -1.4954,-0.061 -0.7019,0 -4.1504,0.45776 l 0.5799,18.03589 0.03,1.34277 0.031,1.5564 q 0.1221,6.68335 -3.2043,6.68335 -1.2207,0 -2.1363,-0.79346 -0.885,-0.79346 -0.885,-1.98364 0,-1.15967 0.092,-3.47901 0.091,-2.31933 0.091,-3.479 l -0.6103,-17.82227 q -2.2278,-0.0915 -6.7749,-0.51879 -2.7161,-0.36622 -2.7161,-3.02124 0,-1.34278 0.824,-2.22779 0.824,-0.88501 2.1057,-0.88501 l 6.4087,0.5188 q 0,-1.5564 -0.1526,-4.15039 -0.1221,-2.62451 -0.1221,-3.78418 0,-1.28174 0.885,-2.10571 0.8851,-0.85449 2.1668,-0.85449 2.7466,0 3.2043,4.48608 0.092,1.12915 0.092,2.71606 l -0.061,1.77002 -0.031,1.89209 q 3.7842,-0.48828 4.3335,-0.48828 3.1739,0 4.1504,0.30518 1.8616,0.61035 1.8616,2.86865 0,1.34277 -0.8545,2.22778 -0.824,0.8545 -2.1362,0.8545 z m 34.5764,27.89306 q -2.1668,0 -2.8381,-2.31933 -0.7019,-2.50245 -1.2818,-7.1106 -0.5493,-4.42505 -0.5493,-7.26318 0,-0.79346 0.061,-2.41089 0.092,-1.61743 0.092,-2.41089 0,-5.7373 -2.8687,-5.7373 -3.8757,0 -6.9274,3.50952 -1.5564,1.80053 -4.2725,6.86645 0,11.6272 -0.9766,13.76343 -0.8545,1.89209 -2.655,1.89209 -1.2512,0 -2.1973,-0.85449 -0.946,-0.8545 -0.946,-2.0752 0,-0.42724 0.2746,-1.34277 0.2442,-0.76294 0.3357,-4.45557 l 0.092,-4.5166 0.091,-22.43042 q 0.2137,-3.78418 0.2137,-5.09644 0,-1.55639 -0.3052,-2.92968 -0.2747,-1.40381 -0.2747,-2.89917 0,-1.28174 0.885,-2.10572 0.8851,-0.85449 2.1668,-0.85449 2.5024,0 2.9297,2.68555 0.4883,2.9602 0.4883,5.34058 0,3.20434 -0.2137,6.68334 -0.1831,3.32642 -0.1526,6.68335 l 0.031,2.68555 q 2.5024,-3.35693 5.3405,-5.00488 2.8687,-1.67847 6.073,-1.67847 5.066,0 6.958,3.2959 1.3428,2.31934 1.5259,7.8125 l 0.2442,5.82886 0.6103,6.34765 q 0.4273,3.57056 1.0376,6.28663 0.1221,0.51879 0.1221,0.885 0,1.25123 -0.9155,2.0752 -0.9156,0.85449 -2.1973,0.85449 z m 24.8108,-0.48828 q -6.897,0 -11.1694,-3.44849 -4.6692,-3.81469 -4.6692,-10.68115 0,-7.93457 3.8452,-13.30566 4.1809,-5.85938 11.1694,-5.85938 5.0659,0 8.2703,1.70899 3.9367,2.10571 3.9367,6.46972 0,3.05176 -3.4484,5.5542 -1.5259,1.09864 -6.4698,3.41797 l -11.6577,5.52368 q 1.709,2.53296 4.242,3.8147 2.5634,1.28174 5.9509,1.28174 2.1057,0 4.9438,-0.79346 3.6011,-1.00708 4.6387,-2.62451 1.0376,-1.64795 2.2278,-1.64795 1.0681,0 1.8921,0.82398 0.8545,0.79345 0.8545,1.86157 0,3.38745 -5.4627,5.82886 -4.6692,2.07519 -9.0942,2.07519 z m -0.824,-27.80151 q -3.7231,0 -6.1951,2.89917 -2.4719,2.86865 -3.6926,8.66699 l 9.3689,-4.45557 q 5.5237,-2.68554 7.8735,-4.66919 -2.6245,-2.4414 -7.3547,-2.4414 z m 44.5557,3.84521 q -0.2136,3.8147 -3.0518,3.8147 -2.6245,0 -2.6245,-3.02124 0,-0.57983 -0.091,-2.13623 l -0.092,-2.56348 q -4.8218,0.57984 -7.7209,2.71607 -2.7161,1.98364 -4.5166,5.98144 l 0.061,16.72363 q 0,3.08228 -3.0213,3.08228 -2.6855,0 -2.6855,-3.08228 v -21.42334 q 0,-1.00708 0.061,-3.02124 0.092,-2.01416 0.092,-3.02124 0,-3.08227 2.6855,-3.08227 2.9908,0 3.0213,5.06592 5.8594,-5.64575 13.0005,-5.64575 2.4719,0 3.6926,1.86157 1.2207,1.86157 1.2207,5.61523 0,1.58692 -0.031,2.13623 z m 10.1928,25.39063 q -1.5869,0 -2.6855,-1.09864 -1.0986,-1.09863 -1.0986,-2.68554 0,-1.5564 1.0986,-2.65503 1.0986,-1.12915 2.6855,-1.12915 1.5564,0 2.6551,1.12915 1.1291,1.09863 1.1291,2.65503 0,1.58691 -1.1291,2.68554 -1.0987,1.09864 -2.6551,1.09864 z"
       id="text23"
       style="font-size:62.5px;font-family:ComicSansMS, 'Comic Sans MS', cursive"
       aria-label="the output to  another." /></g><path
     d="m 852.02917,46.180035 q 0,3.570556 -1.00708,6.561279 -1.00708,2.960205 -2.89917,5.096435 -1.89209,2.105713 -4.60815,3.295899 -2.71606,1.159668 -6.16455,1.159668 -3.2959,0 -5.92041,-1.00708 -2.59399,-1.037598 -4.42505,-3.02124 -1.80054,-1.983643 -2.7771,-4.913331 -0.94604,-2.929687 -0.94604,-6.744384 0,-3.570557 1.00708,-6.500244 1.00708,-2.960205 2.89917,-5.065918 1.89209,-2.136231 4.60815,-3.295899 2.71606,-1.190185 6.16455,-1.190185 3.2959,0 5.88989,1.037597 2.62452,1.00708 4.42505,2.990723 1.83106,1.953125 2.7771,4.882812 0.97656,2.929688 0.97656,6.713868 z m -5.43212,0.24414 q 0,-2.838135 -0.64087,-4.943847 -0.61035,-2.136231 -1.77002,-3.540039 -1.15967,-1.434327 -2.83814,-2.136231 -1.64795,-0.732422 -3.69262,-0.732422 -2.38038,0 -4.08936,0.946045 -1.67847,0.915527 -2.7771,2.471924 -1.06811,1.556396 -1.58691,3.631592 -0.48828,2.044677 -0.48828,4.302978 0,2.838135 0.61035,4.974365 0.64087,2.136231 1.80053,3.570557 1.15967,1.403809 2.80762,2.136231 1.64795,0.701904 3.72315,0.701904 2.38037,0 4.05883,-0.915527 1.70899,-0.946045 2.7771,-2.502442 1.09864,-1.556396 1.58692,-3.601074 0.5188,-2.075195 0.5188,-4.364014 z m 37.75024,15.319824 h -4.76074 l -0.18311,-4.943847 q -1.37329,1.586914 -2.62451,2.655029 -1.2207,1.037598 -2.44141,1.678467 -1.2207,0.640869 -2.47192,0.88501 -1.2207,0.274658 -2.59399,0.274658 -4.73023,0 -7.14112,-2.7771 -2.41089,-2.777099 -2.41089,-8.392334 V 31.104351 h 5.31006 v 19.592285 q 0,7.049561 5.31006,7.049561 0.97656,0 1.89209,-0.274658 0.94605,-0.305176 1.95313,-1.007081 1.03759,-0.732421 2.19726,-1.953125 1.19019,-1.220703 2.65503,-3.082275 V 31.104351 h 5.31006 z m 34.42383,-0.427246 q -1.80054,0.457764 -3.72315,0.64087 -1.9226,0.213623 -3.90625,0.213623 -5.76782,0 -8.60595,-2.593995 -2.83814,-2.624511 -2.83814,-8.026123 V 35.559917 h -8.57544 v -4.455566 h 8.57544 v -8.422852 l 5.31006,-1.373291 v 9.796143 h 13.76343 v 4.455566 h -13.76343 v 15.563965 q 0,3.295899 1.7395,4.943848 1.77002,1.617432 5.18799,1.617432 1.46484,0 3.20435,-0.213623 1.7395,-0.244141 3.63159,-0.732422 z m 35.85815,-15.441894 q 0,4.089355 -1.15967,7.141113 -1.12915,3.051758 -3.14331,5.065918 -2.01416,2.01416 -4.76074,3.02124 -2.74658,1.00708 -5.95093,1.00708 -1.46484,0 -2.92968,-0.152587 -1.43433,-0.152588 -2.92969,-0.518799 v 12.817383 h -5.31006 V 31.104351 h 4.73023 l 0.33569,5.126953 q 2.28882,-3.14331 4.88281,-4.394531 2.594,-1.281738 5.61524,-1.281738 2.62451,0 4.60815,1.098632 1.98364,1.098633 3.32642,3.112793 1.34277,1.983643 2.01416,4.821778 0.67138,2.807617 0.67138,6.286621 z m -5.43213,0.24414 q 0,-2.410888 -0.36621,-4.425048 -0.33569,-2.014161 -1.09863,-3.448487 -0.76294,-1.434326 -1.95313,-2.227783 -1.19018,-0.823974 -2.83813,-0.823974 -1.00708,0 -2.04468,0.335693 -1.0376,0.305176 -2.16675,1.068115 -1.09863,0.732422 -2.34985,1.983643 -1.2207,1.220703 -2.62451,3.051757 v 14.862061 q 1.46484,0.610352 3.08227,0.976563 1.61744,0.335693 3.17383,0.335693 4.30298,0 6.74439,-2.89917 2.4414,-2.929688 2.4414,-8.789063 z m 38.23853,15.625 h -4.76074 l -0.18311,-4.943847 q -1.37329,1.586914 -2.62451,2.655029 -1.2207,1.037598 -2.44141,1.678467 -1.2207,0.640869 -2.47192,0.88501 -1.2207,0.274658 -2.59399,0.274658 -4.73023,0 -7.14112,-2.7771 -2.41089,-2.777099 -2.41089,-8.392334 V 31.104351 h 5.31006 v 19.592285 q 0,7.049561 5.31006,7.049561 0.97656,0 1.89209,-0.274658 0.94605,-0.305176 1.95313,-1.007081 1.03759,-0.732421 2.19726,-1.953125 1.19019,-1.220703 2.65503,-3.082275 V 31.104351 h 5.31006 z m 34.42383,-0.427246 q -1.8005,0.457764 -3.7231,0.64087 -1.9227,0.213623 -3.9063,0.213623 -5.7678,0 -8.606,-2.593995 -2.8381,-2.624511 -2.8381,-8.026123 V 35.559917 h -8.57543 v -4.455566 h 8.57543 v -8.422852 l 5.3101,-1.373291 v 9.796143 h 13.7634 v 4.455566 h -13.7634 v 15.563965 q 0,3.295899 1.7395,4.943848 1.77,1.617432 5.188,1.617432 1.4648,0 3.2043,-0.213623 1.7395,-0.244141 3.6316,-0.732422 z m 21.7285,-9.185791 q 1.0376,0 1.9531,0.396729 0.9461,0.396728 1.6175,1.098633 0.7019,0.701904 1.0986,1.647949 0.3967,0.915527 0.3967,1.983642 0,1.037598 -0.3967,1.953125 -0.3967,0.915528 -1.0986,1.617432 -0.6714,0.671387 -1.6175,1.068115 -0.9155,0.396729 -1.9531,0.396729 -1.0681,0 -1.9836,-0.396729 -0.9156,-0.396728 -1.6175,-1.068115 -0.6713,-0.701904 -1.0681,-1.617432 -0.3967,-0.915527 -0.3967,-1.953125 0,-1.068115 0.3967,-1.983642 0.3968,-0.946045 1.0681,-1.647949 0.7019,-0.701905 1.6175,-1.098633 0.9155,-0.396729 1.9836,-0.396729 z m 48.4924,-6.256103 q 0,3.814697 -1.0681,6.835937 -1.0376,2.990723 -2.9907,5.096436 -1.9226,2.075195 -4.6997,3.204346 -2.7771,1.098632 -6.2561,1.098632 -2.7161,0 -5.5542,-0.518798 -2.8381,-0.518799 -5.6152,-1.64795 v -41.3208 h 5.31 v 11.871337 l -0.2441,5.67627 q 2.2888,-3.082275 4.8828,-4.333496 2.6245,-1.281738 5.6152,-1.281738 2.6245,0 4.6082,1.098632 1.9836,1.098633 3.3264,3.112793 1.3428,1.983643 2.0142,4.821778 0.6713,2.807617 0.6713,6.286621 z m -5.4321,0.24414 q 0,-2.410888 -0.3662,-4.425048 -0.3357,-2.014161 -1.0986,-3.448487 -0.763,-1.434326 -1.9532,-2.227783 -1.1901,-0.823974 -2.8381,-0.823974 -1.0071,0 -2.0447,0.335693 -1.0376,0.305176 -2.1667,1.068115 -1.0986,0.732422 -2.3499,1.983643 -1.2207,1.220703 -2.6245,3.051757 v 14.862061 q 1.5564,0.610352 3.1738,0.976563 1.6175,0.335693 3.0823,0.335693 1.8311,0 3.479,-0.579834 1.6785,-0.579834 2.9297,-1.922608 1.2818,-1.373291 2.0142,-3.601074 0.7629,-2.258301 0.7629,-5.584717 z m 24.0479,-10.620117 h -9.0638 v -4.394531 h 14.4349 v 26.2146 h 9.1247 v 4.425048 h -24.5666 v -4.425048 h 10.0708 z m 1.8615,-17.242431 q 0.885,0 1.648,0.335693 0.7629,0.305176 1.3122,0.88501 0.5799,0.579834 0.8851,1.342773 0.3356,0.732422 0.3356,1.617432 0,0.854492 -0.3356,1.617431 -0.3052,0.76294 -0.8851,1.342774 -0.5493,0.579834 -1.3122,0.915527 -0.763,0.305176 -1.648,0.305176 -0.885,0 -1.6479,-0.305176 -0.7629,-0.335693 -1.3428,-0.915527 -0.5493,-0.579834 -0.885,-1.342774 -0.3052,-0.762939 -0.3052,-1.617431 0,-0.88501 0.3052,-1.617432 0.3357,-0.762939 0.885,-1.342773 0.5799,-0.579834 1.3428,-0.88501 0.7629,-0.335693 1.6479,-0.335693 z m 22.0642,12.8479 h 4.7303 l 0.2136,4.943848 q 1.3428,-1.586914 2.594,-2.624512 1.2512,-1.068115 2.4414,-1.708984 1.2207,-0.64087 2.4719,-0.88501 1.2512,-0.274658 2.594,-0.274658 4.7302,0 7.1411,2.807617 2.4414,2.777099 2.4414,8.392334 v 19.989013 h -5.31 V 42.182232 q 0,-3.601074 -1.3428,-5.310059 -1.3428,-1.739502 -3.9978,-1.739502 -0.9766,0 -1.9226,0.305176 -0.9155,0.274658 -1.9226,1.00708 -1.0071,0.701905 -2.1973,1.922608 -1.1596,1.220703 -2.6245,3.051757 v 20.324707 h -5.3101 z"
     id="text24"
     style="font-size:62.5px;font-family:Consolas, monospace"
     aria-label="output.bin" /><path
     d="m 926.35429,140.68878 q 0,1.30207 -0.48828,2.58787 -0.48828,1.26952 -1.51366,2.27862 -1.02538,1.0091 -2.62041,1.64386 -1.59504,0.61849 -3.80856,0.61849 h -2.63669 v 7.63338 h -2.89711 v -21.27257 h 5.98953 q 1.57876,0 3.02731,0.35807 1.44855,0.34179 2.53904,1.12304 1.10676,0.78124 1.75779,2.0182 0.65104,1.23697 0.65104,3.01104 z m -3.01104,0.13021 q 0,-2.05076 -1.3509,-3.14125 -1.33462,-1.09048 -3.74345,-1.09048 h -2.96221 v 8.75642 h 2.70179 q 2.57159,0 3.95504,-1.12303 1.39973,-1.12304 1.39973,-3.40166 z m 21.63064,6.33132 q 0,1.90427 -0.5371,3.49931 -0.53711,1.57876 -1.54621,2.71807 -1.00911,1.12304 -2.45766,1.7578 -1.44855,0.61848 -3.28773,0.61848 -1.75779,0 -3.15752,-0.5371 -1.38345,-0.55338 -2.36,-1.61132 -0.96028,-1.05793 -1.4811,-2.62041 -0.50456,-1.56249 -0.50456,-3.59697 0,-1.90428 0.53711,-3.46676 0.5371,-1.57876 1.54621,-2.7018 1.0091,-1.13931 2.45765,-1.7578 1.44856,-0.63475 3.28773,-0.63475 1.7578,0 3.14125,0.55338 1.39972,0.5371 2.36,1.59503 0.97655,1.04166 1.4811,2.60414 0.52083,1.56249 0.52083,3.5807 z m -2.89711,0.1302 q 0,-1.51365 -0.34179,-2.63669 -0.32552,-1.13931 -0.944,-1.888 -0.61848,-0.76497 -1.51366,-1.13931 -0.87889,-0.39062 -1.96938,-0.39062 -1.26952,0 -2.18097,0.50455 -0.89517,0.48827 -1.4811,1.31834 -0.56966,0.83007 -0.84635,1.93683 -0.26041,1.09049 -0.26041,2.2949 0,1.51366 0.32552,2.65297 0.34179,1.13931 0.96027,1.90428 0.61849,0.74869 1.49738,1.13931 0.8789,0.37435 1.98566,0.37435 1.26952,0 2.16469,-0.48828 0.91145,-0.50455 1.48111,-1.33462 0.58593,-0.83007 0.84634,-1.92056 0.27669,-1.10676 0.27669,-2.32745 z m 12.56498,-5.82676 h -4.83393 v -2.34373 h 7.69849 V 153.091 h 4.86649 v 2.36 h -13.10209 v -2.36 h 5.37104 z m 0.99283,-9.19587 q 0.472,0 0.8789,0.17903 0.4069,0.16276 0.69986,0.472 0.30924,0.30924 0.472,0.71614 0.17904,0.39062 0.17904,0.86262 0,0.45573 -0.17904,0.86262 -0.16276,0.4069 -0.472,0.71614 -0.29296,0.30924 -0.69986,0.48828 -0.4069,0.16276 -0.8789,0.16276 -0.472,0 -0.8789,-0.16276 -0.40689,-0.17904 -0.71613,-0.48828 -0.29297,-0.30924 -0.47201,-0.71614 -0.16275,-0.40689 -0.16275,-0.86262 0,-0.472 0.16275,-0.86262 0.17904,-0.4069 0.47201,-0.71614 0.30924,-0.30924 0.71613,-0.472 0.4069,-0.17903 0.8789,-0.17903 z m 11.76746,6.85214 h 2.52276 l 0.11394,2.63669 q 0.71613,-0.84634 1.38345,-1.39972 0.66731,-0.56966 1.30207,-0.91145 0.65103,-0.34179 1.31834,-0.472 0.66731,-0.14648 1.38345,-0.14648 2.52276,0 3.80856,1.49738 1.30207,1.4811 1.30207,4.47586 v 10.6607 h -2.83201 v -10.43283 q 0,-1.92056 -0.71613,-2.83201 -0.71614,-0.92772 -2.13214,-0.92772 -0.52083,0 -1.02538,0.16276 -0.48828,0.14648 -1.02538,0.5371 -0.53711,0.37435 -1.17187,1.02538 -0.61848,0.65104 -1.39972,1.62759 V 155.451 h -2.83201 z m 31.49383,16.11312 q -0.96028,0.24414 -1.98566,0.3418 -1.02538,0.11393 -2.08331,0.11393 -3.07614,0 -4.5898,-1.38345 -1.51366,-1.39973 -1.51366,-4.28056 v -8.52856 h -4.57352 v -2.37628 h 4.57352 v -4.49214 l 2.83201,-0.73242 v 5.22456 h 7.34042 v 2.37628 h -7.34042 v 8.3007 q 0,1.75779 0.92772,2.63669 0.944,0.86262 2.7669,0.86262 0.78124,0 1.70897,-0.11393 0.92772,-0.13021 1.93683,-0.39062 z m 18.96142,-8.80525 q 0,0.60221 -0.016,1.00911 -0.016,0.40689 -0.049,0.76496 h -11.4745 q 0,2.50649 1.3997,3.85739 1.3997,1.33462 4.0364,1.33462 0.7162,0 1.4323,-0.0488 0.7161,-0.0651 1.3834,-0.16276 0.6674,-0.0977 1.2696,-0.21159 0.6184,-0.1302 1.1393,-0.27669 v 2.32746 q -1.1556,0.32551 -2.6204,0.52082 -1.4486,0.21159 -3.0111,0.21159 -2.0996,0 -3.6132,-0.56966 -1.5137,-0.56965 -2.4902,-1.64386 -0.9603,-1.09048 -1.4323,-2.65297 -0.4557,-1.57876 -0.4557,-3.56442 0,-1.72524 0.4882,-3.25517 0.5046,-1.54621 1.4486,-2.7018 0.9603,-1.17186 2.3437,-1.85545 1.3835,-0.68358 3.1413,-0.68358 1.7089,0 3.0273,0.5371 1.3183,0.5371 2.2135,1.52993 0.9114,0.97656 1.3672,2.39256 0.472,1.39972 0.472,3.14124 z m -2.946,-0.4069 q 0.049,-1.09048 -0.2115,-1.98565 -0.2605,-0.91145 -0.8138,-1.56249 -0.5371,-0.65103 -1.3509,-1.0091 -0.8138,-0.37435 -1.888,-0.37435 -0.9278,0 -1.6927,0.35807 -0.765,0.35807 -1.3184,1.00911 -0.5534,0.65103 -0.8952,1.56248 -0.3417,0.91145 -0.4231,2.00193 z m 8.138,-6.90097 h 2.5878 l 0.081,3.01104 q 1.4486,-1.74152 2.8483,-2.52276 1.416,-0.78124 2.8483,-0.78124 2.539,0 3.8411,1.64386 1.3183,1.64386 1.2207,4.88276 h -2.8646 q 0.049,-2.14841 -0.6347,-3.10869 -0.6673,-0.97655 -1.9694,-0.97655 -0.5697,0 -1.1556,0.21158 -0.5697,0.19531 -1.1881,0.65104 -0.6022,0.43945 -1.2858,1.13931 -0.6836,0.69986 -1.4649,1.69269 V 155.451 h -2.8645 z m 51.5457,16.34098 h -3.1575 l -1.4811,-4.63862 h -8.8541 l -1.4974,4.63862 h -3.011 l 7.0637,-21.27257 h 3.9713 z m -5.4687,-7.22649 -3.597,-11.37684 -3.5969,11.37684 z"
     id="text25"
     style="font-size:33.333px;font-family:Consolas, monospace;fill:#f2780d"
     aria-label="Pointer A" /><path
     d="m 926.35429,192.21278 q 0,1.30207 -0.48828,2.58787 -0.48828,1.26952 -1.51366,2.27862 -1.02538,1.00911 -2.62041,1.64387 -1.59504,0.61848 -3.80856,0.61848 h -2.63669 v 7.63339 h -2.89711 v -21.27258 h 5.98953 q 1.57876,0 3.02731,0.35807 1.44855,0.3418 2.53904,1.12304 1.10676,0.78124 1.75779,2.01821 0.65104,1.23696 0.65104,3.01103 z m -3.01104,0.13021 q 0,-2.05076 -1.3509,-3.14124 -1.33462,-1.09049 -3.74345,-1.09049 h -2.96221 v 8.75643 h 2.70179 q 2.57159,0 3.95504,-1.12304 1.39973,-1.12304 1.39973,-3.40166 z m 21.63064,6.33132 q 0,1.90428 -0.5371,3.49931 -0.53711,1.57876 -1.54621,2.71807 -1.00911,1.12304 -2.45766,1.7578 -1.44855,0.61848 -3.28773,0.61848 -1.75779,0 -3.15752,-0.5371 -1.38345,-0.55338 -2.36,-1.61131 -0.96028,-1.05794 -1.4811,-2.62042 -0.50456,-1.56249 -0.50456,-3.59697 0,-1.90428 0.53711,-3.46676 0.5371,-1.57876 1.54621,-2.7018 1.0091,-1.13931 2.45765,-1.75779 1.44856,-0.63476 3.28773,-0.63476 1.7578,0 3.14125,0.55338 1.39972,0.5371 2.36,1.59503 0.97655,1.04166 1.4811,2.60414 0.52083,1.56249 0.52083,3.5807 z m -2.89711,0.1302 q 0,-1.51365 -0.34179,-2.63669 -0.32552,-1.13931 -0.944,-1.888 -0.61848,-0.76497 -1.51366,-1.13931 -0.87889,-0.39062 -1.96938,-0.39062 -1.26952,0 -2.18097,0.50455 -0.89517,0.48828 -1.4811,1.31835 -0.56966,0.83007 -0.84635,1.93683 -0.26041,1.09048 -0.26041,2.29489 0,1.51366 0.32552,2.65297 0.34179,1.13931 0.96027,1.90428 0.61849,0.74869 1.49738,1.13931 0.8789,0.37435 1.98566,0.37435 1.26952,0 2.16469,-0.48828 0.91145,-0.50455 1.48111,-1.33462 0.58593,-0.83007 0.84634,-1.92055 0.27669,-1.10676 0.27669,-2.32746 z m 12.56498,-5.82676 h -4.83393 v -2.34373 h 7.69849 V 204.615 h 4.86649 v 2.36001 H 949.27072 V 204.615 h 5.37104 z m 0.99283,-9.19587 q 0.472,0 0.8789,0.17903 0.4069,0.16276 0.69986,0.472 0.30924,0.30925 0.472,0.71614 0.17904,0.39062 0.17904,0.86262 0,0.45573 -0.17904,0.86263 -0.16276,0.40689 -0.472,0.71613 -0.29296,0.30925 -0.69986,0.48828 -0.4069,0.16276 -0.8789,0.16276 -0.472,0 -0.8789,-0.16276 -0.40689,-0.17903 -0.71613,-0.48828 -0.29297,-0.30924 -0.47201,-0.71613 -0.16275,-0.4069 -0.16275,-0.86263 0,-0.472 0.16275,-0.86262 0.17904,-0.40689 0.47201,-0.71614 0.30924,-0.30924 0.71613,-0.472 0.4069,-0.17903 0.8789,-0.17903 z m 11.76746,6.85214 h 2.52276 l 0.11394,2.6367 q 0.71613,-0.84635 1.38345,-1.39973 0.66731,-0.56966 1.30207,-0.91145 0.65103,-0.34179 1.31834,-0.472 0.66731,-0.14648 1.38345,-0.14648 2.52276,0 3.80856,1.49738 1.30207,1.4811 1.30207,4.47587 v 10.6607 h -2.83201 v -10.43284 q 0,-1.92056 -0.71613,-2.83201 -0.71614,-0.92772 -2.13214,-0.92772 -0.52083,0 -1.02538,0.16276 -0.48828,0.14648 -1.02538,0.5371 -0.53711,0.37435 -1.17187,1.02538 -0.61848,0.65104 -1.39972,1.62759 v 10.83974 h -2.83201 z m 31.49383,16.11312 q -0.96028,0.24414 -1.98566,0.3418 -1.02538,0.11393 -2.08331,0.11393 -3.07614,0 -4.5898,-1.38345 -1.51366,-1.39973 -1.51366,-4.28056 v -8.52856 h -4.57352 v -2.37628 h 4.57352 v -4.49214 l 2.83201,-0.73241 v 5.22455 h 7.34042 v 2.37628 h -7.34042 v 8.3007 q 0,1.7578 0.92772,2.63669 0.944,0.86262 2.7669,0.86262 0.78124,0 1.70897,-0.11393 0.92772,-0.1302 1.93683,-0.39062 z m 18.96142,-8.80525 q 0,0.60221 -0.016,1.00911 -0.016,0.40689 -0.049,0.76496 h -11.4745 q 0,2.50649 1.3997,3.85739 1.3997,1.33462 4.0364,1.33462 0.7162,0 1.4323,-0.0488 0.7161,-0.0651 1.3834,-0.16276 0.6674,-0.0977 1.2696,-0.21158 0.6184,-0.13021 1.1393,-0.27669 v 2.32745 q -1.1556,0.32551 -2.6204,0.52083 -1.4486,0.21158 -3.0111,0.21158 -2.0996,0 -3.6132,-0.56965 -1.5137,-0.56966 -2.4902,-1.64387 -0.9603,-1.09048 -1.4323,-2.65297 -0.4557,-1.57876 -0.4557,-3.56441 0,-1.72525 0.4882,-3.25518 0.5046,-1.54621 1.4486,-2.7018 0.9603,-1.17186 2.3437,-1.85545 1.3835,-0.68358 3.1413,-0.68358 1.7089,0 3.0273,0.5371 1.3183,0.53711 2.2135,1.52993 0.9114,0.97656 1.3672,2.39256 0.472,1.39972 0.472,3.14124 z m -2.946,-0.40689 q 0.049,-1.09049 -0.2115,-1.98566 -0.2605,-0.91145 -0.8138,-1.56249 -0.5371,-0.65103 -1.3509,-1.0091 -0.8138,-0.37435 -1.888,-0.37435 -0.9278,0 -1.6927,0.35807 -0.765,0.35807 -1.3184,1.00911 -0.5534,0.65103 -0.8952,1.56248 -0.3417,0.91145 -0.4231,2.00194 z m 8.138,-6.90098 h 2.5878 l 0.081,3.01104 q 1.4486,-1.74152 2.8483,-2.52276 1.416,-0.78124 2.8483,-0.78124 2.539,0 3.8411,1.64386 1.3183,1.64387 1.2207,4.88277 h -2.8646 q 0.049,-2.14842 -0.6347,-3.1087 -0.6673,-0.97655 -1.9694,-0.97655 -0.5697,0 -1.1556,0.21159 -0.5697,0.19531 -1.1881,0.65103 -0.6022,0.43945 -1.2858,1.13931 -0.6836,0.69987 -1.4649,1.69269 v 10.49795 h -2.8645 z m 49.9181,9.97712 q 0,1.52993 -0.6022,2.71807 -0.5859,1.17186 -1.6927,1.98566 -1.0905,0.81379 -2.653,1.23696 -1.5462,0.42318 -3.4505,0.42318 h -5.5663 v -21.27258 h 6.0872 q 7.1125,0 7.1125,5.17573 0,1.72524 -0.83,2.96221 -0.8138,1.23697 -2.6693,1.83918 0.8626,0.16275 1.6276,0.55338 0.7812,0.39062 1.3672,1.0091 0.5859,0.61848 0.9277,1.46483 0.3418,0.84635 0.3418,1.90428 z m -3.776,-9.34236 q 0,-0.65103 -0.1953,-1.22069 -0.1953,-0.58593 -0.6836,-0.99283 -0.4883,-0.42317 -1.3183,-0.66731 -0.8301,-0.24414 -2.0996,-0.24414 h -2.9948 v 6.65684 h 2.8971 q 0.9928,0 1.7904,-0.21159 0.8137,-0.21158 1.3834,-0.65103 0.5859,-0.43945 0.8952,-1.09049 0.3255,-0.66731 0.3255,-1.57876 z m 0.6999,9.44001 q 0,-0.81379 -0.3418,-1.46483 -0.3418,-0.65103 -0.9929,-1.09048 -0.651,-0.45572 -1.595,-0.69986 -0.9277,-0.24414 -2.0996,-0.24414 h -2.9622 v 7.32414 h 3.0599 q 2.4902,0 3.7109,-0.92772 1.2207,-0.92773 1.2207,-2.89711 z"
     id="text26"
     style="font-size:33.333px;font-family:Consolas, monospace;fill:#f2780d"
     aria-label="Pointer B" /><path
     d="M1094.81,299.519l288.705,0"
     style="fill:none;stroke:#808080;stroke-width:6.25px;stroke-dasharray:6.25,18.75,6.25,18.75;"
     id="path26" /><path
     d="M1094.81,118.761l288.705,0"
     style="fill:none;stroke:#808080;stroke-width:6.25px;stroke-dasharray:6.25,18.75,6.25,18.75;"
     id="path27" /><path
     d="M1094.81,577.028l288.705,0"
     style="fill:none;stroke:#808080;stroke-width:6.25px;stroke-dasharray:6.25,18.75,6.25,18.75;"
     id="path28" /><path
     d="M1094.81,761.45l288.705,0"
     style="fill:none;stroke:#808080;stroke-width:6.25px;stroke-dasharray:6.25,18.75,6.25,18.75;"
     id="path29" /></svg>
