<?xml version="1.0" encoding="UTF-8" standalone="no"?><!DOCTYPE svg PUBLIC "-//W3C//DTD SVG 1.1//EN" "http://www.w3.org/Graphics/SVG/1.1/DTD/svg11.dtd"><svg width="100%" height="100%" viewBox="0 0 1442 981" version="1.1" xmlns="http://www.w3.org/2000/svg" xmlns:xlink="http://www.w3.org/1999/xlink" xml:space="preserve" xmlns:serif="http://www.serif.com/" style="fill-rule:evenodd;clip-rule:evenodd;stroke-linecap:round;stroke-linejoin:round;stroke-miterlimit:1.5;"><rect x="0" y="-0" width="1441.86" height="980.175" style="fill:#fff;"/><rect x="889.764" y="118.761" width="205.049" height="827.148" style="fill:#b4b4b4;"/><g><g><rect x="889.764" y="299.519" width="205.049" height="184.922" style="fill:#d6e8fd;stroke:#0d79f2;stroke-width:6.25px;"/><text x="975.614px" y="409.888px" style="font-family:'ArialMT', 'Arial', sans-serif;font-size:50px;fill:#0078b3;">A</text></g></g><g><rect x="889.764" y="577.028" width="205.049" height="184.922" style="fill:#d6e8fd;stroke:#0d79f2;stroke-width:6.25px;"/><text x="975.614px" y="687.397px" style="font-family:'ArialMT', 'Arial', sans-serif;font-size:50px;fill:#0078b3;">B</text></g><g><g><rect x="889.764" y="760.987" width="205.049" height="184.922" style="fill:#d6e8fd;stroke:#0d79f2;stroke-width:6.25px;"/><text x="974.234px" y="871.356px" style="font-family:'ArialMT', 'Arial', sans-serif;font-size:50px;fill:#0078b3;">C</text></g></g><rect x="889.764" y="118.761" width="205.049" height="50.382" style="fill:#fef1e6;stroke:#f2780d;stroke-width:6.25px;"/><rect x="889.764" y="169.143" width="205.049" height="50.382" style="fill:#fef1e6;stroke:#f2780d;stroke-width:6.25px;"/><g><rect x="889.764" y="484.441" width="205.049" height="50.382" style="fill:#fef1e6;stroke:#f2780d;stroke-width:6.25px;"/><text x="909.818px" y="521.131px" style="font-family:'Consolas', monospace;font-size:33.333px;fill:#f2780d;">Pointer C</text></g><path d="M1181.53,260.998l-12.841,38.521l-12.84,-38.521l25.681,0Z" style="fill:#f2780d;"/><path d="M1168.68,118.761l0,149.941" style="fill:none;stroke:#f2780d;stroke-width:6.25px;"/><path d="M1236.61,538.507l-12.841,38.521l-12.84,-38.521l25.681,-0Z" style="fill:#f2780d;"/><path d="M1223.77,118.761l0,427.45" style="fill:none;stroke:#f2780d;stroke-width:6.25px;"/><path d="M1291.7,722.929l-12.84,38.521l-12.84,-38.521l25.68,-0Z" style="fill:#f2780d;"/><path d="M1278.86,118.761l-0,611.872" style="fill:none;stroke:#f2780d;stroke-width:6.25px;"/><path d="M1164,146.238l4.687,1.562l-4.687,1.563l-0,-3.125Z" style="fill:#f2780d;"/><path d="M1094.81,147.8l70.121,0" style="fill:none;stroke:#f2780d;stroke-width:1.04px;stroke-dasharray:0,0.05,0,0;"/><path d="M1219.09,194.036l4.687,1.562l-4.687,1.563l-0,-3.125Z" style="fill:#f2780d;"/><path d="M1094.81,195.598l125.21,0" style="fill:none;stroke:#f2780d;stroke-width:1.04px;stroke-dasharray:0,0.05,0,0;"/><path d="M1274.17,508.369l4.688,1.563l-4.688,1.562l0,-3.125Z" style="fill:#f2780d;"/><path d="M1094.81,509.932l180.299,-0" style="fill:none;stroke:#f2780d;stroke-width:1.04px;stroke-dasharray:0,0.05,0,0;"/><g transform="matrix(1,0,0,1,-679.417,-127.459)"><text x="736.439px" y="508.223px" style="font-family:'ComicSansMS', 'Comic Sans MS', cursive;font-size:62.5px;">You need to provide</text><text x="736.439px" y="570.723px" style="font-family:'ComicSansMS', 'Comic Sans MS', cursive;font-size:62.5px;">relative or absolute</text><text x="736.439px" y="633.223px" style="font-family:'ComicSansMS', 'Comic Sans MS', cursive;font-size:62.5px;">offsets from one part of</text><text x="736.439px" y="695.723px" style="font-family:'ComicSansMS', 'Comic Sans MS', cursive;font-size:62.5px;">the output to  another.</text></g><text x="820.474px" y="61.744px" style="font-family:'Consolas', monospace;font-size:62.5px;">output.bin</text><text x="909.818px" y="155.451px" style="font-family:'Consolas', monospace;font-size:33.333px;fill:#f2780d;">Pointer A</text><text x="909.818px" y="206.975px" style="font-family:'Consolas', monospace;font-size:33.333px;fill:#f2780d;">Pointer B</text><path d="M1094.81,299.519l288.705,0" style="fill:none;stroke:#808080;stroke-width:6.25px;stroke-dasharray:6.25,18.75,6.25,18.75;"/><path d="M1094.81,118.761l288.705,0" style="fill:none;stroke:#808080;stroke-width:6.25px;stroke-dasharray:6.25,18.75,6.25,18.75;"/><path d="M1094.81,577.028l288.705,0" style="fill:none;stroke:#808080;stroke-width:6.25px;stroke-dasharray:6.25,18.75,6.25,18.75;"/><path d="M1094.81,761.45l288.705,0" style="fill:none;stroke:#808080;stroke-width:6.25px;stroke-dasharray:6.25,18.75,6.25,18.75;"/></svg>