<?xml version="1.0" encoding="UTF-8" standalone="no"?><!DOCTYPE svg PUBLIC "-//W3C//DTD SVG 1.1//EN" "http://www.w3.org/Graphics/SVG/1.1/DTD/svg11.dtd"><svg width="100%" height="100%" viewBox="0 0 1442 860" version="1.1" xmlns="http://www.w3.org/2000/svg" xmlns:xlink="http://www.w3.org/1999/xlink" xml:space="preserve" xmlns:serif="http://www.serif.com/" style="fill-rule:evenodd;clip-rule:evenodd;stroke-linecap:round;stroke-linejoin:round;stroke-miterlimit:1.5;"><rect x="0" y="0" width="1441.86" height="859.471" style="fill:#fff;"/><rect x="889.764" y="129.577" width="205.049" height="695.629" style="fill:#b4b4b4;"/><g><g><rect x="889.764" y="129.577" width="205.049" height="184.922" style="fill:#d6e8fd;stroke:#0d79f2;stroke-width:6.25px;"/><text x="975.614px" y="239.946px" style="font-family:'ArialMT', 'Arial', sans-serif;font-size:50px;fill:#0078b3;">A</text></g></g><g><rect x="889.764" y="351.109" width="205.049" height="231.499" style="fill:#d6e8fd;stroke:#0d79f2;stroke-width:6.25px;"/><text x="975.614px" y="421.327px" style="font-family:'ArialMT', 'Arial', sans-serif;font-size:50px;fill:#0078b3;">B</text></g><g><rect x="895.948" y="514.337" width="193.483" height="61.912" style="fill:#d6e8fd;"/><path d="M912.419,576.25l33.927,-61.913" style="fill:none;stroke:#0d79f2;stroke-width:1px;"/><path d="M895.948,576.25l33.927,-61.913" style="fill:none;stroke:#0d79f2;stroke-width:1px;"/><path d="M895.948,545.294l16.963,-30.957" style="fill:none;stroke:#0d79f2;stroke-width:1px;"/><path d="M929.382,576.25l33.927,-61.913" style="fill:none;stroke:#0d79f2;stroke-width:1px;"/><path d="M946.346,576.25l33.927,-61.913" style="fill:none;stroke:#0d79f2;stroke-width:1px;"/><path d="M963.309,576.25l33.927,-61.913" style="fill:none;stroke:#0d79f2;stroke-width:1px;"/><path d="M980.273,576.25l33.927,-61.913" style="fill:none;stroke:#0d79f2;stroke-width:1px;"/><path d="M997.236,576.25l33.927,-61.913" style="fill:none;stroke:#0d79f2;stroke-width:1px;"/><path d="M1014.2,576.25l33.927,-61.913" style="fill:none;stroke:#0d79f2;stroke-width:1px;"/><path d="M1031.16,576.25l33.927,-61.913" style="fill:none;stroke:#0d79f2;stroke-width:1px;"/><path d="M1048.13,576.25l33.927,-61.913" style="fill:none;stroke:#0d79f2;stroke-width:1px;"/><path d="M1065.09,576.25l24.34,-44.418" style="fill:none;stroke:#0d79f2;stroke-width:1px;"/><path d="M1082.05,576.25l7.376,-13.462" style="fill:none;stroke:#0d79f2;stroke-width:1px;"/></g><g><g><rect x="889.764" y="640.284" width="205.049" height="184.922" style="fill:#d6e8fd;stroke:#0d79f2;stroke-width:6.25px;"/><text x="974.234px" y="750.652px" style="font-family:'ArialMT', 'Arial', sans-serif;font-size:50px;fill:#0078b3;">C</text></g></g><g transform="matrix(1,0,0,1,-708.517,-348.256)"><text x="736.439px" y="539.473px" style="font-family:'ComicSansMS', 'Comic Sans MS', cursive;font-size:62.5px;">You need to pad parts of</text><text x="736.439px" y="601.973px" style="font-family:'ComicSansMS', 'Comic Sans MS', cursive;font-size:62.5px;">the output to always be a</text><text x="736.439px" y="664.473px" style="font-family:'ComicSansMS', 'Comic Sans MS', cursive;font-size:62.5px;">a certain size.</text></g><text x="1130.15px" y="564.84px" style="font-family:'ComicSansMS', 'Comic Sans MS', cursive;font-size:41.667px;">Pad Bytes</text><text x="1130.15px" y="449.762px" style="font-family:'ComicSansMS', 'Comic Sans MS', cursive;font-size:41.667px;">Input Size</text><text x="530.5px" y="472.097px" style="font-family:'ComicSansMS', 'Comic Sans MS', cursive;font-size:41.667px;">Required Size</text><text x="818.28px" y="61.744px" style="font-family:'Consolas', monospace;font-size:62.5px;">output.bin</text><path d="M1094.81,351.109l288.705,-0" style="fill:none;stroke:#808080;stroke-width:6.25px;stroke-dasharray:6.25,18.75,6.25,18.75;"/><path d="M1094.81,514.337l288.705,0" style="fill:none;stroke:#808080;stroke-width:6.25px;stroke-dasharray:6.25,18.75,6.25,18.75;"/><path d="M1094.81,581.949l288.705,0" style="fill:none;stroke:#808080;stroke-width:6.25px;stroke-dasharray:6.25,18.75,6.25,18.75;"/><path d="M889.764,514.337l205.049,0" style="fill:none;stroke:#0d79f2;stroke-width:2.11px;"/><path d="M889.764,514.337l205.049,0" style="fill:none;stroke:#0d79f2;stroke-width:2.11px;"/><g><path d="M874.088,351.109c-32.133,-0.187 -7.505,115.749 -43.763,115.749" style="fill:none;stroke:#808080;stroke-width:6.65px;"/><path d="M874.088,582.607c-32.133,0.187 -7.505,-115.749 -43.763,-115.749" style="fill:none;stroke:#808080;stroke-width:6.65px;"/></g></svg>