<?xml version="1.0" encoding="UTF-8" standalone="no"?>
<svg
   width="100%"
   height="100%"
   viewBox="0 0 1442 860"
   version="1.1"
   xml:space="preserve"
   style="fill-rule:evenodd;clip-rule:evenodd;stroke-linecap:round;stroke-linejoin:round;stroke-miterlimit:1.5;"
   id="svg31"
   xmlns="http://www.w3.org/2000/svg"
   xmlns:svg="http://www.w3.org/2000/svg"><defs
     id="defs31" /><rect
     x="0"
     y="0"
     width="1441.86"
     height="859.471"
     style="fill:#fff;"
     id="rect1" /><rect
     x="889.764"
     y="129.577"
     width="205.049"
     height="695.629"
     style="fill:#b4b4b4;"
     id="rect2" /><g
     id="g4"><g
       id="g3"><rect
         x="889.764"
         y="129.577"
         width="205.049"
         height="184.922"
         style="fill:#d6e8fd;stroke:#0d79f2;stroke-width:6.25px;"
         id="rect3" /><path
         d="m 975.54077,239.946 13.74512,-35.79102 h 5.10254 l 14.64847,35.79102 h -5.3955 l -4.17485,-10.83984 h -14.96582 l -3.93066,10.83984 z m 10.32715,-14.69727 h 12.13379 l -3.73535,-9.91211 q -1.70899,-4.5166 -2.53907,-7.42187 -0.68359,3.44238 -1.92871,6.83594 z"
         id="text3"
         style="font-size:50px;font-family:ArialMT, Arial, sans-serif;fill:#0078b3"
         aria-label="A" /></g></g><g
     id="g5"><rect
       x="889.764"
       y="351.109"
       width="205.049"
       height="231.499"
       style="fill:#d6e8fd;stroke:#0d79f2;stroke-width:6.25px;"
       id="rect4" /><path
       d="m 979.27612,421.327 v -35.79102 h 13.42774 q 4.10156,0 6.56738,1.09863 2.49026,1.07422 3.88186,3.34473 1.416,2.24609 1.416,4.71191 0,2.29493 -1.2451,4.32129 -1.2451,2.02637 -3.75979,3.27149 3.24709,0.95215 4.98049,3.24707 1.7578,2.29492 1.7578,5.41992 0,2.51465 -1.0742,4.6875 -1.0498,2.14844 -2.6123,3.32031 -1.5625,1.17188 -3.9307,1.78223 -2.34375,0.58594 -5.76172,0.58594 z m 4.73633,-20.75196 h 7.73926 q 3.14941,0 4.5166,-0.41504 1.80664,-0.53711 2.70996,-1.78222 0.92774,-1.24512 0.92774,-3.125 0,-1.78223 -0.8545,-3.125 -0.85449,-1.36719 -2.4414,-1.85547 -1.58692,-0.5127 -5.44434,-0.5127 h -7.15332 z m 0,16.52832 h 8.91113 q 2.29493,0 3.22266,-0.1709 1.63574,-0.29296 2.73438,-0.97656 1.09863,-0.68359 1.80668,-1.97754 0.708,-1.31836 0.708,-3.02734 0,-2.00195 -1.0254,-3.4668 -1.02542,-1.48926 -2.85647,-2.07519 -1.80664,-0.61035 -5.22461,-0.61035 h -8.27637 z"
       id="text4"
       style="font-size:50px;font-family:ArialMT, Arial, sans-serif;fill:#0078b3"
       aria-label="B" /></g><g
     id="g17"><rect
       x="895.948"
       y="514.337"
       width="193.483"
       height="61.912"
       style="fill:#d6e8fd;"
       id="rect5" /><path
       d="M912.419,576.25l33.927,-61.913"
       style="fill:none;stroke:#0d79f2;stroke-width:1px;"
       id="path5" /><path
       d="M895.948,576.25l33.927,-61.913"
       style="fill:none;stroke:#0d79f2;stroke-width:1px;"
       id="path6" /><path
       d="M895.948,545.294l16.963,-30.957"
       style="fill:none;stroke:#0d79f2;stroke-width:1px;"
       id="path7" /><path
       d="M929.382,576.25l33.927,-61.913"
       style="fill:none;stroke:#0d79f2;stroke-width:1px;"
       id="path8" /><path
       d="M946.346,576.25l33.927,-61.913"
       style="fill:none;stroke:#0d79f2;stroke-width:1px;"
       id="path9" /><path
       d="M963.309,576.25l33.927,-61.913"
       style="fill:none;stroke:#0d79f2;stroke-width:1px;"
       id="path10" /><path
       d="M980.273,576.25l33.927,-61.913"
       style="fill:none;stroke:#0d79f2;stroke-width:1px;"
       id="path11" /><path
       d="M997.236,576.25l33.927,-61.913"
       style="fill:none;stroke:#0d79f2;stroke-width:1px;"
       id="path12" /><path
       d="M1014.2,576.25l33.927,-61.913"
       style="fill:none;stroke:#0d79f2;stroke-width:1px;"
       id="path13" /><path
       d="M1031.16,576.25l33.927,-61.913"
       style="fill:none;stroke:#0d79f2;stroke-width:1px;"
       id="path14" /><path
       d="M1048.13,576.25l33.927,-61.913"
       style="fill:none;stroke:#0d79f2;stroke-width:1px;"
       id="path15" /><path
       d="M1065.09,576.25l24.34,-44.418"
       style="fill:none;stroke:#0d79f2;stroke-width:1px;"
       id="path16" /><path
       d="M1082.05,576.25l7.376,-13.462"
       style="fill:none;stroke:#0d79f2;stroke-width:1px;"
       id="path17" /></g><g
     id="g19"><g
       id="g18"><rect
         x="889.764"
         y="640.284"
         width="205.049"
         height="184.922"
         style="fill:#d6e8fd;stroke:#0d79f2;stroke-width:6.25px;"
         id="rect17" /><path
         d="m 1003.6285,738.10315 4.7364,1.19629 q -1.4893,5.83496 -5.3711,8.91113 -3.85745,3.05176 -9.44827,3.05176 -5.78613,0 -9.42383,-2.34375 -3.61328,-2.36816 -5.51757,-6.83594 -1.87989,-4.46777 -1.87989,-9.59472 0,-5.59083 2.12403,-9.74122 2.14843,-4.1748 6.0791,-6.32324 3.95508,-2.17285 8.6914,-2.17285 5.3711,0 9.03323,2.73438 3.6621,2.73437 5.1025,7.69043 l -4.6631,1.09863 q -1.2451,-3.90625 -3.61325,-5.68848 -2.36816,-1.78223 -5.95703,-1.78223 -4.12598,0 -6.90918,1.97754 -2.75879,1.97754 -3.88184,5.32227 -1.12304,3.32031 -1.12304,6.86035 0,4.56543 1.31836,7.9834 1.34277,3.39355 4.15039,5.07812 2.80761,1.68457 6.0791,1.68457 3.97949,0 6.73828,-2.29492 2.75881,-2.29492 3.73531,-6.81152 z"
         id="text17"
         style="font-size:50px;font-family:ArialMT, Arial, sans-serif;fill:#0078b3"
         aria-label="C" /></g></g><g
     transform="matrix(1,0,0,1,-708.517,-348.256)"
     id="g21"><path
       d="m 772.20563,500.44104 q -0.73242,1.15967 -1.95313,3.57056 l -5.24902,12.96997 q -3.05176,7.2937 -5.73731,12.75635 l -3.81469,6.80541 -1.61743,3.2959 q -1.00708,1.77002 -2.71607,1.77002 -1.19018,0 -2.16675,-0.88501 -0.97656,-0.88501 -0.97656,-2.19726 0,-1.0376 2.86865,-6.50025 l 3.75366,-6.86645 q -5.46264,-7.04956 -7.08007,-11.1084 -1.37329,-3.44849 -4.57764,-8.27026 -4.39453,-6.5918 -5.15747,-7.96509 -0.45776,-0.82398 -0.45776,-1.64795 0,-1.31226 0.94604,-2.19727 0.97656,-0.91552 2.19727,-0.91552 1.49536,0 2.50244,1.43432 l 2.4414,3.78418 q 3.23487,4.79126 4.27246,6.53076 2.28882,3.75367 3.57056,6.95801 1.00708,2.53296 4.30298,6.92749 l 6.98853,-17.02881 q 1.19018,-2.10571 3.29589,-6.50024 0.8545,-2.0752 2.83814,-2.0752 1.2207,0 2.16675,0.8545 0.97656,0.85449 0.97656,2.19726 0,1.40381 -1.61743,4.30298 z m 19.6228,40.83252 q -5.12695,0 -8.81958,-3.78418 -4.11987,-4.21143 -4.3335,-11.32202 -0.1831,-6.89697 3.47901,-12.146 4.27246,-6.19507 11.90185,-6.19507 6.10352,0 9.24683,5.58472 2.50244,4.5166 2.41089,10.86426 -0.0915,6.7749 -3.54004,11.56616 -3.90625,5.43213 -10.34546,5.43213 z m 1.83105,-27.2522 q -4.48608,-0.0305 -6.98852,4.27246 -1.98364,3.44849 -1.98364,7.87354 0,4.42505 2.41089,6.89697 2.01416,2.04468 4.73022,2.04468 3.17383,0 5.46265,-2.31934 2.59399,-2.56347 2.74658,-6.92749 0.42724,-11.8103 -6.37818,-11.84082 z m 44.49463,7.6294 q 0,2.19726 0.0305,6.59179 0.0305,4.39453 0.0305,6.5918 0,0.67139 0.0915,2.04468 0.12207,1.37329 0.12207,2.04468 0,1.31225 -0.88501,2.13623 -0.88501,0.85449 -2.16675,0.85449 -2.34985,0 -2.99072,-2.89917 -3.8147,1.98364 -8.78906,1.98364 -3.9978,0 -6.62232,-1.77002 -2.89917,-1.95312 -3.44848,-5.70679 -1.19019,-8.08715 -1.19019,-14.40429 0,-4.18091 0.91553,-9.52149 0.42725,-2.65503 2.89917,-2.65503 1.31226,0 2.19727,0.8545 0.88501,0.82397 0.88501,2.13623 0,1.40381 -0.45777,4.48608 -0.42724,3.08228 -0.42724,4.69971 0,5.09643 0.33569,8.72803 0.33569,3.63159 1.00708,5.82885 1.00708,0.54932 1.98364,0.85449 0.97656,0.27466 1.92261,0.27466 4.08935,0 8.63647,-1.31225 l -0.0305,-6.19507 -0.061,-5.92041 q 0,-6.5918 0.57983,-11.44409 0.3357,-2.80762 2.96021,-2.80762 1.31226,0 2.19727,0.85449 0.88501,0.85449 0.82397,2.13623 z m 49.68262,19.98901 q -2.62451,0 -2.9602,-2.86865 l -0.8545,-6.68335 q -0.42724,-3.57056 -0.42724,-6.68335 0,-0.85449 0.0915,-2.89917 0.12207,-2.04468 0.12207,-2.89917 0,-6.5918 -2.44141,-6.5918 -3.41796,0 -6.53076,4.05884 -2.80761,3.69263 -4.39453,9.33838 -0.061,1.19018 -0.27466,2.99072 -0.1831,1.52588 -0.1831,2.96021 0,0.91552 0.1831,2.74658 0.18311,1.83105 0.18311,2.74658 0,1.37329 -0.85449,2.22778 -0.82398,0.8545 -2.13623,0.8545 -1.34278,0 -2.16675,-0.8545 -0.82398,-0.85449 -0.82398,-2.22778 0,-0.91553 -0.21362,-2.74658 -0.18311,-1.83106 -0.18311,-2.74658 0,-3.14331 0.42725,-8.69751 0.45776,-5.58472 0.45776,-8.72803 0,-0.97656 -0.12207,-2.89917 -0.0915,-1.92261 -0.0915,-2.89917 0,-1.31226 0.85449,-2.13623 0.88501,-0.85449 2.16675,-0.85449 2.80762,0 3.08228,3.96728 l 0.0915,3.57056 q 5.12695,-6.83594 10.52856,-6.83594 4.88282,0 6.80542,4.30298 1.31226,2.86865 1.43433,8.48389 v 3.08227 l -0.0305,2.83814 q 0,2.53296 0.64087,6.56128 0.67139,3.9978 0.67139,6.50024 0,1.34277 -0.88501,2.16675 -0.85449,0.85449 -2.16675,0.85449 z m 23.55957,-0.76294 q -6.89697,0 -11.16943,-3.44849 -4.66919,-3.81469 -4.66919,-10.68115 0,-7.93457 3.84521,-13.30566 4.18091,-5.85938 11.16944,-5.85938 5.06591,0 8.27026,1.70899 3.93677,2.10571 3.93677,6.46972 0,3.05176 -3.44849,5.5542 -1.52588,1.09864 -6.46972,3.41797 l -11.65772,5.52368 q 1.70898,2.53296 4.24194,3.8147 2.56348,1.28174 5.95093,1.28174 2.10571,0 4.94385,-0.79346 3.60107,-1.00708 4.63867,-2.62451 1.0376,-1.64795 2.22778,-1.64795 1.06812,0 1.89209,0.82398 0.8545,0.79345 0.8545,1.86157 0,3.38745 -5.46265,5.82886 -4.66919,2.07519 -9.09424,2.07519 z m -0.82397,-27.80151 q -3.72315,0 -6.19507,2.89917 -2.47193,2.86865 -3.69263,8.66699 l 9.3689,-4.45557 q 5.52368,-2.68554 7.87353,-4.66919 -2.62451,-2.4414 -7.35473,-2.4414 z m 35.06469,27.80151 q -6.89697,0 -11.16943,-3.44849 -4.66919,-3.81469 -4.66919,-10.68115 0,-7.93457 3.84522,-13.30566 4.1809,-5.85938 11.16943,-5.85938 5.06592,0 8.27026,1.70899 3.93677,2.10571 3.93677,6.46972 0,3.05176 -3.44849,5.5542 -1.52587,1.09864 -6.46972,3.41797 l -11.65772,5.52368 q 1.70899,2.53296 4.24195,3.8147 2.56347,1.28174 5.95092,1.28174 2.10572,0 4.94385,-0.79346 3.60108,-1.00708 4.63867,-2.62451 1.0376,-1.64795 2.22779,-1.64795 1.06811,0 1.89209,0.82398 0.85449,0.79345 0.85449,1.86157 0,3.38745 -5.46265,5.82886 -4.66919,2.07519 -9.09424,2.07519 z m -0.82397,-27.80151 q -3.72315,0 -6.19507,2.89917 -2.47192,2.86865 -3.69263,8.66699 l 9.3689,-4.45557 q 5.52368,-2.68554 7.87354,-4.66919 -2.62452,-2.4414 -7.35474,-2.4414 z m 48.91968,-0.54932 q -0.36621,4.48608 -0.36621,8.97217 0,10.16235 0.94604,15.35034 0.061,0.42725 0.061,0.70191 0,1.2207 -0.8545,2.01416 -0.85449,0.79345 -1.98364,0.79345 -1.89209,0 -2.7771,-2.74658 -2.19726,1.61743 -4.57763,2.44141 -2.34986,0.82397 -4.91333,0.82397 -6.31714,0 -10.46753,-4.21142 -4.27247,-4.30298 -4.27247,-11.04737 0,-8.14819 4.30298,-13.06152 4.3335,-4.91333 11.23047,-4.91333 3.54004,0 5.46265,1.09863 l 2.86865,2.10571 q 0.42725,-12.8479 1.00708,-17.30346 0.39673,-2.71607 2.7771,-2.71607 2.7771,0 2.7771,2.96021 0,4.24194 -1.2207,18.73779 z m -13.54981,0.79346 q -5.12695,0 -7.69043,3.05176 -2.56347,3.02124 -2.56347,9.12475 0,3.93677 2.7771,6.7749 2.80761,2.83814 6.56128,2.83814 2.56347,0 4.33349,-0.94605 1.0376,-0.54931 3.38745,-2.53296 0.45777,-0.39672 0.88501,-0.94604 l -0.0915,-5.27954 0.0305,-3.54004 0.061,-3.60107 q -1.15967,-2.47193 -3.08227,-3.69263 -1.92261,-1.25122 -4.60816,-1.25122 z m 61.24878,0.15259 q -0.6409,0 -1.5259,-0.061 -0.8545,-0.061 -1.4953,-0.061 -0.7019,0 -4.1504,0.45776 l 0.5798,18.03589 0.031,1.34277 0.031,1.5564 q 0.1221,6.68335 -3.2043,6.68335 -1.2207,0 -2.1362,-0.79346 -0.885,-0.79346 -0.885,-1.98364 0,-1.15967 0.091,-3.47901 0.092,-2.31933 0.092,-3.479 l -0.6104,-17.82227 q -2.2278,-0.0915 -6.7749,-0.51879 -2.7161,-0.36622 -2.7161,-3.02124 0,-1.34278 0.824,-2.22779 0.824,-0.88501 2.1057,-0.88501 l 6.4087,0.5188 q 0,-1.5564 -0.1526,-4.15039 -0.122,-2.62451 -0.122,-3.78418 0,-1.28174 0.885,-2.10571 0.885,-0.85449 2.1667,-0.85449 2.7466,0 3.2044,4.48608 0.091,1.12915 0.091,2.71606 l -0.061,1.77002 -0.031,1.89209 q 3.7841,-0.48828 4.3335,-0.48828 3.1738,0 4.1504,0.30518 1.8615,0.61035 1.8615,2.86865 0,1.34277 -0.8545,2.22778 -0.8239,0.8545 -2.1362,0.8545 z m 20.4773,27.80151 q -5.127,0 -8.8196,-3.78418 -4.1199,-4.21143 -4.3335,-11.32202 -0.1831,-6.89697 3.479,-12.146 4.2725,-6.19507 11.9019,-6.19507 6.1035,0 9.2468,5.58472 2.5024,4.5166 2.4109,10.86426 -0.092,6.7749 -3.54,11.56616 -3.9063,5.43213 -10.3455,5.43213 z m 1.8311,-27.2522 q -4.4861,-0.0305 -6.9886,4.27246 -1.9836,3.44849 -1.9836,7.87354 0,4.42505 2.4109,6.89697 2.0141,2.04468 4.7302,2.04468 3.1738,0 5.4626,-2.31934 2.594,-2.56347 2.7466,-6.92749 0.4273,-11.8103 -6.3781,-11.84082 z m 51.239,26.51978 q -3.0518,0 -6.7139,-0.97656 l -0.061,14.5874 q 0,1.34277 -0.8545,2.19726 -0.824,0.8545 -2.1363,0.8545 -1.3122,0 -2.1667,-0.8545 -0.824,-0.85449 -0.824,-2.19726 l 0.092,-12.20703 v -12.17652 q -0.092,-6.68335 -0.4578,-12.17651 l -0.4578,-6.19507 q 0,-2.16675 0.7935,-3.66211 0.9155,-1.80054 2.655,-1.80054 1.1902,0 1.9837,0.8545 0.8239,0.82397 0.8239,2.04467 0,0.27466 -0.091,1.00708 -0.1526,0.94605 -0.2136,1.73951 2.6245,-1.80054 5.0659,-2.68555 2.4414,-0.91553 4.6692,-0.91553 6.2561,0 9.1553,5.5542 2.2888,4.39453 2.2888,11.6272 0,6.5918 -3.5401,10.86426 -3.7536,4.5166 -10.0097,4.5166 z m 2.1057,-26.45874 q -2.8076,0 -5.0659,1.25122 -1.6175,0.88501 -4.0894,3.23486 0.3967,6.92749 0.3967,14.55689 3.3264,1.28173 6.6529,1.28173 3.8147,0 5.8288,-2.83813 1.7395,-2.47192 1.7395,-6.40869 0,-5.5542 -1.3733,-8.30078 -1.3427,-2.7771 -4.0893,-2.7771 z m 42.1753,27.40478 q -0.5799,0 -2.1057,-1.34277 -1.3733,-1.25122 -2.0447,-2.22778 -2.9297,1.58691 -5.1575,2.38037 -2.2278,0.82397 -3.7231,0.82397 -7.1411,0 -10.4065,-4.02832 -3.0823,-3.78418 -3.0823,-11.59668 0,-7.38525 5.0659,-12.63428 5.0964,-5.24902 12.146,-5.24902 2.655,0 5.9509,1.37329 4.1504,1.70899 4.1504,4.11987 0,0.82398 -0.6103,1.46485 -0.3052,1.15967 -0.4883,3.8147 -0.1526,2.65503 -0.1831,6.80542 -0.031,3.78418 0.5188,5.98144 0.3052,1.34277 1.9226,5.37109 0.2136,0.54932 0.7019,1.61744 l 0.1831,0.5188 q 0,1.2207 -0.8545,2.01416 -0.8545,0.79345 -1.9836,0.79345 z m -6.3477,-21.20971 q 0,-1.31226 0.1526,-2.83814 0.1831,-1.5564 0.5188,-3.2959 -1.1291,-0.57983 -1.9531,-0.85449 -0.7935,-0.27466 -1.2818,-0.27466 -4.7302,0 -8.1787,3.87573 -3.4179,3.84522 -3.4179,8.88062 0,5.00488 1.77,7.50732 1.77,2.50245 5.31,2.50245 2.9297,0 4.9744,-1.06812 1.0986,-0.57983 3.0823,-2.31934 -0.9766,-8.08715 -0.9766,-12.11547 z m 42.6026,-7.75147 q -0.3663,4.48608 -0.3663,8.97217 0,10.16235 0.9461,15.35034 0.061,0.42725 0.061,0.70191 0,1.2207 -0.8545,2.01416 -0.8545,0.79345 -1.9836,0.79345 -1.8921,0 -2.7771,-2.74658 -2.1973,1.61743 -4.5776,2.44141 -2.3499,0.82397 -4.9134,0.82397 -6.3171,0 -10.4675,-4.21142 -4.2725,-4.30298 -4.2725,-11.04737 0,-8.14819 4.303,-13.06152 4.3335,-4.91333 11.2305,-4.91333 3.54,0 5.4626,1.09863 l 2.8687,2.10571 q 0.4272,-12.8479 1.0071,-17.30346 0.3967,-2.71607 2.7771,-2.71607 2.7771,0 2.7771,2.96021 0,4.24194 -1.2207,18.73779 z m -13.5499,0.79346 q -5.1269,0 -7.6904,3.05176 -2.5635,3.02124 -2.5635,9.12475 0,3.93677 2.7771,6.7749 2.8077,2.83814 6.5613,2.83814 2.5635,0 4.3335,-0.94605 1.0376,-0.54931 3.3875,-2.53296 0.4577,-0.39672 0.885,-0.94604 l -0.092,-5.27954 0.03,-3.54004 0.061,-3.60107 q -1.1597,-2.47193 -3.0823,-3.69263 -1.9226,-1.25122 -4.6082,-1.25122 z m 53.8025,27.22168 q -3.0517,0 -6.7138,-0.97656 l -0.061,14.5874 q 0,1.34277 -0.8545,2.19726 -0.8239,0.8545 -2.1362,0.8545 -1.3122,0 -2.1667,-0.8545 -0.824,-0.85449 -0.824,-2.19726 l 0.091,-12.20703 v -12.17652 q -0.091,-6.68335 -0.4577,-12.17651 l -0.4578,-6.19507 q 0,-2.16675 0.7935,-3.66211 0.9155,-1.80054 2.655,-1.80054 1.1902,0 1.9836,0.8545 0.824,0.82397 0.824,2.04467 0,0.27466 -0.092,1.00708 -0.1526,0.94605 -0.2137,1.73951 2.6246,-1.80054 5.066,-2.68555 2.4414,-0.91553 4.6692,-0.91553 6.2561,0 9.1552,5.5542 2.2888,4.39453 2.2888,11.6272 0,6.5918 -3.54,10.86426 -3.7537,4.5166 -10.0098,4.5166 z m 2.1058,-26.45874 q -2.8077,0 -5.066,1.25122 -1.6174,0.88501 -4.0893,3.23486 0.3967,6.92749 0.3967,14.55689 3.3264,1.28173 6.6528,1.28173 3.8147,0 5.8289,-2.83813 1.7395,-2.47192 1.7395,-6.40869 0,-5.5542 -1.3733,-8.30078 -1.3428,-2.7771 -4.0893,-2.7771 z m 42.1752,27.40478 q -0.5798,0 -2.1057,-1.34277 -1.3733,-1.25122 -2.0446,-2.22778 -2.9297,1.58691 -5.1575,2.38037 -2.2278,0.82397 -3.7232,0.82397 -7.1411,0 -10.4065,-4.02832 -3.0822,-3.78418 -3.0822,-11.59668 0,-7.38525 5.0659,-12.63428 5.0964,-5.24902 12.146,-5.24902 2.655,0 5.9509,1.37329 4.1504,1.70899 4.1504,4.11987 0,0.82398 -0.6103,1.46485 -0.3052,1.15967 -0.4883,3.8147 -0.1526,2.65503 -0.1831,6.80542 -0.031,3.78418 0.5188,5.98144 0.3051,1.34277 1.9226,5.37109 0.2136,0.54932 0.7019,1.61744 l 0.1831,0.5188 q 0,1.2207 -0.8545,2.01416 -0.8545,0.79345 -1.9837,0.79345 z m -6.3476,-21.20971 q 0,-1.31226 0.1526,-2.83814 0.1831,-1.5564 0.5188,-3.2959 -1.1292,-0.57983 -1.9531,-0.85449 -0.7935,-0.27466 -1.2818,-0.27466 -4.7302,0 -8.1787,3.87573 -3.418,3.84522 -3.418,8.88062 0,5.00488 1.7701,7.50732 1.77,2.50245 5.31,2.50245 2.9297,0 4.9744,-1.06812 1.0986,-0.57983 3.0823,-2.31934 -0.9766,-8.08715 -0.9766,-12.11547 z m 38.2385,-3.35694 q -0.2136,3.8147 -3.0517,3.8147 -2.6246,0 -2.6246,-3.02124 0,-0.57983 -0.091,-2.13623 l -0.092,-2.56348 q -4.8217,0.57984 -7.7209,2.71607 -2.7161,1.98364 -4.5166,5.98144 l 0.061,16.72363 q 0,3.08228 -3.0212,3.08228 -2.6856,0 -2.6856,-3.08228 v -21.42334 q 0,-1.00708 0.061,-3.02124 0.091,-2.01416 0.091,-3.02124 0,-3.08227 2.6856,-3.08227 2.9907,0 3.0212,5.06592 5.8594,-5.64575 13.0005,-5.64575 2.4719,0 3.6926,1.86157 1.2207,1.86157 1.2207,5.61523 0,1.58692 -0.031,2.13623 z m 26.7029,-3.44848 q -0.6409,0 -1.5259,-0.061 -0.8545,-0.061 -1.4953,-0.061 -0.7019,0 -4.1504,0.45776 l 0.5798,18.03589 0.031,1.34277 0.03,1.5564 q 0.1221,6.68335 -3.2043,6.68335 -1.2207,0 -2.1362,-0.79346 -0.8851,-0.79346 -0.8851,-1.98364 0,-1.15967 0.092,-3.47901 0.092,-2.31933 0.092,-3.479 l -0.6104,-17.82227 q -2.2278,-0.0915 -6.7749,-0.51879 -2.7161,-0.36622 -2.7161,-3.02124 0,-1.34278 0.824,-2.22779 0.824,-0.88501 2.1057,-0.88501 l 6.4087,0.5188 q 0,-1.5564 -0.1526,-4.15039 -0.122,-2.62451 -0.122,-3.78418 0,-1.28174 0.885,-2.10571 0.885,-0.85449 2.1667,-0.85449 2.7466,0 3.2044,4.48608 0.091,1.12915 0.091,2.71606 l -0.061,1.77002 -0.03,1.89209 q 3.7841,-0.48828 4.3335,-0.48828 3.1738,0 4.1503,0.30518 1.8616,0.61035 1.8616,2.86865 0,1.34277 -0.8545,2.22778 -0.8239,0.8545 -2.1362,0.8545 z m 29.6326,2.50244 q -1.6785,0 -2.3499,-1.12915 -0.4578,-0.79346 -0.7934,-3.2959 -2.2889,0.57983 -7.0496,2.13623 -4.9133,1.95312 -4.9439,4.82178 0.9156,0.33569 1.8006,0.48828 7.019,1.25122 10.437,3.44848 4.9744,3.20435 4.9744,9.27735 0,4.97436 -4.303,7.50732 -3.5706,2.0752 -9.0332,2.0752 -3.9978,0 -7.6294,-1.34278 -4.6997,-1.70898 -4.6997,-4.76074 0,-1.2207 0.946,-2.13623 0.9766,-0.91553 2.1973,-0.91553 0.946,0 2.4414,1.46485 0.7324,0.7019 3.2959,1.15967 2.0447,0.36621 3.4485,0.36621 2.5635,0 4.5166,-0.61036 2.8381,-0.885 2.8381,-2.80761 0,-4.15039 -5.7983,-5.61524 l -3.1739,-0.7019 q -4.0588,-0.88501 -5.7678,-2.0752 -2.4719,-1.70898 -2.4719,-5.15747 0,-6.37817 6.012,-9.09424 1.831,-0.82397 5.8593,-1.95312 4.0284,-1.15967 5.7679,-1.95313 1.2512,-0.54931 2.716,-0.54931 1.3123,0 2.1363,0.85449 0.8544,0.85449 0.8544,2.22778 0,0.88501 0.3663,2.594 0.3967,1.70898 0.3967,2.59399 0,1.37329 -0.8545,2.22779 -0.824,0.85449 -2.1362,0.85449 z m 39.9475,25.29907 q -5.127,0 -8.8196,-3.78418 -4.1199,-4.21143 -4.3335,-11.32202 -0.1831,-6.89697 3.479,-12.146 4.2725,-6.19507 11.9019,-6.19507 6.1035,0 9.2468,5.58472 2.5024,4.5166 2.4109,10.86426 -0.092,6.7749 -3.5401,11.56616 -3.9062,5.43213 -10.3454,5.43213 z m 1.831,-27.2522 q -4.4861,-0.0305 -6.9885,4.27246 -1.9836,3.44849 -1.9836,7.87354 0,4.42505 2.4108,6.89697 2.0142,2.04468 4.7303,2.04468 3.1738,0 5.4626,-2.31934 2.594,-2.56347 2.7466,-6.92749 0.4272,-11.8103 -6.3782,-11.84082 z m 40.1001,-17.45605 q -7.3852,0 -8.2702,10.2539 l -0.092,1.89209 q 5.188,-0.36621 6.7139,-0.36621 4.8523,0 4.8523,3.05176 0,2.22778 -2.3804,2.65503 -1.0376,0.18311 -2.4414,0.15259 -1.3733,-0.061 -7.019,0.39673 l -0.2442,6.958 q 0,1.89209 0.1221,5.67627 0.1221,3.78418 0.1221,5.64576 0,5.79834 -0.6714,9.0332 -0.5188,2.4414 -2.8382,2.4414 -1.2512,0 -2.1362,-0.82397 -0.885,-0.79346 -0.885,-2.01416 0,-0.24414 0.061,-0.61035 0.6409,-3.96729 0.6409,-8.63648 l -0.092,-8.33129 v -8.8501 q -3.8147,0.30517 -4.8217,0.30517 -3.0823,0 -3.0823,-2.9602 0,-3.02124 5.3406,-3.17383 l 2.9297,-0.0916 q 0.091,-1.70899 0.4577,-4.63867 0.7935,-6.77491 3.418,-9.97925 3.1738,-3.87573 9.9182,-3.87573 4.364,0 4.364,2.9602 0,2.92969 -3.9673,2.92969 z"
       id="text19"
       style="font-size:62.5px;font-family:ComicSansMS, 'Comic Sans MS', cursive"
       aria-label="You need to pad parts of" /><path
       d="m 761.09723,575.97205 q -0.64087,0 -1.52588,-0.061 -0.85449,-0.061 -1.49536,-0.061 -0.70191,0 -4.15039,0.45776 l 0.57983,18.03589 0.0305,1.34277 0.0305,1.5564 q 0.12207,6.68335 -3.20435,6.68335 -1.2207,0 -2.13623,-0.79346 -0.88501,-0.79346 -0.88501,-1.98364 0,-1.15967 0.0915,-3.47901 0.0916,-2.31933 0.0916,-3.479 l -0.61035,-17.82227 q -2.22779,-0.0915 -6.77491,-0.51879 -2.71606,-0.36622 -2.71606,-3.02124 0,-1.34278 0.82397,-2.22779 0.82398,-0.88501 2.10572,-0.88501 l 6.40869,0.5188 q 0,-1.5564 -0.15259,-4.15039 -0.12207,-2.62451 -0.12207,-3.78418 0,-1.28174 0.88501,-2.10571 0.88501,-0.85449 2.16675,-0.85449 2.74658,0 3.20434,4.48608 0.0916,1.12915 0.0916,2.71606 l -0.061,1.77002 -0.0305,1.89209 q 3.78418,-0.48828 4.3335,-0.48828 3.17383,0 4.15039,0.30518 1.86157,0.61035 1.86157,2.86865 0,1.34277 -0.85449,2.22778 -0.82398,0.8545 -2.13623,0.8545 z m 34.57642,27.89306 q -2.16675,0 -2.83814,-2.31933 -0.7019,-2.50245 -1.28174,-7.1106 -0.54931,-4.42505 -0.54931,-7.26318 0,-0.79346 0.061,-2.41089 0.0916,-1.61743 0.0916,-2.41089 0,-5.7373 -2.86865,-5.7373 -3.87573,0 -6.92749,3.50952 -1.5564,1.80053 -4.27246,6.86645 0,11.6272 -0.97656,13.76343 -0.85449,1.89209 -2.65503,1.89209 -1.25122,0 -2.19727,-0.85449 -0.94604,-0.8545 -0.94604,-2.0752 0,-0.42724 0.27466,-1.34277 0.24414,-0.76294 0.33569,-4.45557 l 0.0915,-4.5166 0.0915,-22.43042 q 0.21363,-3.78418 0.21363,-5.09644 0,-1.55639 -0.30518,-2.92968 -0.27466,-1.40381 -0.27466,-2.89917 0,-1.28174 0.88501,-2.10572 0.88501,-0.85449 2.16675,-0.85449 2.50244,0 2.92969,2.68555 0.48828,2.9602 0.48828,5.34058 0,3.20434 -0.21362,6.68334 -0.18311,3.32642 -0.15259,6.68335 l 0.0305,2.68555 q 2.50244,-3.35693 5.34057,-5.00488 2.86866,-1.67847 6.073,-1.67847 5.06592,0 6.95801,3.2959 1.34277,2.31934 1.52588,7.8125 l 0.24414,5.82886 0.61035,6.34765 q 0.42725,3.57056 1.0376,6.28663 0.12207,0.51879 0.12207,0.885 0,1.25123 -0.91553,2.0752 -0.91553,0.85449 -2.19726,0.85449 z m 24.81079,-0.48828 q -6.89698,0 -11.16944,-3.44849 -4.66919,-3.81469 -4.66919,-10.68115 0,-7.93457 3.84522,-13.30566 4.18091,-5.85938 11.16943,-5.85938 5.06592,0 8.27027,1.70899 3.93676,2.10571 3.93676,6.46972 0,3.05176 -3.44848,5.5542 -1.52588,1.09864 -6.46973,3.41797 l -11.65772,5.52368 q 1.70899,2.53296 4.24195,3.8147 2.56347,1.28174 5.95093,1.28174 2.10571,0 4.94384,-0.79346 3.60108,-1.00708 4.63868,-2.62451 1.03759,-1.64795 2.22778,-1.64795 1.06811,0 1.89209,0.82398 0.85449,0.79345 0.85449,1.86157 0,3.38745 -5.46265,5.82886 -4.66919,2.07519 -9.09423,2.07519 z m -0.82398,-27.80151 q -3.72314,0 -6.19507,2.89917 -2.47192,2.86865 -3.69262,8.66699 l 9.36889,-4.45557 q 5.52368,-2.68554 7.87354,-4.66919 -2.62451,-2.4414 -7.35474,-2.4414 z m 50.93384,28.19824 q -5.12695,0 -8.81958,-3.78418 -4.11987,-4.21143 -4.3335,-11.32202 -0.1831,-6.89697 3.47901,-12.146 4.27246,-6.19507 11.90185,-6.19507 6.10352,0 9.24683,5.58472 2.50244,4.5166 2.41089,10.86426 -0.0916,6.7749 -3.54004,11.56616 -3.90625,5.43213 -10.34546,5.43213 z m 1.83105,-27.2522 q -4.48608,-0.0305 -6.98852,4.27246 -1.98364,3.44849 -1.98364,7.87354 0,4.42505 2.41088,6.89697 2.01416,2.04468 4.73023,2.04468 3.17383,0 5.46265,-2.31934 2.59399,-2.56347 2.74658,-6.92749 0.42724,-11.8103 -6.37818,-11.84082 z m 44.49463,7.6294 q 0,2.19726 0.0305,6.59179 0.0305,4.39453 0.0305,6.5918 0,0.67139 0.0916,2.04468 0.12207,1.37329 0.12207,2.04468 0,1.31225 -0.88501,2.13623 -0.88501,0.85449 -2.16675,0.85449 -2.34985,0 -2.99072,-2.89917 -3.8147,1.98364 -8.78906,1.98364 -3.9978,0 -6.62232,-1.77002 -2.89917,-1.95312 -3.44848,-5.70679 -1.19019,-8.08715 -1.19019,-14.40429 0,-4.18091 0.91553,-9.52149 0.42725,-2.65503 2.89917,-2.65503 1.31225,0 2.19726,0.8545 0.88501,0.82397 0.88501,2.13623 0,1.40381 -0.45776,4.48608 -0.42725,3.08228 -0.42725,4.69971 0,5.09643 0.3357,8.72803 0.33569,3.63159 1.00708,5.82885 1.00708,0.54932 1.98364,0.85449 0.97656,0.27466 1.92261,0.27466 4.08935,0 8.63647,-1.31225 l -0.0305,-6.19507 -0.061,-5.92041 q 0,-6.5918 0.57983,-11.44409 0.3357,-2.80762 2.96021,-2.80762 1.31225,0 2.19726,0.85449 0.88501,0.85449 0.82398,2.13623 z m 28.01514,-8.17871 q -0.64087,0 -1.52588,-0.061 -0.85449,-0.061 -1.49536,-0.061 -0.7019,0 -4.15039,0.45776 l 0.57983,18.03589 0.0305,1.34277 0.0305,1.5564 q 0.12207,6.68335 -3.20435,6.68335 -1.2207,0 -2.13623,-0.79346 -0.88501,-0.79346 -0.88501,-1.98364 0,-1.15967 0.0915,-3.47901 0.0916,-2.31933 0.0916,-3.479 l -0.61035,-17.82227 q -2.22779,-0.0915 -6.77491,-0.51879 -2.71606,-0.36622 -2.71606,-3.02124 0,-1.34278 0.82397,-2.22779 0.82398,-0.88501 2.10572,-0.88501 l 6.40869,0.5188 q 0,-1.5564 -0.15259,-4.15039 -0.12207,-2.62451 -0.12207,-3.78418 0,-1.28174 0.88501,-2.10571 0.88501,-0.85449 2.16675,-0.85449 2.74658,0 3.20434,4.48608 0.0916,1.12915 0.0916,2.71606 l -0.061,1.77002 -0.0305,1.89209 q 3.78418,-0.48828 4.3335,-0.48828 3.17383,0 4.15039,0.30518 1.86157,0.61035 1.86157,2.86865 0,1.34277 -0.85449,2.22778 -0.82397,0.8545 -2.13623,0.8545 z m 22.00317,27.06909 q -3.05175,0 -6.71386,-0.97656 l -0.061,14.5874 q 0,1.34277 -0.85449,2.19726 -0.82398,0.8545 -2.13623,0.8545 -1.31226,0 -2.16675,-0.8545 -0.82397,-0.85449 -0.82397,-2.19726 l 0.0915,-12.20703 v -12.17652 q -0.0915,-6.68335 -0.45777,-12.17651 l -0.45776,-6.19507 q 0,-2.16675 0.79346,-3.66211 0.91553,-1.80054 2.65503,-1.80054 1.19018,0 1.98364,0.8545 0.82397,0.82397 0.82397,2.04467 0,0.27466 -0.0915,1.00708 -0.15259,0.94605 -0.21362,1.73951 2.62451,-1.80054 5.06592,-2.68555 2.4414,-0.91553 4.66919,-0.91553 6.2561,0 9.15527,5.5542 2.28882,4.39453 2.28882,11.6272 0,6.5918 -3.54004,10.86426 -3.75366,4.5166 -10.00977,4.5166 z m 2.10572,-26.45874 q -2.80762,0 -5.06592,1.25122 -1.61743,0.88501 -4.08936,3.23486 0.39673,6.92749 0.39673,14.55689 3.32642,1.28173 6.65283,1.28173 3.8147,0 5.82886,-2.83813 1.7395,-2.47192 1.7395,-6.40869 0,-5.5542 -1.37329,-8.30078 -1.34277,-2.7771 -4.08935,-2.7771 z m 43.24339,7.56836 q 0,2.19726 0.03,6.59179 0.03,4.39453 0.03,6.5918 0,0.67139 0.092,2.04468 0.1221,1.37329 0.1221,2.04468 0,1.31225 -0.885,2.13623 -0.885,0.85449 -2.1668,0.85449 -2.3498,0 -2.9907,-2.89917 -3.8147,1.98364 -8.78907,1.98364 -3.9978,0 -6.62231,-1.77002 -2.89917,-1.95312 -3.44849,-5.70679 -1.19019,-8.08715 -1.19019,-14.40429 0,-4.18091 0.91553,-9.52149 0.42725,-2.65503 2.89917,-2.65503 1.31226,0 2.19727,0.8545 0.88501,0.82397 0.88501,2.13623 0,1.40381 -0.45777,4.48608 -0.42724,3.08228 -0.42724,4.69971 0,5.09643 0.33569,8.72803 0.33569,3.63159 1.00708,5.82885 1.00708,0.54932 1.98364,0.85449 0.97656,0.27466 1.92261,0.27466 4.08937,0 8.63647,-1.31225 l -0.03,-6.19507 -0.061,-5.92041 q 0,-6.5918 0.5798,-11.44409 0.3357,-2.80762 2.9602,-2.80762 1.3122,0 2.1973,0.85449 0.885,0.85449 0.8239,2.13623 z m 28.0152,-8.17871 q -0.6409,0 -1.5259,-0.061 -0.8545,-0.061 -1.4954,-0.061 -0.7019,0 -4.1504,0.45776 l 0.5799,18.03589 0.03,1.34277 0.031,1.5564 q 0.1221,6.68335 -3.2044,6.68335 -1.2207,0 -2.1362,-0.79346 -0.885,-0.79346 -0.885,-1.98364 0,-1.15967 0.092,-3.47901 0.091,-2.31933 0.091,-3.479 l -0.6103,-17.82227 q -2.2278,-0.0915 -6.7749,-0.51879 -2.7161,-0.36622 -2.7161,-3.02124 0,-1.34278 0.824,-2.22779 0.8239,-0.88501 2.1057,-0.88501 l 6.4087,0.5188 q 0,-1.5564 -0.1526,-4.15039 -0.1221,-2.62451 -0.1221,-3.78418 0,-1.28174 0.885,-2.10571 0.885,-0.85449 2.1668,-0.85449 2.7466,0 3.2043,4.48608 0.092,1.12915 0.092,2.71606 l -0.061,1.77002 -0.031,1.89209 q 3.7842,-0.48828 4.3335,-0.48828 3.1738,0 4.1504,0.30518 1.8616,0.61035 1.8616,2.86865 0,1.34277 -0.8545,2.22778 -0.824,0.8545 -2.1362,0.8545 z m 48.1262,0 q -0.6409,0 -1.5259,-0.061 -0.8545,-0.061 -1.4954,-0.061 -0.7019,0 -4.1504,0.45776 l 0.5799,18.03589 0.031,1.34277 0.03,1.5564 q 0.1221,6.68335 -3.2043,6.68335 -1.2207,0 -2.1363,-0.79346 -0.885,-0.79346 -0.885,-1.98364 0,-1.15967 0.092,-3.47901 0.091,-2.31933 0.091,-3.479 l -0.6103,-17.82227 q -2.2278,-0.0915 -6.7749,-0.51879 -2.7161,-0.36622 -2.7161,-3.02124 0,-1.34278 0.824,-2.22779 0.824,-0.88501 2.1057,-0.88501 l 6.4087,0.5188 q 0,-1.5564 -0.1526,-4.15039 -0.1221,-2.62451 -0.1221,-3.78418 0,-1.28174 0.885,-2.10571 0.8851,-0.85449 2.1668,-0.85449 2.7466,0 3.2043,4.48608 0.092,1.12915 0.092,2.71606 l -0.061,1.77002 -0.031,1.89209 q 3.7842,-0.48828 4.3335,-0.48828 3.1739,0 4.1504,0.30518 1.8616,0.61035 1.8616,2.86865 0,1.34277 -0.8545,2.22778 -0.824,0.8545 -2.1362,0.8545 z m 20.4773,27.80151 q -5.127,0 -8.8196,-3.78418 -4.1199,-4.21143 -4.3335,-11.32202 -0.1831,-6.89697 3.479,-12.146 4.2725,-6.19507 11.9019,-6.19507 6.1035,0 9.2468,5.58472 2.5024,4.5166 2.4109,10.86426 -0.092,6.7749 -3.5401,11.56616 -3.9062,5.43213 -10.3454,5.43213 z m 1.831,-27.2522 q -4.4861,-0.0305 -6.9885,4.27246 -1.9836,3.44849 -1.9836,7.87354 0,4.42505 2.4108,6.89697 2.0142,2.04468 4.7303,2.04468 3.1738,0 5.4626,-2.31934 2.594,-2.56347 2.7466,-6.92749 0.4272,-11.8103 -6.3782,-11.84082 z m 62.1033,27.46582 q -0.5798,0 -2.1057,-1.34277 -1.3733,-1.25122 -2.0447,-2.22778 -2.9297,1.58691 -5.1575,2.38037 -2.2278,0.82397 -3.7231,0.82397 -7.1411,0 -10.4065,-4.02832 -3.0823,-3.78418 -3.0823,-11.59668 0,-7.38525 5.0659,-12.63428 5.0965,-5.24902 12.146,-5.24902 2.6551,0 5.951,1.37329 4.1504,1.70899 4.1504,4.11987 0,0.82398 -0.6104,1.46485 -0.3052,1.15967 -0.4883,3.8147 -0.1526,2.65503 -0.1831,6.80542 -0.031,3.78418 0.5188,5.98144 0.3052,1.34277 1.9226,5.37109 0.2136,0.54932 0.7019,1.61744 l 0.1831,0.5188 q 0,1.2207 -0.8545,2.01416 -0.8545,0.79345 -1.9836,0.79345 z m -6.3477,-21.20971 q 0,-1.31226 0.1526,-2.83814 0.1831,-1.5564 0.5188,-3.2959 -1.1291,-0.57983 -1.9531,-0.85449 -0.7935,-0.27466 -1.2817,-0.27466 -4.7303,0 -8.1788,3.87573 -3.4179,3.84522 -3.4179,8.88062 0,5.00488 1.77,7.50732 1.77,2.50245 5.3101,2.50245 2.9296,0 4.9743,-1.06812 1.0987,-0.57983 3.0823,-2.31934 -0.9766,-8.08715 -0.9766,-12.11547 z m 22.2474,-4.79126 -0.4578,15.16723 q 0,2.41089 -0.2442,7.08008 -0.3051,3.05176 -2.9907,3.05176 -2.9907,0 -2.9907,-3.11279 0,-3.69263 0.3357,-11.07789 0.3357,-7.41577 0.3357,-11.10839 0,-4.82178 0.1526,-11.01685 0.1526,-6.22559 0.1526,-11.04736 0,-3.05176 2.9907,-3.05176 3.0212,0 3.0212,3.05176 0,4.82177 -0.1526,11.04736 -0.1525,6.19507 -0.1525,11.01685 z m 45.8984,-3.32642 q -2.3804,9.94873 -6.2256,22.49146 -0.8545,2.77709 -2.8381,5.70678 -1.0681,1.61743 -2.8992,1.58692 -3.3264,-0.061 -5.188,-8.27027 -0.6103,-2.62451 -1.2512,-7.14111 l -1.0071,-6.80542 -2.5024,5.82886 -4.6387,12.60376 q -0.3967,1.15966 -1.1597,1.77002 -0.9155,1.77002 -2.9297,1.83105 -2.3193,0.0915 -4.486,-9.09424 -1.0987,-4.73022 -2.1973,-12.81738 l -0.7324,-4.57764 q -0.3968,-2.74658 -0.3968,-4.60815 0,-1.28174 0.8851,-2.10571 0.9155,-0.8545 2.1972,-0.8545 2.3194,0 2.8687,2.53296 0.3967,1.80054 0.6408,4.45557 l 0.4578,4.48608 1.8005,13.7024 q 3.3875,-9.39942 7.0191,-21.66748 1.0071,-3.38746 3.5095,-3.38746 2.4109,0 3.2654,3.78418 0.7934,3.57056 1.9836,10.98633 1.2207,7.69043 2.1668,11.99341 l 2.2278,-8.30078 3.9367,-16.63208 q 0.4578,-1.86157 2.6245,-1.86157 1.2818,0 2.2278,0.88501 0.9461,0.85449 0.9461,2.07519 0,0.15259 -0.3052,1.40381 z m 30.0598,29.32739 q -0.5798,0 -2.1057,-1.34277 -1.3733,-1.25122 -2.0447,-2.22778 -2.9297,1.58691 -5.1575,2.38037 -2.2277,0.82397 -3.7231,0.82397 -7.1411,0 -10.4065,-4.02832 -3.0823,-3.78418 -3.0823,-11.59668 0,-7.38525 5.0659,-12.63428 5.0965,-5.24902 12.146,-5.24902 2.6551,0 5.951,1.37329 4.1504,1.70899 4.1504,4.11987 0,0.82398 -0.6104,1.46485 -0.3052,1.15967 -0.4883,3.8147 -0.1526,2.65503 -0.1831,6.80542 -0.031,3.78418 0.5188,5.98144 0.3052,1.34277 1.9226,5.37109 0.2137,0.54932 0.7019,1.61744 l 0.1831,0.5188 q 0,1.2207 -0.8545,2.01416 -0.8544,0.79345 -1.9836,0.79345 z m -6.3477,-21.20971 q 0,-1.31226 0.1526,-2.83814 0.1831,-1.5564 0.5188,-3.2959 -1.1291,-0.57983 -1.9531,-0.85449 -0.7934,-0.27466 -1.2817,-0.27466 -4.7303,0 -8.1787,3.87573 -3.418,3.84522 -3.418,8.88062 0,5.00488 1.77,7.50732 1.77,2.50245 5.3101,2.50245 2.9297,0 4.9743,-1.06812 1.0987,-0.57983 3.0823,-2.31934 -0.9766,-8.08715 -0.9766,-12.11547 z m 41.1072,-8.02613 -10.5591,22.82715 q -3.9062,8.3313 -5.9814,13.94653 l -2.0142,5.92041 q -0.7934,2.19727 -2.7465,2.19727 -1.2818,0 -2.2278,-0.85449 -0.9156,-0.82398 -0.9156,-2.0752 0,-3.05176 6.5918,-17.66968 l -10.9253,-21.02661 -1.3732,-2.22778 q -0.824,-1.40381 -0.824,-2.34985 0,-1.25122 0.946,-2.19727 0.9766,-0.94604 2.1668,-0.94604 1.4038,0 2.1667,1.06811 5.188,7.20215 11.1389,20.50781 l 4.5166,-10.52856 q 2.4414,-5.46265 4.6997,-9.39941 0.9766,-1.70899 2.5635,-1.70899 1.2512,0 2.1973,0.88501 0.9766,0.88501 0.9766,2.10571 0,0.67139 -0.3968,1.52588 z m 26.5198,3.72315 q -1.6785,0 -2.3499,-1.12915 -0.4577,-0.79346 -0.7934,-3.2959 -2.2888,0.57983 -7.0496,2.13623 -4.9133,1.95312 -4.9438,4.82178 0.9155,0.33569 1.8005,0.48828 7.0191,1.25122 10.437,3.44848 4.9744,3.20435 4.9744,9.27735 0,4.97436 -4.303,7.50732 -3.5705,2.0752 -9.0332,2.0752 -3.9978,0 -7.6294,-1.34278 -4.6997,-1.70898 -4.6997,-4.76074 0,-1.2207 0.9461,-2.13623 0.9765,-0.91553 2.1972,-0.91553 0.9461,0 2.4414,1.46485 0.7325,0.7019 3.2959,1.15967 2.0447,0.36621 3.4485,0.36621 2.5635,0 4.5166,-0.61036 2.8382,-0.885 2.8382,-2.80761 0,-4.15039 -5.7984,-5.61524 l -3.1738,-0.7019 q -4.0589,-0.88501 -5.7678,-2.0752 -2.472,-1.70898 -2.472,-5.15747 0,-6.37817 6.012,-9.09424 1.8311,-0.82397 5.8594,-1.95312 4.0283,-1.15967 5.7678,-1.95313 1.2512,-0.54931 2.7161,-0.54931 1.3122,0 2.1362,0.85449 0.8545,0.85449 0.8545,2.22778 0,0.88501 0.3662,2.594 0.3967,1.70898 0.3967,2.59399 0,1.37329 -0.8545,2.22779 -0.8239,0.85449 -2.1362,0.85449 z m 42.7551,24.78027 q -4.6692,0 -8.4839,-1.83105 -0.9765,1.46484 -2.3803,1.46484 -1.1597,0 -1.9837,-0.82397 -0.7934,-0.79346 -0.7934,-2.01416 0,-0.79346 0.061,-2.34986 0.092,-1.55639 0.092,-2.34985 0,-3.23487 -0.1831,-9.67407 -0.1526,-6.46973 -0.1526,-9.70459 0,-2.22779 0.03,-8.42286 0.031,-6.22558 0.031,-8.48388 0,-1.83106 0.7629,-3.2959 1.0071,-1.86157 2.7771,-1.86157 2.2889,0 2.2889,2.65503 0,0.42724 -0.1526,1.25122 -0.1526,0.82397 -0.1526,1.25122 l -0.092,6.68335 -0.061,7.78198 q 2.655,-1.80054 5.0354,-2.68555 2.4109,-0.91552 4.5166,-0.91552 6.5613,0 10.6506,5.0354 3.8452,4.73022 3.8452,11.62719 0,6.95801 -4.486,11.81031 -4.4861,4.85229 -11.1695,4.85229 z m 1.1597,-27.55737 q -2.5024,0 -5.127,1.40381 -1.2817,0.7019 -4.3945,3.02124 l -0.061,5.27954 0.031,4.76074 0.03,5.00488 q 1.4649,0.67139 4.1199,1.70899 1.8921,0.57983 4.2419,0.57983 4.4251,0 7.2632,-3.11279 2.8381,-3.1128 2.8381,-7.75147 0,-4.54712 -2.2888,-7.59887 -2.4719,-3.2959 -6.6528,-3.2959 z m 35.9192,27.67944 q -6.897,0 -11.1694,-3.44849 -4.6692,-3.81469 -4.6692,-10.68115 0,-7.93457 3.8452,-13.30566 4.1809,-5.85938 11.1694,-5.85938 5.0659,0 8.2703,1.70899 3.9367,2.10571 3.9367,6.46972 0,3.05176 -3.4484,5.5542 -1.5259,1.09864 -6.4698,3.41797 l -11.6577,5.52368 q 1.709,2.53296 4.242,3.8147 2.5634,1.28174 5.9509,1.28174 2.1057,0 4.9438,-0.79346 3.6011,-1.00708 4.6387,-2.62451 1.0376,-1.64795 2.2278,-1.64795 1.0681,0 1.8921,0.82398 0.8545,0.79345 0.8545,1.86157 0,3.38745 -5.4627,5.82886 -4.6692,2.07519 -9.0942,2.07519 z m -0.824,-27.80151 q -3.7231,0 -6.1951,2.89917 -2.4719,2.86865 -3.6926,8.66699 l 9.3689,-4.45557 q 5.5237,-2.68554 7.8735,-4.66919 -2.6245,-2.4414 -7.3547,-2.4414 z m 63.324,28.41186 q -0.5798,0 -2.1057,-1.34277 -1.3733,-1.25122 -2.0447,-2.22778 -2.9297,1.58691 -5.1575,2.38037 -2.2278,0.82397 -3.7231,0.82397 -7.1411,0 -10.4065,-4.02832 -3.0823,-3.78418 -3.0823,-11.59668 0,-7.38525 5.0659,-12.63428 5.0965,-5.24902 12.146,-5.24902 2.6551,0 5.951,1.37329 4.1503,1.70899 4.1503,4.11987 0,0.82398 -0.6103,1.46485 -0.3052,1.15967 -0.4883,3.8147 -0.1526,2.65503 -0.1831,6.80542 -0.031,3.78418 0.5188,5.98144 0.3052,1.34277 1.9226,5.37109 0.2136,0.54932 0.7019,1.61744 l 0.1831,0.5188 q 0,1.2207 -0.8545,2.01416 -0.8545,0.79345 -1.9836,0.79345 z m -6.3477,-21.20971 q 0,-1.31226 0.1526,-2.83814 0.1831,-1.5564 0.5188,-3.2959 -1.1291,-0.57983 -1.9531,-0.85449 -0.7935,-0.27466 -1.2817,-0.27466 -4.7303,0 -8.1788,3.87573 -3.4179,3.84522 -3.4179,8.88062 0,5.00488 1.77,7.50732 1.77,2.50245 5.3101,2.50245 2.9296,0 4.9743,-1.06812 1.0986,-0.57983 3.0823,-2.31934 -0.9766,-8.08715 -0.9766,-12.11547 z"
       id="text20"
       style="font-size:62.5px;font-family:ComicSansMS, 'Comic Sans MS', cursive"
       aria-label="the output to always be a" /><path
       d="m 764.5152,666.48718 q -0.57984,0 -2.10572,-1.34277 -1.37329,-1.25122 -2.04467,-2.22778 -2.92969,1.58691 -5.15747,2.38037 -2.22779,0.82397 -3.72315,0.82397 -7.14111,0 -10.40649,-4.02832 -3.08228,-3.78418 -3.08228,-11.59668 0,-7.38525 5.06592,-12.63428 5.09644,-5.24902 12.146,-5.24902 2.65503,0 5.95092,1.37329 4.15039,1.70899 4.15039,4.11987 0,0.82398 -0.61035,1.46485 -0.30517,1.15967 -0.48828,3.8147 -0.15259,2.65503 -0.1831,6.80542 -0.0305,3.78418 0.5188,5.98144 0.30517,1.34277 1.9226,5.37109 0.21363,0.54932 0.70191,1.61744 l 0.1831,0.5188 q 0,1.2207 -0.85449,2.01416 -0.85449,0.79345 -1.98364,0.79345 z m -6.34766,-21.20971 q 0,-1.31226 0.15259,-2.83814 0.1831,-1.5564 0.5188,-3.2959 -1.12915,-0.57983 -1.95313,-0.85449 -0.79345,-0.27466 -1.28174,-0.27466 -4.73022,0 -8.17871,3.87573 -3.41796,3.84522 -3.41796,8.88062 0,5.00488 1.77001,7.50732 1.77002,2.50245 5.31006,2.50245 2.92969,0 4.97437,-1.06812 1.09863,-0.57983 3.08227,-2.31934 -0.97656,-8.08715 -0.97656,-12.11547 z m 46.96655,21.11816 q -6.2561,0 -10.43701,-3.78418 -4.39453,-3.96728 -4.39453,-10.46753 0,-6.19507 4.11987,-12.78686 4.57764,-7.32422 10.31495,-7.32422 2.99072,0 6.68335,1.40381 4.66918,1.80053 4.66918,4.39453 0,1.15966 -0.76293,2.07519 -0.76294,0.88501 -1.89209,0.88501 -0.88501,0 -1.5564,-0.5188 -0.64087,-0.54931 -1.25122,-1.06811 -1.80054,-1.43433 -5.88989,-1.43433 -3.1128,0 -6.16456,5.5542 -2.77709,5.09644 -2.77709,8.81958 0,4.02832 2.74658,6.34766 2.56347,2.16675 6.59179,2.16675 1.83106,0 3.90625,-0.97657 l 3.54004,-1.89209 q 0.91553,-0.48828 1.31226,-0.48828 1.12915,0 1.95312,0.91553 0.82398,0.88501 0.82398,2.04468 0,2.22778 -4.69971,4.30298 -4.11987,1.83105 -6.83594,1.83105 z m 32.56226,-0.5188 q -6.89697,0 -11.16943,-3.44849 -4.66919,-3.81469 -4.66919,-10.68115 0,-7.93457 3.84521,-13.30566 4.18091,-5.85938 11.16944,-5.85938 5.06591,0 8.27026,1.70899 3.93677,2.10571 3.93677,6.46972 0,3.05176 -3.44849,5.5542 -1.52588,1.09864 -6.46973,3.41797 l -11.65771,5.52368 q 1.70898,2.53296 4.24194,3.8147 2.56348,1.28174 5.95093,1.28174 2.10571,0 4.94385,-0.79346 3.60107,-1.00708 4.63867,-2.62451 1.0376,-1.64795 2.22778,-1.64795 1.06812,0 1.89209,0.82398 0.85449,0.79345 0.85449,1.86157 0,3.38745 -5.46264,5.82886 -4.66919,2.07519 -9.09424,2.07519 z m -0.82397,-27.80151 q -3.72315,0 -6.19507,2.89917 -2.47193,2.86865 -3.69263,8.66699 l 9.3689,-4.45557 q 5.52368,-2.68554 7.87353,-4.66919 -2.62451,-2.4414 -7.35473,-2.4414 z m 44.55566,3.84521 q -0.21362,3.8147 -3.05176,3.8147 -2.62451,0 -2.62451,-3.02124 0,-0.57983 -0.0915,-2.13623 l -0.0916,-2.56348 q -4.82177,0.57984 -7.72094,2.71607 -2.71607,1.98364 -4.5166,5.98144 l 0.061,16.72363 q 0,3.08228 -3.02124,3.08228 -2.68555,0 -2.68555,-3.08228 v -21.42334 q 0,-1.00708 0.061,-3.02124 0.0915,-2.01416 0.0915,-3.02124 0,-3.08227 2.68555,-3.08227 2.99072,0 3.02124,5.06592 5.85937,-5.64575 13.00049,-5.64575 2.47192,0 3.69262,1.86157 1.22071,1.86157 1.22071,5.61523 0,1.58692 -0.0305,2.13623 z m 26.70288,-3.44848 q -0.64087,0 -1.52588,-0.061 -0.85449,-0.061 -1.49536,-0.061 -0.7019,0 -4.15039,0.45776 l 0.57983,18.03589 0.0305,1.34277 0.0305,1.5564 q 0.12207,6.68335 -3.20435,6.68335 -1.2207,0 -2.13623,-0.79346 -0.88501,-0.79346 -0.88501,-1.98364 0,-1.15967 0.0916,-3.47901 0.0915,-2.31933 0.0915,-3.479 l -0.61035,-17.82227 q -2.22779,-0.0915 -6.77491,-0.51879 -2.71606,-0.36622 -2.71606,-3.02124 0,-1.34278 0.82397,-2.22779 0.82398,-0.88501 2.10572,-0.88501 l 6.40869,0.5188 q 0,-1.5564 -0.15259,-4.15039 -0.12207,-2.62451 -0.12207,-3.78418 0,-1.28174 0.88501,-2.10571 0.88501,-0.85449 2.16675,-0.85449 2.74658,0 3.20434,4.48608 0.0916,1.12915 0.0916,2.71606 l -0.061,1.77002 -0.0305,1.89209 q 3.78418,-0.48828 4.3335,-0.48828 3.17383,0 4.15039,0.30518 1.86157,0.61035 1.86157,2.86865 0,1.34277 -0.85449,2.22778 -0.82397,0.8545 -2.13623,0.8545 z m 32.86743,28.01513 q -0.57983,0 -2.10571,-1.34277 -1.37329,-1.25122 -2.04468,-2.22778 -2.92969,1.58691 -5.15747,2.38037 -2.22778,0.82397 -3.72314,0.82397 -7.14112,0 -10.4065,-4.02832 -3.08227,-3.78418 -3.08227,-11.59668 0,-7.38525 5.06591,-12.63428 5.09644,-5.24902 12.146,-5.24902 2.65503,0 5.95093,1.37329 4.15039,1.70899 4.15039,4.11987 0,0.82398 -0.61035,1.46485 -0.30518,1.15967 -0.48828,3.8147 -0.15259,2.65503 -0.18311,6.80542 -0.0305,3.78418 0.5188,5.98144 0.30518,1.34277 1.92261,5.37109 0.21362,0.54932 0.7019,1.61744 l 0.18311,0.5188 q 0,1.2207 -0.8545,2.01416 -0.85449,0.79345 -1.98364,0.79345 z m -6.34765,-21.20971 q 0,-1.31226 0.15258,-2.83814 0.18311,-1.5564 0.5188,-3.2959 -1.12915,-0.57983 -1.95312,-0.85449 -0.79346,-0.27466 -1.28174,-0.27466 -4.73023,0 -8.17871,3.87573 -3.41797,3.84522 -3.41797,8.88062 0,5.00488 1.77002,7.50732 1.77002,2.50245 5.31006,2.50245 2.92969,0 4.97436,-1.06812 1.09864,-0.57983 3.08228,-2.31934 -0.97656,-8.08715 -0.97656,-12.11547 z m 20.3247,-19.4397 q -1.46484,0 -2.53296,-1.0376 -1.06811,-1.0376 -1.06811,-2.50244 0,-1.46484 1.06811,-2.50244 1.06812,-1.0376 2.53296,-1.0376 1.46485,0 2.50244,1.0376 1.06812,1.0376 1.06812,2.50244 0,1.46484 -1.06812,2.50244 -1.03759,1.0376 -2.50244,1.0376 z m 1.37329,24.78027 q 0,1.83106 0.0916,5.49317 0.12207,3.63159 0.12207,5.46264 0,1.34278 -0.82398,2.19727 -0.82397,0.85449 -2.16675,0.85449 -1.31225,0 -2.16674,-0.85449 -0.82398,-0.85449 -0.82398,-2.19727 0,-1.83105 -0.12207,-5.46264 -0.0915,-3.66211 -0.0915,-5.49317 0,-2.86865 0.30517,-7.14111 0.30518,-4.30298 0.30518,-7.17163 0,-1.37329 0.82397,-2.22779 0.8545,-0.85449 2.16675,-0.85449 1.31226,0 2.13623,0.85449 0.8545,0.8545 0.8545,2.22779 0,2.86865 -0.30518,7.17163 -0.30518,4.27246 -0.30518,7.14111 z m 33.72193,16.02173 q -2.62451,0 -2.96021,-2.86865 l -0.85449,-6.68335 q -0.42725,-3.57056 -0.42725,-6.68335 0,-0.85449 0.0916,-2.89917 0.12207,-2.04468 0.12207,-2.89917 0,-6.5918 -2.44141,-6.5918 -3.41797,0 -6.53076,4.05884 -2.80762,3.69263 -4.39453,9.33838 -0.061,1.19018 -0.27466,2.99072 -0.18311,1.52588 -0.18311,2.96021 0,0.91552 0.18311,2.74658 0.18311,1.83105 0.18311,2.74658 0,1.37329 -0.8545,2.22778 -0.82397,0.8545 -2.13623,0.8545 -1.34277,0 -2.16675,-0.8545 -0.82397,-0.85449 -0.82397,-2.22778 0,-0.91553 -0.21362,-2.74658 -0.18311,-1.83106 -0.18311,-2.74658 0,-3.14331 0.42725,-8.69751 0.45776,-5.58472 0.45776,-8.72803 0,-0.97656 -0.12207,-2.89917 -0.0915,-1.92261 -0.0915,-2.89917 0,-1.31226 0.85449,-2.13623 0.88501,-0.85449 2.16675,-0.85449 2.80762,0 3.08227,3.96728 l 0.0916,3.57056 q 5.12695,-6.83594 10.52856,-6.83594 4.88281,0 6.80542,4.30298 1.31226,2.86865 1.43433,8.48389 v 3.08227 l -0.0305,2.83814 q 0,2.53296 0.64087,6.56128 0.67139,3.9978 0.67139,6.50024 0,1.34277 -0.88501,2.16675 -0.8545,0.85449 -2.16675,0.85449 z m 48.58398,-25.66528 q -1.6785,0 -2.3499,-1.12915 -0.4577,-0.79346 -0.7934,-3.2959 -2.2888,0.57983 -7.0496,2.13623 -4.9133,1.95312 -4.9438,4.82178 0.9155,0.33569 1.8005,0.48828 7.0191,1.25122 10.437,3.44848 4.9744,3.20435 4.9744,9.27735 0,4.97436 -4.303,7.50732 -3.5705,2.0752 -9.0332,2.0752 -3.9978,0 -7.6294,-1.34278 -4.6997,-1.70898 -4.6997,-4.76074 0,-1.2207 0.9461,-2.13623 0.9765,-0.91553 2.1972,-0.91553 0.9461,0 2.4414,1.46485 0.7325,0.7019 3.2959,1.15967 2.0447,0.36621 3.4485,0.36621 2.5635,0 4.5166,-0.61036 2.8382,-0.885 2.8382,-2.80761 0,-4.15039 -5.7984,-5.61524 l -3.1738,-0.7019 q -4.0589,-0.88501 -5.7678,-2.0752 -2.472,-1.70898 -2.472,-5.15747 0,-6.37817 6.012,-9.09424 1.8311,-0.82397 5.8594,-1.95312 4.0283,-1.15967 5.7678,-1.95313 1.2512,-0.54931 2.7161,-0.54931 1.3122,0 2.1362,0.85449 0.8545,0.85449 0.8545,2.22778 0,0.88501 0.3662,2.594 0.3967,1.70898 0.3967,2.59399 0,1.37329 -0.8545,2.22779 -0.8239,0.85449 -2.1362,0.85449 z m 15.6555,-15.13672 q -1.4648,0 -2.5329,-1.0376 -1.0682,-1.0376 -1.0682,-2.50244 0,-1.46484 1.0682,-2.50244 1.0681,-1.0376 2.5329,-1.0376 1.4649,0 2.5025,1.0376 1.0681,1.0376 1.0681,2.50244 0,1.46484 -1.0681,2.50244 -1.0376,1.0376 -2.5025,1.0376 z m 1.3733,24.78027 q 0,1.83106 0.092,5.49317 0.122,3.63159 0.122,5.46264 0,1.34278 -0.8239,2.19727 -0.824,0.85449 -2.1668,0.85449 -1.3122,0 -2.1667,-0.85449 -0.824,-0.85449 -0.824,-2.19727 0,-1.83105 -0.1221,-5.46264 -0.091,-3.66211 -0.091,-5.49317 0,-2.86865 0.3051,-7.14111 0.3052,-4.30298 0.3052,-7.17163 0,-1.37329 0.824,-2.22779 0.8545,-0.85449 2.1667,-0.85449 1.3123,0 2.1363,0.85449 0.8545,0.8545 0.8545,2.22779 0,2.86865 -0.3052,7.17163 -0.3052,4.27246 -0.3052,7.14111 z m 35.492,-10.83374 q -2.7161,3.26538 -6.9581,9.46045 -4.9133,7.20215 -7.2021,10.19287 3.2043,-0.15259 5.5847,-0.15259 1.1902,0 3.5401,0.45777 2.3498,0.45776 3.54,0.45776 1.3428,0 2.1667,0.88501 0.8545,0.85449 0.8545,2.19727 0,1.37329 -0.8545,2.22778 -0.8239,0.85449 -2.1667,0.85449 -1.1902,0 -3.54,-0.45776 -2.3499,-0.45777 -3.5401,-0.45777 -6.8664,0 -13.031,1.25123 -0.6409,0.12207 -1.1291,0.12207 -2.9602,0 -2.9602,-2.594 0,-1.52588 1.5258,-2.92969 7.9651,-7.20214 17.334,-22.43042 -4.0588,0.24415 -5.8899,0.24415 -4.5166,0 -9.2773,-0.70191 -2.7161,-0.39673 -2.7161,-3.02124 0,-1.34277 0.824,-2.22778 0.824,-0.91553 2.0752,-0.91553 1.4953,0 4.5166,0.36621 3.0212,0.33569 4.5776,0.33569 2.0752,0 6.2256,-0.27465 4.1504,-0.30518 6.2256,-0.30518 2.594,0 2.594,2.13623 0,2.47192 -2.3193,5.27954 z m 22.705,26.09253 q -6.8969,0 -11.1694,-3.44849 -4.6692,-3.81469 -4.6692,-10.68115 0,-7.93457 3.8452,-13.30566 4.1809,-5.85938 11.1695,-5.85938 5.0659,0 8.2702,1.70899 3.9368,2.10571 3.9368,6.46972 0,3.05176 -3.4485,5.5542 -1.5259,1.09864 -6.4697,3.41797 l -11.6577,5.52368 q 1.7089,2.53296 4.2419,3.8147 2.5635,1.28174 5.9509,1.28174 2.1057,0 4.9439,-0.79346 3.6011,-1.00708 4.6387,-2.62451 1.0375,-1.64795 2.2277,-1.64795 1.0682,0 1.8921,0.82398 0.8545,0.79345 0.8545,1.86157 0,3.38745 -5.4626,5.82886 -4.6692,2.07519 -9.0943,2.07519 z m -0.8239,-27.80151 q -3.7232,0 -6.1951,2.89917 -2.4719,2.86865 -3.6926,8.66699 l 9.3689,-4.45557 q 5.5236,-2.68554 7.8735,-4.66919 -2.6245,-2.4414 -7.3547,-2.4414 z m 24.7192,29.23584 q -1.5869,0 -2.6856,-1.09864 -1.0986,-1.09863 -1.0986,-2.68554 0,-1.5564 1.0986,-2.65503 1.0987,-1.12915 2.6856,-1.12915 1.5564,0 2.655,1.12915 1.1292,1.09863 1.1292,2.65503 0,1.58691 -1.1292,2.68554 -1.0986,1.09864 -2.655,1.09864 z"
       id="text21"
       style="font-size:62.5px;font-family:ComicSansMS, 'Comic Sans MS', cursive"
       aria-label="a certain size." /></g><path
     d="m 1138.5526,552.89739 q -0.5697,0 -2.4821,-0.26449 -0.1628,3.07213 -0.1628,10.76262 0,0.81381 -0.529,1.38347 -0.5289,0.54932 -1.3224,0.54932 -0.8138,0 -1.3428,-0.54932 -0.529,-0.56966 -0.529,-1.38347 v -5.9815 q 0,-2.99074 0.3663,-8.42292 0.4069,-5.87976 0.4476,-8.42291 v -2.80764 q 0,-2.01418 0.2441,-2.92971 0.4679,-1.79038 1.9938,-1.54624 0.6511,-0.20345 1.8514,-0.30518 1.2004,-0.10173 2.9501,-0.10173 3.7232,0 6.9784,2.54316 3.5808,2.80764 3.5808,6.75461 0,5.04561 -3.8249,8.03636 -3.418,2.68557 -8.2195,2.68557 z m 1.0173,-16.1541 q -0.8952,0 -1.6073,0.0407 -0.6918,0.0407 -1.18,0.12207 l -0.041,3.74352 -0.4273,8.09739 2.238,0.26449 q 3.418,0 5.7577,-1.72934 2.5635,-1.89211 2.5635,-5.10665 0,-2.27867 -2.4414,-3.92663 -2.2584,-1.50554 -4.8625,-1.50554 z m 30.9857,29.43952 q -0.3865,0 -1.4038,-0.89519 -0.9155,-0.83415 -1.3631,-1.4852 -1.9532,1.05795 -3.4384,1.58693 -1.4852,0.54932 -2.4821,0.54932 -4.7608,0 -6.9377,-2.68557 -2.0549,-2.52281 -2.0549,-7.73118 0,-4.92354 3.3773,-8.42292 3.3977,-3.49938 8.0974,-3.49938 1.7701,0 3.9673,0.91554 2.767,1.13933 2.767,2.7466 0,0.54932 -0.4069,0.97657 -0.2035,0.77312 -0.3255,2.54315 -0.1018,1.77004 -0.1221,4.53699 -0.02,2.5228 0.3459,3.98766 0.2034,0.89519 1.2817,3.58076 0.1424,0.36621 0.468,1.07829 l 0.122,0.34587 q 0,0.81381 -0.5696,1.34279 -0.5697,0.52897 -1.3225,0.52897 z m -4.2318,-14.13992 q 0,-0.87485 0.1017,-1.89211 0.1221,-1.0376 0.3459,-2.19728 -0.7528,-0.38656 -1.3021,-0.56967 -0.529,-0.1831 -0.8545,-0.1831 -3.1535,0 -5.4525,2.58384 -2.2787,2.56349 -2.2787,5.92046 0,3.33661 1.1801,5.00492 1.18,1.66831 3.54,1.66831 1.9532,0 3.3163,-0.71209 0.7324,-0.38656 2.0549,-1.54623 -0.6511,-5.39148 -0.6511,-8.07705 z m 28.4019,-5.16769 q -0.2441,2.99075 -0.2441,5.9815 0,6.77495 0.6307,10.23364 0.041,0.28483 0.041,0.46794 0,0.81381 -0.5697,1.34278 -0.5696,0.52898 -1.3224,0.52898 -1.2614,0 -1.8514,-1.83107 -1.4649,1.0783 -3.0518,1.62762 -1.5666,0.54932 -3.2756,0.54932 -4.2115,0 -6.9784,-2.80764 -2.8483,-2.86868 -2.8483,-7.36497 0,-5.43217 2.8686,-8.70775 2.8891,-3.27558 7.4871,-3.27558 2.36,0 3.6418,0.73243 l 1.9124,1.40382 q 0.2849,-8.56534 0.6714,-11.53574 0.2645,-1.81073 1.8514,-1.81073 1.8514,0 1.8514,1.97349 0,2.82799 -0.8138,12.49196 z m -9.0332,0.52898 q -3.418,0 -5.127,2.03452 -1.709,2.01418 -1.709,6.08322 0,2.62453 1.8514,4.51664 1.8717,1.8921 4.3742,1.8921 1.709,0 2.889,-0.6307 0.6918,-0.36621 2.2583,-1.68865 0.3052,-0.26449 0.5901,-0.6307 l -0.061,-3.51973 0.02,-2.36004 0.041,-2.40074 q -0.7732,-1.64796 -2.0549,-2.46177 -1.2818,-0.83415 -3.0721,-0.83415 z m 42.4197,16.62204 q -4.5776,1.79038 -11.6985,1.79038 -0.8748,0 -1.6683,-0.83416 -0.7731,-0.81381 -0.7731,-1.68865 v -5.92046 q 0,-2.90936 0.3662,-8.30084 0.4069,-5.81874 0.4476,-8.42292 -0.02,-1.87176 0.2238,-5.57459 0.1424,-1.01726 0.6714,-1.34279 2.767,-0.8545 6.2867,-0.8545 3.5807,0 6.8767,2.44143 3.8045,2.80764 3.8045,6.93772 0,5.22872 -4.069,8.23981 3.0518,1.30209 4.5573,2.88902 1.5259,1.58693 1.5259,3.45869 0,2.46177 -2.6652,4.76078 -1.8514,1.62761 -3.886,2.42108 z m -6.1442,-26.9981 q -2.2177,0 -3.1128,0.14241 l -0.041,3.56042 -0.4069,7.8736 q 2.889,0.24414 3.0924,0.22379 3.0722,-0.24414 5.0253,-1.91245 2.0956,-1.81072 2.0956,-4.65905 0,-1.9328 -2.1363,-3.58076 -2.1362,-1.64796 -4.5166,-1.64796 z m 2.2786,16.29652 -2.1566,-0.34587 q -0.2644,0 -0.8138,0.0407 -0.5289,0.0203 -0.8138,0.0203 -1.0986,0 -2.3397,-0.1831 -0.122,2.56349 -0.122,4.57767 v 4.21146 q 5.3304,-0.18311 8.6874,-1.50555 1.4241,-0.54932 2.7262,-1.709 1.2411,-1.05795 1.2411,-1.58692 0,-0.95623 -2.6042,-2.1566 -1.9531,-0.91553 -3.8046,-1.36312 z m 32.6745,-6.63254 -7.0395,15.21822 q -2.6042,5.55424 -3.9876,9.29776 l -1.3428,3.94697 q -0.529,1.46486 -1.8311,1.46486 -0.8545,0 -1.4852,-0.56967 -0.6104,-0.54932 -0.6104,-1.38347 0,-2.03453 4.3946,-11.77988 l -7.2836,-14.01786 -0.9155,-1.4852 q -0.5493,-0.93588 -0.5493,-1.56658 0,-0.83415 0.6307,-1.46485 0.651,-0.63071 1.4445,-0.63071 0.9359,0 1.4445,0.71209 3.4587,4.80147 7.426,13.67198 l 3.0111,-7.0191 q 1.6276,-3.64179 3.1332,-6.26632 0.651,-1.13934 1.7089,-1.13934 0.8342,0 1.4649,0.59001 0.6511,0.59002 0.6511,1.40382 0,0.4476 -0.2645,1.01727 z m 17.5579,0.8138 q -0.4273,0 -1.0173,-0.0407 -0.5696,-0.0407 -0.9969,-0.0407 -0.4679,0 -2.7669,0.30518 l 0.3865,12.02402 0.02,0.89519 0.02,1.03761 q 0.081,4.4556 -2.1362,4.4556 -0.8139,0 -1.4242,-0.52897 -0.59,-0.52898 -0.59,-1.32244 0,-0.77312 0.061,-2.31936 0.061,-1.54623 0.061,-2.31935 l -0.407,-11.88161 q -1.4852,-0.061 -4.5166,-0.34587 -1.8107,-0.24414 -1.8107,-2.01417 0,-0.89519 0.5493,-1.4852 0.5493,-0.59002 1.4038,-0.59002 l 4.2725,0.34587 q 0,-1.0376 -0.1017,-2.76695 -0.081,-1.74968 -0.081,-2.5228 0,-0.8545 0.59,-1.40382 0.59,-0.56967 1.4445,-0.56967 1.8311,0 2.1363,2.99075 0.061,0.75277 0.061,1.81072 l -0.041,1.18002 -0.02,1.26141 q 2.5228,-0.32553 2.889,-0.32553 2.1159,0 2.767,0.20346 1.241,0.4069 1.241,1.91245 0,0.89519 -0.5697,1.4852 -0.5493,0.56966 -1.4241,0.56966 z m 15.5234,18.27001 q -4.598,0 -7.4464,-2.29901 -3.1128,-2.54315 -3.1128,-7.12083 0,-5.28975 2.5635,-8.87051 2.7873,-3.90628 7.4464,-3.90628 3.3773,0 5.5135,1.13933 2.6246,1.40382 2.6246,4.31318 0,2.03453 -2.2991,3.70283 -1.0172,0.73243 -4.3131,2.27867 l -7.7719,3.68248 q 1.1393,1.68865 2.828,2.54315 1.709,0.8545 3.9673,0.8545 1.4038,0 3.2959,-0.52897 2.4007,-0.67139 3.0925,-1.74969 0.6917,-1.09864 1.4852,-1.09864 0.7121,0 1.2614,0.54932 0.5697,0.52897 0.5697,1.24106 0,2.25831 -3.6418,3.88593 -3.1129,1.38348 -6.0629,1.38348 z m -0.5493,-18.53449 q -2.4821,0 -4.1301,1.93279 -1.648,1.91245 -2.4618,5.77804 l 6.246,-2.9704 q 3.6825,-1.79038 5.2491,-3.11282 -1.7497,-1.62761 -4.9032,-1.62761 z m 27.6084,1.93279 q -1.119,0 -1.5666,-0.75277 -0.3051,-0.52898 -0.5289,-2.19728 -1.5259,0.38655 -4.6998,1.42416 -3.2756,1.30209 -3.2959,3.21454 0.6104,0.2238 1.2004,0.32553 4.6794,0.83415 6.958,2.29901 3.3163,2.13624 3.3163,6.18494 0,3.31627 -2.8687,5.00493 -2.3804,1.38347 -6.0222,1.38347 -2.6652,0 -5.0863,-0.89519 -3.1331,-1.13933 -3.1331,-3.17385 0,-0.81381 0.6307,-1.42417 0.651,-0.61035 1.4648,-0.61035 0.6307,0 1.6276,0.97657 0.4883,0.46794 2.1973,0.77311 1.3632,0.24415 2.299,0.24415 1.709,0 3.0111,-0.40691 1.8921,-0.59001 1.8921,-1.87176 0,-2.76695 -3.8656,-3.74352 l -2.1159,-0.46794 q -2.7059,-0.59001 -3.8452,-1.38347 -1.648,-1.13933 -1.648,-3.43834 0,-4.25215 4.008,-6.06288 1.2208,-0.54932 3.9063,-1.30209 2.6856,-0.77312 3.8453,-1.30209 0.8341,-0.36622 1.8107,-0.36622 0.8748,0 1.4242,0.56967 0.5696,0.56966 0.5696,1.4852 0,0.59001 0.2442,1.72934 0.2645,1.13933 0.2645,1.72934 0,0.91554 -0.5697,1.48521 -0.5493,0.56966 -1.4242,0.56966 z"
     id="text22"
     style="font-size:41.667px;font-family:ComicSansMS, 'Comic Sans MS', cursive"
     aria-label="Pad Bytes" /><path
     d="m 1149.6204,424.41186 q -1.3021,0 -3.2756,-0.26449 l -3.2756,-0.42725 q -0.4679,5.92046 -0.4679,11.31194 0,1.42416 0.081,3.51972 0.081,2.09556 0.081,3.51972 0,1.91245 -0.1425,3.47903 l 6.4088,-0.0814 q 0.8545,0 1.4241,0.61036 0.5901,0.59001 0.5901,1.46485 0,0.89519 -0.5901,1.50555 -0.5696,0.59001 -1.4241,0.59001 -1.1393,0 -3.418,0.061 -2.2787,0.0407 -3.418,0.0407 -1.3428,0 -4.0284,0.36621 -2.6652,0.38656 -4.0283,0.38656 -0.8545,0 -1.4445,-0.61036 -0.5697,-0.59001 -0.5697,-1.46485 0,-0.87485 0.5697,-1.4852 0.59,-0.61036 1.4445,-0.61036 1.3224,0 4.3742,-0.42725 0.2035,-1.64796 0.2035,-3.76386 0,-1.40382 -0.1425,-3.418 -0.122,-2.03452 -0.122,-3.41799 0,-4.69975 0.5696,-11.73919 l -2.6448,0.0814 -2.6449,0.061 q -0.8749,0 -1.4649,-0.59001 -0.59,-0.59001 -0.59,-1.50554 0,-1.89211 1.9125,-2.07522 1.6479,-0.16276 6.1646,-0.16276 4.0487,0 10.1522,0.87485 1.8108,0.26448 1.8108,2.17693 0,0.95623 -0.6918,1.5259 -0.6103,0.46794 -1.4038,0.46794 z m 21.7287,26.79464 q -1.7497,0 -1.9735,-1.91245 l -0.5697,-4.4556 q -0.2848,-2.38039 -0.2848,-4.4556 0,-0.56967 0.061,-1.9328 0.081,-1.36313 0.081,-1.93279 0,-4.39457 -1.6276,-4.39457 -2.2787,0 -4.3539,2.70592 -1.8717,2.46177 -2.9297,6.22563 -0.041,0.79346 -0.1831,1.99383 -0.1221,1.01726 -0.1221,1.97349 0,0.61035 0.1221,1.83107 0.1221,1.22071 0.1221,1.83107 0,0.91553 -0.5697,1.4852 -0.5493,0.56966 -1.4242,0.56966 -0.8951,0 -1.4445,-0.56966 -0.5493,-0.56967 -0.5493,-1.4852 0,-0.61036 -0.1424,-1.83107 -0.1221,-1.22072 -0.1221,-1.83107 0,-2.09556 0.2849,-5.79839 0.3051,-3.72317 0.3051,-5.81873 0,-0.65105 -0.081,-1.93279 -0.061,-1.28175 -0.061,-1.9328 0,-0.87484 0.5697,-1.42417 0.59,-0.56966 1.4445,-0.56966 1.8718,0 2.0549,2.64488 l 0.061,2.38039 q 3.418,-4.55733 7.0191,-4.55733 3.2552,0 4.537,2.86867 0.8748,1.91245 0.9562,5.65597 v 2.05487 l -0.02,1.89211 q 0,1.68865 0.4272,4.37422 0.4476,2.66522 0.4476,4.33353 0,0.89519 -0.59,1.44451 -0.5697,0.56966 -1.4445,0.56966 z m 14.852,-0.73242 q -2.0345,0 -4.476,-0.65105 l -0.041,9.72501 q 0,0.89519 -0.5697,1.46486 -0.5493,0.56966 -1.4242,0.56966 -0.8748,0 -1.4445,-0.56966 -0.5493,-0.56967 -0.5493,-1.46486 l 0.061,-8.13808 v -8.11774 q -0.061,-4.45561 -0.3052,-8.11775 l -0.3051,-4.13007 q 0,-1.44451 0.5289,-2.44143 0.6104,-1.20037 1.7701,-1.20037 0.7934,0 1.3224,0.56967 0.5493,0.54932 0.5493,1.36313 0,0.1831 -0.061,0.67139 -0.1017,0.6307 -0.1424,1.15968 1.7497,-1.20037 3.3773,-1.79038 1.6276,-0.61036 3.1128,-0.61036 4.1708,0 6.1036,3.70283 1.5259,2.92971 1.5259,7.75153 0,4.39456 -2.3601,7.24289 -2.5024,3.0111 -6.6732,3.0111 z m 1.4038,-17.63931 q -1.8718,0 -3.3773,0.83416 -1.0783,0.59001 -2.7263,2.15659 0.2645,4.61837 0.2645,9.70467 2.2177,0.8545 4.4353,0.8545 2.5431,0 3.8859,-1.89211 1.1597,-1.64796 1.1597,-4.27249 0,-3.70283 -0.9155,-5.5339 -0.8952,-1.85142 -2.7263,-1.85142 z m 28.8292,5.04562 q 0,1.46485 0.02,4.39456 0.02,2.92972 0.02,4.39457 0,0.4476 0.061,1.36313 0.081,0.91553 0.081,1.36313 0,0.87484 -0.59,1.42416 -0.59,0.56967 -1.4445,0.56967 -1.5666,0 -1.9939,-1.93279 -2.5431,1.32243 -5.8594,1.32243 -2.6652,0 -4.4149,-1.18002 -1.9328,-1.30209 -2.299,-3.80455 -0.7935,-5.39149 -0.7935,-9.60294 0,-2.7873 0.6104,-6.34771 0.2848,-1.77004 1.9328,-1.77004 0.8748,0 1.4648,0.56967 0.59,0.54932 0.59,1.42417 0,0.93588 -0.3051,2.99074 -0.2849,2.05487 -0.2849,3.13317 0,3.39765 0.2238,5.81873 0.2238,2.42108 0.6714,3.88593 0.6714,0.36622 1.3225,0.56967 0.651,0.18311 1.2817,0.18311 2.7263,0 5.7577,-0.87485 l -0.02,-4.13008 -0.041,-3.94697 q 0,-4.39457 0.3865,-7.62945 0.2238,-1.87176 1.9735,-1.87176 0.8749,0 1.4649,0.56966 0.59,0.56967 0.5493,1.42417 z m 18.6769,-5.45252 q -0.4273,0 -1.0173,-0.0407 -0.5696,-0.0407 -0.9969,-0.0407 -0.4679,0 -2.7669,0.30518 l 0.3865,12.02402 0.02,0.89519 0.02,1.03761 q 0.081,4.4556 -2.1362,4.4556 -0.8138,0 -1.4242,-0.52898 -0.59,-0.52897 -0.59,-1.32244 0,-0.77312 0.061,-2.31935 0.061,-1.54624 0.061,-2.31936 l -0.4069,-11.8816 q -1.4852,-0.061 -4.5167,-0.34587 -1.8107,-0.24414 -1.8107,-2.01418 0,-0.89519 0.5493,-1.4852 0.5493,-0.59001 1.4038,-0.59001 l 4.2725,0.34587 q 0,-1.03761 -0.1017,-2.76695 -0.081,-1.74969 -0.081,-2.52281 0,-0.85449 0.59,-1.40382 0.59,-0.56966 1.4445,-0.56966 1.8311,0 2.1363,2.99074 0.061,0.75278 0.061,1.81073 l -0.041,1.18002 -0.02,1.2614 q 2.5228,-0.32552 2.889,-0.32552 2.1159,0 2.767,0.20345 1.241,0.40691 1.241,1.91245 0,0.89519 -0.5697,1.4852 -0.5493,0.56967 -1.4241,0.56967 z m 18.3717,12.26816 q -0.02,-0.85449 0.5697,-1.38347 0.6103,-0.54932 1.4852,-0.54932 0.9969,0 1.7497,1.13933 1.0376,1.54624 1.8514,2.09556 1.7293,1.13933 5.0253,1.13933 3.1535,0 5.8594,-1.36313 3.4587,-1.74969 3.4587,-4.86251 0,-2.56349 -2.9094,-4.04869 -2.4618,-1.28175 -6.0832,-1.38348 -3.2146,-0.12207 -5.4729,-1.40382 -2.889,-1.64796 -2.889,-4.72009 0,-3.62145 4.1097,-6.61219 3.9267,-2.82799 8.1178,-2.82799 1.9735,0 4.4556,0.6714 3.2959,0.87484 3.2959,2.23797 0,1.79038 -1.8311,1.79038 -0.8138,0 -2.8483,-0.42725 -2.0345,-0.4476 -3.1535,-0.42725 -3.1739,0.0407 -5.3915,1.56658 -2.2787,1.56658 -2.2787,3.80456 0,1.68865 3.0111,2.38039 1.119,0.26448 4.3336,0.48828 4.659,0.34587 7.2835,2.92971 2.4008,2.36005 2.4008,5.7577 0,4.84216 -4.476,7.73118 -3.8859,2.50246 -9.0129,2.50246 -3.7232,0 -6.8156,-1.42416 -3.7843,-1.74969 -3.8453,-4.80148 z m 32.8779,-20.69108 q -0.9766,0 -1.6887,-0.69174 -0.712,-0.69173 -0.712,-1.6683 0,-0.97657 0.712,-1.66831 0.7121,-0.69174 1.6887,-0.69174 0.9766,0 1.6683,0.69174 0.7121,0.69174 0.7121,1.66831 0,0.97657 -0.7121,1.6683 -0.6917,0.69174 -1.6683,0.69174 z m 0.9155,16.52032 q 0,1.22071 0.061,3.66213 0.081,2.42109 0.081,3.6418 0,0.89519 -0.5493,1.46485 -0.5493,0.56967 -1.4445,0.56967 -0.8748,0 -1.4445,-0.56967 -0.5493,-0.56966 -0.5493,-1.46485 0,-1.22071 -0.081,-3.6418 -0.061,-2.44142 -0.061,-3.66213 0,-1.91245 0.2034,-4.76078 0.2035,-2.86868 0.2035,-4.78113 0,-0.91553 0.5493,-1.4852 0.5697,-0.56967 1.4445,-0.56967 0.8748,0 1.4242,0.56967 0.5696,0.56967 0.5696,1.4852 0,1.91245 -0.2034,4.78113 -0.2035,2.84833 -0.2035,4.76078 z m 23.6615,-7.22256 q -1.8107,2.17694 -4.6387,6.30702 -3.2756,4.80147 -4.8015,6.7953 2.1363,-0.10172 3.7232,-0.10172 0.7935,0 2.36,0.30518 1.5666,0.30517 2.3601,0.30517 0.8952,0 1.4445,0.59001 0.5697,0.56967 0.5697,1.46486 0,0.91553 -0.5697,1.4852 -0.5493,0.56967 -1.4445,0.56967 -0.7935,0 -2.3601,-0.30518 -1.5665,-0.30518 -2.36,-0.30518 -4.5777,0 -8.6874,0.83415 -0.4273,0.0814 -0.7528,0.0814 -1.9735,0 -1.9735,-1.72934 0,-1.01726 1.0173,-1.95314 5.3101,-4.80147 11.5561,-14.95373 -2.7059,0.16276 -3.9267,0.16276 -3.011,0 -6.1849,-0.46794 -1.8107,-0.26449 -1.8107,-2.01418 0,-0.89519 0.5493,-1.4852 0.5493,-0.61035 1.3835,-0.61035 0.9969,0 3.0111,0.24414 2.0141,0.2238 3.0517,0.2238 1.3835,0 4.1505,-0.18311 2.7669,-0.20345 4.1504,-0.20345 1.7293,0 1.7293,1.42416 0,1.64796 -1.5462,3.51972 z m 15.1368,17.39516 q -4.598,0 -7.4463,-2.29901 -3.1128,-2.54315 -3.1128,-7.12082 0,-5.28976 2.5635,-8.87051 2.7873,-3.90629 7.4463,-3.90629 3.3773,0 5.5136,1.13934 2.6245,1.40382 2.6245,4.31318 0,2.03452 -2.299,3.70283 -1.0173,0.73243 -4.3132,2.27866 l -7.7719,3.68249 q 1.1394,1.68865 2.828,2.54315 1.709,0.8545 3.9673,0.8545 1.4039,0 3.296,-0.52898 2.4007,-0.67139 3.0924,-1.74968 0.6918,-1.09865 1.4852,-1.09865 0.7121,0 1.2614,0.54932 0.5697,0.52898 0.5697,1.24106 0,2.25832 -3.6418,3.88594 -3.1128,1.38347 -6.0629,1.38347 z m -0.5493,-18.53449 q -2.4821,0 -4.1301,1.9328 -1.6479,1.91245 -2.4617,5.77804 l 6.2459,-2.9704 q 3.6825,-1.79038 5.2491,-3.11282 -1.7497,-1.62762 -4.9032,-1.62762 z"
     id="text23"
     style="font-size:41.667px;font-family:ComicSansMS, 'Comic Sans MS', cursive"
     aria-label="Input Size" /><path
     d="m 553.40871,472.32078 q -0.77312,0 -1.44451,-0.65104 -6.73426,-6.65289 -14.97408,-8.9519 l 0.16277,3.98766 0.10172,4.00801 q 0,0.89519 -0.59001,1.4852 -0.56967,0.61036 -1.44451,0.61036 -0.87484,0 -1.46486,-0.61036 -0.56966,-0.59001 -0.56966,-1.4852 0,-1.60727 -0.16276,-4.78113 -0.14242,-3.19419 -0.14242,-4.80147 0,-1.87176 0.4069,-5.57458 0.40691,-3.70283 0.40691,-5.55425 0,-1.0376 -0.20345,-3.07213 -0.18311,-2.03452 -0.18311,-3.07212 0,-1.15968 0.65105,-2.03452 0.77311,-1.0783 2.13624,-0.97657 l 4.9032,0.38655 q 2.7873,0.34587 4.69975,1.36313 8.23981,4.37422 8.23981,10.68124 0,3.09247 -2.80764,5.47286 -2.25832,1.91245 -5.63563,2.90937 6.32737,3.39765 9.46053,7.16152 0.52897,0.65104 0.52897,1.38347 0,0.8545 -0.6307,1.4852 -0.61035,0.6307 -1.44451,0.6307 z m -12.9599,-26.89637 -3.01109,-0.24414 0.20345,2.46177 q 0.14242,1.50554 0.14242,2.46177 0,1.62761 -0.26449,4.0487 l -0.42725,4.04869 q 0.28483,0 0.87484,0.0204 0.61036,0.0203 0.91554,0.0203 5.18803,0 7.77187,-1.38347 1.13933,-0.6307 2.1159,-1.64796 1.0783,-1.13934 1.0783,-1.9328 0,-2.82798 -3.21454,-5.26941 -2.95006,-2.23797 -6.18495,-2.58384 z m 28.56468,27.60845 q -4.59802,0 -7.44635,-2.299 -3.11281,-2.54316 -3.11281,-7.12083 0,-5.28976 2.56349,-8.87051 2.7873,-3.90628 7.44635,-3.90628 3.37731,0 5.51355,1.13933 2.62454,1.40382 2.62454,4.31318 0,2.03452 -2.29901,3.70283 -1.01726,0.73243 -4.31319,2.27867 l -7.77187,3.68248 q 1.13933,1.68865 2.82799,2.54315 1.70899,0.8545 3.96731,0.8545 1.40382,0 3.29593,-0.52897 2.40073,-0.6714 3.09247,-1.74969 0.69174,-1.09864 1.4852,-1.09864 0.71208,0 1.2614,0.54932 0.56967,0.52897 0.56967,1.24105 0,2.25832 -3.64179,3.88594 -3.11282,1.38347 -6.06288,1.38347 z m -0.54932,-18.53449 q -2.48212,0 -4.13008,1.9328 -1.64796,1.91245 -2.46177,5.77804 l 6.24598,-2.9704 q 3.68249,-1.79038 5.24907,-3.11282 -1.74969,-1.62762 -4.9032,-1.62762 z m 29.54125,11.18987 -0.93588,7.81256 q -0.50863,4.35388 -0.50863,7.8736 0,0.89519 -0.54932,1.46486 -0.54932,0.56966 -1.44451,0.56966 -1.87176,0 -1.99383,-2.05486 -0.061,-0.89519 0.10173,-2.25832 l 0.26449,-2.25832 0.38655,-4.49629 q -1.74968,0.46794 -2.46177,0.46794 -4.43525,0 -7.18186,-2.29901 -2.95005,-2.46177 -2.95005,-6.81565 0,-5.96115 3.35696,-9.56225 3.43834,-3.70283 9.3588,-3.66214 1.11898,0 1.68865,0.87485 0.87484,-0.77312 1.54623,-0.77312 0.81381,0 1.40382,0.65104 0.61036,0.65105 0.61036,1.48521 0,6.00183 -0.69174,12.98024 z m -6.00183,-11.6985 q -3.74352,0.6714 -5.65597,3.80456 -1.54624,2.54315 -1.54624,5.98149 0,2.40074 1.46485,3.90628 1.60728,1.66831 4.45561,1.58693 1.93279,-0.061 2.82798,-2.09556 0.97657,-2.27866 1.03761,-7.75152 l 0.28483,-5.43218 q -0.4069,0.14242 -1.42416,0.061 -1.11899,-0.12207 -1.44451,-0.061 z m 28.60537,6.22564 q 0,1.46485 0.0203,4.39457 0.0204,2.92971 0.0204,4.39456 0,0.4476 0.061,1.36313 0.0814,0.91554 0.0814,1.36313 0,0.87485 -0.59001,1.42417 -0.59001,0.56966 -1.44451,0.56966 -1.56658,0 -1.99383,-1.93279 -2.54315,1.32244 -5.85942,1.32244 -2.66522,0 -4.41491,-1.18003 -1.9328,-1.30209 -2.29901,-3.80455 -0.79347,-5.39148 -0.79347,-9.60294 0,-2.7873 0.61036,-6.34771 0.28483,-1.77003 1.9328,-1.77003 0.87484,0 1.46485,0.56966 0.59001,0.54932 0.59001,1.42417 0,0.93588 -0.30518,2.99074 -0.28483,2.05487 -0.28483,3.13317 0,3.39765 0.2238,5.81873 0.2238,2.42108 0.67139,3.88593 0.67139,0.36622 1.32244,0.56967 0.65105,0.18311 1.28175,0.18311 2.72626,0 5.75769,-0.87485 l -0.0203,-4.13008 -0.0407,-3.94697 q 0,-4.39456 0.38656,-7.62945 0.22379,-1.87176 1.97348,-1.87176 0.87485,0 1.46486,0.56966 0.59001,0.56967 0.54932,1.42417 z m 8.95189,-13.87544 q -0.97657,0 -1.68865,-0.69173 -0.71208,-0.69174 -0.71208,-1.66831 0,-0.97657 0.71208,-1.66831 0.71208,-0.69174 1.68865,-0.69174 0.97657,0 1.66831,0.69174 0.71208,0.69174 0.71208,1.66831 0,0.97657 -0.71208,1.66831 -0.69174,0.69173 -1.66831,0.69173 z m 0.91554,16.52032 q 0,1.22071 0.061,3.66214 0.0814,2.42108 0.0814,3.64179 0,0.89519 -0.54932,1.46485 -0.54932,0.56967 -1.44451,0.56967 -0.87484,0 -1.44451,-0.56967 -0.54932,-0.56966 -0.54932,-1.46485 0,-1.22071 -0.0814,-3.64179 -0.061,-2.44143 -0.061,-3.66214 0,-1.91245 0.20346,-4.76078 0.20345,-2.86868 0.20345,-4.78113 0,-0.91553 0.54932,-1.4852 0.56967,-0.56967 1.44451,-0.56967 0.87484,0 1.42417,0.56967 0.56966,0.56967 0.56966,1.4852 0,1.91245 -0.20345,4.78113 -0.20345,2.84833 -0.20345,4.76078 z m 22.70526,-5.79839 q -0.14242,2.54315 -2.03452,2.54315 -1.74969,0 -1.74969,-2.01417 0,-0.38656 -0.061,-1.42417 l -0.061,-1.709 q -3.21455,0.38656 -5.14734,1.81073 -1.81073,1.32244 -3.01109,3.98766 l 0.0407,11.14918 q 0,2.05486 -2.01418,2.05486 -1.79038,0 -1.79038,-2.05486 v -14.28234 q 0,-0.6714 0.0407,-2.01418 0.061,-1.34278 0.061,-2.01418 0,-2.05486 1.79038,-2.05486 1.99383,0 2.01417,3.3773 3.90628,-3.76386 8.66706,-3.76386 1.64797,0 2.46177,1.24106 0.81381,1.24105 0.81381,3.74352 0,1.05795 -0.0203,1.42416 z m 13.69233,15.97099 q -4.59802,0 -7.44635,-2.299 -3.11282,-2.54316 -3.11282,-7.12083 0,-5.28976 2.5635,-8.87051 2.78729,-3.90628 7.44635,-3.90628 3.3773,0 5.51355,1.13933 2.62453,1.40382 2.62453,4.31318 0,2.03452 -2.29901,3.70283 -1.01726,0.73243 -4.31318,2.27867 l -7.77187,3.68248 q 1.13933,1.68865 2.82798,2.54315 1.709,0.8545 3.96732,0.8545 1.40382,0 3.29592,-0.52897 2.40074,-0.6714 3.09247,-1.74969 0.69174,-1.09864 1.48521,-1.09864 0.71208,0 1.2614,0.54932 0.56966,0.52897 0.56966,1.24105 0,2.25832 -3.64179,3.88594 -3.11282,1.38347 -6.06287,1.38347 z m -0.54932,-18.53449 q -2.48212,0 -4.13008,1.9328 -1.64796,1.91245 -2.46177,5.77804 l 6.24598,-2.9704 q 3.68248,-1.79038 5.24906,-3.11282 -1.74969,-1.62762 -4.90319,-1.62762 z m 32.61337,-0.36621 q -0.24414,2.99075 -0.24414,5.98149 0,6.77496 0.6307,10.23365 0.0407,0.28483 0.0407,0.46794 0,0.8138 -0.56967,1.34278 -0.56966,0.52898 -1.32244,0.52898 -1.2614,0 -1.85141,-1.83107 -1.46486,1.07829 -3.05178,1.62761 -1.56659,0.54932 -3.27558,0.54932 -4.21146,0 -6.97841,-2.80763 -2.84833,-2.86868 -2.84833,-7.36497 0,-5.43217 2.86867,-8.70775 2.88902,-3.27558 7.48704,-3.27558 2.36005,0 3.6418,0.73242 l 1.91245,1.40382 q 0.28483,-8.56533 0.67139,-11.53573 0.26449,-1.81073 1.85141,-1.81073 1.85142,0 1.85142,1.97349 0,2.82798 -0.81381,12.49196 z m -9.03328,0.52898 q -3.41799,0 -5.12699,2.03452 -1.709,2.01417 -1.709,6.08322 0,2.62453 1.85142,4.51663 1.87176,1.89211 4.37422,1.89211 1.70899,0 2.88902,-0.6307 0.69173,-0.36622 2.25832,-1.68866 0.30517,-0.26448 0.59001,-0.6307 l -0.061,-3.51972 0.0203,-2.36004 0.0407,-2.40074 q -0.77312,-1.64796 -2.05487,-2.46177 -1.28175,-0.83415 -3.07213,-0.83415 z m 27.12018,12.36989 q -0.0203,-0.8545 0.56967,-1.38348 0.61036,-0.54932 1.4852,-0.54932 0.99692,0 1.74969,1.13933 1.03761,1.54624 1.85141,2.09556 1.72935,1.13933 5.02527,1.13933 3.15351,0 5.85942,-1.36313 3.45869,-1.74969 3.45869,-4.8625 0,-2.5635 -2.90937,-4.0487 -2.46177,-1.28175 -6.08321,-1.38348 -3.21455,-0.12207 -5.47287,-1.40382 -2.88902,-1.64796 -2.88902,-4.72009 0,-3.62144 4.10974,-6.61219 3.92662,-2.82799 8.11774,-2.82799 1.97348,0 4.4556,0.6714 3.29592,0.87484 3.29592,2.23797 0,1.79038 -1.83107,1.79038 -0.8138,0 -2.84833,-0.42725 -2.03452,-0.44759 -3.1535,-0.42725 -3.17386,0.0407 -5.39149,1.56658 -2.27866,1.56658 -2.27866,3.80456 0,1.68865 3.01109,2.38039 1.11899,0.26449 4.33353,0.48828 4.65906,0.34587 7.28359,2.92971 2.40073,2.36005 2.40073,5.7577 0,4.84216 -4.47594,7.73118 -3.88594,2.50246 -9.01293,2.50246 -3.72318,0 -6.81565,-1.42416 -3.78421,-1.74969 -3.84525,-4.80147 z m 32.87786,-20.69109 q -0.97657,0 -1.68865,-0.69173 -0.71208,-0.69174 -0.71208,-1.66831 0,-0.97657 0.71208,-1.66831 0.71208,-0.69174 1.68865,-0.69174 0.97657,0 1.66831,0.69174 0.71208,0.69174 0.71208,1.66831 0,0.97657 -0.71208,1.66831 -0.69174,0.69173 -1.66831,0.69173 z m 0.91554,16.52032 q 0,1.22071 0.061,3.66214 0.0814,2.42108 0.0814,3.64179 0,0.89519 -0.54933,1.46485 -0.54932,0.56967 -1.44451,0.56967 -0.87484,0 -1.44451,-0.56967 -0.54932,-0.56966 -0.54932,-1.46485 0,-1.22071 -0.0814,-3.64179 -0.061,-2.44143 -0.061,-3.66214 0,-1.91245 0.20345,-4.76078 0.20345,-2.86868 0.20345,-4.78113 0,-0.91553 0.54932,-1.4852 0.56967,-0.56967 1.44451,-0.56967 0.87485,0 1.42417,0.56967 0.56966,0.56967 0.56966,1.4852 0,1.91245 -0.20345,4.78113 -0.20345,2.84833 -0.20345,4.76078 z m 23.66149,-7.22255 q -1.81072,2.17693 -4.63871,6.30701 -3.27558,4.80147 -4.80147,6.7953 2.13625,-0.10172 3.72318,-0.10172 0.79346,0 2.36004,0.30518 1.56658,0.30517 2.36005,0.30517 0.89519,0 1.44451,0.59002 0.56966,0.56966 0.56966,1.46485 0,0.91554 -0.56966,1.4852 -0.54932,0.56967 -1.44451,0.56967 -0.79347,0 -2.36005,-0.30518 -1.56658,-0.30518 -2.36004,-0.30518 -4.57768,0 -8.68741,0.83416 -0.42725,0.0814 -0.75277,0.0814 -1.97349,0 -1.97349,-1.72935 0,-1.01726 1.01726,-1.95314 5.3101,-4.80147 11.55608,-14.95373 -2.70591,0.16276 -3.92662,0.16276 -3.01109,0 -6.18495,-0.46794 -1.81072,-0.26449 -1.81072,-2.01417 0,-0.89519 0.54932,-1.48521 0.54932,-0.61035 1.38347,-0.61035 0.99692,0 3.0111,0.24414 2.01417,0.2238 3.05178,0.2238 1.38347,0 4.15042,-0.18311 2.76695,-0.20345 4.15043,-0.20345 1.72934,0 1.72934,1.42416 0,1.64797 -1.54624,3.51973 z m 15.13684,17.39515 q -4.59802,0 -7.44635,-2.299 -3.11282,-2.54316 -3.11282,-7.12083 0,-5.28976 2.5635,-8.87051 2.7873,-3.90628 7.44635,-3.90628 3.37731,0 5.51355,1.13933 2.62454,1.40382 2.62454,4.31318 0,2.03452 -2.29901,3.70283 -1.01726,0.73243 -4.31319,2.27867 l -7.77187,3.68248 q 1.13933,1.68865 2.82798,2.54315 1.709,0.8545 3.96732,0.8545 1.40382,0 3.29593,-0.52897 2.40073,-0.6714 3.09247,-1.74969 0.69174,-1.09864 1.4852,-1.09864 0.71208,0 1.2614,0.54932 0.56967,0.52897 0.56967,1.24105 0,2.25832 -3.6418,3.88594 -3.11281,1.38347 -6.06287,1.38347 z m -0.54932,-18.53449 q -2.48212,0 -4.13008,1.9328 -1.64796,1.91245 -2.46177,5.77804 l 6.24598,-2.9704 q 3.68248,-1.79038 5.24907,-3.11282 -1.74969,-1.62762 -4.9032,-1.62762 z"
     id="text24"
     style="font-size:41.667px;font-family:ComicSansMS, 'Comic Sans MS', cursive"
     aria-label="Required Size" /><path
     d="m 849.83521,46.180035 q 0,3.570556 -1.00709,6.561279 -1.00708,2.960205 -2.89916,5.096435 -1.89209,2.105713 -4.60816,3.295899 -2.71606,1.159668 -6.16455,1.159668 -3.2959,0 -5.92041,-1.00708 -2.59399,-1.037598 -4.42505,-3.02124 -1.80054,-1.983643 -2.7771,-4.913331 -0.94604,-2.929687 -0.94604,-6.744384 0,-3.570557 1.00708,-6.500244 1.00708,-2.960205 2.89917,-5.065918 1.89209,-2.136231 4.60815,-3.295899 2.71607,-1.190185 6.16455,-1.190185 3.2959,0 5.88989,1.037597 2.62452,1.00708 4.42505,2.990723 1.83106,1.953125 2.7771,4.882812 0.97657,2.929688 0.97657,6.713868 z m -5.43213,0.24414 q 0,-2.838135 -0.64087,-4.943847 -0.61035,-2.136231 -1.77002,-3.540039 -1.15967,-1.434327 -2.83814,-2.136231 -1.64795,-0.732422 -3.69262,-0.732422 -2.38038,0 -4.08936,0.946045 -1.67847,0.915527 -2.7771,2.471924 -1.06811,1.556396 -1.58691,3.631592 -0.48828,2.044677 -0.48828,4.302978 0,2.838135 0.61035,4.974365 0.64087,2.136231 1.80053,3.570557 1.15967,1.403809 2.80762,2.136231 1.64795,0.701904 3.72315,0.701904 2.38037,0 4.05883,-0.915527 1.70899,-0.946045 2.7771,-2.502442 1.09864,-1.556396 1.58692,-3.601074 0.5188,-2.075195 0.5188,-4.364014 z m 37.75024,15.319824 h -4.76074 l -0.18311,-4.943847 q -1.37329,1.586914 -2.62451,2.655029 -1.2207,1.037598 -2.44141,1.678467 -1.2207,0.640869 -2.47192,0.88501 -1.2207,0.274658 -2.59399,0.274658 -4.73023,0 -7.14112,-2.7771 -2.41089,-2.777099 -2.41089,-8.392334 V 31.104351 h 5.31006 v 19.592285 q 0,7.049561 5.31006,7.049561 0.97656,0 1.89209,-0.274658 0.94605,-0.305176 1.95313,-1.007081 1.03759,-0.732421 2.19726,-1.953125 1.19019,-1.220703 2.65503,-3.082275 V 31.104351 h 5.31006 z m 34.42383,-0.427246 q -1.80054,0.457764 -3.72315,0.64087 -1.9226,0.213623 -3.90625,0.213623 -5.76782,0 -8.60595,-2.593995 -2.83814,-2.624511 -2.83814,-8.026123 V 35.559917 h -8.57544 v -4.455566 h 8.57544 v -8.422852 l 5.31006,-1.373291 v 9.796143 h 13.76343 v 4.455566 h -13.76343 v 15.563965 q 0,3.295899 1.7395,4.943848 1.77002,1.617432 5.18799,1.617432 1.46484,0 3.20435,-0.213623 1.7395,-0.244141 3.63159,-0.732422 z M 952.4353,45.874859 q 0,4.089355 -1.15967,7.141113 -1.12915,3.051758 -3.14331,5.065918 -2.01416,2.01416 -4.76074,3.02124 -2.74658,1.00708 -5.95093,1.00708 -1.46484,0 -2.92968,-0.152587 -1.43433,-0.152588 -2.92969,-0.518799 v 12.817383 h -5.31006 V 31.104351 h 4.73023 l 0.33569,5.126953 q 2.28882,-3.14331 4.88281,-4.394531 2.594,-1.281738 5.61524,-1.281738 2.62451,0 4.60815,1.098632 1.98364,1.098633 3.32642,3.112793 1.34277,1.983643 2.01416,4.821778 0.67138,2.807617 0.67138,6.286621 z m -5.43213,0.24414 q 0,-2.410888 -0.36621,-4.425048 -0.33569,-2.014161 -1.09863,-3.448487 -0.76294,-1.434326 -1.95312,-2.227783 -1.19019,-0.823974 -2.83814,-0.823974 -1.00708,0 -2.04468,0.335693 -1.0376,0.305176 -2.16675,1.068115 -1.09863,0.732422 -2.34985,1.983643 -1.2207,1.220703 -2.62451,3.051757 v 14.862061 q 1.46484,0.610352 3.08227,0.976563 1.61744,0.335693 3.17383,0.335693 4.30298,0 6.74439,-2.89917 2.4414,-2.929688 2.4414,-8.789063 z m 38.23853,15.625 h -4.76074 l -0.18311,-4.943847 q -1.37329,1.586914 -2.62451,2.655029 -1.2207,1.037598 -2.44141,1.678467 -1.2207,0.640869 -2.47192,0.88501 -1.2207,0.274658 -2.59399,0.274658 -4.73023,0 -7.14112,-2.7771 -2.41089,-2.777099 -2.41089,-8.392334 V 31.104351 h 5.31006 v 19.592285 q 0,7.049561 5.31006,7.049561 0.97656,0 1.89209,-0.274658 0.94605,-0.305176 1.95313,-1.007081 1.03759,-0.732421 2.19726,-1.953125 1.19019,-1.220703 2.65503,-3.082275 V 31.104351 h 5.31006 z m 34.4238,-0.427246 q -1.8005,0.457764 -3.7231,0.64087 -1.9226,0.213623 -3.9063,0.213623 -5.7678,0 -8.6059,-2.593995 -2.8382,-2.624511 -2.8382,-8.026123 V 35.559917 h -8.5754 v -4.455566 h 8.5754 v -8.422852 l 5.3101,-1.373291 v 9.796143 h 13.7634 v 4.455566 h -13.7634 v 15.563965 q 0,3.295899 1.7395,4.943848 1.77,1.617432 5.188,1.617432 1.4648,0 3.2043,-0.213623 1.7395,-0.244141 3.6316,-0.732422 z m 21.7285,-9.185791 q 1.0376,0 1.9532,0.396729 0.946,0.396728 1.6174,1.098633 0.7019,0.701904 1.0986,1.647949 0.3968,0.915527 0.3968,1.983642 0,1.037598 -0.3968,1.953125 -0.3967,0.915528 -1.0986,1.617432 -0.6714,0.671387 -1.6174,1.068115 -0.9156,0.396729 -1.9532,0.396729 -1.0681,0 -1.9836,-0.396729 -0.9155,-0.396728 -1.6174,-1.068115 -0.6714,-0.701904 -1.0681,-1.617432 -0.3968,-0.915527 -0.3968,-1.953125 0,-1.068115 0.3968,-1.983642 0.3967,-0.946045 1.0681,-1.647949 0.7019,-0.701905 1.6174,-1.098633 0.9155,-0.396729 1.9836,-0.396729 z m 48.4925,-6.256103 q 0,3.814697 -1.0681,6.835937 -1.0376,2.990723 -2.9908,5.096436 -1.9226,2.075195 -4.6997,3.204346 -2.7771,1.098632 -6.2561,1.098632 -2.716,0 -5.5542,-0.518798 -2.8381,-0.518799 -5.6152,-1.64795 v -41.3208 h 5.3101 v 11.871337 l -0.2442,5.67627 q 2.2888,-3.082275 4.8828,-4.333496 2.6245,-1.281738 5.6153,-1.281738 2.6245,0 4.6081,1.098632 1.9837,1.098633 3.3264,3.112793 1.3428,1.983643 2.0142,4.821778 0.6714,2.807617 0.6714,6.286621 z m -5.4322,0.24414 q 0,-2.410888 -0.3662,-4.425048 -0.3357,-2.014161 -1.0986,-3.448487 -0.7629,-1.434326 -1.9531,-2.227783 -1.1902,-0.823974 -2.8382,-0.823974 -1.007,0 -2.0446,0.335693 -1.0376,0.305176 -2.1668,1.068115 -1.0986,0.732422 -2.3498,1.983643 -1.2207,1.220703 -2.6245,3.051757 v 14.862061 q 1.5563,0.610352 3.1738,0.976563 1.6174,0.335693 3.0823,0.335693 1.831,0 3.479,-0.579834 1.6784,-0.579834 2.9296,-1.922608 1.2818,-1.373291 2.0142,-3.601074 0.7629,-2.258301 0.7629,-5.584717 z m 24.0479,-10.620117 h -9.0637 v -4.394531 h 14.4348 v 26.2146 h 9.1247 v 4.425048 h -24.5666 v -4.425048 h 10.0708 z m 1.8616,-17.242431 q 0.885,0 1.6479,0.335693 0.763,0.305176 1.3123,0.88501 0.5798,0.579834 0.885,1.342773 0.3357,0.732422 0.3357,1.617432 0,0.854492 -0.3357,1.617431 -0.3052,0.76294 -0.885,1.342774 -0.5493,0.579834 -1.3123,0.915527 -0.7629,0.305176 -1.6479,0.305176 -0.885,0 -1.648,-0.305176 -0.7629,-0.335693 -1.3428,-0.915527 -0.5493,-0.579834 -0.885,-1.342774 -0.3051,-0.762939 -0.3051,-1.617431 0,-0.88501 0.3051,-1.617432 0.3357,-0.762939 0.885,-1.342773 0.5799,-0.579834 1.3428,-0.88501 0.763,-0.335693 1.648,-0.335693 z m 22.0642,12.8479 h 4.7302 l 0.2136,4.943848 q 1.3428,-1.586914 2.594,-2.624512 1.2512,-1.068115 2.4414,-1.708984 1.2207,-0.64087 2.472,-0.88501 1.2512,-0.274658 2.5939,-0.274658 4.7303,0 7.1412,2.807617 2.4414,2.777099 2.4414,8.392334 v 19.989013 h -5.3101 V 42.182232 q 0,-3.601074 -1.3428,-5.310059 -1.3427,-1.739502 -3.9978,-1.739502 -0.9765,0 -1.9226,0.305176 -0.9155,0.274658 -1.9226,1.00708 -1.0071,0.701905 -2.1973,1.922608 -1.1596,1.220703 -2.6245,3.051757 v 20.324707 h -5.31 z"
     id="text25"
     style="font-size:62.5px;font-family:Consolas, monospace"
     aria-label="output.bin" /><path
     d="M1094.81,351.109l288.705,-0"
     style="fill:none;stroke:#808080;stroke-width:6.25px;stroke-dasharray:6.25,18.75,6.25,18.75;"
     id="path25" /><path
     d="M1094.81,514.337l288.705,0"
     style="fill:none;stroke:#808080;stroke-width:6.25px;stroke-dasharray:6.25,18.75,6.25,18.75;"
     id="path26" /><path
     d="M1094.81,581.949l288.705,0"
     style="fill:none;stroke:#808080;stroke-width:6.25px;stroke-dasharray:6.25,18.75,6.25,18.75;"
     id="path27" /><path
     d="M889.764,514.337l205.049,0"
     style="fill:none;stroke:#0d79f2;stroke-width:2.11px;"
     id="path28" /><path
     d="M889.764,514.337l205.049,0"
     style="fill:none;stroke:#0d79f2;stroke-width:2.11px;"
     id="path29" /><g
     id="g31"><path
       d="M874.088,351.109c-32.133,-0.187 -7.505,115.749 -43.763,115.749"
       style="fill:none;stroke:#808080;stroke-width:6.65px;"
       id="path30" /><path
       d="M874.088,582.607c-32.133,0.187 -7.505,-115.749 -43.763,-115.749"
       style="fill:none;stroke:#808080;stroke-width:6.65px;"
       id="path31" /></g></svg>
